G04 #@! TF.FileFunction,Copper,L1,Top,Signal*
%FSLAX46Y46*%
G04 Gerber Fmt 4.6, Leading zero omitted, Abs format (unit mm)*
G04 Created by KiCad (PCBNEW 4.0.2-stable) date 2016/12/18 4:07:23*
%MOMM*%
G01*
G04 APERTURE LIST*
%ADD10C,0.100000*%
%ADD11R,1.300000X1.300000*%
%ADD12C,1.300000*%
%ADD13O,1.905000X1.117600*%
%ADD14R,1.905000X1.117600*%
%ADD15R,1.727200X1.727200*%
%ADD16O,1.727200X1.727200*%
%ADD17C,4.500000*%
%ADD18O,3.600000X1.400000*%
%ADD19C,1.998980*%
%ADD20C,0.600000*%
%ADD21C,0.250000*%
%ADD22C,0.500000*%
%ADD23C,0.254000*%
G04 APERTURE END LIST*
D10*
D11*
X115240000Y-76000000D03*
D12*
X110240000Y-76000000D03*
D11*
X140600000Y-75500000D03*
D12*
X135600000Y-75500000D03*
D11*
X117780000Y-94450000D03*
D12*
X112780000Y-94450000D03*
D13*
X127940000Y-63970000D03*
D14*
X127940000Y-65240000D03*
D13*
X127940000Y-66510000D03*
X127940000Y-67780000D03*
D15*
X102540000Y-58890000D03*
D16*
X105080000Y-58890000D03*
X102540000Y-61430000D03*
X105080000Y-61430000D03*
X102540000Y-63970000D03*
X105080000Y-63970000D03*
X102540000Y-66510000D03*
X105080000Y-66510000D03*
X102540000Y-69050000D03*
X105080000Y-69050000D03*
X102540000Y-71590000D03*
X105080000Y-71590000D03*
X102540000Y-74130000D03*
X105080000Y-74130000D03*
X102540000Y-76670000D03*
X105080000Y-76670000D03*
X102540000Y-79210000D03*
X105080000Y-79210000D03*
X102540000Y-81750000D03*
X105080000Y-81750000D03*
X102540000Y-84290000D03*
X105080000Y-84290000D03*
X102540000Y-86830000D03*
X105080000Y-86830000D03*
X102540000Y-89370000D03*
X105080000Y-89370000D03*
X102540000Y-91910000D03*
X105080000Y-91910000D03*
D15*
X120320000Y-104610000D03*
D16*
X120320000Y-102070000D03*
X122860000Y-104610000D03*
X122860000Y-102070000D03*
X125400000Y-104610000D03*
X125400000Y-102070000D03*
X127940000Y-104610000D03*
X127940000Y-102070000D03*
X130480000Y-104610000D03*
X130480000Y-102070000D03*
X133020000Y-104610000D03*
X133020000Y-102070000D03*
X135560000Y-104610000D03*
X135560000Y-102070000D03*
X138100000Y-104610000D03*
X138100000Y-102070000D03*
X140640000Y-104610000D03*
X140640000Y-102070000D03*
X143180000Y-104610000D03*
X143180000Y-102070000D03*
X145720000Y-104610000D03*
X145720000Y-102070000D03*
X148260000Y-104610000D03*
X148260000Y-102070000D03*
X150800000Y-104610000D03*
X150800000Y-102070000D03*
X153340000Y-104610000D03*
X153340000Y-102070000D03*
D17*
X104000000Y-54000000D03*
X152000000Y-54000000D03*
D15*
X150800000Y-58890000D03*
D16*
X153340000Y-58890000D03*
X150800000Y-61430000D03*
X153340000Y-61430000D03*
X150800000Y-63970000D03*
X153340000Y-63970000D03*
X150800000Y-66510000D03*
X153340000Y-66510000D03*
X150800000Y-69050000D03*
X153340000Y-69050000D03*
X150800000Y-71590000D03*
X153340000Y-71590000D03*
X150800000Y-74130000D03*
X153340000Y-74130000D03*
X150800000Y-76670000D03*
X153340000Y-76670000D03*
X150800000Y-79210000D03*
X153340000Y-79210000D03*
X150800000Y-81750000D03*
X153340000Y-81750000D03*
X150800000Y-84290000D03*
X153340000Y-84290000D03*
X150800000Y-86830000D03*
X153340000Y-86830000D03*
X150800000Y-89370000D03*
X153340000Y-89370000D03*
X150800000Y-91910000D03*
X153340000Y-91910000D03*
D17*
X104000000Y-96000000D03*
X152000000Y-96000000D03*
D18*
X121000000Y-72500000D03*
X116000000Y-72500000D03*
X111000000Y-72500000D03*
X145000000Y-72500000D03*
X140000000Y-72500000D03*
X135000000Y-72500000D03*
X133000000Y-96500000D03*
X128000000Y-96500000D03*
X123000000Y-96500000D03*
D15*
X102540000Y-104610000D03*
D16*
X102540000Y-102070000D03*
X105080000Y-104610000D03*
X105080000Y-102070000D03*
X107620000Y-104610000D03*
X107620000Y-102070000D03*
X110160000Y-104610000D03*
X110160000Y-102070000D03*
X112700000Y-104610000D03*
X112700000Y-102070000D03*
X115240000Y-104610000D03*
X115240000Y-102070000D03*
X117780000Y-104610000D03*
X117780000Y-102070000D03*
D19*
X116700000Y-80500000D03*
X116700000Y-90660000D03*
X109700000Y-80500000D03*
X109700000Y-90660000D03*
X113200000Y-80500000D03*
X113200000Y-90660000D03*
D20*
X110000000Y-51000000D03*
X107000000Y-51000000D03*
X145000000Y-51000000D03*
X148500000Y-51000000D03*
X155000000Y-57000000D03*
X155000000Y-63000000D03*
X155000000Y-68000000D03*
X155000000Y-73000000D03*
X155000000Y-78000000D03*
X155000000Y-83000000D03*
X155000000Y-88000000D03*
X155000000Y-94000000D03*
X155000000Y-99000000D03*
X119000000Y-100500000D03*
X119000000Y-103000000D03*
X101000000Y-103000000D03*
X101000000Y-98500000D03*
X101000000Y-94000000D03*
X101000000Y-90500000D03*
X101000000Y-85500000D03*
X101000000Y-80500000D03*
X101000000Y-75500000D03*
X101000000Y-70500000D03*
X101000000Y-65000000D03*
X101000000Y-60500000D03*
X101000000Y-57000000D03*
X145000000Y-97500000D03*
X145350000Y-87200000D03*
X137100000Y-76300000D03*
X137100000Y-75500000D03*
X131400000Y-72500000D03*
X132300000Y-72500000D03*
X119500000Y-96500000D03*
X120300000Y-96500000D03*
X114100000Y-95300000D03*
X114100000Y-94400000D03*
X126500000Y-98400000D03*
X127400000Y-98400000D03*
X130700000Y-66500000D03*
X129900000Y-66500000D03*
X146349980Y-76900000D03*
X118500000Y-70000000D03*
X121000000Y-70000000D03*
X118500000Y-74700000D03*
X146700000Y-67000000D03*
D21*
X116000000Y-72500000D02*
X116000000Y-75240000D01*
X116000000Y-75240000D02*
X115240000Y-76000000D01*
X104000000Y-54000000D02*
X107000000Y-51000000D01*
X152000000Y-54000000D02*
X149000000Y-51000000D01*
X149000000Y-51000000D02*
X148500000Y-51000000D01*
X155000000Y-57000000D02*
X152000000Y-54000000D01*
X155000000Y-68000000D02*
X155000000Y-63000000D01*
X155000000Y-78000000D02*
X155000000Y-73000000D01*
X155000000Y-88000000D02*
X155000000Y-83000000D01*
X155000000Y-99000000D02*
X155000000Y-94000000D01*
X127940000Y-102070000D02*
X129128601Y-103258601D01*
X129128601Y-103258601D02*
X131831399Y-103258601D01*
X131831399Y-103258601D02*
X132156401Y-102933599D01*
X132156401Y-102933599D02*
X133020000Y-102070000D01*
X119000000Y-103000000D02*
X119000000Y-100500000D01*
X101000000Y-98500000D02*
X101000000Y-103000000D01*
X101000000Y-90500000D02*
X101000000Y-94000000D01*
X101000000Y-80500000D02*
X101000000Y-85500000D01*
X101000000Y-70500000D02*
X101000000Y-75500000D01*
X101000000Y-60500000D02*
X101000000Y-65000000D01*
X104000000Y-54000000D02*
X101000000Y-57000000D01*
X145000000Y-97500000D02*
X145000000Y-100250000D01*
X145000000Y-87550000D02*
X145000000Y-97500000D01*
X145350000Y-87200000D02*
X145000000Y-87550000D01*
X150800000Y-81750000D02*
X145350000Y-87200000D01*
X137100000Y-75500000D02*
X137100000Y-76300000D01*
X132300000Y-72500000D02*
X131400000Y-72500000D01*
X120300000Y-96500000D02*
X119500000Y-96500000D01*
X114100000Y-94400000D02*
X114100000Y-95300000D01*
X127400000Y-98400000D02*
X126500000Y-98400000D01*
X129900000Y-66500000D02*
X130700000Y-66500000D01*
D22*
X149936401Y-72453599D02*
X149936401Y-73089315D01*
X149936401Y-73089315D02*
X146649979Y-76375737D01*
X150800000Y-71590000D02*
X149936401Y-72453599D01*
X146649979Y-76375737D02*
X146649979Y-76600001D01*
X146649979Y-76600001D02*
X146349980Y-76900000D01*
D21*
X145000000Y-100250000D02*
X143180000Y-102070000D01*
D22*
X127940000Y-102070000D02*
X127940000Y-104610000D01*
D21*
X140000000Y-72500000D02*
X140000000Y-74900000D01*
X140000000Y-74900000D02*
X140600000Y-75500000D01*
X128000000Y-96500000D02*
X128000000Y-95550000D01*
X126900000Y-94450000D02*
X118680000Y-94450000D01*
X128000000Y-95550000D02*
X126900000Y-94450000D01*
X118680000Y-94450000D02*
X117780000Y-94450000D01*
X118552180Y-77800000D02*
X125500000Y-70852180D01*
X125500000Y-70852180D02*
X125500000Y-65207500D01*
X109700000Y-80500000D02*
X112400000Y-77800000D01*
X126737500Y-63970000D02*
X127940000Y-63970000D01*
X125500000Y-65207500D02*
X126737500Y-63970000D01*
X112400000Y-77800000D02*
X118552180Y-77800000D01*
X127546300Y-65240000D02*
X127940000Y-65240000D01*
X126000000Y-66786300D02*
X127546300Y-65240000D01*
X126000000Y-70988590D02*
X126000000Y-66786300D01*
X113200000Y-80500000D02*
X115400000Y-78300000D01*
X118688590Y-78300000D02*
X126000000Y-70988590D01*
X115400000Y-78300000D02*
X118688590Y-78300000D01*
X127940000Y-68588800D02*
X127940000Y-67780000D01*
X116700000Y-80500000D02*
X117125000Y-80500000D01*
X117125000Y-80500000D02*
X127940000Y-69685000D01*
X127940000Y-69685000D02*
X127940000Y-68588800D01*
D22*
X105080000Y-69050000D02*
X105730000Y-68400000D01*
X105730000Y-68400000D02*
X119400000Y-68400000D01*
X119400000Y-68400000D02*
X120700001Y-69700001D01*
X120700001Y-69700001D02*
X121000000Y-70000000D01*
X118500000Y-74700000D02*
X118500000Y-70000000D01*
X121000000Y-72500000D02*
X121000000Y-70000000D01*
D21*
X110453492Y-83000000D02*
X103830000Y-83000000D01*
X103830000Y-83000000D02*
X102540000Y-84290000D01*
X116700000Y-90660000D02*
X116700000Y-89246508D01*
X116700000Y-89246508D02*
X110453492Y-83000000D01*
X109700000Y-85300000D02*
X108690000Y-84290000D01*
X108690000Y-84290000D02*
X105080000Y-84290000D01*
X109700000Y-90660000D02*
X109700000Y-85300000D01*
X113200000Y-90660000D02*
X111160000Y-92700000D01*
X111160000Y-92700000D02*
X108600000Y-92700000D01*
X108600000Y-92700000D02*
X108250011Y-92350011D01*
X108250011Y-92350011D02*
X108250011Y-86750011D01*
X108250011Y-86750011D02*
X107100000Y-85600000D01*
X107100000Y-85600000D02*
X103770000Y-85600000D01*
X103770000Y-85600000D02*
X103403599Y-85966401D01*
X103403599Y-85966401D02*
X102540000Y-86830000D01*
X105080000Y-86830000D02*
X106301314Y-86830000D01*
X107620000Y-100848686D02*
X107620000Y-102070000D01*
X106301314Y-86830000D02*
X107620000Y-88148686D01*
X107620000Y-88148686D02*
X107620000Y-100848686D01*
X107169989Y-88969989D02*
X107169989Y-99980011D01*
X105943599Y-101206401D02*
X105080000Y-102070000D01*
X106218601Y-88018601D02*
X107169989Y-88969989D01*
X103891399Y-88018601D02*
X106218601Y-88018601D01*
X102540000Y-89370000D02*
X103891399Y-88018601D01*
X107169989Y-99980011D02*
X105943599Y-101206401D01*
X105300000Y-100400000D02*
X104210000Y-100400000D01*
X104210000Y-100400000D02*
X102540000Y-102070000D01*
X106700000Y-99000000D02*
X105300000Y-100400000D01*
X106700000Y-90990000D02*
X106700000Y-99000000D01*
X105080000Y-89370000D02*
X106700000Y-90990000D01*
X142200000Y-70400000D02*
X142200000Y-78900000D01*
X147600000Y-64138049D02*
X147600000Y-65100000D01*
X149400000Y-62338049D02*
X147600000Y-64138049D01*
X121183599Y-101206401D02*
X120320000Y-102070000D01*
X142200000Y-78900000D02*
X140300000Y-80800000D01*
X140300000Y-80800000D02*
X140300000Y-93600000D01*
X147500000Y-65100000D02*
X142200000Y-70400000D01*
X150800000Y-58890000D02*
X149400000Y-60290000D01*
X140300000Y-93600000D02*
X134818645Y-99081355D01*
X149400000Y-60290000D02*
X149400000Y-62338049D01*
X147600000Y-65100000D02*
X147500000Y-65100000D01*
X134818645Y-99081355D02*
X123308645Y-99081355D01*
X123308645Y-99081355D02*
X121183599Y-101206401D01*
X121600000Y-101426410D02*
X121600000Y-102900000D01*
X135068634Y-99531366D02*
X123495044Y-99531366D01*
X140800000Y-81000000D02*
X140800000Y-93800000D01*
X142700000Y-79100000D02*
X140800000Y-81000000D01*
X140800000Y-93800000D02*
X135068634Y-99531366D01*
X146700000Y-67000000D02*
X142700000Y-71000000D01*
X123495044Y-99531366D02*
X121600000Y-101426410D01*
X142700000Y-71000000D02*
X142700000Y-79100000D01*
X120320000Y-104610000D02*
X121600000Y-103330000D01*
X121600000Y-103330000D02*
X121600000Y-102900000D01*
X121600000Y-102900000D02*
X121600000Y-103000000D01*
X135318623Y-99981377D02*
X124948623Y-99981377D01*
X150800000Y-61430000D02*
X149936401Y-62293599D01*
X148100000Y-64274459D02*
X148100000Y-72300000D01*
X149936401Y-62293599D02*
X149936401Y-62438058D01*
X148100000Y-72300000D02*
X144824956Y-75575044D01*
X149936401Y-62438058D02*
X148100000Y-64274459D01*
X124948623Y-99981377D02*
X123723599Y-101206401D01*
X144824956Y-77675044D02*
X141300000Y-81200000D01*
X144824956Y-75575044D02*
X144824956Y-77675044D01*
X141300000Y-81200000D02*
X141300000Y-94000000D01*
X141300000Y-94000000D02*
X135318623Y-99981377D01*
X123723599Y-101206401D02*
X122860000Y-102070000D01*
X123723599Y-103746401D02*
X122860000Y-104610000D01*
X148600000Y-72436410D02*
X145274967Y-75761443D01*
X150310870Y-62700000D02*
X148600000Y-64410870D01*
X153340000Y-61430000D02*
X152070000Y-62700000D01*
X152070000Y-62700000D02*
X150310870Y-62700000D01*
X141800000Y-94200000D02*
X135568612Y-100431388D01*
X148600000Y-64410870D02*
X148600000Y-72436410D01*
X145274967Y-77925033D02*
X141800000Y-81400000D01*
X124200000Y-101366410D02*
X124200000Y-103270000D01*
X125135022Y-100431388D02*
X124200000Y-101366410D01*
X124200000Y-103270000D02*
X123723599Y-103746401D01*
X141800000Y-81400000D02*
X141800000Y-94200000D01*
X145274967Y-75761443D02*
X145274967Y-77925033D01*
X135568612Y-100431388D02*
X125135022Y-100431388D01*
X150350870Y-65200000D02*
X149100000Y-66450870D01*
X145724978Y-75947843D02*
X145724978Y-78175022D01*
X126263599Y-103746401D02*
X125400000Y-104610000D01*
X142300000Y-81600000D02*
X142300000Y-94400000D01*
X142300000Y-94400000D02*
X135818601Y-100881399D01*
X149100000Y-66450870D02*
X149100000Y-72572821D01*
X145724978Y-78175022D02*
X142300000Y-81600000D01*
X127318601Y-100881399D02*
X126700000Y-101500000D01*
X126700000Y-103310000D02*
X126263599Y-103746401D01*
X135818601Y-100881399D02*
X127318601Y-100881399D01*
X152110000Y-65200000D02*
X150350870Y-65200000D01*
X149100000Y-72572821D02*
X145724978Y-75947843D01*
X153340000Y-63970000D02*
X152110000Y-65200000D01*
X126700000Y-101500000D02*
X126700000Y-103310000D01*
X150800000Y-74130000D02*
X142900000Y-82030000D01*
X142900000Y-82030000D02*
X142900000Y-94730000D01*
X142900000Y-94730000D02*
X135560000Y-102070000D01*
X150800000Y-76670000D02*
X143600000Y-83870000D01*
X143600000Y-83870000D02*
X143600000Y-96570000D01*
X143600000Y-96570000D02*
X138100000Y-102070000D01*
X150800000Y-79210000D02*
X150790000Y-79210000D01*
X144400000Y-97088686D02*
X140640000Y-100848686D01*
X150790000Y-79210000D02*
X144400000Y-85600000D01*
X144400000Y-85600000D02*
X144400000Y-97088686D01*
X140640000Y-100848686D02*
X140640000Y-102070000D01*
X150800000Y-84290000D02*
X145720000Y-89370000D01*
X145720000Y-89370000D02*
X145720000Y-102070000D01*
X150800000Y-86830000D02*
X146600000Y-91030000D01*
X146600000Y-91030000D02*
X146600000Y-98200000D01*
X146600000Y-98200000D02*
X148260000Y-99860000D01*
X148260000Y-99860000D02*
X148260000Y-102070000D01*
X150800000Y-89370000D02*
X149578686Y-89370000D01*
X149578686Y-89370000D02*
X147500000Y-91448686D01*
X147500000Y-91448686D02*
X147500000Y-97600000D01*
X147500000Y-97600000D02*
X150800000Y-100900000D01*
X150800000Y-100900000D02*
X150800000Y-102070000D01*
X152500000Y-99300000D02*
X153340000Y-100140000D01*
X153340000Y-100140000D02*
X153340000Y-102070000D01*
X150400000Y-99300000D02*
X152500000Y-99300000D01*
X148500000Y-97400000D02*
X150400000Y-99300000D01*
X148500000Y-92988686D02*
X148500000Y-97400000D01*
X150800000Y-91910000D02*
X149578686Y-91910000D01*
X149578686Y-91910000D02*
X148500000Y-92988686D01*
D23*
G36*
X109487547Y-52487547D02*
X107491070Y-55475486D01*
X106790000Y-59000000D01*
X107491070Y-62524514D01*
X109487547Y-65512453D01*
X112475486Y-67508930D01*
X112506002Y-67515000D01*
X106152704Y-67515000D01*
X106362688Y-67284947D01*
X106534958Y-66869026D01*
X106413817Y-66637000D01*
X105207000Y-66637000D01*
X105207000Y-66657000D01*
X104953000Y-66657000D01*
X104953000Y-66637000D01*
X102667000Y-66637000D01*
X102667000Y-66657000D01*
X102413000Y-66657000D01*
X102413000Y-66637000D01*
X101206183Y-66637000D01*
X101085042Y-66869026D01*
X101257312Y-67284947D01*
X101651510Y-67716821D01*
X101774228Y-67774336D01*
X101450971Y-67990330D01*
X101126115Y-68476511D01*
X101012041Y-69050000D01*
X101126115Y-69623489D01*
X101450971Y-70109670D01*
X101774228Y-70325664D01*
X101651510Y-70383179D01*
X101257312Y-70815053D01*
X101085042Y-71230974D01*
X101206183Y-71463000D01*
X102413000Y-71463000D01*
X102413000Y-71443000D01*
X102667000Y-71443000D01*
X102667000Y-71463000D01*
X104953000Y-71463000D01*
X104953000Y-71443000D01*
X105207000Y-71443000D01*
X105207000Y-71463000D01*
X106413817Y-71463000D01*
X106534958Y-71230974D01*
X106362688Y-70815053D01*
X105968490Y-70383179D01*
X105845772Y-70325664D01*
X106169029Y-70109670D01*
X106493885Y-69623489D01*
X106561215Y-69285000D01*
X117892804Y-69285000D01*
X117707808Y-69469673D01*
X117565162Y-69813201D01*
X117564838Y-70185167D01*
X117615000Y-70306569D01*
X117615000Y-71257951D01*
X117147704Y-71165000D01*
X114852296Y-71165000D01*
X114341414Y-71266621D01*
X113908308Y-71556012D01*
X113618917Y-71989118D01*
X113517296Y-72500000D01*
X113618917Y-73010882D01*
X113908308Y-73443988D01*
X114341414Y-73733379D01*
X114852296Y-73835000D01*
X115240000Y-73835000D01*
X115240000Y-74702560D01*
X114590000Y-74702560D01*
X114354683Y-74746838D01*
X114138559Y-74885910D01*
X113993569Y-75098110D01*
X113942560Y-75350000D01*
X113942560Y-76650000D01*
X113986838Y-76885317D01*
X114086374Y-77040000D01*
X112400000Y-77040000D01*
X112109161Y-77097852D01*
X111862599Y-77262599D01*
X110191083Y-78934115D01*
X110026547Y-78865794D01*
X109376306Y-78865226D01*
X108775345Y-79113538D01*
X108315154Y-79572927D01*
X108065794Y-80173453D01*
X108065226Y-80823694D01*
X108313538Y-81424655D01*
X108772927Y-81884846D01*
X109373453Y-82134206D01*
X110023694Y-82134774D01*
X110624655Y-81886462D01*
X111084846Y-81427073D01*
X111334206Y-80826547D01*
X111334774Y-80176306D01*
X111265691Y-80009111D01*
X112714802Y-78560000D01*
X114065198Y-78560000D01*
X113691083Y-78934115D01*
X113526547Y-78865794D01*
X112876306Y-78865226D01*
X112275345Y-79113538D01*
X111815154Y-79572927D01*
X111565794Y-80173453D01*
X111565226Y-80823694D01*
X111813538Y-81424655D01*
X112272927Y-81884846D01*
X112873453Y-82134206D01*
X113523694Y-82134774D01*
X114124655Y-81886462D01*
X114584846Y-81427073D01*
X114834206Y-80826547D01*
X114834774Y-80176306D01*
X114765691Y-80009111D01*
X115714802Y-79060000D01*
X115904917Y-79060000D01*
X115775345Y-79113538D01*
X115315154Y-79572927D01*
X115065794Y-80173453D01*
X115065226Y-80823694D01*
X115313538Y-81424655D01*
X115772927Y-81884846D01*
X116373453Y-82134206D01*
X117023694Y-82134774D01*
X117624655Y-81886462D01*
X118084846Y-81427073D01*
X118334206Y-80826547D01*
X118334609Y-80365193D01*
X119975991Y-78723811D01*
X119477495Y-79469863D01*
X118775307Y-83000000D01*
X119477495Y-86530137D01*
X121477157Y-89522843D01*
X124469863Y-91522505D01*
X128000000Y-92224693D01*
X131530137Y-91522505D01*
X134522843Y-89522843D01*
X136522505Y-86530137D01*
X137224693Y-83000000D01*
X136522505Y-79469863D01*
X134522843Y-76477157D01*
X134405897Y-76399016D01*
X134880590Y-76399016D01*
X134936271Y-76629611D01*
X135419078Y-76797622D01*
X135929428Y-76768083D01*
X136263729Y-76629611D01*
X136319410Y-76399016D01*
X135600000Y-75679605D01*
X134880590Y-76399016D01*
X134405897Y-76399016D01*
X132789656Y-75319078D01*
X134302378Y-75319078D01*
X134331917Y-75829428D01*
X134470389Y-76163729D01*
X134700984Y-76219410D01*
X135420395Y-75500000D01*
X135779605Y-75500000D01*
X136499016Y-76219410D01*
X136729611Y-76163729D01*
X136897622Y-75680922D01*
X136868083Y-75170572D01*
X136729611Y-74836271D01*
X136499016Y-74780590D01*
X135779605Y-75500000D01*
X135420395Y-75500000D01*
X134700984Y-74780590D01*
X134470389Y-74836271D01*
X134302378Y-75319078D01*
X132789656Y-75319078D01*
X131714952Y-74600984D01*
X134880590Y-74600984D01*
X135600000Y-75320395D01*
X136319410Y-74600984D01*
X136263729Y-74370389D01*
X135780922Y-74202378D01*
X135270572Y-74231917D01*
X134936271Y-74370389D01*
X134880590Y-74600984D01*
X131714952Y-74600984D01*
X131530137Y-74477495D01*
X128000000Y-73775307D01*
X124469863Y-74477495D01*
X123723811Y-74975991D01*
X125866473Y-72833329D01*
X132607284Y-72833329D01*
X132618020Y-72893550D01*
X132866210Y-73354185D01*
X133271785Y-73684778D01*
X133773000Y-73835000D01*
X134873000Y-73835000D01*
X134873000Y-72627000D01*
X135127000Y-72627000D01*
X135127000Y-73835000D01*
X136227000Y-73835000D01*
X136728215Y-73684778D01*
X137133790Y-73354185D01*
X137381980Y-72893550D01*
X137392716Y-72833329D01*
X137269374Y-72627000D01*
X135127000Y-72627000D01*
X134873000Y-72627000D01*
X132730626Y-72627000D01*
X132607284Y-72833329D01*
X125866473Y-72833329D01*
X126533131Y-72166671D01*
X132607284Y-72166671D01*
X132730626Y-72373000D01*
X134873000Y-72373000D01*
X134873000Y-71165000D01*
X135127000Y-71165000D01*
X135127000Y-72373000D01*
X137269374Y-72373000D01*
X137392716Y-72166671D01*
X137381980Y-72106450D01*
X137133790Y-71645815D01*
X136728215Y-71315222D01*
X136227000Y-71165000D01*
X135127000Y-71165000D01*
X134873000Y-71165000D01*
X133773000Y-71165000D01*
X133271785Y-71315222D01*
X132866210Y-71645815D01*
X132618020Y-72106450D01*
X132607284Y-72166671D01*
X126533131Y-72166671D01*
X128477401Y-70222401D01*
X128642148Y-69975839D01*
X128700000Y-69685000D01*
X128700000Y-68907124D01*
X128821648Y-68882927D01*
X129208945Y-68624144D01*
X129467728Y-68236847D01*
X129558601Y-67780000D01*
X129467728Y-67323153D01*
X129338356Y-67129533D01*
X129485229Y-66849515D01*
X129486244Y-66821128D01*
X129360929Y-66637000D01*
X128620188Y-66637000D01*
X128364801Y-66586200D01*
X127793000Y-66586200D01*
X127793000Y-66446240D01*
X128892500Y-66446240D01*
X129127817Y-66401962D01*
X129157285Y-66383000D01*
X129360929Y-66383000D01*
X129486244Y-66198872D01*
X129485229Y-66170485D01*
X129451290Y-66105779D01*
X129488931Y-66050690D01*
X129539940Y-65798800D01*
X129539940Y-64681200D01*
X129495662Y-64445883D01*
X129471432Y-64408228D01*
X129558601Y-63970000D01*
X129467728Y-63513153D01*
X129208945Y-63125856D01*
X128821648Y-62867073D01*
X128364801Y-62776200D01*
X127515199Y-62776200D01*
X127058352Y-62867073D01*
X126671055Y-63125856D01*
X126596029Y-63238140D01*
X126446660Y-63267852D01*
X126200099Y-63432599D01*
X124962599Y-64670099D01*
X124797852Y-64916661D01*
X124740000Y-65207500D01*
X124740000Y-70537378D01*
X123343903Y-71933475D01*
X123091692Y-71556012D01*
X122658586Y-71266621D01*
X122147704Y-71165000D01*
X121885000Y-71165000D01*
X121885000Y-70306822D01*
X121934838Y-70186799D01*
X121935162Y-69814833D01*
X121793117Y-69471057D01*
X121530327Y-69207808D01*
X121409014Y-69157434D01*
X121325791Y-69074211D01*
X121325788Y-69074209D01*
X120025790Y-67774210D01*
X119738675Y-67582367D01*
X119682484Y-67571190D01*
X119447001Y-67524348D01*
X119524514Y-67508930D01*
X122512453Y-65512453D01*
X124508930Y-62524514D01*
X125210000Y-59000000D01*
X124508930Y-55475486D01*
X122512453Y-52487547D01*
X119852166Y-50710000D01*
X136147834Y-50710000D01*
X133487547Y-52487547D01*
X131491070Y-55475486D01*
X130790000Y-59000000D01*
X131491070Y-62524514D01*
X133487547Y-65512453D01*
X136475486Y-67508930D01*
X140000000Y-68210000D01*
X143524514Y-67508930D01*
X145006498Y-66518700D01*
X141662599Y-69862599D01*
X141497852Y-70109161D01*
X141440000Y-70400000D01*
X141440000Y-71223141D01*
X141147704Y-71165000D01*
X138852296Y-71165000D01*
X138341414Y-71266621D01*
X137908308Y-71556012D01*
X137618917Y-71989118D01*
X137517296Y-72500000D01*
X137618917Y-73010882D01*
X137908308Y-73443988D01*
X138341414Y-73733379D01*
X138852296Y-73835000D01*
X139240000Y-73835000D01*
X139240000Y-74900000D01*
X139297852Y-75190839D01*
X139302560Y-75197885D01*
X139302560Y-76150000D01*
X139346838Y-76385317D01*
X139485910Y-76601441D01*
X139698110Y-76746431D01*
X139950000Y-76797440D01*
X141250000Y-76797440D01*
X141440000Y-76761689D01*
X141440000Y-78585198D01*
X139762599Y-80262599D01*
X139597852Y-80509161D01*
X139540000Y-80800000D01*
X139540000Y-93285198D01*
X134503843Y-98321355D01*
X123308645Y-98321355D01*
X123017806Y-98379207D01*
X122771244Y-98543954D01*
X120697973Y-100617225D01*
X120320000Y-100542041D01*
X119746511Y-100656115D01*
X119260330Y-100980971D01*
X119050000Y-101295752D01*
X118839670Y-100980971D01*
X118353489Y-100656115D01*
X117780000Y-100542041D01*
X117206511Y-100656115D01*
X116720330Y-100980971D01*
X116510000Y-101295752D01*
X116299670Y-100980971D01*
X115813489Y-100656115D01*
X115240000Y-100542041D01*
X114666511Y-100656115D01*
X114180330Y-100980971D01*
X113970000Y-101295752D01*
X113759670Y-100980971D01*
X113273489Y-100656115D01*
X112700000Y-100542041D01*
X112126511Y-100656115D01*
X111640330Y-100980971D01*
X111430000Y-101295752D01*
X111219670Y-100980971D01*
X110733489Y-100656115D01*
X110160000Y-100542041D01*
X109586511Y-100656115D01*
X109100330Y-100980971D01*
X108890000Y-101295752D01*
X108679670Y-100980971D01*
X108380000Y-100780738D01*
X108380000Y-96833329D01*
X120607284Y-96833329D01*
X120618020Y-96893550D01*
X120866210Y-97354185D01*
X121271785Y-97684778D01*
X121773000Y-97835000D01*
X122873000Y-97835000D01*
X122873000Y-96627000D01*
X123127000Y-96627000D01*
X123127000Y-97835000D01*
X124227000Y-97835000D01*
X124728215Y-97684778D01*
X125133790Y-97354185D01*
X125381980Y-96893550D01*
X125392716Y-96833329D01*
X125269374Y-96627000D01*
X123127000Y-96627000D01*
X122873000Y-96627000D01*
X120730626Y-96627000D01*
X120607284Y-96833329D01*
X108380000Y-96833329D01*
X108380000Y-95349016D01*
X112060590Y-95349016D01*
X112116271Y-95579611D01*
X112599078Y-95747622D01*
X113109428Y-95718083D01*
X113443729Y-95579611D01*
X113499410Y-95349016D01*
X112780000Y-94629605D01*
X112060590Y-95349016D01*
X108380000Y-95349016D01*
X108380000Y-94269078D01*
X111482378Y-94269078D01*
X111511917Y-94779428D01*
X111650389Y-95113729D01*
X111880984Y-95169410D01*
X112600395Y-94450000D01*
X112959605Y-94450000D01*
X113679016Y-95169410D01*
X113909611Y-95113729D01*
X114077622Y-94630922D01*
X114048083Y-94120572D01*
X113915298Y-93800000D01*
X116482560Y-93800000D01*
X116482560Y-95100000D01*
X116526838Y-95335317D01*
X116665910Y-95551441D01*
X116878110Y-95696431D01*
X117130000Y-95747440D01*
X118430000Y-95747440D01*
X118665317Y-95703162D01*
X118881441Y-95564090D01*
X119026431Y-95351890D01*
X119055164Y-95210000D01*
X121622858Y-95210000D01*
X121271785Y-95315222D01*
X120866210Y-95645815D01*
X120618020Y-96106450D01*
X120607284Y-96166671D01*
X120730626Y-96373000D01*
X122873000Y-96373000D01*
X122873000Y-96353000D01*
X123127000Y-96353000D01*
X123127000Y-96373000D01*
X125269374Y-96373000D01*
X125392716Y-96166671D01*
X125381980Y-96106450D01*
X125133790Y-95645815D01*
X124728215Y-95315222D01*
X124377142Y-95210000D01*
X126585198Y-95210000D01*
X126591978Y-95216780D01*
X126341414Y-95266621D01*
X125908308Y-95556012D01*
X125618917Y-95989118D01*
X125517296Y-96500000D01*
X125618917Y-97010882D01*
X125908308Y-97443988D01*
X126341414Y-97733379D01*
X126852296Y-97835000D01*
X129147704Y-97835000D01*
X129658586Y-97733379D01*
X130091692Y-97443988D01*
X130381083Y-97010882D01*
X130482704Y-96500000D01*
X130517296Y-96500000D01*
X130618917Y-97010882D01*
X130908308Y-97443988D01*
X131341414Y-97733379D01*
X131852296Y-97835000D01*
X134147704Y-97835000D01*
X134658586Y-97733379D01*
X135091692Y-97443988D01*
X135381083Y-97010882D01*
X135482704Y-96500000D01*
X135381083Y-95989118D01*
X135091692Y-95556012D01*
X134658586Y-95266621D01*
X134147704Y-95165000D01*
X131852296Y-95165000D01*
X131341414Y-95266621D01*
X130908308Y-95556012D01*
X130618917Y-95989118D01*
X130517296Y-96500000D01*
X130482704Y-96500000D01*
X130381083Y-95989118D01*
X130091692Y-95556012D01*
X129658586Y-95266621D01*
X129147704Y-95165000D01*
X128639232Y-95165000D01*
X128537401Y-95012599D01*
X127437401Y-93912599D01*
X127190839Y-93747852D01*
X126900000Y-93690000D01*
X119056742Y-93690000D01*
X119033162Y-93564683D01*
X118894090Y-93348559D01*
X118681890Y-93203569D01*
X118430000Y-93152560D01*
X117130000Y-93152560D01*
X116894683Y-93196838D01*
X116678559Y-93335910D01*
X116533569Y-93548110D01*
X116482560Y-93800000D01*
X113915298Y-93800000D01*
X113909611Y-93786271D01*
X113679016Y-93730590D01*
X112959605Y-94450000D01*
X112600395Y-94450000D01*
X111880984Y-93730590D01*
X111650389Y-93786271D01*
X111482378Y-94269078D01*
X108380000Y-94269078D01*
X108380000Y-93550984D01*
X112060590Y-93550984D01*
X112780000Y-94270395D01*
X113499410Y-93550984D01*
X113443729Y-93320389D01*
X112960922Y-93152378D01*
X112450572Y-93181917D01*
X112116271Y-93320389D01*
X112060590Y-93550984D01*
X108380000Y-93550984D01*
X108380000Y-93416239D01*
X108600000Y-93460000D01*
X111160000Y-93460000D01*
X111450839Y-93402148D01*
X111697401Y-93237401D01*
X112708917Y-92225885D01*
X112873453Y-92294206D01*
X113523694Y-92294774D01*
X114124655Y-92046462D01*
X114584846Y-91587073D01*
X114834206Y-90986547D01*
X114834774Y-90336306D01*
X114586462Y-89735345D01*
X114127073Y-89275154D01*
X113526547Y-89025794D01*
X112876306Y-89025226D01*
X112275345Y-89273538D01*
X111815154Y-89732927D01*
X111565794Y-90333453D01*
X111565226Y-90983694D01*
X111634309Y-91150889D01*
X110845198Y-91940000D01*
X110731303Y-91940000D01*
X111084846Y-91587073D01*
X111334206Y-90986547D01*
X111334774Y-90336306D01*
X111086462Y-89735345D01*
X110627073Y-89275154D01*
X110460000Y-89205779D01*
X110460000Y-85300000D01*
X110402148Y-85009161D01*
X110237401Y-84762599D01*
X109234802Y-83760000D01*
X110138690Y-83760000D01*
X115713733Y-89335043D01*
X115315154Y-89732927D01*
X115065794Y-90333453D01*
X115065226Y-90983694D01*
X115313538Y-91584655D01*
X115772927Y-92044846D01*
X116373453Y-92294206D01*
X117023694Y-92294774D01*
X117624655Y-92046462D01*
X118084846Y-91587073D01*
X118334206Y-90986547D01*
X118334774Y-90336306D01*
X118086462Y-89735345D01*
X117627073Y-89275154D01*
X117451169Y-89202112D01*
X117413149Y-89010974D01*
X117402148Y-88955668D01*
X117237401Y-88709107D01*
X110990893Y-82462599D01*
X110744331Y-82297852D01*
X110453492Y-82240000D01*
X106510492Y-82240000D01*
X106607959Y-81750000D01*
X106493885Y-81176511D01*
X106169029Y-80690330D01*
X105854248Y-80480000D01*
X106169029Y-80269670D01*
X106493885Y-79783489D01*
X106607959Y-79210000D01*
X106493885Y-78636511D01*
X106169029Y-78150330D01*
X105854248Y-77940000D01*
X106169029Y-77729670D01*
X106493885Y-77243489D01*
X106562404Y-76899016D01*
X109520590Y-76899016D01*
X109576271Y-77129611D01*
X110059078Y-77297622D01*
X110569428Y-77268083D01*
X110903729Y-77129611D01*
X110959410Y-76899016D01*
X110240000Y-76179605D01*
X109520590Y-76899016D01*
X106562404Y-76899016D01*
X106607959Y-76670000D01*
X106493885Y-76096511D01*
X106308511Y-75819078D01*
X108942378Y-75819078D01*
X108971917Y-76329428D01*
X109110389Y-76663729D01*
X109340984Y-76719410D01*
X110060395Y-76000000D01*
X110419605Y-76000000D01*
X111139016Y-76719410D01*
X111369611Y-76663729D01*
X111537622Y-76180922D01*
X111508083Y-75670572D01*
X111369611Y-75336271D01*
X111139016Y-75280590D01*
X110419605Y-76000000D01*
X110060395Y-76000000D01*
X109340984Y-75280590D01*
X109110389Y-75336271D01*
X108942378Y-75819078D01*
X106308511Y-75819078D01*
X106169029Y-75610330D01*
X105854248Y-75400000D01*
X106169029Y-75189670D01*
X106228287Y-75100984D01*
X109520590Y-75100984D01*
X110240000Y-75820395D01*
X110959410Y-75100984D01*
X110903729Y-74870389D01*
X110420922Y-74702378D01*
X109910572Y-74731917D01*
X109576271Y-74870389D01*
X109520590Y-75100984D01*
X106228287Y-75100984D01*
X106493885Y-74703489D01*
X106607959Y-74130000D01*
X106493885Y-73556511D01*
X106169029Y-73070330D01*
X105845772Y-72854336D01*
X105890593Y-72833329D01*
X108607284Y-72833329D01*
X108618020Y-72893550D01*
X108866210Y-73354185D01*
X109271785Y-73684778D01*
X109773000Y-73835000D01*
X110873000Y-73835000D01*
X110873000Y-72627000D01*
X111127000Y-72627000D01*
X111127000Y-73835000D01*
X112227000Y-73835000D01*
X112728215Y-73684778D01*
X113133790Y-73354185D01*
X113381980Y-72893550D01*
X113392716Y-72833329D01*
X113269374Y-72627000D01*
X111127000Y-72627000D01*
X110873000Y-72627000D01*
X108730626Y-72627000D01*
X108607284Y-72833329D01*
X105890593Y-72833329D01*
X105968490Y-72796821D01*
X106362688Y-72364947D01*
X106444811Y-72166671D01*
X108607284Y-72166671D01*
X108730626Y-72373000D01*
X110873000Y-72373000D01*
X110873000Y-71165000D01*
X111127000Y-71165000D01*
X111127000Y-72373000D01*
X113269374Y-72373000D01*
X113392716Y-72166671D01*
X113381980Y-72106450D01*
X113133790Y-71645815D01*
X112728215Y-71315222D01*
X112227000Y-71165000D01*
X111127000Y-71165000D01*
X110873000Y-71165000D01*
X109773000Y-71165000D01*
X109271785Y-71315222D01*
X108866210Y-71645815D01*
X108618020Y-72106450D01*
X108607284Y-72166671D01*
X106444811Y-72166671D01*
X106534958Y-71949026D01*
X106413817Y-71717000D01*
X105207000Y-71717000D01*
X105207000Y-71737000D01*
X104953000Y-71737000D01*
X104953000Y-71717000D01*
X102667000Y-71717000D01*
X102667000Y-71737000D01*
X102413000Y-71737000D01*
X102413000Y-71717000D01*
X101206183Y-71717000D01*
X101085042Y-71949026D01*
X101257312Y-72364947D01*
X101651510Y-72796821D01*
X101774228Y-72854336D01*
X101450971Y-73070330D01*
X101126115Y-73556511D01*
X101012041Y-74130000D01*
X101126115Y-74703489D01*
X101450971Y-75189670D01*
X101765752Y-75400000D01*
X101450971Y-75610330D01*
X101126115Y-76096511D01*
X101012041Y-76670000D01*
X101126115Y-77243489D01*
X101450971Y-77729670D01*
X101765752Y-77940000D01*
X101450971Y-78150330D01*
X101126115Y-78636511D01*
X101012041Y-79210000D01*
X101126115Y-79783489D01*
X101450971Y-80269670D01*
X101765752Y-80480000D01*
X101450971Y-80690330D01*
X101126115Y-81176511D01*
X101012041Y-81750000D01*
X101126115Y-82323489D01*
X101450971Y-82809670D01*
X101765752Y-83020000D01*
X101450971Y-83230330D01*
X101126115Y-83716511D01*
X101012041Y-84290000D01*
X101126115Y-84863489D01*
X101450971Y-85349670D01*
X101765752Y-85560000D01*
X101450971Y-85770330D01*
X101126115Y-86256511D01*
X101012041Y-86830000D01*
X101126115Y-87403489D01*
X101450971Y-87889670D01*
X101765752Y-88100000D01*
X101450971Y-88310330D01*
X101126115Y-88796511D01*
X101012041Y-89370000D01*
X101126115Y-89943489D01*
X101450971Y-90429670D01*
X101765752Y-90640000D01*
X101450971Y-90850330D01*
X101126115Y-91336511D01*
X101012041Y-91910000D01*
X101126115Y-92483489D01*
X101450971Y-92969670D01*
X101937152Y-93294526D01*
X102510641Y-93408600D01*
X102569359Y-93408600D01*
X103142848Y-93294526D01*
X103629029Y-92969670D01*
X103810000Y-92698828D01*
X103990971Y-92969670D01*
X104477152Y-93294526D01*
X105050641Y-93408600D01*
X105109359Y-93408600D01*
X105682848Y-93294526D01*
X105940000Y-93122702D01*
X105940000Y-98685198D01*
X104985198Y-99640000D01*
X104210000Y-99640000D01*
X103919161Y-99697852D01*
X103672599Y-99862599D01*
X102917973Y-100617225D01*
X102540000Y-100542041D01*
X101966511Y-100656115D01*
X101480330Y-100980971D01*
X101155474Y-101467152D01*
X101041400Y-102040641D01*
X101041400Y-102099359D01*
X101155474Y-102672848D01*
X101470526Y-103144356D01*
X101316701Y-103208073D01*
X101138073Y-103386702D01*
X101041400Y-103620091D01*
X101041400Y-104324250D01*
X101200150Y-104483000D01*
X102413000Y-104483000D01*
X102413000Y-104463000D01*
X102667000Y-104463000D01*
X102667000Y-104483000D01*
X104953000Y-104483000D01*
X104953000Y-104463000D01*
X105207000Y-104463000D01*
X105207000Y-104483000D01*
X107493000Y-104483000D01*
X107493000Y-104463000D01*
X107747000Y-104463000D01*
X107747000Y-104483000D01*
X110033000Y-104483000D01*
X110033000Y-104463000D01*
X110287000Y-104463000D01*
X110287000Y-104483000D01*
X112573000Y-104483000D01*
X112573000Y-104463000D01*
X112827000Y-104463000D01*
X112827000Y-104483000D01*
X115113000Y-104483000D01*
X115113000Y-104463000D01*
X115367000Y-104463000D01*
X115367000Y-104483000D01*
X117653000Y-104483000D01*
X117653000Y-104463000D01*
X117907000Y-104463000D01*
X117907000Y-104483000D01*
X117927000Y-104483000D01*
X117927000Y-104737000D01*
X117907000Y-104737000D01*
X117907000Y-104757000D01*
X117653000Y-104757000D01*
X117653000Y-104737000D01*
X115367000Y-104737000D01*
X115367000Y-104757000D01*
X115113000Y-104757000D01*
X115113000Y-104737000D01*
X112827000Y-104737000D01*
X112827000Y-104757000D01*
X112573000Y-104757000D01*
X112573000Y-104737000D01*
X110287000Y-104737000D01*
X110287000Y-104757000D01*
X110033000Y-104757000D01*
X110033000Y-104737000D01*
X107747000Y-104737000D01*
X107747000Y-104757000D01*
X107493000Y-104757000D01*
X107493000Y-104737000D01*
X105207000Y-104737000D01*
X105207000Y-104757000D01*
X104953000Y-104757000D01*
X104953000Y-104737000D01*
X102667000Y-104737000D01*
X102667000Y-104757000D01*
X102413000Y-104757000D01*
X102413000Y-104737000D01*
X101200150Y-104737000D01*
X101041400Y-104895750D01*
X101041400Y-105290000D01*
X100710000Y-105290000D01*
X100710000Y-64329026D01*
X101085042Y-64329026D01*
X101257312Y-64744947D01*
X101651510Y-65176821D01*
X101786313Y-65240000D01*
X101651510Y-65303179D01*
X101257312Y-65735053D01*
X101085042Y-66150974D01*
X101206183Y-66383000D01*
X102413000Y-66383000D01*
X102413000Y-64097000D01*
X102667000Y-64097000D01*
X102667000Y-66383000D01*
X104953000Y-66383000D01*
X104953000Y-64097000D01*
X105207000Y-64097000D01*
X105207000Y-66383000D01*
X106413817Y-66383000D01*
X106534958Y-66150974D01*
X106362688Y-65735053D01*
X105968490Y-65303179D01*
X105833687Y-65240000D01*
X105968490Y-65176821D01*
X106362688Y-64744947D01*
X106534958Y-64329026D01*
X106413817Y-64097000D01*
X105207000Y-64097000D01*
X104953000Y-64097000D01*
X102667000Y-64097000D01*
X102413000Y-64097000D01*
X101206183Y-64097000D01*
X101085042Y-64329026D01*
X100710000Y-64329026D01*
X100710000Y-61430000D01*
X101012041Y-61430000D01*
X101126115Y-62003489D01*
X101450971Y-62489670D01*
X101774228Y-62705664D01*
X101651510Y-62763179D01*
X101257312Y-63195053D01*
X101085042Y-63610974D01*
X101206183Y-63843000D01*
X102413000Y-63843000D01*
X102413000Y-63823000D01*
X102667000Y-63823000D01*
X102667000Y-63843000D01*
X104953000Y-63843000D01*
X104953000Y-61557000D01*
X105207000Y-61557000D01*
X105207000Y-63843000D01*
X106413817Y-63843000D01*
X106534958Y-63610974D01*
X106362688Y-63195053D01*
X105968490Y-62763179D01*
X105833687Y-62700000D01*
X105968490Y-62636821D01*
X106362688Y-62204947D01*
X106534958Y-61789026D01*
X106413817Y-61557000D01*
X105207000Y-61557000D01*
X104953000Y-61557000D01*
X104933000Y-61557000D01*
X104933000Y-61303000D01*
X104953000Y-61303000D01*
X104953000Y-61283000D01*
X105207000Y-61283000D01*
X105207000Y-61303000D01*
X106413817Y-61303000D01*
X106534958Y-61070974D01*
X106362688Y-60655053D01*
X105968490Y-60223179D01*
X105845772Y-60165664D01*
X106169029Y-59949670D01*
X106493885Y-59463489D01*
X106607959Y-58890000D01*
X106493885Y-58316511D01*
X106169029Y-57830330D01*
X105682848Y-57505474D01*
X105109359Y-57391400D01*
X105050641Y-57391400D01*
X104477152Y-57505474D01*
X104011558Y-57816574D01*
X104006762Y-57791083D01*
X103867690Y-57574959D01*
X103655490Y-57429969D01*
X103403600Y-57378960D01*
X101676400Y-57378960D01*
X101441083Y-57423238D01*
X101224959Y-57562310D01*
X101079969Y-57774510D01*
X101028960Y-58026400D01*
X101028960Y-59753600D01*
X101073238Y-59988917D01*
X101212310Y-60205041D01*
X101424510Y-60350031D01*
X101468131Y-60358864D01*
X101450971Y-60370330D01*
X101126115Y-60856511D01*
X101012041Y-61430000D01*
X100710000Y-61430000D01*
X100710000Y-50710000D01*
X112147834Y-50710000D01*
X109487547Y-52487547D01*
X109487547Y-52487547D01*
G37*
X109487547Y-52487547D02*
X107491070Y-55475486D01*
X106790000Y-59000000D01*
X107491070Y-62524514D01*
X109487547Y-65512453D01*
X112475486Y-67508930D01*
X112506002Y-67515000D01*
X106152704Y-67515000D01*
X106362688Y-67284947D01*
X106534958Y-66869026D01*
X106413817Y-66637000D01*
X105207000Y-66637000D01*
X105207000Y-66657000D01*
X104953000Y-66657000D01*
X104953000Y-66637000D01*
X102667000Y-66637000D01*
X102667000Y-66657000D01*
X102413000Y-66657000D01*
X102413000Y-66637000D01*
X101206183Y-66637000D01*
X101085042Y-66869026D01*
X101257312Y-67284947D01*
X101651510Y-67716821D01*
X101774228Y-67774336D01*
X101450971Y-67990330D01*
X101126115Y-68476511D01*
X101012041Y-69050000D01*
X101126115Y-69623489D01*
X101450971Y-70109670D01*
X101774228Y-70325664D01*
X101651510Y-70383179D01*
X101257312Y-70815053D01*
X101085042Y-71230974D01*
X101206183Y-71463000D01*
X102413000Y-71463000D01*
X102413000Y-71443000D01*
X102667000Y-71443000D01*
X102667000Y-71463000D01*
X104953000Y-71463000D01*
X104953000Y-71443000D01*
X105207000Y-71443000D01*
X105207000Y-71463000D01*
X106413817Y-71463000D01*
X106534958Y-71230974D01*
X106362688Y-70815053D01*
X105968490Y-70383179D01*
X105845772Y-70325664D01*
X106169029Y-70109670D01*
X106493885Y-69623489D01*
X106561215Y-69285000D01*
X117892804Y-69285000D01*
X117707808Y-69469673D01*
X117565162Y-69813201D01*
X117564838Y-70185167D01*
X117615000Y-70306569D01*
X117615000Y-71257951D01*
X117147704Y-71165000D01*
X114852296Y-71165000D01*
X114341414Y-71266621D01*
X113908308Y-71556012D01*
X113618917Y-71989118D01*
X113517296Y-72500000D01*
X113618917Y-73010882D01*
X113908308Y-73443988D01*
X114341414Y-73733379D01*
X114852296Y-73835000D01*
X115240000Y-73835000D01*
X115240000Y-74702560D01*
X114590000Y-74702560D01*
X114354683Y-74746838D01*
X114138559Y-74885910D01*
X113993569Y-75098110D01*
X113942560Y-75350000D01*
X113942560Y-76650000D01*
X113986838Y-76885317D01*
X114086374Y-77040000D01*
X112400000Y-77040000D01*
X112109161Y-77097852D01*
X111862599Y-77262599D01*
X110191083Y-78934115D01*
X110026547Y-78865794D01*
X109376306Y-78865226D01*
X108775345Y-79113538D01*
X108315154Y-79572927D01*
X108065794Y-80173453D01*
X108065226Y-80823694D01*
X108313538Y-81424655D01*
X108772927Y-81884846D01*
X109373453Y-82134206D01*
X110023694Y-82134774D01*
X110624655Y-81886462D01*
X111084846Y-81427073D01*
X111334206Y-80826547D01*
X111334774Y-80176306D01*
X111265691Y-80009111D01*
X112714802Y-78560000D01*
X114065198Y-78560000D01*
X113691083Y-78934115D01*
X113526547Y-78865794D01*
X112876306Y-78865226D01*
X112275345Y-79113538D01*
X111815154Y-79572927D01*
X111565794Y-80173453D01*
X111565226Y-80823694D01*
X111813538Y-81424655D01*
X112272927Y-81884846D01*
X112873453Y-82134206D01*
X113523694Y-82134774D01*
X114124655Y-81886462D01*
X114584846Y-81427073D01*
X114834206Y-80826547D01*
X114834774Y-80176306D01*
X114765691Y-80009111D01*
X115714802Y-79060000D01*
X115904917Y-79060000D01*
X115775345Y-79113538D01*
X115315154Y-79572927D01*
X115065794Y-80173453D01*
X115065226Y-80823694D01*
X115313538Y-81424655D01*
X115772927Y-81884846D01*
X116373453Y-82134206D01*
X117023694Y-82134774D01*
X117624655Y-81886462D01*
X118084846Y-81427073D01*
X118334206Y-80826547D01*
X118334609Y-80365193D01*
X119975991Y-78723811D01*
X119477495Y-79469863D01*
X118775307Y-83000000D01*
X119477495Y-86530137D01*
X121477157Y-89522843D01*
X124469863Y-91522505D01*
X128000000Y-92224693D01*
X131530137Y-91522505D01*
X134522843Y-89522843D01*
X136522505Y-86530137D01*
X137224693Y-83000000D01*
X136522505Y-79469863D01*
X134522843Y-76477157D01*
X134405897Y-76399016D01*
X134880590Y-76399016D01*
X134936271Y-76629611D01*
X135419078Y-76797622D01*
X135929428Y-76768083D01*
X136263729Y-76629611D01*
X136319410Y-76399016D01*
X135600000Y-75679605D01*
X134880590Y-76399016D01*
X134405897Y-76399016D01*
X132789656Y-75319078D01*
X134302378Y-75319078D01*
X134331917Y-75829428D01*
X134470389Y-76163729D01*
X134700984Y-76219410D01*
X135420395Y-75500000D01*
X135779605Y-75500000D01*
X136499016Y-76219410D01*
X136729611Y-76163729D01*
X136897622Y-75680922D01*
X136868083Y-75170572D01*
X136729611Y-74836271D01*
X136499016Y-74780590D01*
X135779605Y-75500000D01*
X135420395Y-75500000D01*
X134700984Y-74780590D01*
X134470389Y-74836271D01*
X134302378Y-75319078D01*
X132789656Y-75319078D01*
X131714952Y-74600984D01*
X134880590Y-74600984D01*
X135600000Y-75320395D01*
X136319410Y-74600984D01*
X136263729Y-74370389D01*
X135780922Y-74202378D01*
X135270572Y-74231917D01*
X134936271Y-74370389D01*
X134880590Y-74600984D01*
X131714952Y-74600984D01*
X131530137Y-74477495D01*
X128000000Y-73775307D01*
X124469863Y-74477495D01*
X123723811Y-74975991D01*
X125866473Y-72833329D01*
X132607284Y-72833329D01*
X132618020Y-72893550D01*
X132866210Y-73354185D01*
X133271785Y-73684778D01*
X133773000Y-73835000D01*
X134873000Y-73835000D01*
X134873000Y-72627000D01*
X135127000Y-72627000D01*
X135127000Y-73835000D01*
X136227000Y-73835000D01*
X136728215Y-73684778D01*
X137133790Y-73354185D01*
X137381980Y-72893550D01*
X137392716Y-72833329D01*
X137269374Y-72627000D01*
X135127000Y-72627000D01*
X134873000Y-72627000D01*
X132730626Y-72627000D01*
X132607284Y-72833329D01*
X125866473Y-72833329D01*
X126533131Y-72166671D01*
X132607284Y-72166671D01*
X132730626Y-72373000D01*
X134873000Y-72373000D01*
X134873000Y-71165000D01*
X135127000Y-71165000D01*
X135127000Y-72373000D01*
X137269374Y-72373000D01*
X137392716Y-72166671D01*
X137381980Y-72106450D01*
X137133790Y-71645815D01*
X136728215Y-71315222D01*
X136227000Y-71165000D01*
X135127000Y-71165000D01*
X134873000Y-71165000D01*
X133773000Y-71165000D01*
X133271785Y-71315222D01*
X132866210Y-71645815D01*
X132618020Y-72106450D01*
X132607284Y-72166671D01*
X126533131Y-72166671D01*
X128477401Y-70222401D01*
X128642148Y-69975839D01*
X128700000Y-69685000D01*
X128700000Y-68907124D01*
X128821648Y-68882927D01*
X129208945Y-68624144D01*
X129467728Y-68236847D01*
X129558601Y-67780000D01*
X129467728Y-67323153D01*
X129338356Y-67129533D01*
X129485229Y-66849515D01*
X129486244Y-66821128D01*
X129360929Y-66637000D01*
X128620188Y-66637000D01*
X128364801Y-66586200D01*
X127793000Y-66586200D01*
X127793000Y-66446240D01*
X128892500Y-66446240D01*
X129127817Y-66401962D01*
X129157285Y-66383000D01*
X129360929Y-66383000D01*
X129486244Y-66198872D01*
X129485229Y-66170485D01*
X129451290Y-66105779D01*
X129488931Y-66050690D01*
X129539940Y-65798800D01*
X129539940Y-64681200D01*
X129495662Y-64445883D01*
X129471432Y-64408228D01*
X129558601Y-63970000D01*
X129467728Y-63513153D01*
X129208945Y-63125856D01*
X128821648Y-62867073D01*
X128364801Y-62776200D01*
X127515199Y-62776200D01*
X127058352Y-62867073D01*
X126671055Y-63125856D01*
X126596029Y-63238140D01*
X126446660Y-63267852D01*
X126200099Y-63432599D01*
X124962599Y-64670099D01*
X124797852Y-64916661D01*
X124740000Y-65207500D01*
X124740000Y-70537378D01*
X123343903Y-71933475D01*
X123091692Y-71556012D01*
X122658586Y-71266621D01*
X122147704Y-71165000D01*
X121885000Y-71165000D01*
X121885000Y-70306822D01*
X121934838Y-70186799D01*
X121935162Y-69814833D01*
X121793117Y-69471057D01*
X121530327Y-69207808D01*
X121409014Y-69157434D01*
X121325791Y-69074211D01*
X121325788Y-69074209D01*
X120025790Y-67774210D01*
X119738675Y-67582367D01*
X119682484Y-67571190D01*
X119447001Y-67524348D01*
X119524514Y-67508930D01*
X122512453Y-65512453D01*
X124508930Y-62524514D01*
X125210000Y-59000000D01*
X124508930Y-55475486D01*
X122512453Y-52487547D01*
X119852166Y-50710000D01*
X136147834Y-50710000D01*
X133487547Y-52487547D01*
X131491070Y-55475486D01*
X130790000Y-59000000D01*
X131491070Y-62524514D01*
X133487547Y-65512453D01*
X136475486Y-67508930D01*
X140000000Y-68210000D01*
X143524514Y-67508930D01*
X145006498Y-66518700D01*
X141662599Y-69862599D01*
X141497852Y-70109161D01*
X141440000Y-70400000D01*
X141440000Y-71223141D01*
X141147704Y-71165000D01*
X138852296Y-71165000D01*
X138341414Y-71266621D01*
X137908308Y-71556012D01*
X137618917Y-71989118D01*
X137517296Y-72500000D01*
X137618917Y-73010882D01*
X137908308Y-73443988D01*
X138341414Y-73733379D01*
X138852296Y-73835000D01*
X139240000Y-73835000D01*
X139240000Y-74900000D01*
X139297852Y-75190839D01*
X139302560Y-75197885D01*
X139302560Y-76150000D01*
X139346838Y-76385317D01*
X139485910Y-76601441D01*
X139698110Y-76746431D01*
X139950000Y-76797440D01*
X141250000Y-76797440D01*
X141440000Y-76761689D01*
X141440000Y-78585198D01*
X139762599Y-80262599D01*
X139597852Y-80509161D01*
X139540000Y-80800000D01*
X139540000Y-93285198D01*
X134503843Y-98321355D01*
X123308645Y-98321355D01*
X123017806Y-98379207D01*
X122771244Y-98543954D01*
X120697973Y-100617225D01*
X120320000Y-100542041D01*
X119746511Y-100656115D01*
X119260330Y-100980971D01*
X119050000Y-101295752D01*
X118839670Y-100980971D01*
X118353489Y-100656115D01*
X117780000Y-100542041D01*
X117206511Y-100656115D01*
X116720330Y-100980971D01*
X116510000Y-101295752D01*
X116299670Y-100980971D01*
X115813489Y-100656115D01*
X115240000Y-100542041D01*
X114666511Y-100656115D01*
X114180330Y-100980971D01*
X113970000Y-101295752D01*
X113759670Y-100980971D01*
X113273489Y-100656115D01*
X112700000Y-100542041D01*
X112126511Y-100656115D01*
X111640330Y-100980971D01*
X111430000Y-101295752D01*
X111219670Y-100980971D01*
X110733489Y-100656115D01*
X110160000Y-100542041D01*
X109586511Y-100656115D01*
X109100330Y-100980971D01*
X108890000Y-101295752D01*
X108679670Y-100980971D01*
X108380000Y-100780738D01*
X108380000Y-96833329D01*
X120607284Y-96833329D01*
X120618020Y-96893550D01*
X120866210Y-97354185D01*
X121271785Y-97684778D01*
X121773000Y-97835000D01*
X122873000Y-97835000D01*
X122873000Y-96627000D01*
X123127000Y-96627000D01*
X123127000Y-97835000D01*
X124227000Y-97835000D01*
X124728215Y-97684778D01*
X125133790Y-97354185D01*
X125381980Y-96893550D01*
X125392716Y-96833329D01*
X125269374Y-96627000D01*
X123127000Y-96627000D01*
X122873000Y-96627000D01*
X120730626Y-96627000D01*
X120607284Y-96833329D01*
X108380000Y-96833329D01*
X108380000Y-95349016D01*
X112060590Y-95349016D01*
X112116271Y-95579611D01*
X112599078Y-95747622D01*
X113109428Y-95718083D01*
X113443729Y-95579611D01*
X113499410Y-95349016D01*
X112780000Y-94629605D01*
X112060590Y-95349016D01*
X108380000Y-95349016D01*
X108380000Y-94269078D01*
X111482378Y-94269078D01*
X111511917Y-94779428D01*
X111650389Y-95113729D01*
X111880984Y-95169410D01*
X112600395Y-94450000D01*
X112959605Y-94450000D01*
X113679016Y-95169410D01*
X113909611Y-95113729D01*
X114077622Y-94630922D01*
X114048083Y-94120572D01*
X113915298Y-93800000D01*
X116482560Y-93800000D01*
X116482560Y-95100000D01*
X116526838Y-95335317D01*
X116665910Y-95551441D01*
X116878110Y-95696431D01*
X117130000Y-95747440D01*
X118430000Y-95747440D01*
X118665317Y-95703162D01*
X118881441Y-95564090D01*
X119026431Y-95351890D01*
X119055164Y-95210000D01*
X121622858Y-95210000D01*
X121271785Y-95315222D01*
X120866210Y-95645815D01*
X120618020Y-96106450D01*
X120607284Y-96166671D01*
X120730626Y-96373000D01*
X122873000Y-96373000D01*
X122873000Y-96353000D01*
X123127000Y-96353000D01*
X123127000Y-96373000D01*
X125269374Y-96373000D01*
X125392716Y-96166671D01*
X125381980Y-96106450D01*
X125133790Y-95645815D01*
X124728215Y-95315222D01*
X124377142Y-95210000D01*
X126585198Y-95210000D01*
X126591978Y-95216780D01*
X126341414Y-95266621D01*
X125908308Y-95556012D01*
X125618917Y-95989118D01*
X125517296Y-96500000D01*
X125618917Y-97010882D01*
X125908308Y-97443988D01*
X126341414Y-97733379D01*
X126852296Y-97835000D01*
X129147704Y-97835000D01*
X129658586Y-97733379D01*
X130091692Y-97443988D01*
X130381083Y-97010882D01*
X130482704Y-96500000D01*
X130517296Y-96500000D01*
X130618917Y-97010882D01*
X130908308Y-97443988D01*
X131341414Y-97733379D01*
X131852296Y-97835000D01*
X134147704Y-97835000D01*
X134658586Y-97733379D01*
X135091692Y-97443988D01*
X135381083Y-97010882D01*
X135482704Y-96500000D01*
X135381083Y-95989118D01*
X135091692Y-95556012D01*
X134658586Y-95266621D01*
X134147704Y-95165000D01*
X131852296Y-95165000D01*
X131341414Y-95266621D01*
X130908308Y-95556012D01*
X130618917Y-95989118D01*
X130517296Y-96500000D01*
X130482704Y-96500000D01*
X130381083Y-95989118D01*
X130091692Y-95556012D01*
X129658586Y-95266621D01*
X129147704Y-95165000D01*
X128639232Y-95165000D01*
X128537401Y-95012599D01*
X127437401Y-93912599D01*
X127190839Y-93747852D01*
X126900000Y-93690000D01*
X119056742Y-93690000D01*
X119033162Y-93564683D01*
X118894090Y-93348559D01*
X118681890Y-93203569D01*
X118430000Y-93152560D01*
X117130000Y-93152560D01*
X116894683Y-93196838D01*
X116678559Y-93335910D01*
X116533569Y-93548110D01*
X116482560Y-93800000D01*
X113915298Y-93800000D01*
X113909611Y-93786271D01*
X113679016Y-93730590D01*
X112959605Y-94450000D01*
X112600395Y-94450000D01*
X111880984Y-93730590D01*
X111650389Y-93786271D01*
X111482378Y-94269078D01*
X108380000Y-94269078D01*
X108380000Y-93550984D01*
X112060590Y-93550984D01*
X112780000Y-94270395D01*
X113499410Y-93550984D01*
X113443729Y-93320389D01*
X112960922Y-93152378D01*
X112450572Y-93181917D01*
X112116271Y-93320389D01*
X112060590Y-93550984D01*
X108380000Y-93550984D01*
X108380000Y-93416239D01*
X108600000Y-93460000D01*
X111160000Y-93460000D01*
X111450839Y-93402148D01*
X111697401Y-93237401D01*
X112708917Y-92225885D01*
X112873453Y-92294206D01*
X113523694Y-92294774D01*
X114124655Y-92046462D01*
X114584846Y-91587073D01*
X114834206Y-90986547D01*
X114834774Y-90336306D01*
X114586462Y-89735345D01*
X114127073Y-89275154D01*
X113526547Y-89025794D01*
X112876306Y-89025226D01*
X112275345Y-89273538D01*
X111815154Y-89732927D01*
X111565794Y-90333453D01*
X111565226Y-90983694D01*
X111634309Y-91150889D01*
X110845198Y-91940000D01*
X110731303Y-91940000D01*
X111084846Y-91587073D01*
X111334206Y-90986547D01*
X111334774Y-90336306D01*
X111086462Y-89735345D01*
X110627073Y-89275154D01*
X110460000Y-89205779D01*
X110460000Y-85300000D01*
X110402148Y-85009161D01*
X110237401Y-84762599D01*
X109234802Y-83760000D01*
X110138690Y-83760000D01*
X115713733Y-89335043D01*
X115315154Y-89732927D01*
X115065794Y-90333453D01*
X115065226Y-90983694D01*
X115313538Y-91584655D01*
X115772927Y-92044846D01*
X116373453Y-92294206D01*
X117023694Y-92294774D01*
X117624655Y-92046462D01*
X118084846Y-91587073D01*
X118334206Y-90986547D01*
X118334774Y-90336306D01*
X118086462Y-89735345D01*
X117627073Y-89275154D01*
X117451169Y-89202112D01*
X117413149Y-89010974D01*
X117402148Y-88955668D01*
X117237401Y-88709107D01*
X110990893Y-82462599D01*
X110744331Y-82297852D01*
X110453492Y-82240000D01*
X106510492Y-82240000D01*
X106607959Y-81750000D01*
X106493885Y-81176511D01*
X106169029Y-80690330D01*
X105854248Y-80480000D01*
X106169029Y-80269670D01*
X106493885Y-79783489D01*
X106607959Y-79210000D01*
X106493885Y-78636511D01*
X106169029Y-78150330D01*
X105854248Y-77940000D01*
X106169029Y-77729670D01*
X106493885Y-77243489D01*
X106562404Y-76899016D01*
X109520590Y-76899016D01*
X109576271Y-77129611D01*
X110059078Y-77297622D01*
X110569428Y-77268083D01*
X110903729Y-77129611D01*
X110959410Y-76899016D01*
X110240000Y-76179605D01*
X109520590Y-76899016D01*
X106562404Y-76899016D01*
X106607959Y-76670000D01*
X106493885Y-76096511D01*
X106308511Y-75819078D01*
X108942378Y-75819078D01*
X108971917Y-76329428D01*
X109110389Y-76663729D01*
X109340984Y-76719410D01*
X110060395Y-76000000D01*
X110419605Y-76000000D01*
X111139016Y-76719410D01*
X111369611Y-76663729D01*
X111537622Y-76180922D01*
X111508083Y-75670572D01*
X111369611Y-75336271D01*
X111139016Y-75280590D01*
X110419605Y-76000000D01*
X110060395Y-76000000D01*
X109340984Y-75280590D01*
X109110389Y-75336271D01*
X108942378Y-75819078D01*
X106308511Y-75819078D01*
X106169029Y-75610330D01*
X105854248Y-75400000D01*
X106169029Y-75189670D01*
X106228287Y-75100984D01*
X109520590Y-75100984D01*
X110240000Y-75820395D01*
X110959410Y-75100984D01*
X110903729Y-74870389D01*
X110420922Y-74702378D01*
X109910572Y-74731917D01*
X109576271Y-74870389D01*
X109520590Y-75100984D01*
X106228287Y-75100984D01*
X106493885Y-74703489D01*
X106607959Y-74130000D01*
X106493885Y-73556511D01*
X106169029Y-73070330D01*
X105845772Y-72854336D01*
X105890593Y-72833329D01*
X108607284Y-72833329D01*
X108618020Y-72893550D01*
X108866210Y-73354185D01*
X109271785Y-73684778D01*
X109773000Y-73835000D01*
X110873000Y-73835000D01*
X110873000Y-72627000D01*
X111127000Y-72627000D01*
X111127000Y-73835000D01*
X112227000Y-73835000D01*
X112728215Y-73684778D01*
X113133790Y-73354185D01*
X113381980Y-72893550D01*
X113392716Y-72833329D01*
X113269374Y-72627000D01*
X111127000Y-72627000D01*
X110873000Y-72627000D01*
X108730626Y-72627000D01*
X108607284Y-72833329D01*
X105890593Y-72833329D01*
X105968490Y-72796821D01*
X106362688Y-72364947D01*
X106444811Y-72166671D01*
X108607284Y-72166671D01*
X108730626Y-72373000D01*
X110873000Y-72373000D01*
X110873000Y-71165000D01*
X111127000Y-71165000D01*
X111127000Y-72373000D01*
X113269374Y-72373000D01*
X113392716Y-72166671D01*
X113381980Y-72106450D01*
X113133790Y-71645815D01*
X112728215Y-71315222D01*
X112227000Y-71165000D01*
X111127000Y-71165000D01*
X110873000Y-71165000D01*
X109773000Y-71165000D01*
X109271785Y-71315222D01*
X108866210Y-71645815D01*
X108618020Y-72106450D01*
X108607284Y-72166671D01*
X106444811Y-72166671D01*
X106534958Y-71949026D01*
X106413817Y-71717000D01*
X105207000Y-71717000D01*
X105207000Y-71737000D01*
X104953000Y-71737000D01*
X104953000Y-71717000D01*
X102667000Y-71717000D01*
X102667000Y-71737000D01*
X102413000Y-71737000D01*
X102413000Y-71717000D01*
X101206183Y-71717000D01*
X101085042Y-71949026D01*
X101257312Y-72364947D01*
X101651510Y-72796821D01*
X101774228Y-72854336D01*
X101450971Y-73070330D01*
X101126115Y-73556511D01*
X101012041Y-74130000D01*
X101126115Y-74703489D01*
X101450971Y-75189670D01*
X101765752Y-75400000D01*
X101450971Y-75610330D01*
X101126115Y-76096511D01*
X101012041Y-76670000D01*
X101126115Y-77243489D01*
X101450971Y-77729670D01*
X101765752Y-77940000D01*
X101450971Y-78150330D01*
X101126115Y-78636511D01*
X101012041Y-79210000D01*
X101126115Y-79783489D01*
X101450971Y-80269670D01*
X101765752Y-80480000D01*
X101450971Y-80690330D01*
X101126115Y-81176511D01*
X101012041Y-81750000D01*
X101126115Y-82323489D01*
X101450971Y-82809670D01*
X101765752Y-83020000D01*
X101450971Y-83230330D01*
X101126115Y-83716511D01*
X101012041Y-84290000D01*
X101126115Y-84863489D01*
X101450971Y-85349670D01*
X101765752Y-85560000D01*
X101450971Y-85770330D01*
X101126115Y-86256511D01*
X101012041Y-86830000D01*
X101126115Y-87403489D01*
X101450971Y-87889670D01*
X101765752Y-88100000D01*
X101450971Y-88310330D01*
X101126115Y-88796511D01*
X101012041Y-89370000D01*
X101126115Y-89943489D01*
X101450971Y-90429670D01*
X101765752Y-90640000D01*
X101450971Y-90850330D01*
X101126115Y-91336511D01*
X101012041Y-91910000D01*
X101126115Y-92483489D01*
X101450971Y-92969670D01*
X101937152Y-93294526D01*
X102510641Y-93408600D01*
X102569359Y-93408600D01*
X103142848Y-93294526D01*
X103629029Y-92969670D01*
X103810000Y-92698828D01*
X103990971Y-92969670D01*
X104477152Y-93294526D01*
X105050641Y-93408600D01*
X105109359Y-93408600D01*
X105682848Y-93294526D01*
X105940000Y-93122702D01*
X105940000Y-98685198D01*
X104985198Y-99640000D01*
X104210000Y-99640000D01*
X103919161Y-99697852D01*
X103672599Y-99862599D01*
X102917973Y-100617225D01*
X102540000Y-100542041D01*
X101966511Y-100656115D01*
X101480330Y-100980971D01*
X101155474Y-101467152D01*
X101041400Y-102040641D01*
X101041400Y-102099359D01*
X101155474Y-102672848D01*
X101470526Y-103144356D01*
X101316701Y-103208073D01*
X101138073Y-103386702D01*
X101041400Y-103620091D01*
X101041400Y-104324250D01*
X101200150Y-104483000D01*
X102413000Y-104483000D01*
X102413000Y-104463000D01*
X102667000Y-104463000D01*
X102667000Y-104483000D01*
X104953000Y-104483000D01*
X104953000Y-104463000D01*
X105207000Y-104463000D01*
X105207000Y-104483000D01*
X107493000Y-104483000D01*
X107493000Y-104463000D01*
X107747000Y-104463000D01*
X107747000Y-104483000D01*
X110033000Y-104483000D01*
X110033000Y-104463000D01*
X110287000Y-104463000D01*
X110287000Y-104483000D01*
X112573000Y-104483000D01*
X112573000Y-104463000D01*
X112827000Y-104463000D01*
X112827000Y-104483000D01*
X115113000Y-104483000D01*
X115113000Y-104463000D01*
X115367000Y-104463000D01*
X115367000Y-104483000D01*
X117653000Y-104483000D01*
X117653000Y-104463000D01*
X117907000Y-104463000D01*
X117907000Y-104483000D01*
X117927000Y-104483000D01*
X117927000Y-104737000D01*
X117907000Y-104737000D01*
X117907000Y-104757000D01*
X117653000Y-104757000D01*
X117653000Y-104737000D01*
X115367000Y-104737000D01*
X115367000Y-104757000D01*
X115113000Y-104757000D01*
X115113000Y-104737000D01*
X112827000Y-104737000D01*
X112827000Y-104757000D01*
X112573000Y-104757000D01*
X112573000Y-104737000D01*
X110287000Y-104737000D01*
X110287000Y-104757000D01*
X110033000Y-104757000D01*
X110033000Y-104737000D01*
X107747000Y-104737000D01*
X107747000Y-104757000D01*
X107493000Y-104757000D01*
X107493000Y-104737000D01*
X105207000Y-104737000D01*
X105207000Y-104757000D01*
X104953000Y-104757000D01*
X104953000Y-104737000D01*
X102667000Y-104737000D01*
X102667000Y-104757000D01*
X102413000Y-104757000D01*
X102413000Y-104737000D01*
X101200150Y-104737000D01*
X101041400Y-104895750D01*
X101041400Y-105290000D01*
X100710000Y-105290000D01*
X100710000Y-64329026D01*
X101085042Y-64329026D01*
X101257312Y-64744947D01*
X101651510Y-65176821D01*
X101786313Y-65240000D01*
X101651510Y-65303179D01*
X101257312Y-65735053D01*
X101085042Y-66150974D01*
X101206183Y-66383000D01*
X102413000Y-66383000D01*
X102413000Y-64097000D01*
X102667000Y-64097000D01*
X102667000Y-66383000D01*
X104953000Y-66383000D01*
X104953000Y-64097000D01*
X105207000Y-64097000D01*
X105207000Y-66383000D01*
X106413817Y-66383000D01*
X106534958Y-66150974D01*
X106362688Y-65735053D01*
X105968490Y-65303179D01*
X105833687Y-65240000D01*
X105968490Y-65176821D01*
X106362688Y-64744947D01*
X106534958Y-64329026D01*
X106413817Y-64097000D01*
X105207000Y-64097000D01*
X104953000Y-64097000D01*
X102667000Y-64097000D01*
X102413000Y-64097000D01*
X101206183Y-64097000D01*
X101085042Y-64329026D01*
X100710000Y-64329026D01*
X100710000Y-61430000D01*
X101012041Y-61430000D01*
X101126115Y-62003489D01*
X101450971Y-62489670D01*
X101774228Y-62705664D01*
X101651510Y-62763179D01*
X101257312Y-63195053D01*
X101085042Y-63610974D01*
X101206183Y-63843000D01*
X102413000Y-63843000D01*
X102413000Y-63823000D01*
X102667000Y-63823000D01*
X102667000Y-63843000D01*
X104953000Y-63843000D01*
X104953000Y-61557000D01*
X105207000Y-61557000D01*
X105207000Y-63843000D01*
X106413817Y-63843000D01*
X106534958Y-63610974D01*
X106362688Y-63195053D01*
X105968490Y-62763179D01*
X105833687Y-62700000D01*
X105968490Y-62636821D01*
X106362688Y-62204947D01*
X106534958Y-61789026D01*
X106413817Y-61557000D01*
X105207000Y-61557000D01*
X104953000Y-61557000D01*
X104933000Y-61557000D01*
X104933000Y-61303000D01*
X104953000Y-61303000D01*
X104953000Y-61283000D01*
X105207000Y-61283000D01*
X105207000Y-61303000D01*
X106413817Y-61303000D01*
X106534958Y-61070974D01*
X106362688Y-60655053D01*
X105968490Y-60223179D01*
X105845772Y-60165664D01*
X106169029Y-59949670D01*
X106493885Y-59463489D01*
X106607959Y-58890000D01*
X106493885Y-58316511D01*
X106169029Y-57830330D01*
X105682848Y-57505474D01*
X105109359Y-57391400D01*
X105050641Y-57391400D01*
X104477152Y-57505474D01*
X104011558Y-57816574D01*
X104006762Y-57791083D01*
X103867690Y-57574959D01*
X103655490Y-57429969D01*
X103403600Y-57378960D01*
X101676400Y-57378960D01*
X101441083Y-57423238D01*
X101224959Y-57562310D01*
X101079969Y-57774510D01*
X101028960Y-58026400D01*
X101028960Y-59753600D01*
X101073238Y-59988917D01*
X101212310Y-60205041D01*
X101424510Y-60350031D01*
X101468131Y-60358864D01*
X101450971Y-60370330D01*
X101126115Y-60856511D01*
X101012041Y-61430000D01*
X100710000Y-61430000D01*
X100710000Y-50710000D01*
X112147834Y-50710000D01*
X109487547Y-52487547D01*
G36*
X155290000Y-105290000D02*
X154644535Y-105290000D01*
X154794968Y-104969027D01*
X154674469Y-104737000D01*
X153467000Y-104737000D01*
X153467000Y-104757000D01*
X153213000Y-104757000D01*
X153213000Y-104737000D01*
X150927000Y-104737000D01*
X150927000Y-104757000D01*
X150673000Y-104757000D01*
X150673000Y-104737000D01*
X148387000Y-104737000D01*
X148387000Y-104757000D01*
X148133000Y-104757000D01*
X148133000Y-104737000D01*
X145847000Y-104737000D01*
X145847000Y-104757000D01*
X145593000Y-104757000D01*
X145593000Y-104737000D01*
X143307000Y-104737000D01*
X143307000Y-104757000D01*
X143053000Y-104757000D01*
X143053000Y-104737000D01*
X140767000Y-104737000D01*
X140767000Y-104757000D01*
X140513000Y-104757000D01*
X140513000Y-104737000D01*
X138227000Y-104737000D01*
X138227000Y-104757000D01*
X137973000Y-104757000D01*
X137973000Y-104737000D01*
X135687000Y-104737000D01*
X135687000Y-104757000D01*
X135433000Y-104757000D01*
X135433000Y-104737000D01*
X133147000Y-104737000D01*
X133147000Y-104757000D01*
X132893000Y-104757000D01*
X132893000Y-104737000D01*
X132873000Y-104737000D01*
X132873000Y-104483000D01*
X132893000Y-104483000D01*
X132893000Y-102197000D01*
X132873000Y-102197000D01*
X132873000Y-101943000D01*
X132893000Y-101943000D01*
X132893000Y-101923000D01*
X133147000Y-101923000D01*
X133147000Y-101943000D01*
X133167000Y-101943000D01*
X133167000Y-102197000D01*
X133147000Y-102197000D01*
X133147000Y-104483000D01*
X135433000Y-104483000D01*
X135433000Y-104463000D01*
X135687000Y-104463000D01*
X135687000Y-104483000D01*
X137973000Y-104483000D01*
X137973000Y-104463000D01*
X138227000Y-104463000D01*
X138227000Y-104483000D01*
X140513000Y-104483000D01*
X140513000Y-104463000D01*
X140767000Y-104463000D01*
X140767000Y-104483000D01*
X143053000Y-104483000D01*
X143053000Y-102197000D01*
X143033000Y-102197000D01*
X143033000Y-101943000D01*
X143053000Y-101943000D01*
X143053000Y-100736183D01*
X142820974Y-100615042D01*
X142405053Y-100787312D01*
X141973179Y-101181510D01*
X141915664Y-101304228D01*
X141699670Y-100980971D01*
X141629442Y-100934046D01*
X144937401Y-97626087D01*
X144960000Y-97592265D01*
X144960000Y-100780738D01*
X144660330Y-100980971D01*
X144444336Y-101304228D01*
X144386821Y-101181510D01*
X143954947Y-100787312D01*
X143539026Y-100615042D01*
X143307000Y-100736183D01*
X143307000Y-101943000D01*
X143327000Y-101943000D01*
X143327000Y-102197000D01*
X143307000Y-102197000D01*
X143307000Y-104483000D01*
X145593000Y-104483000D01*
X145593000Y-104463000D01*
X145847000Y-104463000D01*
X145847000Y-104483000D01*
X148133000Y-104483000D01*
X148133000Y-104463000D01*
X148387000Y-104463000D01*
X148387000Y-104483000D01*
X150673000Y-104483000D01*
X150673000Y-104463000D01*
X150927000Y-104463000D01*
X150927000Y-104483000D01*
X153213000Y-104483000D01*
X153213000Y-104463000D01*
X153467000Y-104463000D01*
X153467000Y-104483000D01*
X154674469Y-104483000D01*
X154794968Y-104250973D01*
X154546821Y-103721510D01*
X154128839Y-103339992D01*
X154399670Y-103159029D01*
X154724526Y-102672848D01*
X154838600Y-102099359D01*
X154838600Y-102040641D01*
X154724526Y-101467152D01*
X154399670Y-100980971D01*
X154100000Y-100780738D01*
X154100000Y-100140000D01*
X154093866Y-100109161D01*
X154042148Y-99849160D01*
X153877401Y-99602599D01*
X153037401Y-98762599D01*
X152790839Y-98597852D01*
X152500000Y-98540000D01*
X150714802Y-98540000D01*
X149260000Y-97085198D01*
X149260000Y-93303488D01*
X149664046Y-92899442D01*
X149710971Y-92969670D01*
X150197152Y-93294526D01*
X150770641Y-93408600D01*
X150829359Y-93408600D01*
X151402848Y-93294526D01*
X151889029Y-92969670D01*
X152069992Y-92698839D01*
X152451510Y-93116821D01*
X152980973Y-93364968D01*
X153213000Y-93244469D01*
X153213000Y-92037000D01*
X153467000Y-92037000D01*
X153467000Y-93244469D01*
X153699027Y-93364968D01*
X154228490Y-93116821D01*
X154622688Y-92684947D01*
X154794958Y-92269026D01*
X154673817Y-92037000D01*
X153467000Y-92037000D01*
X153213000Y-92037000D01*
X153193000Y-92037000D01*
X153193000Y-91783000D01*
X153213000Y-91783000D01*
X153213000Y-89497000D01*
X153467000Y-89497000D01*
X153467000Y-91783000D01*
X154673817Y-91783000D01*
X154794958Y-91550974D01*
X154622688Y-91135053D01*
X154228490Y-90703179D01*
X154093687Y-90640000D01*
X154228490Y-90576821D01*
X154622688Y-90144947D01*
X154794958Y-89729026D01*
X154673817Y-89497000D01*
X153467000Y-89497000D01*
X153213000Y-89497000D01*
X153193000Y-89497000D01*
X153193000Y-89243000D01*
X153213000Y-89243000D01*
X153213000Y-86957000D01*
X153467000Y-86957000D01*
X153467000Y-89243000D01*
X154673817Y-89243000D01*
X154794958Y-89010974D01*
X154622688Y-88595053D01*
X154228490Y-88163179D01*
X154093687Y-88100000D01*
X154228490Y-88036821D01*
X154622688Y-87604947D01*
X154794958Y-87189026D01*
X154673817Y-86957000D01*
X153467000Y-86957000D01*
X153213000Y-86957000D01*
X153193000Y-86957000D01*
X153193000Y-86703000D01*
X153213000Y-86703000D01*
X153213000Y-84417000D01*
X153467000Y-84417000D01*
X153467000Y-86703000D01*
X154673817Y-86703000D01*
X154794958Y-86470974D01*
X154622688Y-86055053D01*
X154228490Y-85623179D01*
X154093687Y-85560000D01*
X154228490Y-85496821D01*
X154622688Y-85064947D01*
X154794958Y-84649026D01*
X154673817Y-84417000D01*
X153467000Y-84417000D01*
X153213000Y-84417000D01*
X153193000Y-84417000D01*
X153193000Y-84163000D01*
X153213000Y-84163000D01*
X153213000Y-81877000D01*
X153467000Y-81877000D01*
X153467000Y-84163000D01*
X154673817Y-84163000D01*
X154794958Y-83930974D01*
X154622688Y-83515053D01*
X154228490Y-83083179D01*
X154093687Y-83020000D01*
X154228490Y-82956821D01*
X154622688Y-82524947D01*
X154794958Y-82109026D01*
X154673817Y-81877000D01*
X153467000Y-81877000D01*
X153213000Y-81877000D01*
X150927000Y-81877000D01*
X150927000Y-81897000D01*
X150673000Y-81897000D01*
X150673000Y-81877000D01*
X150653000Y-81877000D01*
X150653000Y-81623000D01*
X150673000Y-81623000D01*
X150673000Y-81603000D01*
X150927000Y-81603000D01*
X150927000Y-81623000D01*
X153213000Y-81623000D01*
X153213000Y-79337000D01*
X153467000Y-79337000D01*
X153467000Y-81623000D01*
X154673817Y-81623000D01*
X154794958Y-81390974D01*
X154622688Y-80975053D01*
X154228490Y-80543179D01*
X154093687Y-80480000D01*
X154228490Y-80416821D01*
X154622688Y-79984947D01*
X154794958Y-79569026D01*
X154673817Y-79337000D01*
X153467000Y-79337000D01*
X153213000Y-79337000D01*
X153193000Y-79337000D01*
X153193000Y-79083000D01*
X153213000Y-79083000D01*
X153213000Y-76797000D01*
X153467000Y-76797000D01*
X153467000Y-79083000D01*
X154673817Y-79083000D01*
X154794958Y-78850974D01*
X154622688Y-78435053D01*
X154228490Y-78003179D01*
X154093687Y-77940000D01*
X154228490Y-77876821D01*
X154622688Y-77444947D01*
X154794958Y-77029026D01*
X154673817Y-76797000D01*
X153467000Y-76797000D01*
X153213000Y-76797000D01*
X153193000Y-76797000D01*
X153193000Y-76543000D01*
X153213000Y-76543000D01*
X153213000Y-74257000D01*
X153467000Y-74257000D01*
X153467000Y-76543000D01*
X154673817Y-76543000D01*
X154794958Y-76310974D01*
X154622688Y-75895053D01*
X154228490Y-75463179D01*
X154093687Y-75400000D01*
X154228490Y-75336821D01*
X154622688Y-74904947D01*
X154794958Y-74489026D01*
X154673817Y-74257000D01*
X153467000Y-74257000D01*
X153213000Y-74257000D01*
X153193000Y-74257000D01*
X153193000Y-74003000D01*
X153213000Y-74003000D01*
X153213000Y-71717000D01*
X153467000Y-71717000D01*
X153467000Y-74003000D01*
X154673817Y-74003000D01*
X154794958Y-73770974D01*
X154622688Y-73355053D01*
X154228490Y-72923179D01*
X154093687Y-72860000D01*
X154228490Y-72796821D01*
X154622688Y-72364947D01*
X154794958Y-71949026D01*
X154673817Y-71717000D01*
X153467000Y-71717000D01*
X153213000Y-71717000D01*
X150927000Y-71717000D01*
X150927000Y-71737000D01*
X150673000Y-71737000D01*
X150673000Y-71717000D01*
X150653000Y-71717000D01*
X150653000Y-71463000D01*
X150673000Y-71463000D01*
X150673000Y-71443000D01*
X150927000Y-71443000D01*
X150927000Y-71463000D01*
X153213000Y-71463000D01*
X153213000Y-71443000D01*
X153467000Y-71443000D01*
X153467000Y-71463000D01*
X154673817Y-71463000D01*
X154794958Y-71230974D01*
X154622688Y-70815053D01*
X154228490Y-70383179D01*
X154105772Y-70325664D01*
X154429029Y-70109670D01*
X154753885Y-69623489D01*
X154867959Y-69050000D01*
X154753885Y-68476511D01*
X154429029Y-67990330D01*
X154105772Y-67774336D01*
X154228490Y-67716821D01*
X154622688Y-67284947D01*
X154794958Y-66869026D01*
X154673817Y-66637000D01*
X153467000Y-66637000D01*
X153467000Y-66657000D01*
X153213000Y-66657000D01*
X153213000Y-66637000D01*
X150927000Y-66637000D01*
X150927000Y-66657000D01*
X150673000Y-66657000D01*
X150673000Y-66637000D01*
X150653000Y-66637000D01*
X150653000Y-66383000D01*
X150673000Y-66383000D01*
X150673000Y-66363000D01*
X150927000Y-66363000D01*
X150927000Y-66383000D01*
X153213000Y-66383000D01*
X153213000Y-66363000D01*
X153467000Y-66363000D01*
X153467000Y-66383000D01*
X154673817Y-66383000D01*
X154794958Y-66150974D01*
X154622688Y-65735053D01*
X154228490Y-65303179D01*
X154105772Y-65245664D01*
X154429029Y-65029670D01*
X154753885Y-64543489D01*
X154867959Y-63970000D01*
X154753885Y-63396511D01*
X154429029Y-62910330D01*
X154114248Y-62700000D01*
X154429029Y-62489670D01*
X154753885Y-62003489D01*
X154867959Y-61430000D01*
X154753885Y-60856511D01*
X154429029Y-60370330D01*
X154114248Y-60160000D01*
X154429029Y-59949670D01*
X154753885Y-59463489D01*
X154867959Y-58890000D01*
X154753885Y-58316511D01*
X154429029Y-57830330D01*
X153942848Y-57505474D01*
X153369359Y-57391400D01*
X153310641Y-57391400D01*
X152737152Y-57505474D01*
X152271558Y-57816574D01*
X152266762Y-57791083D01*
X152127690Y-57574959D01*
X151915490Y-57429969D01*
X151663600Y-57378960D01*
X149936400Y-57378960D01*
X149701083Y-57423238D01*
X149484959Y-57562310D01*
X149339969Y-57774510D01*
X149288960Y-58026400D01*
X149288960Y-59326238D01*
X149109388Y-59505810D01*
X149210000Y-59000000D01*
X148508930Y-55475486D01*
X146512453Y-52487547D01*
X143852166Y-50710000D01*
X155290000Y-50710000D01*
X155290000Y-105290000D01*
X155290000Y-105290000D01*
G37*
X155290000Y-105290000D02*
X154644535Y-105290000D01*
X154794968Y-104969027D01*
X154674469Y-104737000D01*
X153467000Y-104737000D01*
X153467000Y-104757000D01*
X153213000Y-104757000D01*
X153213000Y-104737000D01*
X150927000Y-104737000D01*
X150927000Y-104757000D01*
X150673000Y-104757000D01*
X150673000Y-104737000D01*
X148387000Y-104737000D01*
X148387000Y-104757000D01*
X148133000Y-104757000D01*
X148133000Y-104737000D01*
X145847000Y-104737000D01*
X145847000Y-104757000D01*
X145593000Y-104757000D01*
X145593000Y-104737000D01*
X143307000Y-104737000D01*
X143307000Y-104757000D01*
X143053000Y-104757000D01*
X143053000Y-104737000D01*
X140767000Y-104737000D01*
X140767000Y-104757000D01*
X140513000Y-104757000D01*
X140513000Y-104737000D01*
X138227000Y-104737000D01*
X138227000Y-104757000D01*
X137973000Y-104757000D01*
X137973000Y-104737000D01*
X135687000Y-104737000D01*
X135687000Y-104757000D01*
X135433000Y-104757000D01*
X135433000Y-104737000D01*
X133147000Y-104737000D01*
X133147000Y-104757000D01*
X132893000Y-104757000D01*
X132893000Y-104737000D01*
X132873000Y-104737000D01*
X132873000Y-104483000D01*
X132893000Y-104483000D01*
X132893000Y-102197000D01*
X132873000Y-102197000D01*
X132873000Y-101943000D01*
X132893000Y-101943000D01*
X132893000Y-101923000D01*
X133147000Y-101923000D01*
X133147000Y-101943000D01*
X133167000Y-101943000D01*
X133167000Y-102197000D01*
X133147000Y-102197000D01*
X133147000Y-104483000D01*
X135433000Y-104483000D01*
X135433000Y-104463000D01*
X135687000Y-104463000D01*
X135687000Y-104483000D01*
X137973000Y-104483000D01*
X137973000Y-104463000D01*
X138227000Y-104463000D01*
X138227000Y-104483000D01*
X140513000Y-104483000D01*
X140513000Y-104463000D01*
X140767000Y-104463000D01*
X140767000Y-104483000D01*
X143053000Y-104483000D01*
X143053000Y-102197000D01*
X143033000Y-102197000D01*
X143033000Y-101943000D01*
X143053000Y-101943000D01*
X143053000Y-100736183D01*
X142820974Y-100615042D01*
X142405053Y-100787312D01*
X141973179Y-101181510D01*
X141915664Y-101304228D01*
X141699670Y-100980971D01*
X141629442Y-100934046D01*
X144937401Y-97626087D01*
X144960000Y-97592265D01*
X144960000Y-100780738D01*
X144660330Y-100980971D01*
X144444336Y-101304228D01*
X144386821Y-101181510D01*
X143954947Y-100787312D01*
X143539026Y-100615042D01*
X143307000Y-100736183D01*
X143307000Y-101943000D01*
X143327000Y-101943000D01*
X143327000Y-102197000D01*
X143307000Y-102197000D01*
X143307000Y-104483000D01*
X145593000Y-104483000D01*
X145593000Y-104463000D01*
X145847000Y-104463000D01*
X145847000Y-104483000D01*
X148133000Y-104483000D01*
X148133000Y-104463000D01*
X148387000Y-104463000D01*
X148387000Y-104483000D01*
X150673000Y-104483000D01*
X150673000Y-104463000D01*
X150927000Y-104463000D01*
X150927000Y-104483000D01*
X153213000Y-104483000D01*
X153213000Y-104463000D01*
X153467000Y-104463000D01*
X153467000Y-104483000D01*
X154674469Y-104483000D01*
X154794968Y-104250973D01*
X154546821Y-103721510D01*
X154128839Y-103339992D01*
X154399670Y-103159029D01*
X154724526Y-102672848D01*
X154838600Y-102099359D01*
X154838600Y-102040641D01*
X154724526Y-101467152D01*
X154399670Y-100980971D01*
X154100000Y-100780738D01*
X154100000Y-100140000D01*
X154093866Y-100109161D01*
X154042148Y-99849160D01*
X153877401Y-99602599D01*
X153037401Y-98762599D01*
X152790839Y-98597852D01*
X152500000Y-98540000D01*
X150714802Y-98540000D01*
X149260000Y-97085198D01*
X149260000Y-93303488D01*
X149664046Y-92899442D01*
X149710971Y-92969670D01*
X150197152Y-93294526D01*
X150770641Y-93408600D01*
X150829359Y-93408600D01*
X151402848Y-93294526D01*
X151889029Y-92969670D01*
X152069992Y-92698839D01*
X152451510Y-93116821D01*
X152980973Y-93364968D01*
X153213000Y-93244469D01*
X153213000Y-92037000D01*
X153467000Y-92037000D01*
X153467000Y-93244469D01*
X153699027Y-93364968D01*
X154228490Y-93116821D01*
X154622688Y-92684947D01*
X154794958Y-92269026D01*
X154673817Y-92037000D01*
X153467000Y-92037000D01*
X153213000Y-92037000D01*
X153193000Y-92037000D01*
X153193000Y-91783000D01*
X153213000Y-91783000D01*
X153213000Y-89497000D01*
X153467000Y-89497000D01*
X153467000Y-91783000D01*
X154673817Y-91783000D01*
X154794958Y-91550974D01*
X154622688Y-91135053D01*
X154228490Y-90703179D01*
X154093687Y-90640000D01*
X154228490Y-90576821D01*
X154622688Y-90144947D01*
X154794958Y-89729026D01*
X154673817Y-89497000D01*
X153467000Y-89497000D01*
X153213000Y-89497000D01*
X153193000Y-89497000D01*
X153193000Y-89243000D01*
X153213000Y-89243000D01*
X153213000Y-86957000D01*
X153467000Y-86957000D01*
X153467000Y-89243000D01*
X154673817Y-89243000D01*
X154794958Y-89010974D01*
X154622688Y-88595053D01*
X154228490Y-88163179D01*
X154093687Y-88100000D01*
X154228490Y-88036821D01*
X154622688Y-87604947D01*
X154794958Y-87189026D01*
X154673817Y-86957000D01*
X153467000Y-86957000D01*
X153213000Y-86957000D01*
X153193000Y-86957000D01*
X153193000Y-86703000D01*
X153213000Y-86703000D01*
X153213000Y-84417000D01*
X153467000Y-84417000D01*
X153467000Y-86703000D01*
X154673817Y-86703000D01*
X154794958Y-86470974D01*
X154622688Y-86055053D01*
X154228490Y-85623179D01*
X154093687Y-85560000D01*
X154228490Y-85496821D01*
X154622688Y-85064947D01*
X154794958Y-84649026D01*
X154673817Y-84417000D01*
X153467000Y-84417000D01*
X153213000Y-84417000D01*
X153193000Y-84417000D01*
X153193000Y-84163000D01*
X153213000Y-84163000D01*
X153213000Y-81877000D01*
X153467000Y-81877000D01*
X153467000Y-84163000D01*
X154673817Y-84163000D01*
X154794958Y-83930974D01*
X154622688Y-83515053D01*
X154228490Y-83083179D01*
X154093687Y-83020000D01*
X154228490Y-82956821D01*
X154622688Y-82524947D01*
X154794958Y-82109026D01*
X154673817Y-81877000D01*
X153467000Y-81877000D01*
X153213000Y-81877000D01*
X150927000Y-81877000D01*
X150927000Y-81897000D01*
X150673000Y-81897000D01*
X150673000Y-81877000D01*
X150653000Y-81877000D01*
X150653000Y-81623000D01*
X150673000Y-81623000D01*
X150673000Y-81603000D01*
X150927000Y-81603000D01*
X150927000Y-81623000D01*
X153213000Y-81623000D01*
X153213000Y-79337000D01*
X153467000Y-79337000D01*
X153467000Y-81623000D01*
X154673817Y-81623000D01*
X154794958Y-81390974D01*
X154622688Y-80975053D01*
X154228490Y-80543179D01*
X154093687Y-80480000D01*
X154228490Y-80416821D01*
X154622688Y-79984947D01*
X154794958Y-79569026D01*
X154673817Y-79337000D01*
X153467000Y-79337000D01*
X153213000Y-79337000D01*
X153193000Y-79337000D01*
X153193000Y-79083000D01*
X153213000Y-79083000D01*
X153213000Y-76797000D01*
X153467000Y-76797000D01*
X153467000Y-79083000D01*
X154673817Y-79083000D01*
X154794958Y-78850974D01*
X154622688Y-78435053D01*
X154228490Y-78003179D01*
X154093687Y-77940000D01*
X154228490Y-77876821D01*
X154622688Y-77444947D01*
X154794958Y-77029026D01*
X154673817Y-76797000D01*
X153467000Y-76797000D01*
X153213000Y-76797000D01*
X153193000Y-76797000D01*
X153193000Y-76543000D01*
X153213000Y-76543000D01*
X153213000Y-74257000D01*
X153467000Y-74257000D01*
X153467000Y-76543000D01*
X154673817Y-76543000D01*
X154794958Y-76310974D01*
X154622688Y-75895053D01*
X154228490Y-75463179D01*
X154093687Y-75400000D01*
X154228490Y-75336821D01*
X154622688Y-74904947D01*
X154794958Y-74489026D01*
X154673817Y-74257000D01*
X153467000Y-74257000D01*
X153213000Y-74257000D01*
X153193000Y-74257000D01*
X153193000Y-74003000D01*
X153213000Y-74003000D01*
X153213000Y-71717000D01*
X153467000Y-71717000D01*
X153467000Y-74003000D01*
X154673817Y-74003000D01*
X154794958Y-73770974D01*
X154622688Y-73355053D01*
X154228490Y-72923179D01*
X154093687Y-72860000D01*
X154228490Y-72796821D01*
X154622688Y-72364947D01*
X154794958Y-71949026D01*
X154673817Y-71717000D01*
X153467000Y-71717000D01*
X153213000Y-71717000D01*
X150927000Y-71717000D01*
X150927000Y-71737000D01*
X150673000Y-71737000D01*
X150673000Y-71717000D01*
X150653000Y-71717000D01*
X150653000Y-71463000D01*
X150673000Y-71463000D01*
X150673000Y-71443000D01*
X150927000Y-71443000D01*
X150927000Y-71463000D01*
X153213000Y-71463000D01*
X153213000Y-71443000D01*
X153467000Y-71443000D01*
X153467000Y-71463000D01*
X154673817Y-71463000D01*
X154794958Y-71230974D01*
X154622688Y-70815053D01*
X154228490Y-70383179D01*
X154105772Y-70325664D01*
X154429029Y-70109670D01*
X154753885Y-69623489D01*
X154867959Y-69050000D01*
X154753885Y-68476511D01*
X154429029Y-67990330D01*
X154105772Y-67774336D01*
X154228490Y-67716821D01*
X154622688Y-67284947D01*
X154794958Y-66869026D01*
X154673817Y-66637000D01*
X153467000Y-66637000D01*
X153467000Y-66657000D01*
X153213000Y-66657000D01*
X153213000Y-66637000D01*
X150927000Y-66637000D01*
X150927000Y-66657000D01*
X150673000Y-66657000D01*
X150673000Y-66637000D01*
X150653000Y-66637000D01*
X150653000Y-66383000D01*
X150673000Y-66383000D01*
X150673000Y-66363000D01*
X150927000Y-66363000D01*
X150927000Y-66383000D01*
X153213000Y-66383000D01*
X153213000Y-66363000D01*
X153467000Y-66363000D01*
X153467000Y-66383000D01*
X154673817Y-66383000D01*
X154794958Y-66150974D01*
X154622688Y-65735053D01*
X154228490Y-65303179D01*
X154105772Y-65245664D01*
X154429029Y-65029670D01*
X154753885Y-64543489D01*
X154867959Y-63970000D01*
X154753885Y-63396511D01*
X154429029Y-62910330D01*
X154114248Y-62700000D01*
X154429029Y-62489670D01*
X154753885Y-62003489D01*
X154867959Y-61430000D01*
X154753885Y-60856511D01*
X154429029Y-60370330D01*
X154114248Y-60160000D01*
X154429029Y-59949670D01*
X154753885Y-59463489D01*
X154867959Y-58890000D01*
X154753885Y-58316511D01*
X154429029Y-57830330D01*
X153942848Y-57505474D01*
X153369359Y-57391400D01*
X153310641Y-57391400D01*
X152737152Y-57505474D01*
X152271558Y-57816574D01*
X152266762Y-57791083D01*
X152127690Y-57574959D01*
X151915490Y-57429969D01*
X151663600Y-57378960D01*
X149936400Y-57378960D01*
X149701083Y-57423238D01*
X149484959Y-57562310D01*
X149339969Y-57774510D01*
X149288960Y-58026400D01*
X149288960Y-59326238D01*
X149109388Y-59505810D01*
X149210000Y-59000000D01*
X148508930Y-55475486D01*
X146512453Y-52487547D01*
X143852166Y-50710000D01*
X155290000Y-50710000D01*
X155290000Y-105290000D01*
G36*
X128067000Y-101943000D02*
X128087000Y-101943000D01*
X128087000Y-102197000D01*
X128067000Y-102197000D01*
X128067000Y-104483000D01*
X128087000Y-104483000D01*
X128087000Y-104737000D01*
X128067000Y-104737000D01*
X128067000Y-104757000D01*
X127813000Y-104757000D01*
X127813000Y-104737000D01*
X127793000Y-104737000D01*
X127793000Y-104483000D01*
X127813000Y-104483000D01*
X127813000Y-102197000D01*
X127793000Y-102197000D01*
X127793000Y-101943000D01*
X127813000Y-101943000D01*
X127813000Y-101923000D01*
X128067000Y-101923000D01*
X128067000Y-101943000D01*
X128067000Y-101943000D01*
G37*
X128067000Y-101943000D02*
X128087000Y-101943000D01*
X128087000Y-102197000D01*
X128067000Y-102197000D01*
X128067000Y-104483000D01*
X128087000Y-104483000D01*
X128087000Y-104737000D01*
X128067000Y-104737000D01*
X128067000Y-104757000D01*
X127813000Y-104757000D01*
X127813000Y-104737000D01*
X127793000Y-104737000D01*
X127793000Y-104483000D01*
X127813000Y-104483000D01*
X127813000Y-102197000D01*
X127793000Y-102197000D01*
X127793000Y-101943000D01*
X127813000Y-101943000D01*
X127813000Y-101923000D01*
X128067000Y-101923000D01*
X128067000Y-101943000D01*
G36*
X129420330Y-103159029D02*
X129691172Y-103340000D01*
X129420330Y-103520971D01*
X129204336Y-103844228D01*
X129146821Y-103721510D01*
X128728848Y-103340000D01*
X129146821Y-102958490D01*
X129204336Y-102835772D01*
X129420330Y-103159029D01*
X129420330Y-103159029D01*
G37*
X129420330Y-103159029D02*
X129691172Y-103340000D01*
X129420330Y-103520971D01*
X129204336Y-103844228D01*
X129146821Y-103721510D01*
X128728848Y-103340000D01*
X129146821Y-102958490D01*
X129204336Y-102835772D01*
X129420330Y-103159029D01*
G36*
X131813179Y-102958490D02*
X132231152Y-103340000D01*
X131813179Y-103721510D01*
X131755664Y-103844228D01*
X131539670Y-103520971D01*
X131268828Y-103340000D01*
X131539670Y-103159029D01*
X131755664Y-102835772D01*
X131813179Y-102958490D01*
X131813179Y-102958490D01*
G37*
X131813179Y-102958490D02*
X132231152Y-103340000D01*
X131813179Y-103721510D01*
X131755664Y-103844228D01*
X131539670Y-103520971D01*
X131268828Y-103340000D01*
X131539670Y-103159029D01*
X131755664Y-102835772D01*
X131813179Y-102958490D01*
G36*
X119246574Y-103138442D02*
X119221083Y-103143238D01*
X119004959Y-103282310D01*
X118859969Y-103494510D01*
X118840961Y-103588375D01*
X118568839Y-103339992D01*
X118839670Y-103159029D01*
X119050000Y-102844248D01*
X119246574Y-103138442D01*
X119246574Y-103138442D01*
G37*
X119246574Y-103138442D02*
X119221083Y-103143238D01*
X119004959Y-103282310D01*
X118859969Y-103494510D01*
X118840961Y-103588375D01*
X118568839Y-103339992D01*
X118839670Y-103159029D01*
X119050000Y-102844248D01*
X119246574Y-103138442D01*
G36*
X149301400Y-81877002D02*
X149466182Y-81877002D01*
X149345042Y-82109026D01*
X149517312Y-82524947D01*
X149911510Y-82956821D01*
X150034228Y-83014336D01*
X149710971Y-83230330D01*
X149386115Y-83716511D01*
X149272041Y-84290000D01*
X149347225Y-84667973D01*
X145182599Y-88832599D01*
X145160000Y-88866421D01*
X145160000Y-85914802D01*
X149301400Y-81773402D01*
X149301400Y-81877002D01*
X149301400Y-81877002D01*
G37*
X149301400Y-81877002D02*
X149466182Y-81877002D01*
X149345042Y-82109026D01*
X149517312Y-82524947D01*
X149911510Y-82956821D01*
X150034228Y-83014336D01*
X149710971Y-83230330D01*
X149386115Y-83716511D01*
X149272041Y-84290000D01*
X149347225Y-84667973D01*
X145182599Y-88832599D01*
X145160000Y-88866421D01*
X145160000Y-85914802D01*
X149301400Y-81773402D01*
X149301400Y-81877002D01*
G36*
X149911510Y-72796821D02*
X150034228Y-72854336D01*
X149710971Y-73070330D01*
X149386115Y-73556511D01*
X149272041Y-74130000D01*
X149347225Y-74507973D01*
X146484978Y-77370220D01*
X146484978Y-76262645D01*
X149637401Y-73110222D01*
X149802148Y-72863660D01*
X149832633Y-72710405D01*
X149911510Y-72796821D01*
X149911510Y-72796821D01*
G37*
X149911510Y-72796821D02*
X150034228Y-72854336D01*
X149710971Y-73070330D01*
X149386115Y-73556511D01*
X149272041Y-74130000D01*
X149347225Y-74507973D01*
X146484978Y-77370220D01*
X146484978Y-76262645D01*
X149637401Y-73110222D01*
X149802148Y-72863660D01*
X149832633Y-72710405D01*
X149911510Y-72796821D01*
M02*
