M48
;DRILL file {KiCad 4.0.2-stable} date 2016/12/18 4:07:29
;FORMAT={-:-/ absolute / metric / decimal}
FMAT,2
METRIC,TZ
T1C0.400
T2C0.762
T3C0.800
T4C1.000
T5C1.001
T6C1.016
T7C3.200
%
G90
G05
M71
T1
X101.Y-57.
X101.Y-60.5
X101.Y-65.
X101.Y-70.5
X101.Y-75.5
X101.Y-80.5
X101.Y-85.5
X101.Y-90.5
X101.Y-94.
X101.Y-98.5
X101.Y-103.
X107.Y-51.
X110.Y-51.
X114.1Y-94.4
X114.1Y-95.3
X118.5Y-70.
X118.5Y-74.7
X119.Y-100.5
X119.Y-103.
X119.5Y-96.5
X120.3Y-96.5
X121.Y-70.
X126.5Y-98.4
X127.4Y-98.4
X129.9Y-66.5
X130.7Y-66.5
X131.4Y-72.5
X132.3Y-72.5
X137.1Y-75.5
X137.1Y-76.3
X145.Y-51.
X145.Y-97.5
X145.35Y-87.2
X146.35Y-76.9
X146.7Y-67.
X148.5Y-51.
X155.Y-57.
X155.Y-63.
X155.Y-68.
X155.Y-73.
X155.Y-78.
X155.Y-83.
X155.Y-88.
X155.Y-94.
X155.Y-99.
T2
X127.94Y-63.97
X127.94Y-65.24
X127.94Y-66.51
X127.94Y-67.78
T3
X110.24Y-76.
X112.78Y-94.45
X115.24Y-76.
X117.78Y-94.45
X135.6Y-75.5
X140.6Y-75.5
T5
X109.7Y-80.5
X109.7Y-90.66
X113.2Y-80.5
X113.2Y-90.66
X116.7Y-80.5
X116.7Y-90.66
T6
X102.54Y-58.89
X102.54Y-61.43
X102.54Y-63.97
X102.54Y-66.51
X102.54Y-69.05
X102.54Y-71.59
X102.54Y-74.13
X102.54Y-76.67
X102.54Y-79.21
X102.54Y-81.75
X102.54Y-84.29
X102.54Y-86.83
X102.54Y-89.37
X102.54Y-91.91
X102.54Y-102.07
X102.54Y-104.61
X105.08Y-58.89
X105.08Y-61.43
X105.08Y-63.97
X105.08Y-66.51
X105.08Y-69.05
X105.08Y-71.59
X105.08Y-74.13
X105.08Y-76.67
X105.08Y-79.21
X105.08Y-81.75
X105.08Y-84.29
X105.08Y-86.83
X105.08Y-89.37
X105.08Y-91.91
X105.08Y-102.07
X105.08Y-104.61
X107.62Y-102.07
X107.62Y-104.61
X110.16Y-102.07
X110.16Y-104.61
X112.7Y-102.07
X112.7Y-104.61
X115.24Y-102.07
X115.24Y-104.61
X117.78Y-102.07
X117.78Y-104.61
X120.32Y-102.07
X120.32Y-104.61
X122.86Y-102.07
X122.86Y-104.61
X125.4Y-102.07
X125.4Y-104.61
X127.94Y-102.07
X127.94Y-104.61
X130.48Y-102.07
X130.48Y-104.61
X133.02Y-102.07
X133.02Y-104.61
X135.56Y-102.07
X135.56Y-104.61
X138.1Y-102.07
X138.1Y-104.61
X140.64Y-102.07
X140.64Y-104.61
X143.18Y-102.07
X143.18Y-104.61
X145.72Y-102.07
X145.72Y-104.61
X148.26Y-102.07
X148.26Y-104.61
X150.8Y-58.89
X150.8Y-61.43
X150.8Y-63.97
X150.8Y-66.51
X150.8Y-69.05
X150.8Y-71.59
X150.8Y-74.13
X150.8Y-76.67
X150.8Y-79.21
X150.8Y-81.75
X150.8Y-84.29
X150.8Y-86.83
X150.8Y-89.37
X150.8Y-91.91
X150.8Y-102.07
X150.8Y-104.61
X153.34Y-58.89
X153.34Y-61.43
X153.34Y-63.97
X153.34Y-66.51
X153.34Y-69.05
X153.34Y-71.59
X153.34Y-74.13
X153.34Y-76.67
X153.34Y-79.21
X153.34Y-81.75
X153.34Y-84.29
X153.34Y-86.83
X153.34Y-89.37
X153.34Y-91.91
X153.34Y-102.07
X153.34Y-104.61
T7
X104.Y-54.
X104.Y-96.
X152.Y-54.
X152.Y-96.
T4
X112.1Y-72.5G85X109.9Y-72.5
G05
X117.1Y-72.5G85X114.9Y-72.5
G05
X122.1Y-72.5G85X119.9Y-72.5
G05
X124.1Y-96.5G85X121.9Y-96.5
G05
X129.1Y-96.5G85X126.9Y-96.5
G05
X134.1Y-96.5G85X131.9Y-96.5
G05
X136.1Y-72.5G85X133.9Y-72.5
G05
X141.1Y-72.5G85X138.9Y-72.5
G05
X146.1Y-72.5G85X143.9Y-72.5
G05
T0
M30
