G04 #@! TF.FileFunction,Legend,Top*
%FSLAX46Y46*%
G04 Gerber Fmt 4.6, Leading zero omitted, Abs format (unit mm)*
G04 Created by KiCad (PCBNEW 4.0.2-stable) date 2017/01/23 23:07:35*
%MOMM*%
G01*
G04 APERTURE LIST*
%ADD10C,0.100000*%
%ADD11C,0.120000*%
%ADD12C,0.150000*%
%ADD13C,0.010000*%
%ADD14R,1.800000X1.800000*%
%ADD15C,1.800000*%
%ADD16C,4.500000*%
%ADD17R,1.700000X1.700000*%
%ADD18O,1.700000X1.700000*%
%ADD19O,3.048000X1.727200*%
%ADD20O,3.600000X1.400000*%
G04 APERTURE END LIST*
D10*
D11*
X107260000Y-84000462D02*
G75*
G03X101710000Y-82455170I-2990000J462D01*
G01*
X107260000Y-83999538D02*
G75*
G02X101710000Y-85544830I-2990000J-462D01*
G01*
X106770000Y-84000000D02*
G75*
G03X106770000Y-84000000I-2500000J0D01*
G01*
X101710000Y-82455000D02*
X101710000Y-85545000D01*
X129260000Y-84000462D02*
G75*
G03X123710000Y-82455170I-2990000J462D01*
G01*
X129260000Y-83999538D02*
G75*
G02X123710000Y-85544830I-2990000J-462D01*
G01*
X128770000Y-84000000D02*
G75*
G03X128770000Y-84000000I-2500000J0D01*
G01*
X123710000Y-82455000D02*
X123710000Y-85545000D01*
X151260000Y-84000462D02*
G75*
G03X145710000Y-82455170I-2990000J462D01*
G01*
X151260000Y-83999538D02*
G75*
G02X145710000Y-85544830I-2990000J-462D01*
G01*
X150770000Y-84000000D02*
G75*
G03X150770000Y-84000000I-2500000J0D01*
G01*
X145710000Y-82455000D02*
X145710000Y-85545000D01*
X173260000Y-84000462D02*
G75*
G03X167710000Y-82455170I-2990000J462D01*
G01*
X173260000Y-83999538D02*
G75*
G02X167710000Y-85544830I-2990000J-462D01*
G01*
X172770000Y-84000000D02*
G75*
G03X172770000Y-84000000I-2500000J0D01*
G01*
X167710000Y-82455000D02*
X167710000Y-85545000D01*
X170490000Y-51660000D02*
X175690000Y-51660000D01*
X175690000Y-51660000D02*
X175690000Y-48880000D01*
X175690000Y-48880000D02*
X170490000Y-48880000D01*
X170490000Y-48880000D02*
X170490000Y-51660000D01*
X169220000Y-51660000D02*
X167830000Y-51660000D01*
X167830000Y-51660000D02*
X167830000Y-50270000D01*
D12*
X174579050Y-95000000D02*
G75*
G03X174579050Y-95000000I-4579050J0D01*
G01*
X163650000Y-88650000D02*
X176350000Y-88650000D01*
X176350000Y-88650000D02*
X176350000Y-101350000D01*
X176350000Y-101350000D02*
X163650000Y-101350000D01*
X163650000Y-101350000D02*
X163650000Y-88650000D01*
X152579050Y-95000000D02*
G75*
G03X152579050Y-95000000I-4579050J0D01*
G01*
X141650000Y-88650000D02*
X154350000Y-88650000D01*
X154350000Y-88650000D02*
X154350000Y-101350000D01*
X154350000Y-101350000D02*
X141650000Y-101350000D01*
X141650000Y-101350000D02*
X141650000Y-88650000D01*
X130579050Y-95000000D02*
G75*
G03X130579050Y-95000000I-4579050J0D01*
G01*
X119650000Y-88650000D02*
X132350000Y-88650000D01*
X132350000Y-88650000D02*
X132350000Y-101350000D01*
X132350000Y-101350000D02*
X119650000Y-101350000D01*
X119650000Y-101350000D02*
X119650000Y-88650000D01*
X108579050Y-95000000D02*
G75*
G03X108579050Y-95000000I-4579050J0D01*
G01*
X97650000Y-88650000D02*
X110350000Y-88650000D01*
X110350000Y-88650000D02*
X110350000Y-101350000D01*
X110350000Y-101350000D02*
X97650000Y-101350000D01*
X97650000Y-101350000D02*
X97650000Y-88650000D01*
X177500000Y-77000000D02*
X177000000Y-77000000D01*
X177500000Y-68000000D02*
X177500000Y-77000000D01*
X162500000Y-77000000D02*
X163000000Y-77000000D01*
X162500000Y-68000000D02*
X162500000Y-77000000D01*
X163500000Y-69500000D02*
X176500000Y-69500000D01*
X163500000Y-58500000D02*
X176500000Y-58500000D01*
X162500000Y-62500000D02*
X162500000Y-65500000D01*
X161500000Y-62500000D02*
X162500000Y-62500000D01*
X161500000Y-65500000D02*
X161500000Y-62500000D01*
X162500000Y-65500000D02*
X161500000Y-65500000D01*
X169200000Y-62900000D02*
X171200000Y-64600000D01*
X168900000Y-63300000D02*
X170900000Y-65100000D01*
X171414214Y-64000000D02*
G75*
G03X171414214Y-64000000I-1414214J0D01*
G01*
X172000000Y-64000000D02*
G75*
G03X172000000Y-64000000I-2000000J0D01*
G01*
X178500000Y-64000000D02*
G75*
G03X178500000Y-64000000I-8500000J0D01*
G01*
X173000000Y-64000000D02*
G75*
G03X173000000Y-64000000I-3000000J0D01*
G01*
X155500000Y-77000000D02*
X155000000Y-77000000D01*
X155500000Y-68000000D02*
X155500000Y-77000000D01*
X140500000Y-77000000D02*
X141000000Y-77000000D01*
X140500000Y-68000000D02*
X140500000Y-77000000D01*
X141500000Y-69500000D02*
X154500000Y-69500000D01*
X141500000Y-58500000D02*
X154500000Y-58500000D01*
X140500000Y-62500000D02*
X140500000Y-65500000D01*
X139500000Y-62500000D02*
X140500000Y-62500000D01*
X139500000Y-65500000D02*
X139500000Y-62500000D01*
X140500000Y-65500000D02*
X139500000Y-65500000D01*
X147200000Y-62900000D02*
X149200000Y-64600000D01*
X146900000Y-63300000D02*
X148900000Y-65100000D01*
X149414214Y-64000000D02*
G75*
G03X149414214Y-64000000I-1414214J0D01*
G01*
X150000000Y-64000000D02*
G75*
G03X150000000Y-64000000I-2000000J0D01*
G01*
X156500000Y-64000000D02*
G75*
G03X156500000Y-64000000I-8500000J0D01*
G01*
X151000000Y-64000000D02*
G75*
G03X151000000Y-64000000I-3000000J0D01*
G01*
X133500000Y-77000000D02*
X133000000Y-77000000D01*
X133500000Y-68000000D02*
X133500000Y-77000000D01*
X118500000Y-77000000D02*
X119000000Y-77000000D01*
X118500000Y-68000000D02*
X118500000Y-77000000D01*
X119500000Y-69500000D02*
X132500000Y-69500000D01*
X119500000Y-58500000D02*
X132500000Y-58500000D01*
X118500000Y-62500000D02*
X118500000Y-65500000D01*
X117500000Y-62500000D02*
X118500000Y-62500000D01*
X117500000Y-65500000D02*
X117500000Y-62500000D01*
X118500000Y-65500000D02*
X117500000Y-65500000D01*
X125200000Y-62900000D02*
X127200000Y-64600000D01*
X124900000Y-63300000D02*
X126900000Y-65100000D01*
X127414214Y-64000000D02*
G75*
G03X127414214Y-64000000I-1414214J0D01*
G01*
X128000000Y-64000000D02*
G75*
G03X128000000Y-64000000I-2000000J0D01*
G01*
X134500000Y-64000000D02*
G75*
G03X134500000Y-64000000I-8500000J0D01*
G01*
X129000000Y-64000000D02*
G75*
G03X129000000Y-64000000I-3000000J0D01*
G01*
X111500000Y-77000000D02*
X111000000Y-77000000D01*
X111500000Y-68000000D02*
X111500000Y-77000000D01*
X96500000Y-77000000D02*
X97000000Y-77000000D01*
X96500000Y-68000000D02*
X96500000Y-77000000D01*
X97500000Y-69500000D02*
X110500000Y-69500000D01*
X97500000Y-58500000D02*
X110500000Y-58500000D01*
X96500000Y-62500000D02*
X96500000Y-65500000D01*
X95500000Y-62500000D02*
X96500000Y-62500000D01*
X95500000Y-65500000D02*
X95500000Y-62500000D01*
X96500000Y-65500000D02*
X95500000Y-65500000D01*
X103200000Y-62900000D02*
X105200000Y-64600000D01*
X102900000Y-63300000D02*
X104900000Y-65100000D01*
X105414214Y-64000000D02*
G75*
G03X105414214Y-64000000I-1414214J0D01*
G01*
X106000000Y-64000000D02*
G75*
G03X106000000Y-64000000I-2000000J0D01*
G01*
X112500000Y-64000000D02*
G75*
G03X112500000Y-64000000I-8500000J0D01*
G01*
X107000000Y-64000000D02*
G75*
G03X107000000Y-64000000I-3000000J0D01*
G01*
D11*
X180530000Y-64240000D02*
X180530000Y-97380000D01*
X180530000Y-97380000D02*
X185850000Y-97380000D01*
X185850000Y-97380000D02*
X185850000Y-61580000D01*
X185850000Y-61580000D02*
X183190000Y-61580000D01*
X183190000Y-61580000D02*
X183190000Y-64240000D01*
X183190000Y-64240000D02*
X180530000Y-64240000D01*
X180530000Y-62970000D02*
X180530000Y-61580000D01*
X180530000Y-61580000D02*
X181920000Y-61580000D01*
X88150000Y-64240000D02*
X88150000Y-97380000D01*
X88150000Y-97380000D02*
X93470000Y-97380000D01*
X93470000Y-97380000D02*
X93470000Y-61580000D01*
X93470000Y-61580000D02*
X90810000Y-61580000D01*
X90810000Y-61580000D02*
X90810000Y-64240000D01*
X90810000Y-64240000D02*
X88150000Y-64240000D01*
X88150000Y-62970000D02*
X88150000Y-61580000D01*
X88150000Y-61580000D02*
X89540000Y-61580000D01*
D13*
G36*
X97443061Y-50766116D02*
X97357127Y-50852408D01*
X97271194Y-50938701D01*
X97397897Y-51065647D01*
X97524601Y-51192594D01*
X97606489Y-51111046D01*
X97688377Y-51029499D01*
X98225760Y-51566938D01*
X98307633Y-51648935D01*
X98385709Y-51727352D01*
X98459046Y-51801231D01*
X98526703Y-51869614D01*
X98587740Y-51931542D01*
X98641215Y-51986056D01*
X98686187Y-52032199D01*
X98721715Y-52069012D01*
X98746859Y-52095536D01*
X98760676Y-52110814D01*
X98763143Y-52114224D01*
X98756858Y-52121983D01*
X98738633Y-52141556D01*
X98709413Y-52171984D01*
X98670145Y-52212308D01*
X98621774Y-52261571D01*
X98565246Y-52318813D01*
X98501505Y-52383075D01*
X98431499Y-52453401D01*
X98356172Y-52528830D01*
X98276469Y-52608405D01*
X98227070Y-52657613D01*
X97690996Y-53191156D01*
X97149908Y-52650067D01*
X96608819Y-52108979D01*
X96699453Y-52018143D01*
X96781279Y-52018143D01*
X97039571Y-52018143D01*
X97039571Y-51891143D01*
X97039411Y-51845499D01*
X97038970Y-51807132D01*
X97038310Y-51779289D01*
X97037492Y-51765215D01*
X97037182Y-51764143D01*
X97030352Y-51770254D01*
X97012704Y-51787294D01*
X96986210Y-51813325D01*
X96952840Y-51846407D01*
X96914568Y-51884601D01*
X96908036Y-51891143D01*
X96781279Y-52018143D01*
X96699453Y-52018143D01*
X96726563Y-51990973D01*
X96844306Y-51872968D01*
X96792262Y-51820924D01*
X96740219Y-51768880D01*
X96591445Y-51917449D01*
X96543668Y-51965351D01*
X96507318Y-52002446D01*
X96480852Y-52030613D01*
X96462727Y-52051731D01*
X96451397Y-52067676D01*
X96445321Y-52080328D01*
X96442954Y-52091566D01*
X96442671Y-52098469D01*
X96434388Y-52131160D01*
X96412673Y-52158814D01*
X96382233Y-52176889D01*
X96356693Y-52181429D01*
X96345543Y-52182731D01*
X96333180Y-52187694D01*
X96317690Y-52197896D01*
X96297159Y-52214919D01*
X96269673Y-52240343D01*
X96233317Y-52275749D01*
X96189015Y-52319874D01*
X96143031Y-52366169D01*
X96108450Y-52401759D01*
X96083677Y-52428603D01*
X96067120Y-52448656D01*
X96057186Y-52463875D01*
X96052280Y-52476215D01*
X96050809Y-52487634D01*
X96050786Y-52489581D01*
X96054837Y-52514369D01*
X96069158Y-52538302D01*
X96084527Y-52555397D01*
X96118269Y-52589951D01*
X96238800Y-52469669D01*
X96359331Y-52349386D01*
X97443212Y-53433267D01*
X96903509Y-53973026D01*
X96821452Y-54055034D01*
X96743083Y-54133238D01*
X96669350Y-54206703D01*
X96601197Y-54274492D01*
X96539570Y-54335669D01*
X96485413Y-54389297D01*
X96439672Y-54434440D01*
X96403293Y-54470161D01*
X96377219Y-54495524D01*
X96362398Y-54509593D01*
X96359243Y-54512237D01*
X96352278Y-54505894D01*
X96333430Y-54487663D01*
X96303646Y-54458479D01*
X96263872Y-54419283D01*
X96215055Y-54371012D01*
X96158143Y-54314605D01*
X96094082Y-54250998D01*
X96023820Y-54181132D01*
X95948302Y-54105943D01*
X95868476Y-54026371D01*
X95814928Y-53972943D01*
X95275178Y-53434197D01*
X95359065Y-53349685D01*
X95442951Y-53265173D01*
X95316004Y-53138469D01*
X95189058Y-53011765D01*
X95105019Y-53095455D01*
X95020980Y-53179144D01*
X94794257Y-52952397D01*
X95248104Y-52952397D01*
X95374946Y-53079482D01*
X95501789Y-53206568D01*
X95780661Y-52927804D01*
X96059533Y-52649041D01*
X96026104Y-52614806D01*
X95995508Y-52589434D01*
X95969039Y-52580594D01*
X95967729Y-52580572D01*
X95926728Y-52572591D01*
X95894841Y-52550502D01*
X95874873Y-52517085D01*
X95869357Y-52483016D01*
X95861653Y-52456033D01*
X95837714Y-52426462D01*
X95837368Y-52426126D01*
X95805380Y-52395121D01*
X95248104Y-52952397D01*
X94794257Y-52952397D01*
X94032441Y-52190500D01*
X95660714Y-52190500D01*
X95660714Y-52322036D01*
X95660869Y-52368542D01*
X95661295Y-52407828D01*
X95661934Y-52436703D01*
X95662729Y-52451978D01*
X95663099Y-52453572D01*
X95669922Y-52447456D01*
X95687599Y-52430379D01*
X95714197Y-52404244D01*
X95747778Y-52370958D01*
X95786408Y-52332425D01*
X95796786Y-52322036D01*
X95928087Y-52190500D01*
X95660714Y-52190500D01*
X94032441Y-52190500D01*
X93941736Y-52099786D01*
X94481369Y-51560095D01*
X94776215Y-51265217D01*
X95266184Y-51265217D01*
X95683347Y-51682454D01*
X96100511Y-52099692D01*
X95982978Y-52217486D01*
X95865446Y-52335279D01*
X95896395Y-52367211D01*
X95921167Y-52388723D01*
X95944324Y-52397971D01*
X95959477Y-52399143D01*
X95971096Y-52398192D01*
X95983042Y-52394274D01*
X95997287Y-52385790D01*
X96015802Y-52371144D01*
X96040559Y-52348736D01*
X96073530Y-52316970D01*
X96116687Y-52274248D01*
X96130054Y-52260913D01*
X96176841Y-52213862D01*
X96212046Y-52177496D01*
X96237211Y-52149973D01*
X96253877Y-52129451D01*
X96263587Y-52114087D01*
X96267881Y-52102038D01*
X96268500Y-52095443D01*
X96266949Y-52085717D01*
X96261392Y-52073756D01*
X96250474Y-52058000D01*
X96232842Y-52036885D01*
X96207139Y-52008850D01*
X96172012Y-51972333D01*
X96126105Y-51925770D01*
X96089476Y-51889010D01*
X95910453Y-51709819D01*
X95915478Y-51704770D01*
X96023358Y-51704770D01*
X96173829Y-51855437D01*
X96222024Y-51903512D01*
X96259376Y-51940144D01*
X96287733Y-51966854D01*
X96308944Y-51985164D01*
X96324858Y-51996596D01*
X96337323Y-52002670D01*
X96348187Y-52004909D01*
X96355580Y-52005017D01*
X96366021Y-52003604D01*
X96377524Y-51999152D01*
X96391741Y-51990248D01*
X96410326Y-51975483D01*
X96434930Y-51953444D01*
X96467206Y-51922722D01*
X96508806Y-51881903D01*
X96561383Y-51829579D01*
X96563486Y-51827479D01*
X96740112Y-51651027D01*
X96821892Y-51732427D01*
X96903671Y-51813828D01*
X97187039Y-51530461D01*
X97470406Y-51247093D01*
X97342908Y-51119594D01*
X97215409Y-50992096D01*
X96357947Y-51839724D01*
X96240742Y-51722779D01*
X96123537Y-51605835D01*
X96073447Y-51655302D01*
X96023358Y-51704770D01*
X95915478Y-51704770D01*
X95989629Y-51630274D01*
X96068806Y-51550729D01*
X95928376Y-51410357D01*
X96010199Y-51410357D01*
X96141500Y-51541893D01*
X96181103Y-51581455D01*
X96216149Y-51616254D01*
X96244703Y-51644384D01*
X96264828Y-51663941D01*
X96274589Y-51673019D01*
X96275186Y-51673429D01*
X96276029Y-51664889D01*
X96276742Y-51641396D01*
X96277265Y-51606139D01*
X96277542Y-51562307D01*
X96277571Y-51541893D01*
X96277571Y-51410357D01*
X96010199Y-51410357D01*
X95928376Y-51410357D01*
X95524626Y-51006775D01*
X95266184Y-51265217D01*
X94776215Y-51265217D01*
X95021002Y-51020405D01*
X95211944Y-51210755D01*
X95341049Y-51081419D01*
X95470154Y-50952084D01*
X95374946Y-50856876D01*
X95279738Y-50761669D01*
X95819486Y-50221978D01*
X96359233Y-49682288D01*
X97443061Y-50766116D01*
X97443061Y-50766116D01*
G37*
X97443061Y-50766116D02*
X97357127Y-50852408D01*
X97271194Y-50938701D01*
X97397897Y-51065647D01*
X97524601Y-51192594D01*
X97606489Y-51111046D01*
X97688377Y-51029499D01*
X98225760Y-51566938D01*
X98307633Y-51648935D01*
X98385709Y-51727352D01*
X98459046Y-51801231D01*
X98526703Y-51869614D01*
X98587740Y-51931542D01*
X98641215Y-51986056D01*
X98686187Y-52032199D01*
X98721715Y-52069012D01*
X98746859Y-52095536D01*
X98760676Y-52110814D01*
X98763143Y-52114224D01*
X98756858Y-52121983D01*
X98738633Y-52141556D01*
X98709413Y-52171984D01*
X98670145Y-52212308D01*
X98621774Y-52261571D01*
X98565246Y-52318813D01*
X98501505Y-52383075D01*
X98431499Y-52453401D01*
X98356172Y-52528830D01*
X98276469Y-52608405D01*
X98227070Y-52657613D01*
X97690996Y-53191156D01*
X97149908Y-52650067D01*
X96608819Y-52108979D01*
X96699453Y-52018143D01*
X96781279Y-52018143D01*
X97039571Y-52018143D01*
X97039571Y-51891143D01*
X97039411Y-51845499D01*
X97038970Y-51807132D01*
X97038310Y-51779289D01*
X97037492Y-51765215D01*
X97037182Y-51764143D01*
X97030352Y-51770254D01*
X97012704Y-51787294D01*
X96986210Y-51813325D01*
X96952840Y-51846407D01*
X96914568Y-51884601D01*
X96908036Y-51891143D01*
X96781279Y-52018143D01*
X96699453Y-52018143D01*
X96726563Y-51990973D01*
X96844306Y-51872968D01*
X96792262Y-51820924D01*
X96740219Y-51768880D01*
X96591445Y-51917449D01*
X96543668Y-51965351D01*
X96507318Y-52002446D01*
X96480852Y-52030613D01*
X96462727Y-52051731D01*
X96451397Y-52067676D01*
X96445321Y-52080328D01*
X96442954Y-52091566D01*
X96442671Y-52098469D01*
X96434388Y-52131160D01*
X96412673Y-52158814D01*
X96382233Y-52176889D01*
X96356693Y-52181429D01*
X96345543Y-52182731D01*
X96333180Y-52187694D01*
X96317690Y-52197896D01*
X96297159Y-52214919D01*
X96269673Y-52240343D01*
X96233317Y-52275749D01*
X96189015Y-52319874D01*
X96143031Y-52366169D01*
X96108450Y-52401759D01*
X96083677Y-52428603D01*
X96067120Y-52448656D01*
X96057186Y-52463875D01*
X96052280Y-52476215D01*
X96050809Y-52487634D01*
X96050786Y-52489581D01*
X96054837Y-52514369D01*
X96069158Y-52538302D01*
X96084527Y-52555397D01*
X96118269Y-52589951D01*
X96238800Y-52469669D01*
X96359331Y-52349386D01*
X97443212Y-53433267D01*
X96903509Y-53973026D01*
X96821452Y-54055034D01*
X96743083Y-54133238D01*
X96669350Y-54206703D01*
X96601197Y-54274492D01*
X96539570Y-54335669D01*
X96485413Y-54389297D01*
X96439672Y-54434440D01*
X96403293Y-54470161D01*
X96377219Y-54495524D01*
X96362398Y-54509593D01*
X96359243Y-54512237D01*
X96352278Y-54505894D01*
X96333430Y-54487663D01*
X96303646Y-54458479D01*
X96263872Y-54419283D01*
X96215055Y-54371012D01*
X96158143Y-54314605D01*
X96094082Y-54250998D01*
X96023820Y-54181132D01*
X95948302Y-54105943D01*
X95868476Y-54026371D01*
X95814928Y-53972943D01*
X95275178Y-53434197D01*
X95359065Y-53349685D01*
X95442951Y-53265173D01*
X95316004Y-53138469D01*
X95189058Y-53011765D01*
X95105019Y-53095455D01*
X95020980Y-53179144D01*
X94794257Y-52952397D01*
X95248104Y-52952397D01*
X95374946Y-53079482D01*
X95501789Y-53206568D01*
X95780661Y-52927804D01*
X96059533Y-52649041D01*
X96026104Y-52614806D01*
X95995508Y-52589434D01*
X95969039Y-52580594D01*
X95967729Y-52580572D01*
X95926728Y-52572591D01*
X95894841Y-52550502D01*
X95874873Y-52517085D01*
X95869357Y-52483016D01*
X95861653Y-52456033D01*
X95837714Y-52426462D01*
X95837368Y-52426126D01*
X95805380Y-52395121D01*
X95248104Y-52952397D01*
X94794257Y-52952397D01*
X94032441Y-52190500D01*
X95660714Y-52190500D01*
X95660714Y-52322036D01*
X95660869Y-52368542D01*
X95661295Y-52407828D01*
X95661934Y-52436703D01*
X95662729Y-52451978D01*
X95663099Y-52453572D01*
X95669922Y-52447456D01*
X95687599Y-52430379D01*
X95714197Y-52404244D01*
X95747778Y-52370958D01*
X95786408Y-52332425D01*
X95796786Y-52322036D01*
X95928087Y-52190500D01*
X95660714Y-52190500D01*
X94032441Y-52190500D01*
X93941736Y-52099786D01*
X94481369Y-51560095D01*
X94776215Y-51265217D01*
X95266184Y-51265217D01*
X95683347Y-51682454D01*
X96100511Y-52099692D01*
X95982978Y-52217486D01*
X95865446Y-52335279D01*
X95896395Y-52367211D01*
X95921167Y-52388723D01*
X95944324Y-52397971D01*
X95959477Y-52399143D01*
X95971096Y-52398192D01*
X95983042Y-52394274D01*
X95997287Y-52385790D01*
X96015802Y-52371144D01*
X96040559Y-52348736D01*
X96073530Y-52316970D01*
X96116687Y-52274248D01*
X96130054Y-52260913D01*
X96176841Y-52213862D01*
X96212046Y-52177496D01*
X96237211Y-52149973D01*
X96253877Y-52129451D01*
X96263587Y-52114087D01*
X96267881Y-52102038D01*
X96268500Y-52095443D01*
X96266949Y-52085717D01*
X96261392Y-52073756D01*
X96250474Y-52058000D01*
X96232842Y-52036885D01*
X96207139Y-52008850D01*
X96172012Y-51972333D01*
X96126105Y-51925770D01*
X96089476Y-51889010D01*
X95910453Y-51709819D01*
X95915478Y-51704770D01*
X96023358Y-51704770D01*
X96173829Y-51855437D01*
X96222024Y-51903512D01*
X96259376Y-51940144D01*
X96287733Y-51966854D01*
X96308944Y-51985164D01*
X96324858Y-51996596D01*
X96337323Y-52002670D01*
X96348187Y-52004909D01*
X96355580Y-52005017D01*
X96366021Y-52003604D01*
X96377524Y-51999152D01*
X96391741Y-51990248D01*
X96410326Y-51975483D01*
X96434930Y-51953444D01*
X96467206Y-51922722D01*
X96508806Y-51881903D01*
X96561383Y-51829579D01*
X96563486Y-51827479D01*
X96740112Y-51651027D01*
X96821892Y-51732427D01*
X96903671Y-51813828D01*
X97187039Y-51530461D01*
X97470406Y-51247093D01*
X97342908Y-51119594D01*
X97215409Y-50992096D01*
X96357947Y-51839724D01*
X96240742Y-51722779D01*
X96123537Y-51605835D01*
X96073447Y-51655302D01*
X96023358Y-51704770D01*
X95915478Y-51704770D01*
X95989629Y-51630274D01*
X96068806Y-51550729D01*
X95928376Y-51410357D01*
X96010199Y-51410357D01*
X96141500Y-51541893D01*
X96181103Y-51581455D01*
X96216149Y-51616254D01*
X96244703Y-51644384D01*
X96264828Y-51663941D01*
X96274589Y-51673019D01*
X96275186Y-51673429D01*
X96276029Y-51664889D01*
X96276742Y-51641396D01*
X96277265Y-51606139D01*
X96277542Y-51562307D01*
X96277571Y-51541893D01*
X96277571Y-51410357D01*
X96010199Y-51410357D01*
X95928376Y-51410357D01*
X95524626Y-51006775D01*
X95266184Y-51265217D01*
X94776215Y-51265217D01*
X95021002Y-51020405D01*
X95211944Y-51210755D01*
X95341049Y-51081419D01*
X95470154Y-50952084D01*
X95374946Y-50856876D01*
X95279738Y-50761669D01*
X95819486Y-50221978D01*
X96359233Y-49682288D01*
X97443061Y-50766116D01*
G36*
X105201456Y-51427102D02*
X105273940Y-51434948D01*
X105326321Y-51445615D01*
X105434508Y-51482865D01*
X105530520Y-51533216D01*
X105614006Y-51596397D01*
X105684616Y-51672140D01*
X105741998Y-51760173D01*
X105746426Y-51768545D01*
X105770067Y-51814036D01*
X105781358Y-51668893D01*
X105785580Y-51617061D01*
X105789803Y-51569490D01*
X105793656Y-51530079D01*
X105796767Y-51502730D01*
X105798021Y-51494268D01*
X105803393Y-51464786D01*
X106068322Y-51464783D01*
X106333250Y-51464781D01*
X106330969Y-52074837D01*
X106330209Y-52276945D01*
X106329496Y-52461740D01*
X106328816Y-52630054D01*
X106328157Y-52782716D01*
X106327503Y-52920559D01*
X106326843Y-53044411D01*
X106326161Y-53155104D01*
X106325444Y-53253468D01*
X106324679Y-53340333D01*
X106323851Y-53416531D01*
X106322947Y-53482892D01*
X106321953Y-53540246D01*
X106320856Y-53589424D01*
X106319642Y-53631257D01*
X106318296Y-53666574D01*
X106316806Y-53696208D01*
X106315158Y-53720987D01*
X106313337Y-53741743D01*
X106311330Y-53759307D01*
X106309124Y-53774508D01*
X106306705Y-53788178D01*
X106304058Y-53801146D01*
X106302312Y-53809132D01*
X106271202Y-53922962D01*
X106230947Y-54023067D01*
X106180183Y-54112110D01*
X106117548Y-54192756D01*
X106092165Y-54219904D01*
X106010972Y-54291866D01*
X105919204Y-54352083D01*
X105815555Y-54401193D01*
X105698716Y-54439833D01*
X105591335Y-54464307D01*
X105544567Y-54470878D01*
X105484116Y-54476028D01*
X105414315Y-54479696D01*
X105339494Y-54481820D01*
X105263984Y-54482340D01*
X105192119Y-54481195D01*
X105128228Y-54478324D01*
X105076644Y-54473665D01*
X105063250Y-54471755D01*
X104932232Y-54444008D01*
X104813015Y-54405097D01*
X104706330Y-54355468D01*
X104612906Y-54295570D01*
X104533473Y-54225848D01*
X104468759Y-54146751D01*
X104431997Y-54084850D01*
X104420944Y-54060459D01*
X104408370Y-54028576D01*
X104395734Y-53993528D01*
X104384495Y-53959644D01*
X104376114Y-53931252D01*
X104372050Y-53912681D01*
X104372356Y-53907978D01*
X104382193Y-53905787D01*
X104407355Y-53901966D01*
X104445132Y-53896834D01*
X104492810Y-53890710D01*
X104547678Y-53883911D01*
X104607023Y-53876757D01*
X104668133Y-53869566D01*
X104728296Y-53862656D01*
X104784800Y-53856345D01*
X104834932Y-53850953D01*
X104875982Y-53846798D01*
X104905236Y-53844198D01*
X104919982Y-53843471D01*
X104920887Y-53843564D01*
X104930335Y-53852715D01*
X104942895Y-53873987D01*
X104953629Y-53897547D01*
X104990792Y-53966915D01*
X105040867Y-54023547D01*
X105103891Y-54067474D01*
X105161680Y-54092806D01*
X105206049Y-54103235D01*
X105262359Y-54109081D01*
X105325018Y-54110427D01*
X105388434Y-54107358D01*
X105447016Y-54099958D01*
X105495173Y-54088312D01*
X105496851Y-54087743D01*
X105563383Y-54055503D01*
X105622435Y-54008135D01*
X105671509Y-53947955D01*
X105697601Y-53901540D01*
X105715079Y-53862563D01*
X105729073Y-53825405D01*
X105739999Y-53787301D01*
X105748275Y-53745488D01*
X105754320Y-53697202D01*
X105758550Y-53639679D01*
X105761383Y-53570156D01*
X105763236Y-53485869D01*
X105763555Y-53465036D01*
X105766951Y-53229179D01*
X105737166Y-53283607D01*
X105717612Y-53313653D01*
X105688768Y-53350898D01*
X105654720Y-53390281D01*
X105630244Y-53416138D01*
X105590249Y-53455082D01*
X105556195Y-53483960D01*
X105522654Y-53506844D01*
X105484199Y-53527805D01*
X105476000Y-53531852D01*
X105419755Y-53557793D01*
X105368729Y-53577398D01*
X105318736Y-53591499D01*
X105265592Y-53600930D01*
X105205110Y-53606526D01*
X105133106Y-53609120D01*
X105085928Y-53609574D01*
X105020689Y-53609424D01*
X104970149Y-53608344D01*
X104930879Y-53606093D01*
X104899449Y-53602431D01*
X104872430Y-53597116D01*
X104859143Y-53593664D01*
X104757079Y-53556036D01*
X104663584Y-53502827D01*
X104579187Y-53434721D01*
X104504417Y-53352401D01*
X104439803Y-53256552D01*
X104385873Y-53147857D01*
X104343156Y-53026998D01*
X104312183Y-52894661D01*
X104310378Y-52884464D01*
X104291198Y-52738519D01*
X104282322Y-52585460D01*
X104282857Y-52525906D01*
X104869380Y-52525906D01*
X104871155Y-52594179D01*
X104881559Y-52724952D01*
X104900793Y-52840051D01*
X104928985Y-52939724D01*
X104966266Y-53024215D01*
X105012765Y-53093774D01*
X105068611Y-53148645D01*
X105133933Y-53189076D01*
X105194786Y-53211662D01*
X105243954Y-53220396D01*
X105302651Y-53223336D01*
X105363228Y-53220525D01*
X105418037Y-53212005D01*
X105424798Y-53210363D01*
X105483734Y-53190776D01*
X105533875Y-53163019D01*
X105581456Y-53123327D01*
X105599937Y-53104569D01*
X105651393Y-53039210D01*
X105693051Y-52961930D01*
X105725136Y-52871934D01*
X105747871Y-52768421D01*
X105761482Y-52650596D01*
X105766191Y-52517659D01*
X105766198Y-52512536D01*
X105761433Y-52378648D01*
X105746965Y-52259529D01*
X105722592Y-52154490D01*
X105688109Y-52062844D01*
X105643313Y-51983902D01*
X105591107Y-51920138D01*
X105533547Y-51873323D01*
X105466861Y-51839689D01*
X105394053Y-51819195D01*
X105318125Y-51811799D01*
X105242081Y-51817459D01*
X105168923Y-51836133D01*
X105101655Y-51867781D01*
X105043279Y-51912360D01*
X105028216Y-51927952D01*
X104979983Y-51994051D01*
X104940070Y-52075199D01*
X104908767Y-52170177D01*
X104886359Y-52277766D01*
X104873134Y-52396749D01*
X104869380Y-52525906D01*
X104282857Y-52525906D01*
X104283712Y-52430944D01*
X104295336Y-52280627D01*
X104314903Y-52151597D01*
X104348383Y-52014249D01*
X104393082Y-51890666D01*
X104448853Y-51781022D01*
X104515550Y-51685496D01*
X104593027Y-51604264D01*
X104681137Y-51537502D01*
X104779734Y-51485387D01*
X104888673Y-51448095D01*
X104899964Y-51445229D01*
X104965662Y-51433260D01*
X105041613Y-51426253D01*
X105122112Y-51424202D01*
X105201456Y-51427102D01*
X105201456Y-51427102D01*
G37*
X105201456Y-51427102D02*
X105273940Y-51434948D01*
X105326321Y-51445615D01*
X105434508Y-51482865D01*
X105530520Y-51533216D01*
X105614006Y-51596397D01*
X105684616Y-51672140D01*
X105741998Y-51760173D01*
X105746426Y-51768545D01*
X105770067Y-51814036D01*
X105781358Y-51668893D01*
X105785580Y-51617061D01*
X105789803Y-51569490D01*
X105793656Y-51530079D01*
X105796767Y-51502730D01*
X105798021Y-51494268D01*
X105803393Y-51464786D01*
X106068322Y-51464783D01*
X106333250Y-51464781D01*
X106330969Y-52074837D01*
X106330209Y-52276945D01*
X106329496Y-52461740D01*
X106328816Y-52630054D01*
X106328157Y-52782716D01*
X106327503Y-52920559D01*
X106326843Y-53044411D01*
X106326161Y-53155104D01*
X106325444Y-53253468D01*
X106324679Y-53340333D01*
X106323851Y-53416531D01*
X106322947Y-53482892D01*
X106321953Y-53540246D01*
X106320856Y-53589424D01*
X106319642Y-53631257D01*
X106318296Y-53666574D01*
X106316806Y-53696208D01*
X106315158Y-53720987D01*
X106313337Y-53741743D01*
X106311330Y-53759307D01*
X106309124Y-53774508D01*
X106306705Y-53788178D01*
X106304058Y-53801146D01*
X106302312Y-53809132D01*
X106271202Y-53922962D01*
X106230947Y-54023067D01*
X106180183Y-54112110D01*
X106117548Y-54192756D01*
X106092165Y-54219904D01*
X106010972Y-54291866D01*
X105919204Y-54352083D01*
X105815555Y-54401193D01*
X105698716Y-54439833D01*
X105591335Y-54464307D01*
X105544567Y-54470878D01*
X105484116Y-54476028D01*
X105414315Y-54479696D01*
X105339494Y-54481820D01*
X105263984Y-54482340D01*
X105192119Y-54481195D01*
X105128228Y-54478324D01*
X105076644Y-54473665D01*
X105063250Y-54471755D01*
X104932232Y-54444008D01*
X104813015Y-54405097D01*
X104706330Y-54355468D01*
X104612906Y-54295570D01*
X104533473Y-54225848D01*
X104468759Y-54146751D01*
X104431997Y-54084850D01*
X104420944Y-54060459D01*
X104408370Y-54028576D01*
X104395734Y-53993528D01*
X104384495Y-53959644D01*
X104376114Y-53931252D01*
X104372050Y-53912681D01*
X104372356Y-53907978D01*
X104382193Y-53905787D01*
X104407355Y-53901966D01*
X104445132Y-53896834D01*
X104492810Y-53890710D01*
X104547678Y-53883911D01*
X104607023Y-53876757D01*
X104668133Y-53869566D01*
X104728296Y-53862656D01*
X104784800Y-53856345D01*
X104834932Y-53850953D01*
X104875982Y-53846798D01*
X104905236Y-53844198D01*
X104919982Y-53843471D01*
X104920887Y-53843564D01*
X104930335Y-53852715D01*
X104942895Y-53873987D01*
X104953629Y-53897547D01*
X104990792Y-53966915D01*
X105040867Y-54023547D01*
X105103891Y-54067474D01*
X105161680Y-54092806D01*
X105206049Y-54103235D01*
X105262359Y-54109081D01*
X105325018Y-54110427D01*
X105388434Y-54107358D01*
X105447016Y-54099958D01*
X105495173Y-54088312D01*
X105496851Y-54087743D01*
X105563383Y-54055503D01*
X105622435Y-54008135D01*
X105671509Y-53947955D01*
X105697601Y-53901540D01*
X105715079Y-53862563D01*
X105729073Y-53825405D01*
X105739999Y-53787301D01*
X105748275Y-53745488D01*
X105754320Y-53697202D01*
X105758550Y-53639679D01*
X105761383Y-53570156D01*
X105763236Y-53485869D01*
X105763555Y-53465036D01*
X105766951Y-53229179D01*
X105737166Y-53283607D01*
X105717612Y-53313653D01*
X105688768Y-53350898D01*
X105654720Y-53390281D01*
X105630244Y-53416138D01*
X105590249Y-53455082D01*
X105556195Y-53483960D01*
X105522654Y-53506844D01*
X105484199Y-53527805D01*
X105476000Y-53531852D01*
X105419755Y-53557793D01*
X105368729Y-53577398D01*
X105318736Y-53591499D01*
X105265592Y-53600930D01*
X105205110Y-53606526D01*
X105133106Y-53609120D01*
X105085928Y-53609574D01*
X105020689Y-53609424D01*
X104970149Y-53608344D01*
X104930879Y-53606093D01*
X104899449Y-53602431D01*
X104872430Y-53597116D01*
X104859143Y-53593664D01*
X104757079Y-53556036D01*
X104663584Y-53502827D01*
X104579187Y-53434721D01*
X104504417Y-53352401D01*
X104439803Y-53256552D01*
X104385873Y-53147857D01*
X104343156Y-53026998D01*
X104312183Y-52894661D01*
X104310378Y-52884464D01*
X104291198Y-52738519D01*
X104282322Y-52585460D01*
X104282857Y-52525906D01*
X104869380Y-52525906D01*
X104871155Y-52594179D01*
X104881559Y-52724952D01*
X104900793Y-52840051D01*
X104928985Y-52939724D01*
X104966266Y-53024215D01*
X105012765Y-53093774D01*
X105068611Y-53148645D01*
X105133933Y-53189076D01*
X105194786Y-53211662D01*
X105243954Y-53220396D01*
X105302651Y-53223336D01*
X105363228Y-53220525D01*
X105418037Y-53212005D01*
X105424798Y-53210363D01*
X105483734Y-53190776D01*
X105533875Y-53163019D01*
X105581456Y-53123327D01*
X105599937Y-53104569D01*
X105651393Y-53039210D01*
X105693051Y-52961930D01*
X105725136Y-52871934D01*
X105747871Y-52768421D01*
X105761482Y-52650596D01*
X105766191Y-52517659D01*
X105766198Y-52512536D01*
X105761433Y-52378648D01*
X105746965Y-52259529D01*
X105722592Y-52154490D01*
X105688109Y-52062844D01*
X105643313Y-51983902D01*
X105591107Y-51920138D01*
X105533547Y-51873323D01*
X105466861Y-51839689D01*
X105394053Y-51819195D01*
X105318125Y-51811799D01*
X105242081Y-51817459D01*
X105168923Y-51836133D01*
X105101655Y-51867781D01*
X105043279Y-51912360D01*
X105028216Y-51927952D01*
X104979983Y-51994051D01*
X104940070Y-52075199D01*
X104908767Y-52170177D01*
X104886359Y-52277766D01*
X104873134Y-52396749D01*
X104869380Y-52525906D01*
X104282857Y-52525906D01*
X104283712Y-52430944D01*
X104295336Y-52280627D01*
X104314903Y-52151597D01*
X104348383Y-52014249D01*
X104393082Y-51890666D01*
X104448853Y-51781022D01*
X104515550Y-51685496D01*
X104593027Y-51604264D01*
X104681137Y-51537502D01*
X104779734Y-51485387D01*
X104888673Y-51448095D01*
X104899964Y-51445229D01*
X104965662Y-51433260D01*
X105041613Y-51426253D01*
X105122112Y-51424202D01*
X105201456Y-51427102D01*
G36*
X102986335Y-51429185D02*
X103097502Y-51439713D01*
X103195958Y-51456255D01*
X103286483Y-51480003D01*
X103373857Y-51512149D01*
X103439464Y-51542126D01*
X103546381Y-51604299D01*
X103641077Y-51679762D01*
X103723588Y-51768568D01*
X103793953Y-51870771D01*
X103852210Y-51986426D01*
X103898396Y-52115587D01*
X103929971Y-52244929D01*
X103936973Y-52291822D01*
X103942680Y-52352267D01*
X103946966Y-52421712D01*
X103949706Y-52495603D01*
X103950773Y-52569388D01*
X103950042Y-52638513D01*
X103947387Y-52698426D01*
X103943602Y-52738125D01*
X103916805Y-52882542D01*
X103876412Y-53016488D01*
X103822754Y-53139342D01*
X103756163Y-53250478D01*
X103676971Y-53349276D01*
X103585510Y-53435111D01*
X103562619Y-53453071D01*
X103470993Y-53513021D01*
X103366510Y-53564693D01*
X103253160Y-53606543D01*
X103134933Y-53637028D01*
X103051803Y-53650729D01*
X102999165Y-53655390D01*
X102934964Y-53658098D01*
X102864498Y-53658903D01*
X102793065Y-53657855D01*
X102725966Y-53655004D01*
X102668497Y-53650399D01*
X102641178Y-53646869D01*
X102516245Y-53620562D01*
X102399553Y-53581578D01*
X102332750Y-53552204D01*
X102220015Y-53489403D01*
X102120364Y-53414897D01*
X102033530Y-53328308D01*
X101959248Y-53229260D01*
X101897253Y-53117374D01*
X101847278Y-52992272D01*
X101809058Y-52853576D01*
X101796089Y-52789214D01*
X101788106Y-52729407D01*
X101782880Y-52656766D01*
X101780405Y-52576389D01*
X101780494Y-52548625D01*
X102373232Y-52548625D01*
X102373852Y-52620646D01*
X102376149Y-52686696D01*
X102380164Y-52741964D01*
X102382587Y-52762354D01*
X102404626Y-52875538D01*
X102436945Y-52975784D01*
X102479121Y-53062537D01*
X102530731Y-53135239D01*
X102591349Y-53193334D01*
X102660553Y-53236267D01*
X102737920Y-53263480D01*
X102768905Y-53269512D01*
X102827403Y-53274248D01*
X102893452Y-53272729D01*
X102958871Y-53265526D01*
X103015481Y-53253204D01*
X103018978Y-53252141D01*
X103084658Y-53226245D01*
X103140993Y-53190985D01*
X103194196Y-53142380D01*
X103199977Y-53136207D01*
X103247921Y-53075118D01*
X103286971Y-53004551D01*
X103317486Y-52923178D01*
X103339824Y-52829672D01*
X103354344Y-52722705D01*
X103361405Y-52600949D01*
X103362250Y-52535214D01*
X103357636Y-52395937D01*
X103343708Y-52272112D01*
X103320337Y-52163547D01*
X103287394Y-52070050D01*
X103244751Y-51991426D01*
X103192280Y-51927484D01*
X103129850Y-51878030D01*
X103057335Y-51842871D01*
X102974604Y-51821814D01*
X102881571Y-51814668D01*
X102784965Y-51821113D01*
X102699540Y-51841283D01*
X102624129Y-51875608D01*
X102557570Y-51924519D01*
X102540764Y-51940481D01*
X102490651Y-52001236D01*
X102449551Y-52074708D01*
X102416956Y-52162074D01*
X102392356Y-52264514D01*
X102386670Y-52297052D01*
X102381007Y-52344848D01*
X102376852Y-52405915D01*
X102374246Y-52475445D01*
X102373232Y-52548625D01*
X101780494Y-52548625D01*
X101780674Y-52493372D01*
X101783680Y-52412814D01*
X101789418Y-52339811D01*
X101796741Y-52285750D01*
X101828679Y-52146922D01*
X101873976Y-52018431D01*
X101932178Y-51901186D01*
X102002831Y-51796097D01*
X102085478Y-51704073D01*
X102089489Y-51700238D01*
X102189251Y-51617607D01*
X102299076Y-51549741D01*
X102419103Y-51496599D01*
X102549470Y-51458140D01*
X102690316Y-51434321D01*
X102841778Y-51425100D01*
X102986335Y-51429185D01*
X102986335Y-51429185D01*
G37*
X102986335Y-51429185D02*
X103097502Y-51439713D01*
X103195958Y-51456255D01*
X103286483Y-51480003D01*
X103373857Y-51512149D01*
X103439464Y-51542126D01*
X103546381Y-51604299D01*
X103641077Y-51679762D01*
X103723588Y-51768568D01*
X103793953Y-51870771D01*
X103852210Y-51986426D01*
X103898396Y-52115587D01*
X103929971Y-52244929D01*
X103936973Y-52291822D01*
X103942680Y-52352267D01*
X103946966Y-52421712D01*
X103949706Y-52495603D01*
X103950773Y-52569388D01*
X103950042Y-52638513D01*
X103947387Y-52698426D01*
X103943602Y-52738125D01*
X103916805Y-52882542D01*
X103876412Y-53016488D01*
X103822754Y-53139342D01*
X103756163Y-53250478D01*
X103676971Y-53349276D01*
X103585510Y-53435111D01*
X103562619Y-53453071D01*
X103470993Y-53513021D01*
X103366510Y-53564693D01*
X103253160Y-53606543D01*
X103134933Y-53637028D01*
X103051803Y-53650729D01*
X102999165Y-53655390D01*
X102934964Y-53658098D01*
X102864498Y-53658903D01*
X102793065Y-53657855D01*
X102725966Y-53655004D01*
X102668497Y-53650399D01*
X102641178Y-53646869D01*
X102516245Y-53620562D01*
X102399553Y-53581578D01*
X102332750Y-53552204D01*
X102220015Y-53489403D01*
X102120364Y-53414897D01*
X102033530Y-53328308D01*
X101959248Y-53229260D01*
X101897253Y-53117374D01*
X101847278Y-52992272D01*
X101809058Y-52853576D01*
X101796089Y-52789214D01*
X101788106Y-52729407D01*
X101782880Y-52656766D01*
X101780405Y-52576389D01*
X101780494Y-52548625D01*
X102373232Y-52548625D01*
X102373852Y-52620646D01*
X102376149Y-52686696D01*
X102380164Y-52741964D01*
X102382587Y-52762354D01*
X102404626Y-52875538D01*
X102436945Y-52975784D01*
X102479121Y-53062537D01*
X102530731Y-53135239D01*
X102591349Y-53193334D01*
X102660553Y-53236267D01*
X102737920Y-53263480D01*
X102768905Y-53269512D01*
X102827403Y-53274248D01*
X102893452Y-53272729D01*
X102958871Y-53265526D01*
X103015481Y-53253204D01*
X103018978Y-53252141D01*
X103084658Y-53226245D01*
X103140993Y-53190985D01*
X103194196Y-53142380D01*
X103199977Y-53136207D01*
X103247921Y-53075118D01*
X103286971Y-53004551D01*
X103317486Y-52923178D01*
X103339824Y-52829672D01*
X103354344Y-52722705D01*
X103361405Y-52600949D01*
X103362250Y-52535214D01*
X103357636Y-52395937D01*
X103343708Y-52272112D01*
X103320337Y-52163547D01*
X103287394Y-52070050D01*
X103244751Y-51991426D01*
X103192280Y-51927484D01*
X103129850Y-51878030D01*
X103057335Y-51842871D01*
X102974604Y-51821814D01*
X102881571Y-51814668D01*
X102784965Y-51821113D01*
X102699540Y-51841283D01*
X102624129Y-51875608D01*
X102557570Y-51924519D01*
X102540764Y-51940481D01*
X102490651Y-52001236D01*
X102449551Y-52074708D01*
X102416956Y-52162074D01*
X102392356Y-52264514D01*
X102386670Y-52297052D01*
X102381007Y-52344848D01*
X102376852Y-52405915D01*
X102374246Y-52475445D01*
X102373232Y-52548625D01*
X101780494Y-52548625D01*
X101780674Y-52493372D01*
X101783680Y-52412814D01*
X101789418Y-52339811D01*
X101796741Y-52285750D01*
X101828679Y-52146922D01*
X101873976Y-52018431D01*
X101932178Y-51901186D01*
X102002831Y-51796097D01*
X102085478Y-51704073D01*
X102089489Y-51700238D01*
X102189251Y-51617607D01*
X102299076Y-51549741D01*
X102419103Y-51496599D01*
X102549470Y-51458140D01*
X102690316Y-51434321D01*
X102841778Y-51425100D01*
X102986335Y-51429185D01*
G36*
X109377519Y-50772124D02*
X109514486Y-50780777D01*
X109644093Y-50797974D01*
X109671758Y-50803031D01*
X109819348Y-50839442D01*
X109955086Y-50889366D01*
X110078809Y-50952687D01*
X110190352Y-51029287D01*
X110289552Y-51119048D01*
X110376245Y-51221853D01*
X110450268Y-51337585D01*
X110470531Y-51375897D01*
X110492141Y-51420208D01*
X110511566Y-51462808D01*
X110527504Y-51500533D01*
X110538655Y-51530218D01*
X110543716Y-51548696D01*
X110543346Y-51553035D01*
X110533978Y-51556284D01*
X110509765Y-51563445D01*
X110473403Y-51573788D01*
X110427586Y-51586581D01*
X110375007Y-51601092D01*
X110318360Y-51616590D01*
X110260341Y-51632342D01*
X110203643Y-51647618D01*
X110150960Y-51661685D01*
X110104986Y-51673812D01*
X110068416Y-51683267D01*
X110043944Y-51689319D01*
X110034393Y-51691251D01*
X110026931Y-51683445D01*
X110014034Y-51662615D01*
X109997749Y-51632265D01*
X109985722Y-51607848D01*
X109965045Y-51566976D01*
X109944599Y-51533607D01*
X109920371Y-51502262D01*
X109888353Y-51467457D01*
X109867794Y-51446671D01*
X109827922Y-51408378D01*
X109793859Y-51379774D01*
X109759798Y-51356610D01*
X109719932Y-51334639D01*
X109703286Y-51326323D01*
X109642796Y-51297979D01*
X109589533Y-51276710D01*
X109538995Y-51261566D01*
X109486678Y-51251598D01*
X109428079Y-51245854D01*
X109358696Y-51243387D01*
X109308679Y-51243084D01*
X109245959Y-51243470D01*
X109197474Y-51244675D01*
X109159321Y-51247028D01*
X109127600Y-51250861D01*
X109098408Y-51256502D01*
X109072248Y-51263080D01*
X108960917Y-51301551D01*
X108861811Y-51353392D01*
X108774925Y-51418612D01*
X108700255Y-51497219D01*
X108637795Y-51589220D01*
X108587542Y-51694625D01*
X108549490Y-51813440D01*
X108523635Y-51945675D01*
X108509972Y-52091338D01*
X108508496Y-52250436D01*
X108508598Y-52254000D01*
X108515690Y-52382549D01*
X108529328Y-52496683D01*
X108550098Y-52599125D01*
X108578587Y-52692595D01*
X108615381Y-52779816D01*
X108626701Y-52802426D01*
X108684820Y-52898613D01*
X108752479Y-52980019D01*
X108831153Y-53048114D01*
X108922316Y-53104368D01*
X108936750Y-53111674D01*
X109047536Y-53156239D01*
X109165795Y-53184294D01*
X109291448Y-53195822D01*
X109381250Y-53194204D01*
X109500332Y-53179511D01*
X109609258Y-53150089D01*
X109708403Y-53105674D01*
X109798141Y-53046003D01*
X109878850Y-52970814D01*
X109950903Y-52879844D01*
X110014678Y-52772829D01*
X110031561Y-52738998D01*
X110067879Y-52663311D01*
X110137314Y-52688941D01*
X110173122Y-52702235D01*
X110217742Y-52718921D01*
X110268537Y-52737998D01*
X110322868Y-52758468D01*
X110378099Y-52779333D01*
X110431591Y-52799593D01*
X110480706Y-52818250D01*
X110522808Y-52834305D01*
X110555257Y-52846760D01*
X110575418Y-52854615D01*
X110580914Y-52856907D01*
X110578594Y-52865708D01*
X110569254Y-52887051D01*
X110554605Y-52917570D01*
X110536357Y-52953904D01*
X110516222Y-52992688D01*
X110495909Y-53030559D01*
X110477132Y-53064154D01*
X110465381Y-53084036D01*
X110381178Y-53204769D01*
X110284801Y-53312161D01*
X110176689Y-53405911D01*
X110057283Y-53485721D01*
X109927021Y-53551288D01*
X109786343Y-53602314D01*
X109660648Y-53633677D01*
X109607134Y-53642008D01*
X109539718Y-53648690D01*
X109462574Y-53653634D01*
X109379874Y-53656751D01*
X109295793Y-53657951D01*
X109214504Y-53657147D01*
X109140180Y-53654248D01*
X109076995Y-53649165D01*
X109056343Y-53646581D01*
X108894374Y-53615756D01*
X108743819Y-53571016D01*
X108604917Y-53512573D01*
X108477910Y-53440636D01*
X108363035Y-53355416D01*
X108260534Y-53257122D01*
X108170645Y-53145965D01*
X108093608Y-53022155D01*
X108029663Y-52885902D01*
X107979049Y-52737415D01*
X107966712Y-52691353D01*
X107947177Y-52607142D01*
X107932585Y-52527233D01*
X107922406Y-52446792D01*
X107916111Y-52360986D01*
X107913169Y-52264982D01*
X107912795Y-52199572D01*
X107918530Y-52024477D01*
X107935388Y-51862986D01*
X107963701Y-51714113D01*
X108003806Y-51576874D01*
X108056036Y-51450285D01*
X108120726Y-51333360D01*
X108198210Y-51225115D01*
X108272380Y-51141261D01*
X108369279Y-51052085D01*
X108475250Y-50976023D01*
X108591908Y-50912180D01*
X108720866Y-50859662D01*
X108850571Y-50820880D01*
X108969719Y-50796391D01*
X109100410Y-50780033D01*
X109237919Y-50771910D01*
X109377519Y-50772124D01*
X109377519Y-50772124D01*
G37*
X109377519Y-50772124D02*
X109514486Y-50780777D01*
X109644093Y-50797974D01*
X109671758Y-50803031D01*
X109819348Y-50839442D01*
X109955086Y-50889366D01*
X110078809Y-50952687D01*
X110190352Y-51029287D01*
X110289552Y-51119048D01*
X110376245Y-51221853D01*
X110450268Y-51337585D01*
X110470531Y-51375897D01*
X110492141Y-51420208D01*
X110511566Y-51462808D01*
X110527504Y-51500533D01*
X110538655Y-51530218D01*
X110543716Y-51548696D01*
X110543346Y-51553035D01*
X110533978Y-51556284D01*
X110509765Y-51563445D01*
X110473403Y-51573788D01*
X110427586Y-51586581D01*
X110375007Y-51601092D01*
X110318360Y-51616590D01*
X110260341Y-51632342D01*
X110203643Y-51647618D01*
X110150960Y-51661685D01*
X110104986Y-51673812D01*
X110068416Y-51683267D01*
X110043944Y-51689319D01*
X110034393Y-51691251D01*
X110026931Y-51683445D01*
X110014034Y-51662615D01*
X109997749Y-51632265D01*
X109985722Y-51607848D01*
X109965045Y-51566976D01*
X109944599Y-51533607D01*
X109920371Y-51502262D01*
X109888353Y-51467457D01*
X109867794Y-51446671D01*
X109827922Y-51408378D01*
X109793859Y-51379774D01*
X109759798Y-51356610D01*
X109719932Y-51334639D01*
X109703286Y-51326323D01*
X109642796Y-51297979D01*
X109589533Y-51276710D01*
X109538995Y-51261566D01*
X109486678Y-51251598D01*
X109428079Y-51245854D01*
X109358696Y-51243387D01*
X109308679Y-51243084D01*
X109245959Y-51243470D01*
X109197474Y-51244675D01*
X109159321Y-51247028D01*
X109127600Y-51250861D01*
X109098408Y-51256502D01*
X109072248Y-51263080D01*
X108960917Y-51301551D01*
X108861811Y-51353392D01*
X108774925Y-51418612D01*
X108700255Y-51497219D01*
X108637795Y-51589220D01*
X108587542Y-51694625D01*
X108549490Y-51813440D01*
X108523635Y-51945675D01*
X108509972Y-52091338D01*
X108508496Y-52250436D01*
X108508598Y-52254000D01*
X108515690Y-52382549D01*
X108529328Y-52496683D01*
X108550098Y-52599125D01*
X108578587Y-52692595D01*
X108615381Y-52779816D01*
X108626701Y-52802426D01*
X108684820Y-52898613D01*
X108752479Y-52980019D01*
X108831153Y-53048114D01*
X108922316Y-53104368D01*
X108936750Y-53111674D01*
X109047536Y-53156239D01*
X109165795Y-53184294D01*
X109291448Y-53195822D01*
X109381250Y-53194204D01*
X109500332Y-53179511D01*
X109609258Y-53150089D01*
X109708403Y-53105674D01*
X109798141Y-53046003D01*
X109878850Y-52970814D01*
X109950903Y-52879844D01*
X110014678Y-52772829D01*
X110031561Y-52738998D01*
X110067879Y-52663311D01*
X110137314Y-52688941D01*
X110173122Y-52702235D01*
X110217742Y-52718921D01*
X110268537Y-52737998D01*
X110322868Y-52758468D01*
X110378099Y-52779333D01*
X110431591Y-52799593D01*
X110480706Y-52818250D01*
X110522808Y-52834305D01*
X110555257Y-52846760D01*
X110575418Y-52854615D01*
X110580914Y-52856907D01*
X110578594Y-52865708D01*
X110569254Y-52887051D01*
X110554605Y-52917570D01*
X110536357Y-52953904D01*
X110516222Y-52992688D01*
X110495909Y-53030559D01*
X110477132Y-53064154D01*
X110465381Y-53084036D01*
X110381178Y-53204769D01*
X110284801Y-53312161D01*
X110176689Y-53405911D01*
X110057283Y-53485721D01*
X109927021Y-53551288D01*
X109786343Y-53602314D01*
X109660648Y-53633677D01*
X109607134Y-53642008D01*
X109539718Y-53648690D01*
X109462574Y-53653634D01*
X109379874Y-53656751D01*
X109295793Y-53657951D01*
X109214504Y-53657147D01*
X109140180Y-53654248D01*
X109076995Y-53649165D01*
X109056343Y-53646581D01*
X108894374Y-53615756D01*
X108743819Y-53571016D01*
X108604917Y-53512573D01*
X108477910Y-53440636D01*
X108363035Y-53355416D01*
X108260534Y-53257122D01*
X108170645Y-53145965D01*
X108093608Y-53022155D01*
X108029663Y-52885902D01*
X107979049Y-52737415D01*
X107966712Y-52691353D01*
X107947177Y-52607142D01*
X107932585Y-52527233D01*
X107922406Y-52446792D01*
X107916111Y-52360986D01*
X107913169Y-52264982D01*
X107912795Y-52199572D01*
X107918530Y-52024477D01*
X107935388Y-51862986D01*
X107963701Y-51714113D01*
X108003806Y-51576874D01*
X108056036Y-51450285D01*
X108120726Y-51333360D01*
X108198210Y-51225115D01*
X108272380Y-51141261D01*
X108369279Y-51052085D01*
X108475250Y-50976023D01*
X108591908Y-50912180D01*
X108720866Y-50859662D01*
X108850571Y-50820880D01*
X108969719Y-50796391D01*
X109100410Y-50780033D01*
X109237919Y-50771910D01*
X109377519Y-50772124D01*
G36*
X113192181Y-51429010D02*
X113258799Y-51433163D01*
X113295571Y-51437157D01*
X113435075Y-51463754D01*
X113562905Y-51504154D01*
X113678868Y-51558112D01*
X113782773Y-51625383D01*
X113874426Y-51705723D01*
X113953637Y-51798887D01*
X114020212Y-51904630D01*
X114073960Y-52022708D01*
X114114688Y-52152876D01*
X114142204Y-52294889D01*
X114156316Y-52448503D01*
X114158295Y-52535214D01*
X114151890Y-52692669D01*
X114132436Y-52837838D01*
X114099748Y-52971234D01*
X114053636Y-53093368D01*
X113993914Y-53204752D01*
X113920395Y-53305899D01*
X113847709Y-53383449D01*
X113751589Y-53464440D01*
X113647616Y-53530769D01*
X113534304Y-53583134D01*
X113410165Y-53622232D01*
X113286500Y-53646876D01*
X113231600Y-53652946D01*
X113164491Y-53656873D01*
X113090506Y-53658658D01*
X113014977Y-53658301D01*
X112943239Y-53655801D01*
X112880623Y-53651160D01*
X112846536Y-53646869D01*
X112737272Y-53624839D01*
X112636778Y-53593623D01*
X112536931Y-53550661D01*
X112529036Y-53546792D01*
X112416563Y-53482120D01*
X112317844Y-53405783D01*
X112232173Y-53317077D01*
X112158846Y-53215298D01*
X112111247Y-53129393D01*
X112065550Y-53025644D01*
X112031027Y-52920826D01*
X112006906Y-52811286D01*
X111992415Y-52693372D01*
X111986783Y-52563428D01*
X111986651Y-52539750D01*
X112579145Y-52539750D01*
X112580835Y-52641090D01*
X112586116Y-52727985D01*
X112595609Y-52803888D01*
X112609938Y-52872254D01*
X112629722Y-52936535D01*
X112655585Y-53000185D01*
X112666121Y-53022813D01*
X112713030Y-53103706D01*
X112768763Y-53168791D01*
X112833569Y-53218215D01*
X112907702Y-53252121D01*
X112991412Y-53270656D01*
X113084950Y-53273963D01*
X113099749Y-53273161D01*
X113144154Y-53268346D01*
X113190701Y-53260272D01*
X113228109Y-53251020D01*
X113306207Y-53218218D01*
X113373999Y-53171125D01*
X113431641Y-53109521D01*
X113479286Y-53033187D01*
X113517088Y-52941906D01*
X113545201Y-52835458D01*
X113553788Y-52788457D01*
X113559554Y-52740061D01*
X113563802Y-52678342D01*
X113566489Y-52608060D01*
X113567574Y-52533974D01*
X113567013Y-52460843D01*
X113564764Y-52393428D01*
X113560785Y-52336489D01*
X113558027Y-52312664D01*
X113536558Y-52198108D01*
X113506022Y-52099131D01*
X113466137Y-52015436D01*
X113416619Y-51946727D01*
X113357185Y-51892708D01*
X113287552Y-51853083D01*
X113207437Y-51827554D01*
X113116556Y-51815826D01*
X113082393Y-51814927D01*
X112993143Y-51820601D01*
X112914171Y-51838804D01*
X112841697Y-51870595D01*
X112806343Y-51892164D01*
X112745816Y-51941718D01*
X112695031Y-52003371D01*
X112653760Y-52077773D01*
X112621774Y-52165577D01*
X112598845Y-52267433D01*
X112584743Y-52383993D01*
X112579241Y-52515908D01*
X112579145Y-52539750D01*
X111986651Y-52539750D01*
X111993292Y-52382798D01*
X112013525Y-52237590D01*
X112047501Y-52103685D01*
X112095372Y-51980639D01*
X112157290Y-51868009D01*
X112233407Y-51765352D01*
X112263846Y-51731252D01*
X112352850Y-51649147D01*
X112454900Y-51578586D01*
X112568433Y-51520357D01*
X112691887Y-51475246D01*
X112823697Y-51444041D01*
X112839851Y-51441292D01*
X112895326Y-51434589D01*
X112963563Y-51429961D01*
X113039296Y-51427457D01*
X113117257Y-51427124D01*
X113192181Y-51429010D01*
X113192181Y-51429010D01*
G37*
X113192181Y-51429010D02*
X113258799Y-51433163D01*
X113295571Y-51437157D01*
X113435075Y-51463754D01*
X113562905Y-51504154D01*
X113678868Y-51558112D01*
X113782773Y-51625383D01*
X113874426Y-51705723D01*
X113953637Y-51798887D01*
X114020212Y-51904630D01*
X114073960Y-52022708D01*
X114114688Y-52152876D01*
X114142204Y-52294889D01*
X114156316Y-52448503D01*
X114158295Y-52535214D01*
X114151890Y-52692669D01*
X114132436Y-52837838D01*
X114099748Y-52971234D01*
X114053636Y-53093368D01*
X113993914Y-53204752D01*
X113920395Y-53305899D01*
X113847709Y-53383449D01*
X113751589Y-53464440D01*
X113647616Y-53530769D01*
X113534304Y-53583134D01*
X113410165Y-53622232D01*
X113286500Y-53646876D01*
X113231600Y-53652946D01*
X113164491Y-53656873D01*
X113090506Y-53658658D01*
X113014977Y-53658301D01*
X112943239Y-53655801D01*
X112880623Y-53651160D01*
X112846536Y-53646869D01*
X112737272Y-53624839D01*
X112636778Y-53593623D01*
X112536931Y-53550661D01*
X112529036Y-53546792D01*
X112416563Y-53482120D01*
X112317844Y-53405783D01*
X112232173Y-53317077D01*
X112158846Y-53215298D01*
X112111247Y-53129393D01*
X112065550Y-53025644D01*
X112031027Y-52920826D01*
X112006906Y-52811286D01*
X111992415Y-52693372D01*
X111986783Y-52563428D01*
X111986651Y-52539750D01*
X112579145Y-52539750D01*
X112580835Y-52641090D01*
X112586116Y-52727985D01*
X112595609Y-52803888D01*
X112609938Y-52872254D01*
X112629722Y-52936535D01*
X112655585Y-53000185D01*
X112666121Y-53022813D01*
X112713030Y-53103706D01*
X112768763Y-53168791D01*
X112833569Y-53218215D01*
X112907702Y-53252121D01*
X112991412Y-53270656D01*
X113084950Y-53273963D01*
X113099749Y-53273161D01*
X113144154Y-53268346D01*
X113190701Y-53260272D01*
X113228109Y-53251020D01*
X113306207Y-53218218D01*
X113373999Y-53171125D01*
X113431641Y-53109521D01*
X113479286Y-53033187D01*
X113517088Y-52941906D01*
X113545201Y-52835458D01*
X113553788Y-52788457D01*
X113559554Y-52740061D01*
X113563802Y-52678342D01*
X113566489Y-52608060D01*
X113567574Y-52533974D01*
X113567013Y-52460843D01*
X113564764Y-52393428D01*
X113560785Y-52336489D01*
X113558027Y-52312664D01*
X113536558Y-52198108D01*
X113506022Y-52099131D01*
X113466137Y-52015436D01*
X113416619Y-51946727D01*
X113357185Y-51892708D01*
X113287552Y-51853083D01*
X113207437Y-51827554D01*
X113116556Y-51815826D01*
X113082393Y-51814927D01*
X112993143Y-51820601D01*
X112914171Y-51838804D01*
X112841697Y-51870595D01*
X112806343Y-51892164D01*
X112745816Y-51941718D01*
X112695031Y-52003371D01*
X112653760Y-52077773D01*
X112621774Y-52165577D01*
X112598845Y-52267433D01*
X112584743Y-52383993D01*
X112579241Y-52515908D01*
X112579145Y-52539750D01*
X111986651Y-52539750D01*
X111993292Y-52382798D01*
X112013525Y-52237590D01*
X112047501Y-52103685D01*
X112095372Y-51980639D01*
X112157290Y-51868009D01*
X112233407Y-51765352D01*
X112263846Y-51731252D01*
X112352850Y-51649147D01*
X112454900Y-51578586D01*
X112568433Y-51520357D01*
X112691887Y-51475246D01*
X112823697Y-51444041D01*
X112839851Y-51441292D01*
X112895326Y-51434589D01*
X112963563Y-51429961D01*
X113039296Y-51427457D01*
X113117257Y-51427124D01*
X113192181Y-51429010D01*
G36*
X117854964Y-51429128D02*
X117929446Y-51434768D01*
X117992326Y-51443831D01*
X117999225Y-51445230D01*
X118120861Y-51479490D01*
X118232182Y-51528557D01*
X118332848Y-51592083D01*
X118422521Y-51669719D01*
X118500861Y-51761117D01*
X118567528Y-51865930D01*
X118622182Y-51983809D01*
X118664484Y-52114407D01*
X118668868Y-52131536D01*
X118690320Y-52231314D01*
X118707945Y-52340421D01*
X118720818Y-52451518D01*
X118728013Y-52557264D01*
X118729213Y-52610054D01*
X118729357Y-52653143D01*
X117339800Y-52653143D01*
X117345928Y-52732518D01*
X117360844Y-52854107D01*
X117385660Y-52960508D01*
X117420396Y-53051753D01*
X117465074Y-53127873D01*
X117519715Y-53188897D01*
X117584340Y-53234857D01*
X117658970Y-53265784D01*
X117721830Y-53279175D01*
X117801465Y-53283843D01*
X117879289Y-53276395D01*
X117951936Y-53257779D01*
X118016040Y-53228944D01*
X118068234Y-53190838D01*
X118080788Y-53178049D01*
X118102905Y-53149259D01*
X118125998Y-53112516D01*
X118141691Y-53082657D01*
X118156320Y-53052445D01*
X118166987Y-53035496D01*
X118177133Y-53028511D01*
X118190199Y-53028190D01*
X118197374Y-53029246D01*
X118214067Y-53031257D01*
X118246041Y-53034480D01*
X118290493Y-53038656D01*
X118344621Y-53043526D01*
X118405621Y-53048833D01*
X118457214Y-53053196D01*
X118519973Y-53058541D01*
X118576523Y-53063555D01*
X118624423Y-53068006D01*
X118661234Y-53071662D01*
X118684517Y-53074291D01*
X118691868Y-53075558D01*
X118690506Y-53085523D01*
X118681591Y-53107699D01*
X118666843Y-53138702D01*
X118647980Y-53175148D01*
X118626721Y-53213654D01*
X118604784Y-53250835D01*
X118594540Y-53267185D01*
X118555257Y-53321079D01*
X118505938Y-53377702D01*
X118451434Y-53432150D01*
X118396597Y-53479518D01*
X118354634Y-53509731D01*
X118246880Y-53568054D01*
X118127792Y-53612889D01*
X117998685Y-53643752D01*
X117981487Y-53646672D01*
X117935203Y-53652090D01*
X117876034Y-53655945D01*
X117809108Y-53658196D01*
X117739553Y-53658799D01*
X117672499Y-53657713D01*
X117613074Y-53654895D01*
X117566406Y-53650301D01*
X117565174Y-53650124D01*
X117436869Y-53623736D01*
X117317980Y-53583694D01*
X117210181Y-53530611D01*
X117169645Y-53505264D01*
X117076471Y-53433331D01*
X116995506Y-53350058D01*
X116926334Y-53254737D01*
X116868541Y-53146662D01*
X116821713Y-53025129D01*
X116785436Y-52889429D01*
X116773607Y-52830036D01*
X116766129Y-52774833D01*
X116760718Y-52705985D01*
X116757375Y-52627871D01*
X116756099Y-52544868D01*
X116756892Y-52461357D01*
X116759753Y-52381715D01*
X116764682Y-52310323D01*
X116765988Y-52299357D01*
X117347838Y-52299357D01*
X118181792Y-52299357D01*
X118174116Y-52233589D01*
X118155906Y-52130289D01*
X118127064Y-52038828D01*
X118088139Y-51960102D01*
X118039676Y-51895010D01*
X117982222Y-51844449D01*
X117916323Y-51809317D01*
X117915510Y-51809003D01*
X117864111Y-51794678D01*
X117803122Y-51785930D01*
X117740401Y-51783362D01*
X117683806Y-51787577D01*
X117669638Y-51790158D01*
X117593048Y-51815302D01*
X117526100Y-51855463D01*
X117469242Y-51910016D01*
X117422921Y-51978340D01*
X117387584Y-52059810D01*
X117363679Y-52153803D01*
X117353653Y-52230562D01*
X117347838Y-52299357D01*
X116765988Y-52299357D01*
X116771681Y-52251559D01*
X116773565Y-52240393D01*
X116806498Y-52099532D01*
X116851926Y-51971798D01*
X116909813Y-51857225D01*
X116980124Y-51755852D01*
X117062823Y-51667714D01*
X117157875Y-51592847D01*
X117265244Y-51531289D01*
X117384895Y-51483076D01*
X117516792Y-51448244D01*
X117551418Y-51441676D01*
X117617106Y-51433186D01*
X117693273Y-51428293D01*
X117774399Y-51426955D01*
X117854964Y-51429128D01*
X117854964Y-51429128D01*
G37*
X117854964Y-51429128D02*
X117929446Y-51434768D01*
X117992326Y-51443831D01*
X117999225Y-51445230D01*
X118120861Y-51479490D01*
X118232182Y-51528557D01*
X118332848Y-51592083D01*
X118422521Y-51669719D01*
X118500861Y-51761117D01*
X118567528Y-51865930D01*
X118622182Y-51983809D01*
X118664484Y-52114407D01*
X118668868Y-52131536D01*
X118690320Y-52231314D01*
X118707945Y-52340421D01*
X118720818Y-52451518D01*
X118728013Y-52557264D01*
X118729213Y-52610054D01*
X118729357Y-52653143D01*
X117339800Y-52653143D01*
X117345928Y-52732518D01*
X117360844Y-52854107D01*
X117385660Y-52960508D01*
X117420396Y-53051753D01*
X117465074Y-53127873D01*
X117519715Y-53188897D01*
X117584340Y-53234857D01*
X117658970Y-53265784D01*
X117721830Y-53279175D01*
X117801465Y-53283843D01*
X117879289Y-53276395D01*
X117951936Y-53257779D01*
X118016040Y-53228944D01*
X118068234Y-53190838D01*
X118080788Y-53178049D01*
X118102905Y-53149259D01*
X118125998Y-53112516D01*
X118141691Y-53082657D01*
X118156320Y-53052445D01*
X118166987Y-53035496D01*
X118177133Y-53028511D01*
X118190199Y-53028190D01*
X118197374Y-53029246D01*
X118214067Y-53031257D01*
X118246041Y-53034480D01*
X118290493Y-53038656D01*
X118344621Y-53043526D01*
X118405621Y-53048833D01*
X118457214Y-53053196D01*
X118519973Y-53058541D01*
X118576523Y-53063555D01*
X118624423Y-53068006D01*
X118661234Y-53071662D01*
X118684517Y-53074291D01*
X118691868Y-53075558D01*
X118690506Y-53085523D01*
X118681591Y-53107699D01*
X118666843Y-53138702D01*
X118647980Y-53175148D01*
X118626721Y-53213654D01*
X118604784Y-53250835D01*
X118594540Y-53267185D01*
X118555257Y-53321079D01*
X118505938Y-53377702D01*
X118451434Y-53432150D01*
X118396597Y-53479518D01*
X118354634Y-53509731D01*
X118246880Y-53568054D01*
X118127792Y-53612889D01*
X117998685Y-53643752D01*
X117981487Y-53646672D01*
X117935203Y-53652090D01*
X117876034Y-53655945D01*
X117809108Y-53658196D01*
X117739553Y-53658799D01*
X117672499Y-53657713D01*
X117613074Y-53654895D01*
X117566406Y-53650301D01*
X117565174Y-53650124D01*
X117436869Y-53623736D01*
X117317980Y-53583694D01*
X117210181Y-53530611D01*
X117169645Y-53505264D01*
X117076471Y-53433331D01*
X116995506Y-53350058D01*
X116926334Y-53254737D01*
X116868541Y-53146662D01*
X116821713Y-53025129D01*
X116785436Y-52889429D01*
X116773607Y-52830036D01*
X116766129Y-52774833D01*
X116760718Y-52705985D01*
X116757375Y-52627871D01*
X116756099Y-52544868D01*
X116756892Y-52461357D01*
X116759753Y-52381715D01*
X116764682Y-52310323D01*
X116765988Y-52299357D01*
X117347838Y-52299357D01*
X118181792Y-52299357D01*
X118174116Y-52233589D01*
X118155906Y-52130289D01*
X118127064Y-52038828D01*
X118088139Y-51960102D01*
X118039676Y-51895010D01*
X117982222Y-51844449D01*
X117916323Y-51809317D01*
X117915510Y-51809003D01*
X117864111Y-51794678D01*
X117803122Y-51785930D01*
X117740401Y-51783362D01*
X117683806Y-51787577D01*
X117669638Y-51790158D01*
X117593048Y-51815302D01*
X117526100Y-51855463D01*
X117469242Y-51910016D01*
X117422921Y-51978340D01*
X117387584Y-52059810D01*
X117363679Y-52153803D01*
X117353653Y-52230562D01*
X117347838Y-52299357D01*
X116765988Y-52299357D01*
X116771681Y-52251559D01*
X116773565Y-52240393D01*
X116806498Y-52099532D01*
X116851926Y-51971798D01*
X116909813Y-51857225D01*
X116980124Y-51755852D01*
X117062823Y-51667714D01*
X117157875Y-51592847D01*
X117265244Y-51531289D01*
X117384895Y-51483076D01*
X117516792Y-51448244D01*
X117551418Y-51441676D01*
X117617106Y-51433186D01*
X117693273Y-51428293D01*
X117774399Y-51426955D01*
X117854964Y-51429128D01*
G36*
X99987786Y-53161143D02*
X101493643Y-53161143D01*
X101493643Y-53623786D01*
X99398143Y-53623786D01*
X99398143Y-50811643D01*
X99987786Y-50811643D01*
X99987786Y-53161143D01*
X99987786Y-53161143D01*
G37*
X99987786Y-53161143D02*
X101493643Y-53161143D01*
X101493643Y-53623786D01*
X99398143Y-53623786D01*
X99398143Y-50811643D01*
X99987786Y-50811643D01*
X99987786Y-53161143D01*
G36*
X107458107Y-53619250D02*
X106891143Y-53624044D01*
X106891143Y-51464786D01*
X107462717Y-51464786D01*
X107458107Y-53619250D01*
X107458107Y-53619250D01*
G37*
X107458107Y-53619250D02*
X106891143Y-53624044D01*
X106891143Y-51464786D01*
X107462717Y-51464786D01*
X107458107Y-53619250D01*
G36*
X111540250Y-53619250D02*
X111262944Y-53621647D01*
X111193745Y-53622048D01*
X111130453Y-53622039D01*
X111075330Y-53621649D01*
X111030639Y-53620908D01*
X110998641Y-53619847D01*
X110981599Y-53618495D01*
X110979462Y-53617867D01*
X110978782Y-53608267D01*
X110978124Y-53581482D01*
X110977490Y-53538471D01*
X110976885Y-53480194D01*
X110976313Y-53407607D01*
X110975778Y-53321671D01*
X110975284Y-53223343D01*
X110974835Y-53113582D01*
X110974435Y-52993347D01*
X110974088Y-52863596D01*
X110973798Y-52725287D01*
X110973569Y-52579380D01*
X110973405Y-52426832D01*
X110973309Y-52268603D01*
X110973286Y-52139095D01*
X110973286Y-50666500D01*
X111544840Y-50666500D01*
X111540250Y-53619250D01*
X111540250Y-53619250D01*
G37*
X111540250Y-53619250D02*
X111262944Y-53621647D01*
X111193745Y-53622048D01*
X111130453Y-53622039D01*
X111075330Y-53621649D01*
X111030639Y-53620908D01*
X110998641Y-53619847D01*
X110981599Y-53618495D01*
X110979462Y-53617867D01*
X110978782Y-53608267D01*
X110978124Y-53581482D01*
X110977490Y-53538471D01*
X110976885Y-53480194D01*
X110976313Y-53407607D01*
X110975778Y-53321671D01*
X110975284Y-53223343D01*
X110974835Y-53113582D01*
X110974435Y-52993347D01*
X110974088Y-52863596D01*
X110973798Y-52725287D01*
X110973569Y-52579380D01*
X110973405Y-52426832D01*
X110973309Y-52268603D01*
X110973286Y-52139095D01*
X110973286Y-50666500D01*
X111544840Y-50666500D01*
X111540250Y-53619250D01*
G36*
X114932964Y-51465055D02*
X115077737Y-51929831D01*
X115121761Y-52071184D01*
X115160761Y-52196455D01*
X115195113Y-52306881D01*
X115225194Y-52403699D01*
X115251382Y-52488147D01*
X115274054Y-52561462D01*
X115293588Y-52624883D01*
X115310361Y-52679645D01*
X115324750Y-52726987D01*
X115337132Y-52768146D01*
X115347885Y-52804359D01*
X115357386Y-52836864D01*
X115366013Y-52866898D01*
X115374142Y-52895700D01*
X115382152Y-52924505D01*
X115390419Y-52954552D01*
X115392343Y-52961572D01*
X115407023Y-53014586D01*
X115420438Y-53061941D01*
X115431734Y-53100708D01*
X115440057Y-53127955D01*
X115444551Y-53140753D01*
X115444653Y-53140949D01*
X115449271Y-53137327D01*
X115457256Y-53118951D01*
X115467551Y-53088660D01*
X115479099Y-53049296D01*
X115480084Y-53045699D01*
X115487349Y-53020639D01*
X115499742Y-52979825D01*
X115516787Y-52924762D01*
X115538007Y-52856953D01*
X115562927Y-52777900D01*
X115591070Y-52689107D01*
X115621962Y-52592076D01*
X115655126Y-52488312D01*
X115690086Y-52379316D01*
X115726366Y-52266593D01*
X115747209Y-52202006D01*
X115985250Y-51465119D01*
X116277803Y-51464952D01*
X116355774Y-51465160D01*
X116424160Y-51465845D01*
X116481347Y-51466963D01*
X116525718Y-51468468D01*
X116555661Y-51470316D01*
X116569558Y-51472460D01*
X116570357Y-51473150D01*
X116567294Y-51482147D01*
X116558412Y-51506921D01*
X116544167Y-51546225D01*
X116525018Y-51598815D01*
X116501423Y-51663444D01*
X116473841Y-51738867D01*
X116442728Y-51823839D01*
X116408543Y-51917114D01*
X116371744Y-52017446D01*
X116332789Y-52123590D01*
X116292136Y-52234300D01*
X116250243Y-52348331D01*
X116207568Y-52464436D01*
X116164569Y-52581371D01*
X116121704Y-52697890D01*
X116079430Y-52812747D01*
X116038207Y-52924696D01*
X115998492Y-53032493D01*
X115960742Y-53134891D01*
X115925417Y-53230645D01*
X115892973Y-53318509D01*
X115863870Y-53397238D01*
X115838564Y-53465586D01*
X115817514Y-53522307D01*
X115801179Y-53566156D01*
X115790015Y-53595888D01*
X115785414Y-53607911D01*
X115782741Y-53612037D01*
X115777116Y-53615382D01*
X115766798Y-53618028D01*
X115750043Y-53620056D01*
X115725112Y-53621547D01*
X115690260Y-53622582D01*
X115643747Y-53623242D01*
X115583831Y-53623608D01*
X115508769Y-53623762D01*
X115444305Y-53623786D01*
X115109408Y-53623786D01*
X115099879Y-53598839D01*
X115094494Y-53584204D01*
X115083625Y-53554193D01*
X115067721Y-53510056D01*
X115047227Y-53453047D01*
X115022593Y-53384418D01*
X114994266Y-53305422D01*
X114962693Y-53217309D01*
X114928321Y-53121334D01*
X114891599Y-53018747D01*
X114852973Y-52910801D01*
X114812892Y-52798749D01*
X114771803Y-52683843D01*
X114730153Y-52567334D01*
X114688389Y-52450475D01*
X114646961Y-52334519D01*
X114606314Y-52220718D01*
X114566897Y-52110323D01*
X114529156Y-52004588D01*
X114493541Y-51904764D01*
X114460497Y-51812103D01*
X114430473Y-51727859D01*
X114403917Y-51653282D01*
X114381275Y-51589627D01*
X114362995Y-51538143D01*
X114349526Y-51500085D01*
X114341313Y-51476703D01*
X114338786Y-51469232D01*
X114347503Y-51468168D01*
X114372242Y-51467204D01*
X114410878Y-51466369D01*
X114461291Y-51465696D01*
X114521357Y-51465214D01*
X114588956Y-51464955D01*
X114635875Y-51464920D01*
X114932964Y-51465055D01*
X114932964Y-51465055D01*
G37*
X114932964Y-51465055D02*
X115077737Y-51929831D01*
X115121761Y-52071184D01*
X115160761Y-52196455D01*
X115195113Y-52306881D01*
X115225194Y-52403699D01*
X115251382Y-52488147D01*
X115274054Y-52561462D01*
X115293588Y-52624883D01*
X115310361Y-52679645D01*
X115324750Y-52726987D01*
X115337132Y-52768146D01*
X115347885Y-52804359D01*
X115357386Y-52836864D01*
X115366013Y-52866898D01*
X115374142Y-52895700D01*
X115382152Y-52924505D01*
X115390419Y-52954552D01*
X115392343Y-52961572D01*
X115407023Y-53014586D01*
X115420438Y-53061941D01*
X115431734Y-53100708D01*
X115440057Y-53127955D01*
X115444551Y-53140753D01*
X115444653Y-53140949D01*
X115449271Y-53137327D01*
X115457256Y-53118951D01*
X115467551Y-53088660D01*
X115479099Y-53049296D01*
X115480084Y-53045699D01*
X115487349Y-53020639D01*
X115499742Y-52979825D01*
X115516787Y-52924762D01*
X115538007Y-52856953D01*
X115562927Y-52777900D01*
X115591070Y-52689107D01*
X115621962Y-52592076D01*
X115655126Y-52488312D01*
X115690086Y-52379316D01*
X115726366Y-52266593D01*
X115747209Y-52202006D01*
X115985250Y-51465119D01*
X116277803Y-51464952D01*
X116355774Y-51465160D01*
X116424160Y-51465845D01*
X116481347Y-51466963D01*
X116525718Y-51468468D01*
X116555661Y-51470316D01*
X116569558Y-51472460D01*
X116570357Y-51473150D01*
X116567294Y-51482147D01*
X116558412Y-51506921D01*
X116544167Y-51546225D01*
X116525018Y-51598815D01*
X116501423Y-51663444D01*
X116473841Y-51738867D01*
X116442728Y-51823839D01*
X116408543Y-51917114D01*
X116371744Y-52017446D01*
X116332789Y-52123590D01*
X116292136Y-52234300D01*
X116250243Y-52348331D01*
X116207568Y-52464436D01*
X116164569Y-52581371D01*
X116121704Y-52697890D01*
X116079430Y-52812747D01*
X116038207Y-52924696D01*
X115998492Y-53032493D01*
X115960742Y-53134891D01*
X115925417Y-53230645D01*
X115892973Y-53318509D01*
X115863870Y-53397238D01*
X115838564Y-53465586D01*
X115817514Y-53522307D01*
X115801179Y-53566156D01*
X115790015Y-53595888D01*
X115785414Y-53607911D01*
X115782741Y-53612037D01*
X115777116Y-53615382D01*
X115766798Y-53618028D01*
X115750043Y-53620056D01*
X115725112Y-53621547D01*
X115690260Y-53622582D01*
X115643747Y-53623242D01*
X115583831Y-53623608D01*
X115508769Y-53623762D01*
X115444305Y-53623786D01*
X115109408Y-53623786D01*
X115099879Y-53598839D01*
X115094494Y-53584204D01*
X115083625Y-53554193D01*
X115067721Y-53510056D01*
X115047227Y-53453047D01*
X115022593Y-53384418D01*
X114994266Y-53305422D01*
X114962693Y-53217309D01*
X114928321Y-53121334D01*
X114891599Y-53018747D01*
X114852973Y-52910801D01*
X114812892Y-52798749D01*
X114771803Y-52683843D01*
X114730153Y-52567334D01*
X114688389Y-52450475D01*
X114646961Y-52334519D01*
X114606314Y-52220718D01*
X114566897Y-52110323D01*
X114529156Y-52004588D01*
X114493541Y-51904764D01*
X114460497Y-51812103D01*
X114430473Y-51727859D01*
X114403917Y-51653282D01*
X114381275Y-51589627D01*
X114362995Y-51538143D01*
X114349526Y-51500085D01*
X114341313Y-51476703D01*
X114338786Y-51469232D01*
X114347503Y-51468168D01*
X114372242Y-51467204D01*
X114410878Y-51466369D01*
X114461291Y-51465696D01*
X114521357Y-51465214D01*
X114588956Y-51464955D01*
X114635875Y-51464920D01*
X114932964Y-51465055D01*
G36*
X120241189Y-51421855D02*
X120292235Y-51427796D01*
X120324014Y-51432259D01*
X120348782Y-51436170D01*
X120367406Y-51441643D01*
X120380752Y-51450795D01*
X120389687Y-51465742D01*
X120395076Y-51488600D01*
X120397787Y-51521485D01*
X120398685Y-51566513D01*
X120398638Y-51625801D01*
X120398500Y-51687355D01*
X120398258Y-51763424D01*
X120397489Y-51822688D01*
X120396135Y-51866481D01*
X120394132Y-51896135D01*
X120391421Y-51912983D01*
X120387940Y-51918357D01*
X120387908Y-51918357D01*
X120375154Y-51917123D01*
X120348450Y-51913770D01*
X120311794Y-51908821D01*
X120272248Y-51903239D01*
X120220171Y-51896440D01*
X120179775Y-51893179D01*
X120144980Y-51893286D01*
X120109707Y-51896591D01*
X120097054Y-51898336D01*
X120014270Y-51918342D01*
X119942029Y-51952857D01*
X119880003Y-52002152D01*
X119827865Y-52066501D01*
X119785288Y-52146177D01*
X119777395Y-52165226D01*
X119767459Y-52190338D01*
X119758837Y-52212950D01*
X119751425Y-52234503D01*
X119745118Y-52256435D01*
X119739814Y-52280185D01*
X119735408Y-52307193D01*
X119731798Y-52338898D01*
X119728879Y-52376740D01*
X119726547Y-52422157D01*
X119724699Y-52476588D01*
X119723232Y-52541474D01*
X119722041Y-52618252D01*
X119721023Y-52708363D01*
X119720075Y-52813245D01*
X119719092Y-52934338D01*
X119718730Y-52979714D01*
X119713607Y-53619250D01*
X119434426Y-53621649D01*
X119352277Y-53622201D01*
X119286682Y-53622257D01*
X119236060Y-53621769D01*
X119198828Y-53620684D01*
X119173404Y-53618952D01*
X119158205Y-53616524D01*
X119151648Y-53613347D01*
X119151221Y-53612578D01*
X119150681Y-53602193D01*
X119150119Y-53574800D01*
X119149543Y-53531535D01*
X119148960Y-53473533D01*
X119148377Y-53401930D01*
X119147800Y-53317860D01*
X119147236Y-53222459D01*
X119146693Y-53116862D01*
X119146176Y-53002205D01*
X119145694Y-52879622D01*
X119145253Y-52750250D01*
X119144859Y-52615223D01*
X119144652Y-52532945D01*
X119142107Y-51464782D01*
X119406794Y-51464784D01*
X119671480Y-51464786D01*
X119676854Y-51512411D01*
X119678650Y-51533097D01*
X119681142Y-51568336D01*
X119684122Y-51614556D01*
X119687381Y-51668191D01*
X119690712Y-51725671D01*
X119693906Y-51783427D01*
X119696756Y-51837891D01*
X119699053Y-51885493D01*
X119700260Y-51913822D01*
X119703535Y-51909675D01*
X119712176Y-51891611D01*
X119724846Y-51862575D01*
X119739345Y-51827643D01*
X119782577Y-51728944D01*
X119825807Y-51646899D01*
X119870477Y-51580076D01*
X119918031Y-51527045D01*
X119969910Y-51486373D01*
X120027558Y-51456629D01*
X120092417Y-51436383D01*
X120143091Y-51427064D01*
X120195077Y-51421601D01*
X120241189Y-51421855D01*
X120241189Y-51421855D01*
G37*
X120241189Y-51421855D02*
X120292235Y-51427796D01*
X120324014Y-51432259D01*
X120348782Y-51436170D01*
X120367406Y-51441643D01*
X120380752Y-51450795D01*
X120389687Y-51465742D01*
X120395076Y-51488600D01*
X120397787Y-51521485D01*
X120398685Y-51566513D01*
X120398638Y-51625801D01*
X120398500Y-51687355D01*
X120398258Y-51763424D01*
X120397489Y-51822688D01*
X120396135Y-51866481D01*
X120394132Y-51896135D01*
X120391421Y-51912983D01*
X120387940Y-51918357D01*
X120387908Y-51918357D01*
X120375154Y-51917123D01*
X120348450Y-51913770D01*
X120311794Y-51908821D01*
X120272248Y-51903239D01*
X120220171Y-51896440D01*
X120179775Y-51893179D01*
X120144980Y-51893286D01*
X120109707Y-51896591D01*
X120097054Y-51898336D01*
X120014270Y-51918342D01*
X119942029Y-51952857D01*
X119880003Y-52002152D01*
X119827865Y-52066501D01*
X119785288Y-52146177D01*
X119777395Y-52165226D01*
X119767459Y-52190338D01*
X119758837Y-52212950D01*
X119751425Y-52234503D01*
X119745118Y-52256435D01*
X119739814Y-52280185D01*
X119735408Y-52307193D01*
X119731798Y-52338898D01*
X119728879Y-52376740D01*
X119726547Y-52422157D01*
X119724699Y-52476588D01*
X119723232Y-52541474D01*
X119722041Y-52618252D01*
X119721023Y-52708363D01*
X119720075Y-52813245D01*
X119719092Y-52934338D01*
X119718730Y-52979714D01*
X119713607Y-53619250D01*
X119434426Y-53621649D01*
X119352277Y-53622201D01*
X119286682Y-53622257D01*
X119236060Y-53621769D01*
X119198828Y-53620684D01*
X119173404Y-53618952D01*
X119158205Y-53616524D01*
X119151648Y-53613347D01*
X119151221Y-53612578D01*
X119150681Y-53602193D01*
X119150119Y-53574800D01*
X119149543Y-53531535D01*
X119148960Y-53473533D01*
X119148377Y-53401930D01*
X119147800Y-53317860D01*
X119147236Y-53222459D01*
X119146693Y-53116862D01*
X119146176Y-53002205D01*
X119145694Y-52879622D01*
X119145253Y-52750250D01*
X119144859Y-52615223D01*
X119144652Y-52532945D01*
X119142107Y-51464782D01*
X119406794Y-51464784D01*
X119671480Y-51464786D01*
X119676854Y-51512411D01*
X119678650Y-51533097D01*
X119681142Y-51568336D01*
X119684122Y-51614556D01*
X119687381Y-51668191D01*
X119690712Y-51725671D01*
X119693906Y-51783427D01*
X119696756Y-51837891D01*
X119699053Y-51885493D01*
X119700260Y-51913822D01*
X119703535Y-51909675D01*
X119712176Y-51891611D01*
X119724846Y-51862575D01*
X119739345Y-51827643D01*
X119782577Y-51728944D01*
X119825807Y-51646899D01*
X119870477Y-51580076D01*
X119918031Y-51527045D01*
X119969910Y-51486373D01*
X120027558Y-51456629D01*
X120092417Y-51436383D01*
X120143091Y-51427064D01*
X120195077Y-51421601D01*
X120241189Y-51421855D01*
G36*
X107462643Y-51074714D02*
X106891143Y-51074714D01*
X106891143Y-50666500D01*
X107462643Y-50666500D01*
X107462643Y-51074714D01*
X107462643Y-51074714D01*
G37*
X107462643Y-51074714D02*
X106891143Y-51074714D01*
X106891143Y-50666500D01*
X107462643Y-50666500D01*
X107462643Y-51074714D01*
D12*
X103531905Y-82202381D02*
X103531905Y-81202381D01*
X103770000Y-81202381D01*
X103912858Y-81250000D01*
X104008096Y-81345238D01*
X104055715Y-81440476D01*
X104103334Y-81630952D01*
X104103334Y-81773810D01*
X104055715Y-81964286D01*
X104008096Y-82059524D01*
X103912858Y-82154762D01*
X103770000Y-82202381D01*
X103531905Y-82202381D01*
X105055715Y-82202381D02*
X104484286Y-82202381D01*
X104770000Y-82202381D02*
X104770000Y-81202381D01*
X104674762Y-81345238D01*
X104579524Y-81440476D01*
X104484286Y-81488095D01*
X125511905Y-82452381D02*
X125511905Y-81452381D01*
X125750000Y-81452381D01*
X125892858Y-81500000D01*
X125988096Y-81595238D01*
X126035715Y-81690476D01*
X126083334Y-81880952D01*
X126083334Y-82023810D01*
X126035715Y-82214286D01*
X125988096Y-82309524D01*
X125892858Y-82404762D01*
X125750000Y-82452381D01*
X125511905Y-82452381D01*
X126464286Y-81547619D02*
X126511905Y-81500000D01*
X126607143Y-81452381D01*
X126845239Y-81452381D01*
X126940477Y-81500000D01*
X126988096Y-81547619D01*
X127035715Y-81642857D01*
X127035715Y-81738095D01*
X126988096Y-81880952D01*
X126416667Y-82452381D01*
X127035715Y-82452381D01*
X147531905Y-82702381D02*
X147531905Y-81702381D01*
X147770000Y-81702381D01*
X147912858Y-81750000D01*
X148008096Y-81845238D01*
X148055715Y-81940476D01*
X148103334Y-82130952D01*
X148103334Y-82273810D01*
X148055715Y-82464286D01*
X148008096Y-82559524D01*
X147912858Y-82654762D01*
X147770000Y-82702381D01*
X147531905Y-82702381D01*
X148436667Y-81702381D02*
X149055715Y-81702381D01*
X148722381Y-82083333D01*
X148865239Y-82083333D01*
X148960477Y-82130952D01*
X149008096Y-82178571D01*
X149055715Y-82273810D01*
X149055715Y-82511905D01*
X149008096Y-82607143D01*
X148960477Y-82654762D01*
X148865239Y-82702381D01*
X148579524Y-82702381D01*
X148484286Y-82654762D01*
X148436667Y-82607143D01*
X169511905Y-82702381D02*
X169511905Y-81702381D01*
X169750000Y-81702381D01*
X169892858Y-81750000D01*
X169988096Y-81845238D01*
X170035715Y-81940476D01*
X170083334Y-82130952D01*
X170083334Y-82273810D01*
X170035715Y-82464286D01*
X169988096Y-82559524D01*
X169892858Y-82654762D01*
X169750000Y-82702381D01*
X169511905Y-82702381D01*
X170940477Y-82035714D02*
X170940477Y-82702381D01*
X170702381Y-81654762D02*
X170464286Y-82369048D01*
X171083334Y-82369048D01*
X168316667Y-93864762D02*
X168459524Y-93912381D01*
X168697620Y-93912381D01*
X168792858Y-93864762D01*
X168840477Y-93817143D01*
X168888096Y-93721905D01*
X168888096Y-93626667D01*
X168840477Y-93531429D01*
X168792858Y-93483810D01*
X168697620Y-93436190D01*
X168507143Y-93388571D01*
X168411905Y-93340952D01*
X168364286Y-93293333D01*
X168316667Y-93198095D01*
X168316667Y-93102857D01*
X168364286Y-93007619D01*
X168411905Y-92960000D01*
X168507143Y-92912381D01*
X168745239Y-92912381D01*
X168888096Y-92960000D01*
X169221429Y-92912381D02*
X169459524Y-93912381D01*
X169650001Y-93198095D01*
X169840477Y-93912381D01*
X170078572Y-92912381D01*
X170983334Y-93912381D02*
X170411905Y-93912381D01*
X170697619Y-93912381D02*
X170697619Y-92912381D01*
X170602381Y-93055238D01*
X170507143Y-93150476D01*
X170411905Y-93198095D01*
X146666667Y-94642762D02*
X146809524Y-94690381D01*
X147047620Y-94690381D01*
X147142858Y-94642762D01*
X147190477Y-94595143D01*
X147238096Y-94499905D01*
X147238096Y-94404667D01*
X147190477Y-94309429D01*
X147142858Y-94261810D01*
X147047620Y-94214190D01*
X146857143Y-94166571D01*
X146761905Y-94118952D01*
X146714286Y-94071333D01*
X146666667Y-93976095D01*
X146666667Y-93880857D01*
X146714286Y-93785619D01*
X146761905Y-93738000D01*
X146857143Y-93690381D01*
X147095239Y-93690381D01*
X147238096Y-93738000D01*
X147571429Y-93690381D02*
X147809524Y-94690381D01*
X148000001Y-93976095D01*
X148190477Y-94690381D01*
X148428572Y-93690381D01*
X148761905Y-93785619D02*
X148809524Y-93738000D01*
X148904762Y-93690381D01*
X149142858Y-93690381D01*
X149238096Y-93738000D01*
X149285715Y-93785619D01*
X149333334Y-93880857D01*
X149333334Y-93976095D01*
X149285715Y-94118952D01*
X148714286Y-94690381D01*
X149333334Y-94690381D01*
X124666667Y-94642762D02*
X124809524Y-94690381D01*
X125047620Y-94690381D01*
X125142858Y-94642762D01*
X125190477Y-94595143D01*
X125238096Y-94499905D01*
X125238096Y-94404667D01*
X125190477Y-94309429D01*
X125142858Y-94261810D01*
X125047620Y-94214190D01*
X124857143Y-94166571D01*
X124761905Y-94118952D01*
X124714286Y-94071333D01*
X124666667Y-93976095D01*
X124666667Y-93880857D01*
X124714286Y-93785619D01*
X124761905Y-93738000D01*
X124857143Y-93690381D01*
X125095239Y-93690381D01*
X125238096Y-93738000D01*
X125571429Y-93690381D02*
X125809524Y-94690381D01*
X126000001Y-93976095D01*
X126190477Y-94690381D01*
X126428572Y-93690381D01*
X126714286Y-93690381D02*
X127333334Y-93690381D01*
X127000000Y-94071333D01*
X127142858Y-94071333D01*
X127238096Y-94118952D01*
X127285715Y-94166571D01*
X127333334Y-94261810D01*
X127333334Y-94499905D01*
X127285715Y-94595143D01*
X127238096Y-94642762D01*
X127142858Y-94690381D01*
X126857143Y-94690381D01*
X126761905Y-94642762D01*
X126714286Y-94595143D01*
X102666667Y-94642762D02*
X102809524Y-94690381D01*
X103047620Y-94690381D01*
X103142858Y-94642762D01*
X103190477Y-94595143D01*
X103238096Y-94499905D01*
X103238096Y-94404667D01*
X103190477Y-94309429D01*
X103142858Y-94261810D01*
X103047620Y-94214190D01*
X102857143Y-94166571D01*
X102761905Y-94118952D01*
X102714286Y-94071333D01*
X102666667Y-93976095D01*
X102666667Y-93880857D01*
X102714286Y-93785619D01*
X102761905Y-93738000D01*
X102857143Y-93690381D01*
X103095239Y-93690381D01*
X103238096Y-93738000D01*
X103571429Y-93690381D02*
X103809524Y-94690381D01*
X104000001Y-93976095D01*
X104190477Y-94690381D01*
X104428572Y-93690381D01*
X105238096Y-94023714D02*
X105238096Y-94690381D01*
X105000000Y-93642762D02*
X104761905Y-94357048D01*
X105380953Y-94357048D01*
X169238095Y-74202381D02*
X169238095Y-75011905D01*
X169285714Y-75107143D01*
X169333333Y-75154762D01*
X169428571Y-75202381D01*
X169619048Y-75202381D01*
X169714286Y-75154762D01*
X169761905Y-75107143D01*
X169809524Y-75011905D01*
X169809524Y-74202381D01*
X170809524Y-75202381D02*
X170238095Y-75202381D01*
X170523809Y-75202381D02*
X170523809Y-74202381D01*
X170428571Y-74345238D01*
X170333333Y-74440476D01*
X170238095Y-74488095D01*
X147238095Y-74202381D02*
X147238095Y-75011905D01*
X147285714Y-75107143D01*
X147333333Y-75154762D01*
X147428571Y-75202381D01*
X147619048Y-75202381D01*
X147714286Y-75154762D01*
X147761905Y-75107143D01*
X147809524Y-75011905D01*
X147809524Y-74202381D01*
X148238095Y-74297619D02*
X148285714Y-74250000D01*
X148380952Y-74202381D01*
X148619048Y-74202381D01*
X148714286Y-74250000D01*
X148761905Y-74297619D01*
X148809524Y-74392857D01*
X148809524Y-74488095D01*
X148761905Y-74630952D01*
X148190476Y-75202381D01*
X148809524Y-75202381D01*
X125238095Y-74452381D02*
X125238095Y-75261905D01*
X125285714Y-75357143D01*
X125333333Y-75404762D01*
X125428571Y-75452381D01*
X125619048Y-75452381D01*
X125714286Y-75404762D01*
X125761905Y-75357143D01*
X125809524Y-75261905D01*
X125809524Y-74452381D01*
X126190476Y-74452381D02*
X126809524Y-74452381D01*
X126476190Y-74833333D01*
X126619048Y-74833333D01*
X126714286Y-74880952D01*
X126761905Y-74928571D01*
X126809524Y-75023810D01*
X126809524Y-75261905D01*
X126761905Y-75357143D01*
X126714286Y-75404762D01*
X126619048Y-75452381D01*
X126333333Y-75452381D01*
X126238095Y-75404762D01*
X126190476Y-75357143D01*
X103238095Y-74452381D02*
X103238095Y-75261905D01*
X103285714Y-75357143D01*
X103333333Y-75404762D01*
X103428571Y-75452381D01*
X103619048Y-75452381D01*
X103714286Y-75404762D01*
X103761905Y-75357143D01*
X103809524Y-75261905D01*
X103809524Y-74452381D01*
X104714286Y-74785714D02*
X104714286Y-75452381D01*
X104476190Y-74404762D02*
X104238095Y-75119048D01*
X104857143Y-75119048D01*
%LPC*%
D14*
X103000000Y-84000000D03*
D15*
X105540000Y-84000000D03*
D14*
X125000000Y-84000000D03*
D15*
X127540000Y-84000000D03*
D14*
X147000000Y-84000000D03*
D15*
X149540000Y-84000000D03*
D14*
X169000000Y-84000000D03*
D15*
X171540000Y-84000000D03*
D16*
X183000000Y-53000000D03*
X183000000Y-100000000D03*
D17*
X169220000Y-50270000D03*
D18*
X171760000Y-50270000D03*
X174300000Y-50270000D03*
D16*
X91000000Y-53000000D03*
X91000000Y-100000000D03*
D19*
X176350000Y-92460000D03*
X176350000Y-97540000D03*
X163650000Y-92460000D03*
X163650000Y-97540000D03*
X154350000Y-92460000D03*
X154350000Y-97540000D03*
X141650000Y-92460000D03*
X141650000Y-97540000D03*
X132350000Y-92460000D03*
X132350000Y-97540000D03*
X119650000Y-92460000D03*
X119650000Y-97540000D03*
X110350000Y-92460000D03*
X110350000Y-97540000D03*
X97650000Y-92460000D03*
X97650000Y-97540000D03*
D20*
X165000000Y-77500000D03*
X170000000Y-77500000D03*
X175000000Y-77500000D03*
X143000000Y-77500000D03*
X148000000Y-77500000D03*
X153000000Y-77500000D03*
X121000000Y-77500000D03*
X126000000Y-77500000D03*
X131000000Y-77500000D03*
X99000000Y-77500000D03*
X104000000Y-77500000D03*
X109000000Y-77500000D03*
D17*
X181920000Y-62970000D03*
D18*
X184460000Y-62970000D03*
X181920000Y-65510000D03*
X184460000Y-65510000D03*
X181920000Y-68050000D03*
X184460000Y-68050000D03*
X181920000Y-70590000D03*
X184460000Y-70590000D03*
X181920000Y-73130000D03*
X184460000Y-73130000D03*
X181920000Y-75670000D03*
X184460000Y-75670000D03*
X181920000Y-78210000D03*
X184460000Y-78210000D03*
X181920000Y-80750000D03*
X184460000Y-80750000D03*
X181920000Y-83290000D03*
X184460000Y-83290000D03*
X181920000Y-85830000D03*
X184460000Y-85830000D03*
X181920000Y-88370000D03*
X184460000Y-88370000D03*
X181920000Y-90910000D03*
X184460000Y-90910000D03*
X181920000Y-93450000D03*
X184460000Y-93450000D03*
X181920000Y-95990000D03*
X184460000Y-95990000D03*
D17*
X89540000Y-62970000D03*
D18*
X92080000Y-62970000D03*
X89540000Y-65510000D03*
X92080000Y-65510000D03*
X89540000Y-68050000D03*
X92080000Y-68050000D03*
X89540000Y-70590000D03*
X92080000Y-70590000D03*
X89540000Y-73130000D03*
X92080000Y-73130000D03*
X89540000Y-75670000D03*
X92080000Y-75670000D03*
X89540000Y-78210000D03*
X92080000Y-78210000D03*
X89540000Y-80750000D03*
X92080000Y-80750000D03*
X89540000Y-83290000D03*
X92080000Y-83290000D03*
X89540000Y-85830000D03*
X92080000Y-85830000D03*
X89540000Y-88370000D03*
X92080000Y-88370000D03*
X89540000Y-90910000D03*
X92080000Y-90910000D03*
X89540000Y-93450000D03*
X92080000Y-93450000D03*
X89540000Y-95990000D03*
X92080000Y-95990000D03*
M02*
