G04 #@! TF.FileFunction,Legend,Bot*
%FSLAX46Y46*%
G04 Gerber Fmt 4.6, Leading zero omitted, Abs format (unit mm)*
G04 Created by KiCad (PCBNEW 4.0.2-stable) date 2017/01/23 23:07:35*
%MOMM*%
G01*
G04 APERTURE LIST*
%ADD10C,0.100000*%
%ADD11C,0.200000*%
%ADD12C,0.010000*%
%ADD13C,0.150000*%
%ADD14R,0.600000X0.500000*%
%ADD15R,0.500000X0.600000*%
%ADD16R,1.800000X1.800000*%
%ADD17C,1.800000*%
%ADD18C,4.500000*%
%ADD19R,1.700000X1.700000*%
%ADD20O,1.700000X1.700000*%
%ADD21R,0.800000X0.750000*%
%ADD22O,3.048000X1.727200*%
%ADD23O,3.600000X1.400000*%
G04 APERTURE END LIST*
D10*
D11*
X175500000Y-52750000D02*
X174500000Y-51750000D01*
X180250000Y-52750000D02*
X175500000Y-52750000D01*
X175852381Y-53095238D02*
X176852381Y-53428571D01*
X175852381Y-53761905D01*
X176852381Y-54095238D02*
X176185714Y-54095238D01*
X176376190Y-54095238D02*
X176280952Y-54142857D01*
X176233333Y-54190476D01*
X176185714Y-54285714D01*
X176185714Y-54380953D01*
X176804762Y-55095239D02*
X176852381Y-55000001D01*
X176852381Y-54809524D01*
X176804762Y-54714286D01*
X176709524Y-54666667D01*
X176328571Y-54666667D01*
X176233333Y-54714286D01*
X176185714Y-54809524D01*
X176185714Y-55000001D01*
X176233333Y-55095239D01*
X176328571Y-55142858D01*
X176423810Y-55142858D01*
X176519048Y-54666667D01*
X176185714Y-55428572D02*
X176185714Y-55809524D01*
X176852381Y-55571429D02*
X175995238Y-55571429D01*
X175900000Y-55619048D01*
X175852381Y-55714286D01*
X175852381Y-55809524D01*
X178166667Y-53190476D02*
X178166667Y-53666667D01*
X178452381Y-53095238D02*
X177452381Y-53428571D01*
X178452381Y-53761905D01*
X178452381Y-54095238D02*
X177452381Y-54095238D01*
X177452381Y-54333333D01*
X177500000Y-54476191D01*
X177595238Y-54571429D01*
X177690476Y-54619048D01*
X177880952Y-54666667D01*
X178023810Y-54666667D01*
X178214286Y-54619048D01*
X178309524Y-54571429D01*
X178404762Y-54476191D01*
X178452381Y-54333333D01*
X178452381Y-54095238D01*
X178357143Y-55666667D02*
X178404762Y-55619048D01*
X178452381Y-55476191D01*
X178452381Y-55380953D01*
X178404762Y-55238095D01*
X178309524Y-55142857D01*
X178214286Y-55095238D01*
X178023810Y-55047619D01*
X177880952Y-55047619D01*
X177690476Y-55095238D01*
X177595238Y-55142857D01*
X177500000Y-55238095D01*
X177452381Y-55380953D01*
X177452381Y-55476191D01*
X177500000Y-55619048D01*
X177547619Y-55666667D01*
X177880952Y-56238095D02*
X177833333Y-56142857D01*
X177785714Y-56095238D01*
X177690476Y-56047619D01*
X177642857Y-56047619D01*
X177547619Y-56095238D01*
X177500000Y-56142857D01*
X177452381Y-56238095D01*
X177452381Y-56428572D01*
X177500000Y-56523810D01*
X177547619Y-56571429D01*
X177642857Y-56619048D01*
X177690476Y-56619048D01*
X177785714Y-56571429D01*
X177833333Y-56523810D01*
X177880952Y-56428572D01*
X177880952Y-56238095D01*
X177928571Y-56142857D01*
X177976190Y-56095238D01*
X178071429Y-56047619D01*
X178261905Y-56047619D01*
X178357143Y-56095238D01*
X178404762Y-56142857D01*
X178452381Y-56238095D01*
X178452381Y-56428572D01*
X178404762Y-56523810D01*
X178357143Y-56571429D01*
X178261905Y-56619048D01*
X178071429Y-56619048D01*
X177976190Y-56571429D01*
X177928571Y-56523810D01*
X177880952Y-56428572D01*
X179100000Y-53761905D02*
X179052381Y-53666667D01*
X179052381Y-53523810D01*
X179100000Y-53380952D01*
X179195238Y-53285714D01*
X179290476Y-53238095D01*
X179480952Y-53190476D01*
X179623810Y-53190476D01*
X179814286Y-53238095D01*
X179909524Y-53285714D01*
X180004762Y-53380952D01*
X180052381Y-53523810D01*
X180052381Y-53619048D01*
X180004762Y-53761905D01*
X179957143Y-53809524D01*
X179623810Y-53809524D01*
X179623810Y-53619048D01*
X180052381Y-54238095D02*
X179052381Y-54238095D01*
X180052381Y-54809524D01*
X179052381Y-54809524D01*
X180052381Y-55285714D02*
X179052381Y-55285714D01*
X179052381Y-55523809D01*
X179100000Y-55666667D01*
X179195238Y-55761905D01*
X179290476Y-55809524D01*
X179480952Y-55857143D01*
X179623810Y-55857143D01*
X179814286Y-55809524D01*
X179909524Y-55761905D01*
X180004762Y-55666667D01*
X180052381Y-55523809D01*
X180052381Y-55285714D01*
X104857142Y-101542857D02*
X105542857Y-101542857D01*
X105199999Y-101542857D02*
X105199999Y-100342857D01*
X105314285Y-100514286D01*
X105428571Y-100628571D01*
X105542857Y-100685714D01*
X103485714Y-100285714D02*
X104514285Y-101828571D01*
X102514285Y-100342857D02*
X103085714Y-100342857D01*
X103142857Y-100914286D01*
X103085714Y-100857143D01*
X102971428Y-100800000D01*
X102685714Y-100800000D01*
X102571428Y-100857143D01*
X102514285Y-100914286D01*
X102457142Y-101028571D01*
X102457142Y-101314286D01*
X102514285Y-101428571D01*
X102571428Y-101485714D01*
X102685714Y-101542857D01*
X102971428Y-101542857D01*
X103085714Y-101485714D01*
X103142857Y-101428571D01*
X127542857Y-100457143D02*
X127485714Y-100400000D01*
X127371428Y-100342857D01*
X127085714Y-100342857D01*
X126971428Y-100400000D01*
X126914285Y-100457143D01*
X126857142Y-100571429D01*
X126857142Y-100685714D01*
X126914285Y-100857143D01*
X127599999Y-101542857D01*
X126857142Y-101542857D01*
X125485714Y-100285714D02*
X126514285Y-101828571D01*
X124571428Y-100342857D02*
X124799999Y-100342857D01*
X124914285Y-100400000D01*
X124971428Y-100457143D01*
X125085714Y-100628571D01*
X125142857Y-100857143D01*
X125142857Y-101314286D01*
X125085714Y-101428571D01*
X125028571Y-101485714D01*
X124914285Y-101542857D01*
X124685714Y-101542857D01*
X124571428Y-101485714D01*
X124514285Y-101428571D01*
X124457142Y-101314286D01*
X124457142Y-101028571D01*
X124514285Y-100914286D01*
X124571428Y-100857143D01*
X124685714Y-100800000D01*
X124914285Y-100800000D01*
X125028571Y-100857143D01*
X125085714Y-100914286D01*
X125142857Y-101028571D01*
X149599999Y-100342857D02*
X148857142Y-100342857D01*
X149257142Y-100800000D01*
X149085714Y-100800000D01*
X148971428Y-100857143D01*
X148914285Y-100914286D01*
X148857142Y-101028571D01*
X148857142Y-101314286D01*
X148914285Y-101428571D01*
X148971428Y-101485714D01*
X149085714Y-101542857D01*
X149428571Y-101542857D01*
X149542857Y-101485714D01*
X149599999Y-101428571D01*
X147485714Y-100285714D02*
X148514285Y-101828571D01*
X147199999Y-100342857D02*
X146399999Y-100342857D01*
X146914285Y-101542857D01*
X170971428Y-100742857D02*
X170971428Y-101542857D01*
X171257142Y-100285714D02*
X171542857Y-101142857D01*
X170799999Y-101142857D01*
X169485714Y-100285714D02*
X170514285Y-101828571D01*
X168914285Y-100857143D02*
X169028571Y-100800000D01*
X169085714Y-100742857D01*
X169142857Y-100628571D01*
X169142857Y-100571429D01*
X169085714Y-100457143D01*
X169028571Y-100400000D01*
X168914285Y-100342857D01*
X168685714Y-100342857D01*
X168571428Y-100400000D01*
X168514285Y-100457143D01*
X168457142Y-100571429D01*
X168457142Y-100628571D01*
X168514285Y-100742857D01*
X168571428Y-100800000D01*
X168685714Y-100857143D01*
X168914285Y-100857143D01*
X169028571Y-100914286D01*
X169085714Y-100971429D01*
X169142857Y-101085714D01*
X169142857Y-101314286D01*
X169085714Y-101428571D01*
X169028571Y-101485714D01*
X168914285Y-101542857D01*
X168685714Y-101542857D01*
X168571428Y-101485714D01*
X168514285Y-101428571D01*
X168457142Y-101314286D01*
X168457142Y-101085714D01*
X168514285Y-100971429D01*
X168571428Y-100914286D01*
X168685714Y-100857143D01*
X89000000Y-59000000D02*
X90000000Y-60000000D01*
X89000000Y-59000000D02*
X90000000Y-58000000D01*
X92000000Y-59000000D02*
X89000000Y-59000000D01*
X181000000Y-58000000D02*
X182000000Y-59000000D01*
X181000000Y-58000000D02*
X182000000Y-57000000D01*
X184000000Y-58000000D02*
X181000000Y-58000000D01*
X97699999Y-102342857D02*
X98099999Y-101771429D01*
X98385714Y-102342857D02*
X98385714Y-101142857D01*
X97928571Y-101142857D01*
X97814285Y-101200000D01*
X97757142Y-101257143D01*
X97699999Y-101371429D01*
X97699999Y-101542857D01*
X97757142Y-101657143D01*
X97814285Y-101714286D01*
X97928571Y-101771429D01*
X98385714Y-101771429D01*
X96728571Y-102285714D02*
X96842857Y-102342857D01*
X97071428Y-102342857D01*
X97185714Y-102285714D01*
X97242857Y-102171429D01*
X97242857Y-101714286D01*
X97185714Y-101600000D01*
X97071428Y-101542857D01*
X96842857Y-101542857D01*
X96728571Y-101600000D01*
X96671428Y-101714286D01*
X96671428Y-101828571D01*
X97242857Y-101942857D01*
X96271428Y-101542857D02*
X95985714Y-102342857D01*
X95700000Y-101542857D01*
X95242857Y-102228571D02*
X95185714Y-102285714D01*
X95242857Y-102342857D01*
X95300000Y-102285714D01*
X95242857Y-102228571D01*
X95242857Y-102342857D01*
X94728571Y-102000000D02*
X94157142Y-102000000D01*
X94842856Y-102342857D02*
X94442856Y-101142857D01*
X94042856Y-102342857D01*
D12*
G36*
X117556939Y-50766116D02*
X117642873Y-50852408D01*
X117728806Y-50938701D01*
X117602103Y-51065647D01*
X117475399Y-51192594D01*
X117393511Y-51111046D01*
X117311623Y-51029499D01*
X116774240Y-51566938D01*
X116692367Y-51648935D01*
X116614291Y-51727352D01*
X116540954Y-51801231D01*
X116473297Y-51869614D01*
X116412260Y-51931542D01*
X116358785Y-51986056D01*
X116313813Y-52032199D01*
X116278285Y-52069012D01*
X116253141Y-52095536D01*
X116239324Y-52110814D01*
X116236857Y-52114224D01*
X116243142Y-52121983D01*
X116261367Y-52141556D01*
X116290587Y-52171984D01*
X116329855Y-52212308D01*
X116378226Y-52261571D01*
X116434754Y-52318813D01*
X116498495Y-52383075D01*
X116568501Y-52453401D01*
X116643828Y-52528830D01*
X116723531Y-52608405D01*
X116772930Y-52657613D01*
X117309004Y-53191156D01*
X117850092Y-52650067D01*
X118391181Y-52108979D01*
X118300547Y-52018143D01*
X118218721Y-52018143D01*
X117960429Y-52018143D01*
X117960429Y-51891143D01*
X117960589Y-51845499D01*
X117961030Y-51807132D01*
X117961690Y-51779289D01*
X117962508Y-51765215D01*
X117962818Y-51764143D01*
X117969648Y-51770254D01*
X117987296Y-51787294D01*
X118013790Y-51813325D01*
X118047160Y-51846407D01*
X118085432Y-51884601D01*
X118091964Y-51891143D01*
X118218721Y-52018143D01*
X118300547Y-52018143D01*
X118273437Y-51990973D01*
X118155694Y-51872968D01*
X118207738Y-51820924D01*
X118259781Y-51768880D01*
X118408555Y-51917449D01*
X118456332Y-51965351D01*
X118492682Y-52002446D01*
X118519148Y-52030613D01*
X118537273Y-52051731D01*
X118548603Y-52067676D01*
X118554679Y-52080328D01*
X118557046Y-52091566D01*
X118557329Y-52098469D01*
X118565612Y-52131160D01*
X118587327Y-52158814D01*
X118617767Y-52176889D01*
X118643307Y-52181429D01*
X118654457Y-52182731D01*
X118666820Y-52187694D01*
X118682310Y-52197896D01*
X118702841Y-52214919D01*
X118730327Y-52240343D01*
X118766683Y-52275749D01*
X118810985Y-52319874D01*
X118856969Y-52366169D01*
X118891550Y-52401759D01*
X118916323Y-52428603D01*
X118932880Y-52448656D01*
X118942814Y-52463875D01*
X118947720Y-52476215D01*
X118949191Y-52487634D01*
X118949214Y-52489581D01*
X118945163Y-52514369D01*
X118930842Y-52538302D01*
X118915473Y-52555397D01*
X118881731Y-52589951D01*
X118761200Y-52469669D01*
X118640669Y-52349386D01*
X117556788Y-53433267D01*
X118096491Y-53973026D01*
X118178548Y-54055034D01*
X118256917Y-54133238D01*
X118330650Y-54206703D01*
X118398803Y-54274492D01*
X118460430Y-54335669D01*
X118514587Y-54389297D01*
X118560328Y-54434440D01*
X118596707Y-54470161D01*
X118622781Y-54495524D01*
X118637602Y-54509593D01*
X118640757Y-54512237D01*
X118647722Y-54505894D01*
X118666570Y-54487663D01*
X118696354Y-54458479D01*
X118736128Y-54419283D01*
X118784945Y-54371012D01*
X118841857Y-54314605D01*
X118905918Y-54250998D01*
X118976180Y-54181132D01*
X119051698Y-54105943D01*
X119131524Y-54026371D01*
X119185072Y-53972943D01*
X119724822Y-53434197D01*
X119640935Y-53349685D01*
X119557049Y-53265173D01*
X119683996Y-53138469D01*
X119810942Y-53011765D01*
X119894981Y-53095455D01*
X119979020Y-53179144D01*
X120205743Y-52952397D01*
X119751896Y-52952397D01*
X119625054Y-53079482D01*
X119498211Y-53206568D01*
X119219339Y-52927804D01*
X118940467Y-52649041D01*
X118973896Y-52614806D01*
X119004492Y-52589434D01*
X119030961Y-52580594D01*
X119032271Y-52580572D01*
X119073272Y-52572591D01*
X119105159Y-52550502D01*
X119125127Y-52517085D01*
X119130643Y-52483016D01*
X119138347Y-52456033D01*
X119162286Y-52426462D01*
X119162632Y-52426126D01*
X119194620Y-52395121D01*
X119751896Y-52952397D01*
X120205743Y-52952397D01*
X120967559Y-52190500D01*
X119339286Y-52190500D01*
X119339286Y-52322036D01*
X119339131Y-52368542D01*
X119338705Y-52407828D01*
X119338066Y-52436703D01*
X119337271Y-52451978D01*
X119336901Y-52453572D01*
X119330078Y-52447456D01*
X119312401Y-52430379D01*
X119285803Y-52404244D01*
X119252222Y-52370958D01*
X119213592Y-52332425D01*
X119203214Y-52322036D01*
X119071913Y-52190500D01*
X119339286Y-52190500D01*
X120967559Y-52190500D01*
X121058264Y-52099786D01*
X120518631Y-51560095D01*
X120223785Y-51265217D01*
X119733816Y-51265217D01*
X119316653Y-51682454D01*
X118899489Y-52099692D01*
X119017022Y-52217486D01*
X119134554Y-52335279D01*
X119103605Y-52367211D01*
X119078833Y-52388723D01*
X119055676Y-52397971D01*
X119040523Y-52399143D01*
X119028904Y-52398192D01*
X119016958Y-52394274D01*
X119002713Y-52385790D01*
X118984198Y-52371144D01*
X118959441Y-52348736D01*
X118926470Y-52316970D01*
X118883313Y-52274248D01*
X118869946Y-52260913D01*
X118823159Y-52213862D01*
X118787954Y-52177496D01*
X118762789Y-52149973D01*
X118746123Y-52129451D01*
X118736413Y-52114087D01*
X118732119Y-52102038D01*
X118731500Y-52095443D01*
X118733051Y-52085717D01*
X118738608Y-52073756D01*
X118749526Y-52058000D01*
X118767158Y-52036885D01*
X118792861Y-52008850D01*
X118827988Y-51972333D01*
X118873895Y-51925770D01*
X118910524Y-51889010D01*
X119089547Y-51709819D01*
X119084522Y-51704770D01*
X118976642Y-51704770D01*
X118826171Y-51855437D01*
X118777976Y-51903512D01*
X118740624Y-51940144D01*
X118712267Y-51966854D01*
X118691056Y-51985164D01*
X118675142Y-51996596D01*
X118662677Y-52002670D01*
X118651813Y-52004909D01*
X118644420Y-52005017D01*
X118633979Y-52003604D01*
X118622476Y-51999152D01*
X118608259Y-51990248D01*
X118589674Y-51975483D01*
X118565070Y-51953444D01*
X118532794Y-51922722D01*
X118491194Y-51881903D01*
X118438617Y-51829579D01*
X118436514Y-51827479D01*
X118259888Y-51651027D01*
X118178108Y-51732427D01*
X118096329Y-51813828D01*
X117812961Y-51530461D01*
X117529594Y-51247093D01*
X117657092Y-51119594D01*
X117784591Y-50992096D01*
X118642053Y-51839724D01*
X118759258Y-51722779D01*
X118876463Y-51605835D01*
X118926553Y-51655302D01*
X118976642Y-51704770D01*
X119084522Y-51704770D01*
X119010371Y-51630274D01*
X118931194Y-51550729D01*
X119071624Y-51410357D01*
X118989801Y-51410357D01*
X118858500Y-51541893D01*
X118818897Y-51581455D01*
X118783851Y-51616254D01*
X118755297Y-51644384D01*
X118735172Y-51663941D01*
X118725411Y-51673019D01*
X118724814Y-51673429D01*
X118723971Y-51664889D01*
X118723258Y-51641396D01*
X118722735Y-51606139D01*
X118722458Y-51562307D01*
X118722429Y-51541893D01*
X118722429Y-51410357D01*
X118989801Y-51410357D01*
X119071624Y-51410357D01*
X119475374Y-51006775D01*
X119733816Y-51265217D01*
X120223785Y-51265217D01*
X119978998Y-51020405D01*
X119788056Y-51210755D01*
X119658951Y-51081419D01*
X119529846Y-50952084D01*
X119625054Y-50856876D01*
X119720262Y-50761669D01*
X119180514Y-50221978D01*
X118640767Y-49682288D01*
X117556939Y-50766116D01*
X117556939Y-50766116D01*
G37*
X117556939Y-50766116D02*
X117642873Y-50852408D01*
X117728806Y-50938701D01*
X117602103Y-51065647D01*
X117475399Y-51192594D01*
X117393511Y-51111046D01*
X117311623Y-51029499D01*
X116774240Y-51566938D01*
X116692367Y-51648935D01*
X116614291Y-51727352D01*
X116540954Y-51801231D01*
X116473297Y-51869614D01*
X116412260Y-51931542D01*
X116358785Y-51986056D01*
X116313813Y-52032199D01*
X116278285Y-52069012D01*
X116253141Y-52095536D01*
X116239324Y-52110814D01*
X116236857Y-52114224D01*
X116243142Y-52121983D01*
X116261367Y-52141556D01*
X116290587Y-52171984D01*
X116329855Y-52212308D01*
X116378226Y-52261571D01*
X116434754Y-52318813D01*
X116498495Y-52383075D01*
X116568501Y-52453401D01*
X116643828Y-52528830D01*
X116723531Y-52608405D01*
X116772930Y-52657613D01*
X117309004Y-53191156D01*
X117850092Y-52650067D01*
X118391181Y-52108979D01*
X118300547Y-52018143D01*
X118218721Y-52018143D01*
X117960429Y-52018143D01*
X117960429Y-51891143D01*
X117960589Y-51845499D01*
X117961030Y-51807132D01*
X117961690Y-51779289D01*
X117962508Y-51765215D01*
X117962818Y-51764143D01*
X117969648Y-51770254D01*
X117987296Y-51787294D01*
X118013790Y-51813325D01*
X118047160Y-51846407D01*
X118085432Y-51884601D01*
X118091964Y-51891143D01*
X118218721Y-52018143D01*
X118300547Y-52018143D01*
X118273437Y-51990973D01*
X118155694Y-51872968D01*
X118207738Y-51820924D01*
X118259781Y-51768880D01*
X118408555Y-51917449D01*
X118456332Y-51965351D01*
X118492682Y-52002446D01*
X118519148Y-52030613D01*
X118537273Y-52051731D01*
X118548603Y-52067676D01*
X118554679Y-52080328D01*
X118557046Y-52091566D01*
X118557329Y-52098469D01*
X118565612Y-52131160D01*
X118587327Y-52158814D01*
X118617767Y-52176889D01*
X118643307Y-52181429D01*
X118654457Y-52182731D01*
X118666820Y-52187694D01*
X118682310Y-52197896D01*
X118702841Y-52214919D01*
X118730327Y-52240343D01*
X118766683Y-52275749D01*
X118810985Y-52319874D01*
X118856969Y-52366169D01*
X118891550Y-52401759D01*
X118916323Y-52428603D01*
X118932880Y-52448656D01*
X118942814Y-52463875D01*
X118947720Y-52476215D01*
X118949191Y-52487634D01*
X118949214Y-52489581D01*
X118945163Y-52514369D01*
X118930842Y-52538302D01*
X118915473Y-52555397D01*
X118881731Y-52589951D01*
X118761200Y-52469669D01*
X118640669Y-52349386D01*
X117556788Y-53433267D01*
X118096491Y-53973026D01*
X118178548Y-54055034D01*
X118256917Y-54133238D01*
X118330650Y-54206703D01*
X118398803Y-54274492D01*
X118460430Y-54335669D01*
X118514587Y-54389297D01*
X118560328Y-54434440D01*
X118596707Y-54470161D01*
X118622781Y-54495524D01*
X118637602Y-54509593D01*
X118640757Y-54512237D01*
X118647722Y-54505894D01*
X118666570Y-54487663D01*
X118696354Y-54458479D01*
X118736128Y-54419283D01*
X118784945Y-54371012D01*
X118841857Y-54314605D01*
X118905918Y-54250998D01*
X118976180Y-54181132D01*
X119051698Y-54105943D01*
X119131524Y-54026371D01*
X119185072Y-53972943D01*
X119724822Y-53434197D01*
X119640935Y-53349685D01*
X119557049Y-53265173D01*
X119683996Y-53138469D01*
X119810942Y-53011765D01*
X119894981Y-53095455D01*
X119979020Y-53179144D01*
X120205743Y-52952397D01*
X119751896Y-52952397D01*
X119625054Y-53079482D01*
X119498211Y-53206568D01*
X119219339Y-52927804D01*
X118940467Y-52649041D01*
X118973896Y-52614806D01*
X119004492Y-52589434D01*
X119030961Y-52580594D01*
X119032271Y-52580572D01*
X119073272Y-52572591D01*
X119105159Y-52550502D01*
X119125127Y-52517085D01*
X119130643Y-52483016D01*
X119138347Y-52456033D01*
X119162286Y-52426462D01*
X119162632Y-52426126D01*
X119194620Y-52395121D01*
X119751896Y-52952397D01*
X120205743Y-52952397D01*
X120967559Y-52190500D01*
X119339286Y-52190500D01*
X119339286Y-52322036D01*
X119339131Y-52368542D01*
X119338705Y-52407828D01*
X119338066Y-52436703D01*
X119337271Y-52451978D01*
X119336901Y-52453572D01*
X119330078Y-52447456D01*
X119312401Y-52430379D01*
X119285803Y-52404244D01*
X119252222Y-52370958D01*
X119213592Y-52332425D01*
X119203214Y-52322036D01*
X119071913Y-52190500D01*
X119339286Y-52190500D01*
X120967559Y-52190500D01*
X121058264Y-52099786D01*
X120518631Y-51560095D01*
X120223785Y-51265217D01*
X119733816Y-51265217D01*
X119316653Y-51682454D01*
X118899489Y-52099692D01*
X119017022Y-52217486D01*
X119134554Y-52335279D01*
X119103605Y-52367211D01*
X119078833Y-52388723D01*
X119055676Y-52397971D01*
X119040523Y-52399143D01*
X119028904Y-52398192D01*
X119016958Y-52394274D01*
X119002713Y-52385790D01*
X118984198Y-52371144D01*
X118959441Y-52348736D01*
X118926470Y-52316970D01*
X118883313Y-52274248D01*
X118869946Y-52260913D01*
X118823159Y-52213862D01*
X118787954Y-52177496D01*
X118762789Y-52149973D01*
X118746123Y-52129451D01*
X118736413Y-52114087D01*
X118732119Y-52102038D01*
X118731500Y-52095443D01*
X118733051Y-52085717D01*
X118738608Y-52073756D01*
X118749526Y-52058000D01*
X118767158Y-52036885D01*
X118792861Y-52008850D01*
X118827988Y-51972333D01*
X118873895Y-51925770D01*
X118910524Y-51889010D01*
X119089547Y-51709819D01*
X119084522Y-51704770D01*
X118976642Y-51704770D01*
X118826171Y-51855437D01*
X118777976Y-51903512D01*
X118740624Y-51940144D01*
X118712267Y-51966854D01*
X118691056Y-51985164D01*
X118675142Y-51996596D01*
X118662677Y-52002670D01*
X118651813Y-52004909D01*
X118644420Y-52005017D01*
X118633979Y-52003604D01*
X118622476Y-51999152D01*
X118608259Y-51990248D01*
X118589674Y-51975483D01*
X118565070Y-51953444D01*
X118532794Y-51922722D01*
X118491194Y-51881903D01*
X118438617Y-51829579D01*
X118436514Y-51827479D01*
X118259888Y-51651027D01*
X118178108Y-51732427D01*
X118096329Y-51813828D01*
X117812961Y-51530461D01*
X117529594Y-51247093D01*
X117657092Y-51119594D01*
X117784591Y-50992096D01*
X118642053Y-51839724D01*
X118759258Y-51722779D01*
X118876463Y-51605835D01*
X118926553Y-51655302D01*
X118976642Y-51704770D01*
X119084522Y-51704770D01*
X119010371Y-51630274D01*
X118931194Y-51550729D01*
X119071624Y-51410357D01*
X118989801Y-51410357D01*
X118858500Y-51541893D01*
X118818897Y-51581455D01*
X118783851Y-51616254D01*
X118755297Y-51644384D01*
X118735172Y-51663941D01*
X118725411Y-51673019D01*
X118724814Y-51673429D01*
X118723971Y-51664889D01*
X118723258Y-51641396D01*
X118722735Y-51606139D01*
X118722458Y-51562307D01*
X118722429Y-51541893D01*
X118722429Y-51410357D01*
X118989801Y-51410357D01*
X119071624Y-51410357D01*
X119475374Y-51006775D01*
X119733816Y-51265217D01*
X120223785Y-51265217D01*
X119978998Y-51020405D01*
X119788056Y-51210755D01*
X119658951Y-51081419D01*
X119529846Y-50952084D01*
X119625054Y-50856876D01*
X119720262Y-50761669D01*
X119180514Y-50221978D01*
X118640767Y-49682288D01*
X117556939Y-50766116D01*
G36*
X109798544Y-51427102D02*
X109726060Y-51434948D01*
X109673679Y-51445615D01*
X109565492Y-51482865D01*
X109469480Y-51533216D01*
X109385994Y-51596397D01*
X109315384Y-51672140D01*
X109258002Y-51760173D01*
X109253574Y-51768545D01*
X109229933Y-51814036D01*
X109218642Y-51668893D01*
X109214420Y-51617061D01*
X109210197Y-51569490D01*
X109206344Y-51530079D01*
X109203233Y-51502730D01*
X109201979Y-51494268D01*
X109196607Y-51464786D01*
X108931678Y-51464783D01*
X108666750Y-51464781D01*
X108669031Y-52074837D01*
X108669791Y-52276945D01*
X108670504Y-52461740D01*
X108671184Y-52630054D01*
X108671843Y-52782716D01*
X108672497Y-52920559D01*
X108673157Y-53044411D01*
X108673839Y-53155104D01*
X108674556Y-53253468D01*
X108675321Y-53340333D01*
X108676149Y-53416531D01*
X108677053Y-53482892D01*
X108678047Y-53540246D01*
X108679144Y-53589424D01*
X108680358Y-53631257D01*
X108681704Y-53666574D01*
X108683194Y-53696208D01*
X108684842Y-53720987D01*
X108686663Y-53741743D01*
X108688670Y-53759307D01*
X108690876Y-53774508D01*
X108693295Y-53788178D01*
X108695942Y-53801146D01*
X108697688Y-53809132D01*
X108728798Y-53922962D01*
X108769053Y-54023067D01*
X108819817Y-54112110D01*
X108882452Y-54192756D01*
X108907835Y-54219904D01*
X108989028Y-54291866D01*
X109080796Y-54352083D01*
X109184445Y-54401193D01*
X109301284Y-54439833D01*
X109408665Y-54464307D01*
X109455433Y-54470878D01*
X109515884Y-54476028D01*
X109585685Y-54479696D01*
X109660506Y-54481820D01*
X109736016Y-54482340D01*
X109807881Y-54481195D01*
X109871772Y-54478324D01*
X109923356Y-54473665D01*
X109936750Y-54471755D01*
X110067768Y-54444008D01*
X110186985Y-54405097D01*
X110293670Y-54355468D01*
X110387094Y-54295570D01*
X110466527Y-54225848D01*
X110531241Y-54146751D01*
X110568003Y-54084850D01*
X110579056Y-54060459D01*
X110591630Y-54028576D01*
X110604266Y-53993528D01*
X110615505Y-53959644D01*
X110623886Y-53931252D01*
X110627950Y-53912681D01*
X110627644Y-53907978D01*
X110617807Y-53905787D01*
X110592645Y-53901966D01*
X110554868Y-53896834D01*
X110507190Y-53890710D01*
X110452322Y-53883911D01*
X110392977Y-53876757D01*
X110331867Y-53869566D01*
X110271704Y-53862656D01*
X110215200Y-53856345D01*
X110165068Y-53850953D01*
X110124018Y-53846798D01*
X110094764Y-53844198D01*
X110080018Y-53843471D01*
X110079113Y-53843564D01*
X110069665Y-53852715D01*
X110057105Y-53873987D01*
X110046371Y-53897547D01*
X110009208Y-53966915D01*
X109959133Y-54023547D01*
X109896109Y-54067474D01*
X109838320Y-54092806D01*
X109793951Y-54103235D01*
X109737641Y-54109081D01*
X109674982Y-54110427D01*
X109611566Y-54107358D01*
X109552984Y-54099958D01*
X109504827Y-54088312D01*
X109503149Y-54087743D01*
X109436617Y-54055503D01*
X109377565Y-54008135D01*
X109328491Y-53947955D01*
X109302399Y-53901540D01*
X109284921Y-53862563D01*
X109270927Y-53825405D01*
X109260001Y-53787301D01*
X109251725Y-53745488D01*
X109245680Y-53697202D01*
X109241450Y-53639679D01*
X109238617Y-53570156D01*
X109236764Y-53485869D01*
X109236445Y-53465036D01*
X109233049Y-53229179D01*
X109262834Y-53283607D01*
X109282388Y-53313653D01*
X109311232Y-53350898D01*
X109345280Y-53390281D01*
X109369756Y-53416138D01*
X109409751Y-53455082D01*
X109443805Y-53483960D01*
X109477346Y-53506844D01*
X109515801Y-53527805D01*
X109524000Y-53531852D01*
X109580245Y-53557793D01*
X109631271Y-53577398D01*
X109681264Y-53591499D01*
X109734408Y-53600930D01*
X109794890Y-53606526D01*
X109866894Y-53609120D01*
X109914072Y-53609574D01*
X109979311Y-53609424D01*
X110029851Y-53608344D01*
X110069121Y-53606093D01*
X110100551Y-53602431D01*
X110127570Y-53597116D01*
X110140857Y-53593664D01*
X110242921Y-53556036D01*
X110336416Y-53502827D01*
X110420813Y-53434721D01*
X110495583Y-53352401D01*
X110560197Y-53256552D01*
X110614127Y-53147857D01*
X110656844Y-53026998D01*
X110687817Y-52894661D01*
X110689622Y-52884464D01*
X110708802Y-52738519D01*
X110717678Y-52585460D01*
X110717143Y-52525906D01*
X110130620Y-52525906D01*
X110128845Y-52594179D01*
X110118441Y-52724952D01*
X110099207Y-52840051D01*
X110071015Y-52939724D01*
X110033734Y-53024215D01*
X109987235Y-53093774D01*
X109931389Y-53148645D01*
X109866067Y-53189076D01*
X109805214Y-53211662D01*
X109756046Y-53220396D01*
X109697349Y-53223336D01*
X109636772Y-53220525D01*
X109581963Y-53212005D01*
X109575202Y-53210363D01*
X109516266Y-53190776D01*
X109466125Y-53163019D01*
X109418544Y-53123327D01*
X109400063Y-53104569D01*
X109348607Y-53039210D01*
X109306949Y-52961930D01*
X109274864Y-52871934D01*
X109252129Y-52768421D01*
X109238518Y-52650596D01*
X109233809Y-52517659D01*
X109233802Y-52512536D01*
X109238567Y-52378648D01*
X109253035Y-52259529D01*
X109277408Y-52154490D01*
X109311891Y-52062844D01*
X109356687Y-51983902D01*
X109408893Y-51920138D01*
X109466453Y-51873323D01*
X109533139Y-51839689D01*
X109605947Y-51819195D01*
X109681875Y-51811799D01*
X109757919Y-51817459D01*
X109831077Y-51836133D01*
X109898345Y-51867781D01*
X109956721Y-51912360D01*
X109971784Y-51927952D01*
X110020017Y-51994051D01*
X110059930Y-52075199D01*
X110091233Y-52170177D01*
X110113641Y-52277766D01*
X110126866Y-52396749D01*
X110130620Y-52525906D01*
X110717143Y-52525906D01*
X110716288Y-52430944D01*
X110704664Y-52280627D01*
X110685097Y-52151597D01*
X110651617Y-52014249D01*
X110606918Y-51890666D01*
X110551147Y-51781022D01*
X110484450Y-51685496D01*
X110406973Y-51604264D01*
X110318863Y-51537502D01*
X110220266Y-51485387D01*
X110111327Y-51448095D01*
X110100036Y-51445229D01*
X110034338Y-51433260D01*
X109958387Y-51426253D01*
X109877888Y-51424202D01*
X109798544Y-51427102D01*
X109798544Y-51427102D01*
G37*
X109798544Y-51427102D02*
X109726060Y-51434948D01*
X109673679Y-51445615D01*
X109565492Y-51482865D01*
X109469480Y-51533216D01*
X109385994Y-51596397D01*
X109315384Y-51672140D01*
X109258002Y-51760173D01*
X109253574Y-51768545D01*
X109229933Y-51814036D01*
X109218642Y-51668893D01*
X109214420Y-51617061D01*
X109210197Y-51569490D01*
X109206344Y-51530079D01*
X109203233Y-51502730D01*
X109201979Y-51494268D01*
X109196607Y-51464786D01*
X108931678Y-51464783D01*
X108666750Y-51464781D01*
X108669031Y-52074837D01*
X108669791Y-52276945D01*
X108670504Y-52461740D01*
X108671184Y-52630054D01*
X108671843Y-52782716D01*
X108672497Y-52920559D01*
X108673157Y-53044411D01*
X108673839Y-53155104D01*
X108674556Y-53253468D01*
X108675321Y-53340333D01*
X108676149Y-53416531D01*
X108677053Y-53482892D01*
X108678047Y-53540246D01*
X108679144Y-53589424D01*
X108680358Y-53631257D01*
X108681704Y-53666574D01*
X108683194Y-53696208D01*
X108684842Y-53720987D01*
X108686663Y-53741743D01*
X108688670Y-53759307D01*
X108690876Y-53774508D01*
X108693295Y-53788178D01*
X108695942Y-53801146D01*
X108697688Y-53809132D01*
X108728798Y-53922962D01*
X108769053Y-54023067D01*
X108819817Y-54112110D01*
X108882452Y-54192756D01*
X108907835Y-54219904D01*
X108989028Y-54291866D01*
X109080796Y-54352083D01*
X109184445Y-54401193D01*
X109301284Y-54439833D01*
X109408665Y-54464307D01*
X109455433Y-54470878D01*
X109515884Y-54476028D01*
X109585685Y-54479696D01*
X109660506Y-54481820D01*
X109736016Y-54482340D01*
X109807881Y-54481195D01*
X109871772Y-54478324D01*
X109923356Y-54473665D01*
X109936750Y-54471755D01*
X110067768Y-54444008D01*
X110186985Y-54405097D01*
X110293670Y-54355468D01*
X110387094Y-54295570D01*
X110466527Y-54225848D01*
X110531241Y-54146751D01*
X110568003Y-54084850D01*
X110579056Y-54060459D01*
X110591630Y-54028576D01*
X110604266Y-53993528D01*
X110615505Y-53959644D01*
X110623886Y-53931252D01*
X110627950Y-53912681D01*
X110627644Y-53907978D01*
X110617807Y-53905787D01*
X110592645Y-53901966D01*
X110554868Y-53896834D01*
X110507190Y-53890710D01*
X110452322Y-53883911D01*
X110392977Y-53876757D01*
X110331867Y-53869566D01*
X110271704Y-53862656D01*
X110215200Y-53856345D01*
X110165068Y-53850953D01*
X110124018Y-53846798D01*
X110094764Y-53844198D01*
X110080018Y-53843471D01*
X110079113Y-53843564D01*
X110069665Y-53852715D01*
X110057105Y-53873987D01*
X110046371Y-53897547D01*
X110009208Y-53966915D01*
X109959133Y-54023547D01*
X109896109Y-54067474D01*
X109838320Y-54092806D01*
X109793951Y-54103235D01*
X109737641Y-54109081D01*
X109674982Y-54110427D01*
X109611566Y-54107358D01*
X109552984Y-54099958D01*
X109504827Y-54088312D01*
X109503149Y-54087743D01*
X109436617Y-54055503D01*
X109377565Y-54008135D01*
X109328491Y-53947955D01*
X109302399Y-53901540D01*
X109284921Y-53862563D01*
X109270927Y-53825405D01*
X109260001Y-53787301D01*
X109251725Y-53745488D01*
X109245680Y-53697202D01*
X109241450Y-53639679D01*
X109238617Y-53570156D01*
X109236764Y-53485869D01*
X109236445Y-53465036D01*
X109233049Y-53229179D01*
X109262834Y-53283607D01*
X109282388Y-53313653D01*
X109311232Y-53350898D01*
X109345280Y-53390281D01*
X109369756Y-53416138D01*
X109409751Y-53455082D01*
X109443805Y-53483960D01*
X109477346Y-53506844D01*
X109515801Y-53527805D01*
X109524000Y-53531852D01*
X109580245Y-53557793D01*
X109631271Y-53577398D01*
X109681264Y-53591499D01*
X109734408Y-53600930D01*
X109794890Y-53606526D01*
X109866894Y-53609120D01*
X109914072Y-53609574D01*
X109979311Y-53609424D01*
X110029851Y-53608344D01*
X110069121Y-53606093D01*
X110100551Y-53602431D01*
X110127570Y-53597116D01*
X110140857Y-53593664D01*
X110242921Y-53556036D01*
X110336416Y-53502827D01*
X110420813Y-53434721D01*
X110495583Y-53352401D01*
X110560197Y-53256552D01*
X110614127Y-53147857D01*
X110656844Y-53026998D01*
X110687817Y-52894661D01*
X110689622Y-52884464D01*
X110708802Y-52738519D01*
X110717678Y-52585460D01*
X110717143Y-52525906D01*
X110130620Y-52525906D01*
X110128845Y-52594179D01*
X110118441Y-52724952D01*
X110099207Y-52840051D01*
X110071015Y-52939724D01*
X110033734Y-53024215D01*
X109987235Y-53093774D01*
X109931389Y-53148645D01*
X109866067Y-53189076D01*
X109805214Y-53211662D01*
X109756046Y-53220396D01*
X109697349Y-53223336D01*
X109636772Y-53220525D01*
X109581963Y-53212005D01*
X109575202Y-53210363D01*
X109516266Y-53190776D01*
X109466125Y-53163019D01*
X109418544Y-53123327D01*
X109400063Y-53104569D01*
X109348607Y-53039210D01*
X109306949Y-52961930D01*
X109274864Y-52871934D01*
X109252129Y-52768421D01*
X109238518Y-52650596D01*
X109233809Y-52517659D01*
X109233802Y-52512536D01*
X109238567Y-52378648D01*
X109253035Y-52259529D01*
X109277408Y-52154490D01*
X109311891Y-52062844D01*
X109356687Y-51983902D01*
X109408893Y-51920138D01*
X109466453Y-51873323D01*
X109533139Y-51839689D01*
X109605947Y-51819195D01*
X109681875Y-51811799D01*
X109757919Y-51817459D01*
X109831077Y-51836133D01*
X109898345Y-51867781D01*
X109956721Y-51912360D01*
X109971784Y-51927952D01*
X110020017Y-51994051D01*
X110059930Y-52075199D01*
X110091233Y-52170177D01*
X110113641Y-52277766D01*
X110126866Y-52396749D01*
X110130620Y-52525906D01*
X110717143Y-52525906D01*
X110716288Y-52430944D01*
X110704664Y-52280627D01*
X110685097Y-52151597D01*
X110651617Y-52014249D01*
X110606918Y-51890666D01*
X110551147Y-51781022D01*
X110484450Y-51685496D01*
X110406973Y-51604264D01*
X110318863Y-51537502D01*
X110220266Y-51485387D01*
X110111327Y-51448095D01*
X110100036Y-51445229D01*
X110034338Y-51433260D01*
X109958387Y-51426253D01*
X109877888Y-51424202D01*
X109798544Y-51427102D01*
G36*
X112013665Y-51429185D02*
X111902498Y-51439713D01*
X111804042Y-51456255D01*
X111713517Y-51480003D01*
X111626143Y-51512149D01*
X111560536Y-51542126D01*
X111453619Y-51604299D01*
X111358923Y-51679762D01*
X111276412Y-51768568D01*
X111206047Y-51870771D01*
X111147790Y-51986426D01*
X111101604Y-52115587D01*
X111070029Y-52244929D01*
X111063027Y-52291822D01*
X111057320Y-52352267D01*
X111053034Y-52421712D01*
X111050294Y-52495603D01*
X111049227Y-52569388D01*
X111049958Y-52638513D01*
X111052613Y-52698426D01*
X111056398Y-52738125D01*
X111083195Y-52882542D01*
X111123588Y-53016488D01*
X111177246Y-53139342D01*
X111243837Y-53250478D01*
X111323029Y-53349276D01*
X111414490Y-53435111D01*
X111437381Y-53453071D01*
X111529007Y-53513021D01*
X111633490Y-53564693D01*
X111746840Y-53606543D01*
X111865067Y-53637028D01*
X111948197Y-53650729D01*
X112000835Y-53655390D01*
X112065036Y-53658098D01*
X112135502Y-53658903D01*
X112206935Y-53657855D01*
X112274034Y-53655004D01*
X112331503Y-53650399D01*
X112358822Y-53646869D01*
X112483755Y-53620562D01*
X112600447Y-53581578D01*
X112667250Y-53552204D01*
X112779985Y-53489403D01*
X112879636Y-53414897D01*
X112966470Y-53328308D01*
X113040752Y-53229260D01*
X113102747Y-53117374D01*
X113152722Y-52992272D01*
X113190942Y-52853576D01*
X113203911Y-52789214D01*
X113211894Y-52729407D01*
X113217120Y-52656766D01*
X113219595Y-52576389D01*
X113219506Y-52548625D01*
X112626768Y-52548625D01*
X112626148Y-52620646D01*
X112623851Y-52686696D01*
X112619836Y-52741964D01*
X112617413Y-52762354D01*
X112595374Y-52875538D01*
X112563055Y-52975784D01*
X112520879Y-53062537D01*
X112469269Y-53135239D01*
X112408651Y-53193334D01*
X112339447Y-53236267D01*
X112262080Y-53263480D01*
X112231095Y-53269512D01*
X112172597Y-53274248D01*
X112106548Y-53272729D01*
X112041129Y-53265526D01*
X111984519Y-53253204D01*
X111981022Y-53252141D01*
X111915342Y-53226245D01*
X111859007Y-53190985D01*
X111805804Y-53142380D01*
X111800023Y-53136207D01*
X111752079Y-53075118D01*
X111713029Y-53004551D01*
X111682514Y-52923178D01*
X111660176Y-52829672D01*
X111645656Y-52722705D01*
X111638595Y-52600949D01*
X111637750Y-52535214D01*
X111642364Y-52395937D01*
X111656292Y-52272112D01*
X111679663Y-52163547D01*
X111712606Y-52070050D01*
X111755249Y-51991426D01*
X111807720Y-51927484D01*
X111870150Y-51878030D01*
X111942665Y-51842871D01*
X112025396Y-51821814D01*
X112118429Y-51814668D01*
X112215035Y-51821113D01*
X112300460Y-51841283D01*
X112375871Y-51875608D01*
X112442430Y-51924519D01*
X112459236Y-51940481D01*
X112509349Y-52001236D01*
X112550449Y-52074708D01*
X112583044Y-52162074D01*
X112607644Y-52264514D01*
X112613330Y-52297052D01*
X112618993Y-52344848D01*
X112623148Y-52405915D01*
X112625754Y-52475445D01*
X112626768Y-52548625D01*
X113219506Y-52548625D01*
X113219326Y-52493372D01*
X113216320Y-52412814D01*
X113210582Y-52339811D01*
X113203259Y-52285750D01*
X113171321Y-52146922D01*
X113126024Y-52018431D01*
X113067822Y-51901186D01*
X112997169Y-51796097D01*
X112914522Y-51704073D01*
X112910511Y-51700238D01*
X112810749Y-51617607D01*
X112700924Y-51549741D01*
X112580897Y-51496599D01*
X112450530Y-51458140D01*
X112309684Y-51434321D01*
X112158222Y-51425100D01*
X112013665Y-51429185D01*
X112013665Y-51429185D01*
G37*
X112013665Y-51429185D02*
X111902498Y-51439713D01*
X111804042Y-51456255D01*
X111713517Y-51480003D01*
X111626143Y-51512149D01*
X111560536Y-51542126D01*
X111453619Y-51604299D01*
X111358923Y-51679762D01*
X111276412Y-51768568D01*
X111206047Y-51870771D01*
X111147790Y-51986426D01*
X111101604Y-52115587D01*
X111070029Y-52244929D01*
X111063027Y-52291822D01*
X111057320Y-52352267D01*
X111053034Y-52421712D01*
X111050294Y-52495603D01*
X111049227Y-52569388D01*
X111049958Y-52638513D01*
X111052613Y-52698426D01*
X111056398Y-52738125D01*
X111083195Y-52882542D01*
X111123588Y-53016488D01*
X111177246Y-53139342D01*
X111243837Y-53250478D01*
X111323029Y-53349276D01*
X111414490Y-53435111D01*
X111437381Y-53453071D01*
X111529007Y-53513021D01*
X111633490Y-53564693D01*
X111746840Y-53606543D01*
X111865067Y-53637028D01*
X111948197Y-53650729D01*
X112000835Y-53655390D01*
X112065036Y-53658098D01*
X112135502Y-53658903D01*
X112206935Y-53657855D01*
X112274034Y-53655004D01*
X112331503Y-53650399D01*
X112358822Y-53646869D01*
X112483755Y-53620562D01*
X112600447Y-53581578D01*
X112667250Y-53552204D01*
X112779985Y-53489403D01*
X112879636Y-53414897D01*
X112966470Y-53328308D01*
X113040752Y-53229260D01*
X113102747Y-53117374D01*
X113152722Y-52992272D01*
X113190942Y-52853576D01*
X113203911Y-52789214D01*
X113211894Y-52729407D01*
X113217120Y-52656766D01*
X113219595Y-52576389D01*
X113219506Y-52548625D01*
X112626768Y-52548625D01*
X112626148Y-52620646D01*
X112623851Y-52686696D01*
X112619836Y-52741964D01*
X112617413Y-52762354D01*
X112595374Y-52875538D01*
X112563055Y-52975784D01*
X112520879Y-53062537D01*
X112469269Y-53135239D01*
X112408651Y-53193334D01*
X112339447Y-53236267D01*
X112262080Y-53263480D01*
X112231095Y-53269512D01*
X112172597Y-53274248D01*
X112106548Y-53272729D01*
X112041129Y-53265526D01*
X111984519Y-53253204D01*
X111981022Y-53252141D01*
X111915342Y-53226245D01*
X111859007Y-53190985D01*
X111805804Y-53142380D01*
X111800023Y-53136207D01*
X111752079Y-53075118D01*
X111713029Y-53004551D01*
X111682514Y-52923178D01*
X111660176Y-52829672D01*
X111645656Y-52722705D01*
X111638595Y-52600949D01*
X111637750Y-52535214D01*
X111642364Y-52395937D01*
X111656292Y-52272112D01*
X111679663Y-52163547D01*
X111712606Y-52070050D01*
X111755249Y-51991426D01*
X111807720Y-51927484D01*
X111870150Y-51878030D01*
X111942665Y-51842871D01*
X112025396Y-51821814D01*
X112118429Y-51814668D01*
X112215035Y-51821113D01*
X112300460Y-51841283D01*
X112375871Y-51875608D01*
X112442430Y-51924519D01*
X112459236Y-51940481D01*
X112509349Y-52001236D01*
X112550449Y-52074708D01*
X112583044Y-52162074D01*
X112607644Y-52264514D01*
X112613330Y-52297052D01*
X112618993Y-52344848D01*
X112623148Y-52405915D01*
X112625754Y-52475445D01*
X112626768Y-52548625D01*
X113219506Y-52548625D01*
X113219326Y-52493372D01*
X113216320Y-52412814D01*
X113210582Y-52339811D01*
X113203259Y-52285750D01*
X113171321Y-52146922D01*
X113126024Y-52018431D01*
X113067822Y-51901186D01*
X112997169Y-51796097D01*
X112914522Y-51704073D01*
X112910511Y-51700238D01*
X112810749Y-51617607D01*
X112700924Y-51549741D01*
X112580897Y-51496599D01*
X112450530Y-51458140D01*
X112309684Y-51434321D01*
X112158222Y-51425100D01*
X112013665Y-51429185D01*
G36*
X105622481Y-50772124D02*
X105485514Y-50780777D01*
X105355907Y-50797974D01*
X105328242Y-50803031D01*
X105180652Y-50839442D01*
X105044914Y-50889366D01*
X104921191Y-50952687D01*
X104809648Y-51029287D01*
X104710448Y-51119048D01*
X104623755Y-51221853D01*
X104549732Y-51337585D01*
X104529469Y-51375897D01*
X104507859Y-51420208D01*
X104488434Y-51462808D01*
X104472496Y-51500533D01*
X104461345Y-51530218D01*
X104456284Y-51548696D01*
X104456654Y-51553035D01*
X104466022Y-51556284D01*
X104490235Y-51563445D01*
X104526597Y-51573788D01*
X104572414Y-51586581D01*
X104624993Y-51601092D01*
X104681640Y-51616590D01*
X104739659Y-51632342D01*
X104796357Y-51647618D01*
X104849040Y-51661685D01*
X104895014Y-51673812D01*
X104931584Y-51683267D01*
X104956056Y-51689319D01*
X104965607Y-51691251D01*
X104973069Y-51683445D01*
X104985966Y-51662615D01*
X105002251Y-51632265D01*
X105014278Y-51607848D01*
X105034955Y-51566976D01*
X105055401Y-51533607D01*
X105079629Y-51502262D01*
X105111647Y-51467457D01*
X105132206Y-51446671D01*
X105172078Y-51408378D01*
X105206141Y-51379774D01*
X105240202Y-51356610D01*
X105280068Y-51334639D01*
X105296714Y-51326323D01*
X105357204Y-51297979D01*
X105410467Y-51276710D01*
X105461005Y-51261566D01*
X105513322Y-51251598D01*
X105571921Y-51245854D01*
X105641304Y-51243387D01*
X105691321Y-51243084D01*
X105754041Y-51243470D01*
X105802526Y-51244675D01*
X105840679Y-51247028D01*
X105872400Y-51250861D01*
X105901592Y-51256502D01*
X105927752Y-51263080D01*
X106039083Y-51301551D01*
X106138189Y-51353392D01*
X106225075Y-51418612D01*
X106299745Y-51497219D01*
X106362205Y-51589220D01*
X106412458Y-51694625D01*
X106450510Y-51813440D01*
X106476365Y-51945675D01*
X106490028Y-52091338D01*
X106491504Y-52250436D01*
X106491402Y-52254000D01*
X106484310Y-52382549D01*
X106470672Y-52496683D01*
X106449902Y-52599125D01*
X106421413Y-52692595D01*
X106384619Y-52779816D01*
X106373299Y-52802426D01*
X106315180Y-52898613D01*
X106247521Y-52980019D01*
X106168847Y-53048114D01*
X106077684Y-53104368D01*
X106063250Y-53111674D01*
X105952464Y-53156239D01*
X105834205Y-53184294D01*
X105708552Y-53195822D01*
X105618750Y-53194204D01*
X105499668Y-53179511D01*
X105390742Y-53150089D01*
X105291597Y-53105674D01*
X105201859Y-53046003D01*
X105121150Y-52970814D01*
X105049097Y-52879844D01*
X104985322Y-52772829D01*
X104968439Y-52738998D01*
X104932121Y-52663311D01*
X104862686Y-52688941D01*
X104826878Y-52702235D01*
X104782258Y-52718921D01*
X104731463Y-52737998D01*
X104677132Y-52758468D01*
X104621901Y-52779333D01*
X104568409Y-52799593D01*
X104519294Y-52818250D01*
X104477192Y-52834305D01*
X104444743Y-52846760D01*
X104424582Y-52854615D01*
X104419086Y-52856907D01*
X104421406Y-52865708D01*
X104430746Y-52887051D01*
X104445395Y-52917570D01*
X104463643Y-52953904D01*
X104483778Y-52992688D01*
X104504091Y-53030559D01*
X104522868Y-53064154D01*
X104534619Y-53084036D01*
X104618822Y-53204769D01*
X104715199Y-53312161D01*
X104823311Y-53405911D01*
X104942717Y-53485721D01*
X105072979Y-53551288D01*
X105213657Y-53602314D01*
X105339352Y-53633677D01*
X105392866Y-53642008D01*
X105460282Y-53648690D01*
X105537426Y-53653634D01*
X105620126Y-53656751D01*
X105704207Y-53657951D01*
X105785496Y-53657147D01*
X105859820Y-53654248D01*
X105923005Y-53649165D01*
X105943657Y-53646581D01*
X106105626Y-53615756D01*
X106256181Y-53571016D01*
X106395083Y-53512573D01*
X106522090Y-53440636D01*
X106636965Y-53355416D01*
X106739466Y-53257122D01*
X106829355Y-53145965D01*
X106906392Y-53022155D01*
X106970337Y-52885902D01*
X107020951Y-52737415D01*
X107033288Y-52691353D01*
X107052823Y-52607142D01*
X107067415Y-52527233D01*
X107077594Y-52446792D01*
X107083889Y-52360986D01*
X107086831Y-52264982D01*
X107087205Y-52199572D01*
X107081470Y-52024477D01*
X107064612Y-51862986D01*
X107036299Y-51714113D01*
X106996194Y-51576874D01*
X106943964Y-51450285D01*
X106879274Y-51333360D01*
X106801790Y-51225115D01*
X106727620Y-51141261D01*
X106630721Y-51052085D01*
X106524750Y-50976023D01*
X106408092Y-50912180D01*
X106279134Y-50859662D01*
X106149429Y-50820880D01*
X106030281Y-50796391D01*
X105899590Y-50780033D01*
X105762081Y-50771910D01*
X105622481Y-50772124D01*
X105622481Y-50772124D01*
G37*
X105622481Y-50772124D02*
X105485514Y-50780777D01*
X105355907Y-50797974D01*
X105328242Y-50803031D01*
X105180652Y-50839442D01*
X105044914Y-50889366D01*
X104921191Y-50952687D01*
X104809648Y-51029287D01*
X104710448Y-51119048D01*
X104623755Y-51221853D01*
X104549732Y-51337585D01*
X104529469Y-51375897D01*
X104507859Y-51420208D01*
X104488434Y-51462808D01*
X104472496Y-51500533D01*
X104461345Y-51530218D01*
X104456284Y-51548696D01*
X104456654Y-51553035D01*
X104466022Y-51556284D01*
X104490235Y-51563445D01*
X104526597Y-51573788D01*
X104572414Y-51586581D01*
X104624993Y-51601092D01*
X104681640Y-51616590D01*
X104739659Y-51632342D01*
X104796357Y-51647618D01*
X104849040Y-51661685D01*
X104895014Y-51673812D01*
X104931584Y-51683267D01*
X104956056Y-51689319D01*
X104965607Y-51691251D01*
X104973069Y-51683445D01*
X104985966Y-51662615D01*
X105002251Y-51632265D01*
X105014278Y-51607848D01*
X105034955Y-51566976D01*
X105055401Y-51533607D01*
X105079629Y-51502262D01*
X105111647Y-51467457D01*
X105132206Y-51446671D01*
X105172078Y-51408378D01*
X105206141Y-51379774D01*
X105240202Y-51356610D01*
X105280068Y-51334639D01*
X105296714Y-51326323D01*
X105357204Y-51297979D01*
X105410467Y-51276710D01*
X105461005Y-51261566D01*
X105513322Y-51251598D01*
X105571921Y-51245854D01*
X105641304Y-51243387D01*
X105691321Y-51243084D01*
X105754041Y-51243470D01*
X105802526Y-51244675D01*
X105840679Y-51247028D01*
X105872400Y-51250861D01*
X105901592Y-51256502D01*
X105927752Y-51263080D01*
X106039083Y-51301551D01*
X106138189Y-51353392D01*
X106225075Y-51418612D01*
X106299745Y-51497219D01*
X106362205Y-51589220D01*
X106412458Y-51694625D01*
X106450510Y-51813440D01*
X106476365Y-51945675D01*
X106490028Y-52091338D01*
X106491504Y-52250436D01*
X106491402Y-52254000D01*
X106484310Y-52382549D01*
X106470672Y-52496683D01*
X106449902Y-52599125D01*
X106421413Y-52692595D01*
X106384619Y-52779816D01*
X106373299Y-52802426D01*
X106315180Y-52898613D01*
X106247521Y-52980019D01*
X106168847Y-53048114D01*
X106077684Y-53104368D01*
X106063250Y-53111674D01*
X105952464Y-53156239D01*
X105834205Y-53184294D01*
X105708552Y-53195822D01*
X105618750Y-53194204D01*
X105499668Y-53179511D01*
X105390742Y-53150089D01*
X105291597Y-53105674D01*
X105201859Y-53046003D01*
X105121150Y-52970814D01*
X105049097Y-52879844D01*
X104985322Y-52772829D01*
X104968439Y-52738998D01*
X104932121Y-52663311D01*
X104862686Y-52688941D01*
X104826878Y-52702235D01*
X104782258Y-52718921D01*
X104731463Y-52737998D01*
X104677132Y-52758468D01*
X104621901Y-52779333D01*
X104568409Y-52799593D01*
X104519294Y-52818250D01*
X104477192Y-52834305D01*
X104444743Y-52846760D01*
X104424582Y-52854615D01*
X104419086Y-52856907D01*
X104421406Y-52865708D01*
X104430746Y-52887051D01*
X104445395Y-52917570D01*
X104463643Y-52953904D01*
X104483778Y-52992688D01*
X104504091Y-53030559D01*
X104522868Y-53064154D01*
X104534619Y-53084036D01*
X104618822Y-53204769D01*
X104715199Y-53312161D01*
X104823311Y-53405911D01*
X104942717Y-53485721D01*
X105072979Y-53551288D01*
X105213657Y-53602314D01*
X105339352Y-53633677D01*
X105392866Y-53642008D01*
X105460282Y-53648690D01*
X105537426Y-53653634D01*
X105620126Y-53656751D01*
X105704207Y-53657951D01*
X105785496Y-53657147D01*
X105859820Y-53654248D01*
X105923005Y-53649165D01*
X105943657Y-53646581D01*
X106105626Y-53615756D01*
X106256181Y-53571016D01*
X106395083Y-53512573D01*
X106522090Y-53440636D01*
X106636965Y-53355416D01*
X106739466Y-53257122D01*
X106829355Y-53145965D01*
X106906392Y-53022155D01*
X106970337Y-52885902D01*
X107020951Y-52737415D01*
X107033288Y-52691353D01*
X107052823Y-52607142D01*
X107067415Y-52527233D01*
X107077594Y-52446792D01*
X107083889Y-52360986D01*
X107086831Y-52264982D01*
X107087205Y-52199572D01*
X107081470Y-52024477D01*
X107064612Y-51862986D01*
X107036299Y-51714113D01*
X106996194Y-51576874D01*
X106943964Y-51450285D01*
X106879274Y-51333360D01*
X106801790Y-51225115D01*
X106727620Y-51141261D01*
X106630721Y-51052085D01*
X106524750Y-50976023D01*
X106408092Y-50912180D01*
X106279134Y-50859662D01*
X106149429Y-50820880D01*
X106030281Y-50796391D01*
X105899590Y-50780033D01*
X105762081Y-50771910D01*
X105622481Y-50772124D01*
G36*
X101807819Y-51429010D02*
X101741201Y-51433163D01*
X101704429Y-51437157D01*
X101564925Y-51463754D01*
X101437095Y-51504154D01*
X101321132Y-51558112D01*
X101217227Y-51625383D01*
X101125574Y-51705723D01*
X101046363Y-51798887D01*
X100979788Y-51904630D01*
X100926040Y-52022708D01*
X100885312Y-52152876D01*
X100857796Y-52294889D01*
X100843684Y-52448503D01*
X100841705Y-52535214D01*
X100848110Y-52692669D01*
X100867564Y-52837838D01*
X100900252Y-52971234D01*
X100946364Y-53093368D01*
X101006086Y-53204752D01*
X101079605Y-53305899D01*
X101152291Y-53383449D01*
X101248411Y-53464440D01*
X101352384Y-53530769D01*
X101465696Y-53583134D01*
X101589835Y-53622232D01*
X101713500Y-53646876D01*
X101768400Y-53652946D01*
X101835509Y-53656873D01*
X101909494Y-53658658D01*
X101985023Y-53658301D01*
X102056761Y-53655801D01*
X102119377Y-53651160D01*
X102153464Y-53646869D01*
X102262728Y-53624839D01*
X102363222Y-53593623D01*
X102463069Y-53550661D01*
X102470964Y-53546792D01*
X102583437Y-53482120D01*
X102682156Y-53405783D01*
X102767827Y-53317077D01*
X102841154Y-53215298D01*
X102888753Y-53129393D01*
X102934450Y-53025644D01*
X102968973Y-52920826D01*
X102993094Y-52811286D01*
X103007585Y-52693372D01*
X103013217Y-52563428D01*
X103013349Y-52539750D01*
X102420855Y-52539750D01*
X102419165Y-52641090D01*
X102413884Y-52727985D01*
X102404391Y-52803888D01*
X102390062Y-52872254D01*
X102370278Y-52936535D01*
X102344415Y-53000185D01*
X102333879Y-53022813D01*
X102286970Y-53103706D01*
X102231237Y-53168791D01*
X102166431Y-53218215D01*
X102092298Y-53252121D01*
X102008588Y-53270656D01*
X101915050Y-53273963D01*
X101900251Y-53273161D01*
X101855846Y-53268346D01*
X101809299Y-53260272D01*
X101771891Y-53251020D01*
X101693793Y-53218218D01*
X101626001Y-53171125D01*
X101568359Y-53109521D01*
X101520714Y-53033187D01*
X101482912Y-52941906D01*
X101454799Y-52835458D01*
X101446212Y-52788457D01*
X101440446Y-52740061D01*
X101436198Y-52678342D01*
X101433511Y-52608060D01*
X101432426Y-52533974D01*
X101432987Y-52460843D01*
X101435236Y-52393428D01*
X101439215Y-52336489D01*
X101441973Y-52312664D01*
X101463442Y-52198108D01*
X101493978Y-52099131D01*
X101533863Y-52015436D01*
X101583381Y-51946727D01*
X101642815Y-51892708D01*
X101712448Y-51853083D01*
X101792563Y-51827554D01*
X101883444Y-51815826D01*
X101917607Y-51814927D01*
X102006857Y-51820601D01*
X102085829Y-51838804D01*
X102158303Y-51870595D01*
X102193657Y-51892164D01*
X102254184Y-51941718D01*
X102304969Y-52003371D01*
X102346240Y-52077773D01*
X102378226Y-52165577D01*
X102401155Y-52267433D01*
X102415257Y-52383993D01*
X102420759Y-52515908D01*
X102420855Y-52539750D01*
X103013349Y-52539750D01*
X103006708Y-52382798D01*
X102986475Y-52237590D01*
X102952499Y-52103685D01*
X102904628Y-51980639D01*
X102842710Y-51868009D01*
X102766593Y-51765352D01*
X102736154Y-51731252D01*
X102647150Y-51649147D01*
X102545100Y-51578586D01*
X102431567Y-51520357D01*
X102308113Y-51475246D01*
X102176303Y-51444041D01*
X102160149Y-51441292D01*
X102104674Y-51434589D01*
X102036437Y-51429961D01*
X101960704Y-51427457D01*
X101882743Y-51427124D01*
X101807819Y-51429010D01*
X101807819Y-51429010D01*
G37*
X101807819Y-51429010D02*
X101741201Y-51433163D01*
X101704429Y-51437157D01*
X101564925Y-51463754D01*
X101437095Y-51504154D01*
X101321132Y-51558112D01*
X101217227Y-51625383D01*
X101125574Y-51705723D01*
X101046363Y-51798887D01*
X100979788Y-51904630D01*
X100926040Y-52022708D01*
X100885312Y-52152876D01*
X100857796Y-52294889D01*
X100843684Y-52448503D01*
X100841705Y-52535214D01*
X100848110Y-52692669D01*
X100867564Y-52837838D01*
X100900252Y-52971234D01*
X100946364Y-53093368D01*
X101006086Y-53204752D01*
X101079605Y-53305899D01*
X101152291Y-53383449D01*
X101248411Y-53464440D01*
X101352384Y-53530769D01*
X101465696Y-53583134D01*
X101589835Y-53622232D01*
X101713500Y-53646876D01*
X101768400Y-53652946D01*
X101835509Y-53656873D01*
X101909494Y-53658658D01*
X101985023Y-53658301D01*
X102056761Y-53655801D01*
X102119377Y-53651160D01*
X102153464Y-53646869D01*
X102262728Y-53624839D01*
X102363222Y-53593623D01*
X102463069Y-53550661D01*
X102470964Y-53546792D01*
X102583437Y-53482120D01*
X102682156Y-53405783D01*
X102767827Y-53317077D01*
X102841154Y-53215298D01*
X102888753Y-53129393D01*
X102934450Y-53025644D01*
X102968973Y-52920826D01*
X102993094Y-52811286D01*
X103007585Y-52693372D01*
X103013217Y-52563428D01*
X103013349Y-52539750D01*
X102420855Y-52539750D01*
X102419165Y-52641090D01*
X102413884Y-52727985D01*
X102404391Y-52803888D01*
X102390062Y-52872254D01*
X102370278Y-52936535D01*
X102344415Y-53000185D01*
X102333879Y-53022813D01*
X102286970Y-53103706D01*
X102231237Y-53168791D01*
X102166431Y-53218215D01*
X102092298Y-53252121D01*
X102008588Y-53270656D01*
X101915050Y-53273963D01*
X101900251Y-53273161D01*
X101855846Y-53268346D01*
X101809299Y-53260272D01*
X101771891Y-53251020D01*
X101693793Y-53218218D01*
X101626001Y-53171125D01*
X101568359Y-53109521D01*
X101520714Y-53033187D01*
X101482912Y-52941906D01*
X101454799Y-52835458D01*
X101446212Y-52788457D01*
X101440446Y-52740061D01*
X101436198Y-52678342D01*
X101433511Y-52608060D01*
X101432426Y-52533974D01*
X101432987Y-52460843D01*
X101435236Y-52393428D01*
X101439215Y-52336489D01*
X101441973Y-52312664D01*
X101463442Y-52198108D01*
X101493978Y-52099131D01*
X101533863Y-52015436D01*
X101583381Y-51946727D01*
X101642815Y-51892708D01*
X101712448Y-51853083D01*
X101792563Y-51827554D01*
X101883444Y-51815826D01*
X101917607Y-51814927D01*
X102006857Y-51820601D01*
X102085829Y-51838804D01*
X102158303Y-51870595D01*
X102193657Y-51892164D01*
X102254184Y-51941718D01*
X102304969Y-52003371D01*
X102346240Y-52077773D01*
X102378226Y-52165577D01*
X102401155Y-52267433D01*
X102415257Y-52383993D01*
X102420759Y-52515908D01*
X102420855Y-52539750D01*
X103013349Y-52539750D01*
X103006708Y-52382798D01*
X102986475Y-52237590D01*
X102952499Y-52103685D01*
X102904628Y-51980639D01*
X102842710Y-51868009D01*
X102766593Y-51765352D01*
X102736154Y-51731252D01*
X102647150Y-51649147D01*
X102545100Y-51578586D01*
X102431567Y-51520357D01*
X102308113Y-51475246D01*
X102176303Y-51444041D01*
X102160149Y-51441292D01*
X102104674Y-51434589D01*
X102036437Y-51429961D01*
X101960704Y-51427457D01*
X101882743Y-51427124D01*
X101807819Y-51429010D01*
G36*
X97145036Y-51429128D02*
X97070554Y-51434768D01*
X97007674Y-51443831D01*
X97000775Y-51445230D01*
X96879139Y-51479490D01*
X96767818Y-51528557D01*
X96667152Y-51592083D01*
X96577479Y-51669719D01*
X96499139Y-51761117D01*
X96432472Y-51865930D01*
X96377818Y-51983809D01*
X96335516Y-52114407D01*
X96331132Y-52131536D01*
X96309680Y-52231314D01*
X96292055Y-52340421D01*
X96279182Y-52451518D01*
X96271987Y-52557264D01*
X96270787Y-52610054D01*
X96270643Y-52653143D01*
X97660200Y-52653143D01*
X97654072Y-52732518D01*
X97639156Y-52854107D01*
X97614340Y-52960508D01*
X97579604Y-53051753D01*
X97534926Y-53127873D01*
X97480285Y-53188897D01*
X97415660Y-53234857D01*
X97341030Y-53265784D01*
X97278170Y-53279175D01*
X97198535Y-53283843D01*
X97120711Y-53276395D01*
X97048064Y-53257779D01*
X96983960Y-53228944D01*
X96931766Y-53190838D01*
X96919212Y-53178049D01*
X96897095Y-53149259D01*
X96874002Y-53112516D01*
X96858309Y-53082657D01*
X96843680Y-53052445D01*
X96833013Y-53035496D01*
X96822867Y-53028511D01*
X96809801Y-53028190D01*
X96802626Y-53029246D01*
X96785933Y-53031257D01*
X96753959Y-53034480D01*
X96709507Y-53038656D01*
X96655379Y-53043526D01*
X96594379Y-53048833D01*
X96542786Y-53053196D01*
X96480027Y-53058541D01*
X96423477Y-53063555D01*
X96375577Y-53068006D01*
X96338766Y-53071662D01*
X96315483Y-53074291D01*
X96308132Y-53075558D01*
X96309494Y-53085523D01*
X96318409Y-53107699D01*
X96333157Y-53138702D01*
X96352020Y-53175148D01*
X96373279Y-53213654D01*
X96395216Y-53250835D01*
X96405460Y-53267185D01*
X96444743Y-53321079D01*
X96494062Y-53377702D01*
X96548566Y-53432150D01*
X96603403Y-53479518D01*
X96645366Y-53509731D01*
X96753120Y-53568054D01*
X96872208Y-53612889D01*
X97001315Y-53643752D01*
X97018513Y-53646672D01*
X97064797Y-53652090D01*
X97123966Y-53655945D01*
X97190892Y-53658196D01*
X97260447Y-53658799D01*
X97327501Y-53657713D01*
X97386926Y-53654895D01*
X97433594Y-53650301D01*
X97434826Y-53650124D01*
X97563131Y-53623736D01*
X97682020Y-53583694D01*
X97789819Y-53530611D01*
X97830355Y-53505264D01*
X97923529Y-53433331D01*
X98004494Y-53350058D01*
X98073666Y-53254737D01*
X98131459Y-53146662D01*
X98178287Y-53025129D01*
X98214564Y-52889429D01*
X98226393Y-52830036D01*
X98233871Y-52774833D01*
X98239282Y-52705985D01*
X98242625Y-52627871D01*
X98243901Y-52544868D01*
X98243108Y-52461357D01*
X98240247Y-52381715D01*
X98235318Y-52310323D01*
X98234012Y-52299357D01*
X97652162Y-52299357D01*
X96818208Y-52299357D01*
X96825884Y-52233589D01*
X96844094Y-52130289D01*
X96872936Y-52038828D01*
X96911861Y-51960102D01*
X96960324Y-51895010D01*
X97017778Y-51844449D01*
X97083677Y-51809317D01*
X97084490Y-51809003D01*
X97135889Y-51794678D01*
X97196878Y-51785930D01*
X97259599Y-51783362D01*
X97316194Y-51787577D01*
X97330362Y-51790158D01*
X97406952Y-51815302D01*
X97473900Y-51855463D01*
X97530758Y-51910016D01*
X97577079Y-51978340D01*
X97612416Y-52059810D01*
X97636321Y-52153803D01*
X97646347Y-52230562D01*
X97652162Y-52299357D01*
X98234012Y-52299357D01*
X98228319Y-52251559D01*
X98226435Y-52240393D01*
X98193502Y-52099532D01*
X98148074Y-51971798D01*
X98090187Y-51857225D01*
X98019876Y-51755852D01*
X97937177Y-51667714D01*
X97842125Y-51592847D01*
X97734756Y-51531289D01*
X97615105Y-51483076D01*
X97483208Y-51448244D01*
X97448582Y-51441676D01*
X97382894Y-51433186D01*
X97306727Y-51428293D01*
X97225601Y-51426955D01*
X97145036Y-51429128D01*
X97145036Y-51429128D01*
G37*
X97145036Y-51429128D02*
X97070554Y-51434768D01*
X97007674Y-51443831D01*
X97000775Y-51445230D01*
X96879139Y-51479490D01*
X96767818Y-51528557D01*
X96667152Y-51592083D01*
X96577479Y-51669719D01*
X96499139Y-51761117D01*
X96432472Y-51865930D01*
X96377818Y-51983809D01*
X96335516Y-52114407D01*
X96331132Y-52131536D01*
X96309680Y-52231314D01*
X96292055Y-52340421D01*
X96279182Y-52451518D01*
X96271987Y-52557264D01*
X96270787Y-52610054D01*
X96270643Y-52653143D01*
X97660200Y-52653143D01*
X97654072Y-52732518D01*
X97639156Y-52854107D01*
X97614340Y-52960508D01*
X97579604Y-53051753D01*
X97534926Y-53127873D01*
X97480285Y-53188897D01*
X97415660Y-53234857D01*
X97341030Y-53265784D01*
X97278170Y-53279175D01*
X97198535Y-53283843D01*
X97120711Y-53276395D01*
X97048064Y-53257779D01*
X96983960Y-53228944D01*
X96931766Y-53190838D01*
X96919212Y-53178049D01*
X96897095Y-53149259D01*
X96874002Y-53112516D01*
X96858309Y-53082657D01*
X96843680Y-53052445D01*
X96833013Y-53035496D01*
X96822867Y-53028511D01*
X96809801Y-53028190D01*
X96802626Y-53029246D01*
X96785933Y-53031257D01*
X96753959Y-53034480D01*
X96709507Y-53038656D01*
X96655379Y-53043526D01*
X96594379Y-53048833D01*
X96542786Y-53053196D01*
X96480027Y-53058541D01*
X96423477Y-53063555D01*
X96375577Y-53068006D01*
X96338766Y-53071662D01*
X96315483Y-53074291D01*
X96308132Y-53075558D01*
X96309494Y-53085523D01*
X96318409Y-53107699D01*
X96333157Y-53138702D01*
X96352020Y-53175148D01*
X96373279Y-53213654D01*
X96395216Y-53250835D01*
X96405460Y-53267185D01*
X96444743Y-53321079D01*
X96494062Y-53377702D01*
X96548566Y-53432150D01*
X96603403Y-53479518D01*
X96645366Y-53509731D01*
X96753120Y-53568054D01*
X96872208Y-53612889D01*
X97001315Y-53643752D01*
X97018513Y-53646672D01*
X97064797Y-53652090D01*
X97123966Y-53655945D01*
X97190892Y-53658196D01*
X97260447Y-53658799D01*
X97327501Y-53657713D01*
X97386926Y-53654895D01*
X97433594Y-53650301D01*
X97434826Y-53650124D01*
X97563131Y-53623736D01*
X97682020Y-53583694D01*
X97789819Y-53530611D01*
X97830355Y-53505264D01*
X97923529Y-53433331D01*
X98004494Y-53350058D01*
X98073666Y-53254737D01*
X98131459Y-53146662D01*
X98178287Y-53025129D01*
X98214564Y-52889429D01*
X98226393Y-52830036D01*
X98233871Y-52774833D01*
X98239282Y-52705985D01*
X98242625Y-52627871D01*
X98243901Y-52544868D01*
X98243108Y-52461357D01*
X98240247Y-52381715D01*
X98235318Y-52310323D01*
X98234012Y-52299357D01*
X97652162Y-52299357D01*
X96818208Y-52299357D01*
X96825884Y-52233589D01*
X96844094Y-52130289D01*
X96872936Y-52038828D01*
X96911861Y-51960102D01*
X96960324Y-51895010D01*
X97017778Y-51844449D01*
X97083677Y-51809317D01*
X97084490Y-51809003D01*
X97135889Y-51794678D01*
X97196878Y-51785930D01*
X97259599Y-51783362D01*
X97316194Y-51787577D01*
X97330362Y-51790158D01*
X97406952Y-51815302D01*
X97473900Y-51855463D01*
X97530758Y-51910016D01*
X97577079Y-51978340D01*
X97612416Y-52059810D01*
X97636321Y-52153803D01*
X97646347Y-52230562D01*
X97652162Y-52299357D01*
X98234012Y-52299357D01*
X98228319Y-52251559D01*
X98226435Y-52240393D01*
X98193502Y-52099532D01*
X98148074Y-51971798D01*
X98090187Y-51857225D01*
X98019876Y-51755852D01*
X97937177Y-51667714D01*
X97842125Y-51592847D01*
X97734756Y-51531289D01*
X97615105Y-51483076D01*
X97483208Y-51448244D01*
X97448582Y-51441676D01*
X97382894Y-51433186D01*
X97306727Y-51428293D01*
X97225601Y-51426955D01*
X97145036Y-51429128D01*
G36*
X115012214Y-53161143D02*
X113506357Y-53161143D01*
X113506357Y-53623786D01*
X115601857Y-53623786D01*
X115601857Y-50811643D01*
X115012214Y-50811643D01*
X115012214Y-53161143D01*
X115012214Y-53161143D01*
G37*
X115012214Y-53161143D02*
X113506357Y-53161143D01*
X113506357Y-53623786D01*
X115601857Y-53623786D01*
X115601857Y-50811643D01*
X115012214Y-50811643D01*
X115012214Y-53161143D01*
G36*
X107541893Y-53619250D02*
X108108857Y-53624044D01*
X108108857Y-51464786D01*
X107537283Y-51464786D01*
X107541893Y-53619250D01*
X107541893Y-53619250D01*
G37*
X107541893Y-53619250D02*
X108108857Y-53624044D01*
X108108857Y-51464786D01*
X107537283Y-51464786D01*
X107541893Y-53619250D01*
G36*
X103459750Y-53619250D02*
X103737056Y-53621647D01*
X103806255Y-53622048D01*
X103869547Y-53622039D01*
X103924670Y-53621649D01*
X103969361Y-53620908D01*
X104001359Y-53619847D01*
X104018401Y-53618495D01*
X104020538Y-53617867D01*
X104021218Y-53608267D01*
X104021876Y-53581482D01*
X104022510Y-53538471D01*
X104023115Y-53480194D01*
X104023687Y-53407607D01*
X104024222Y-53321671D01*
X104024716Y-53223343D01*
X104025165Y-53113582D01*
X104025565Y-52993347D01*
X104025912Y-52863596D01*
X104026202Y-52725287D01*
X104026431Y-52579380D01*
X104026595Y-52426832D01*
X104026691Y-52268603D01*
X104026714Y-52139095D01*
X104026714Y-50666500D01*
X103455160Y-50666500D01*
X103459750Y-53619250D01*
X103459750Y-53619250D01*
G37*
X103459750Y-53619250D02*
X103737056Y-53621647D01*
X103806255Y-53622048D01*
X103869547Y-53622039D01*
X103924670Y-53621649D01*
X103969361Y-53620908D01*
X104001359Y-53619847D01*
X104018401Y-53618495D01*
X104020538Y-53617867D01*
X104021218Y-53608267D01*
X104021876Y-53581482D01*
X104022510Y-53538471D01*
X104023115Y-53480194D01*
X104023687Y-53407607D01*
X104024222Y-53321671D01*
X104024716Y-53223343D01*
X104025165Y-53113582D01*
X104025565Y-52993347D01*
X104025912Y-52863596D01*
X104026202Y-52725287D01*
X104026431Y-52579380D01*
X104026595Y-52426832D01*
X104026691Y-52268603D01*
X104026714Y-52139095D01*
X104026714Y-50666500D01*
X103455160Y-50666500D01*
X103459750Y-53619250D01*
G36*
X100067036Y-51465055D02*
X99922263Y-51929831D01*
X99878239Y-52071184D01*
X99839239Y-52196455D01*
X99804887Y-52306881D01*
X99774806Y-52403699D01*
X99748618Y-52488147D01*
X99725946Y-52561462D01*
X99706412Y-52624883D01*
X99689639Y-52679645D01*
X99675250Y-52726987D01*
X99662868Y-52768146D01*
X99652115Y-52804359D01*
X99642614Y-52836864D01*
X99633987Y-52866898D01*
X99625858Y-52895700D01*
X99617848Y-52924505D01*
X99609581Y-52954552D01*
X99607657Y-52961572D01*
X99592977Y-53014586D01*
X99579562Y-53061941D01*
X99568266Y-53100708D01*
X99559943Y-53127955D01*
X99555449Y-53140753D01*
X99555347Y-53140949D01*
X99550729Y-53137327D01*
X99542744Y-53118951D01*
X99532449Y-53088660D01*
X99520901Y-53049296D01*
X99519916Y-53045699D01*
X99512651Y-53020639D01*
X99500258Y-52979825D01*
X99483213Y-52924762D01*
X99461993Y-52856953D01*
X99437073Y-52777900D01*
X99408930Y-52689107D01*
X99378038Y-52592076D01*
X99344874Y-52488312D01*
X99309914Y-52379316D01*
X99273634Y-52266593D01*
X99252791Y-52202006D01*
X99014750Y-51465119D01*
X98722197Y-51464952D01*
X98644226Y-51465160D01*
X98575840Y-51465845D01*
X98518653Y-51466963D01*
X98474282Y-51468468D01*
X98444339Y-51470316D01*
X98430442Y-51472460D01*
X98429643Y-51473150D01*
X98432706Y-51482147D01*
X98441588Y-51506921D01*
X98455833Y-51546225D01*
X98474982Y-51598815D01*
X98498577Y-51663444D01*
X98526159Y-51738867D01*
X98557272Y-51823839D01*
X98591457Y-51917114D01*
X98628256Y-52017446D01*
X98667211Y-52123590D01*
X98707864Y-52234300D01*
X98749757Y-52348331D01*
X98792432Y-52464436D01*
X98835431Y-52581371D01*
X98878296Y-52697890D01*
X98920570Y-52812747D01*
X98961793Y-52924696D01*
X99001508Y-53032493D01*
X99039258Y-53134891D01*
X99074583Y-53230645D01*
X99107027Y-53318509D01*
X99136130Y-53397238D01*
X99161436Y-53465586D01*
X99182486Y-53522307D01*
X99198821Y-53566156D01*
X99209985Y-53595888D01*
X99214586Y-53607911D01*
X99217259Y-53612037D01*
X99222884Y-53615382D01*
X99233202Y-53618028D01*
X99249957Y-53620056D01*
X99274888Y-53621547D01*
X99309740Y-53622582D01*
X99356253Y-53623242D01*
X99416169Y-53623608D01*
X99491231Y-53623762D01*
X99555695Y-53623786D01*
X99890592Y-53623786D01*
X99900121Y-53598839D01*
X99905506Y-53584204D01*
X99916375Y-53554193D01*
X99932279Y-53510056D01*
X99952773Y-53453047D01*
X99977407Y-53384418D01*
X100005734Y-53305422D01*
X100037307Y-53217309D01*
X100071679Y-53121334D01*
X100108401Y-53018747D01*
X100147027Y-52910801D01*
X100187108Y-52798749D01*
X100228197Y-52683843D01*
X100269847Y-52567334D01*
X100311611Y-52450475D01*
X100353039Y-52334519D01*
X100393686Y-52220718D01*
X100433103Y-52110323D01*
X100470844Y-52004588D01*
X100506459Y-51904764D01*
X100539503Y-51812103D01*
X100569527Y-51727859D01*
X100596083Y-51653282D01*
X100618725Y-51589627D01*
X100637005Y-51538143D01*
X100650474Y-51500085D01*
X100658687Y-51476703D01*
X100661214Y-51469232D01*
X100652497Y-51468168D01*
X100627758Y-51467204D01*
X100589122Y-51466369D01*
X100538709Y-51465696D01*
X100478643Y-51465214D01*
X100411044Y-51464955D01*
X100364125Y-51464920D01*
X100067036Y-51465055D01*
X100067036Y-51465055D01*
G37*
X100067036Y-51465055D02*
X99922263Y-51929831D01*
X99878239Y-52071184D01*
X99839239Y-52196455D01*
X99804887Y-52306881D01*
X99774806Y-52403699D01*
X99748618Y-52488147D01*
X99725946Y-52561462D01*
X99706412Y-52624883D01*
X99689639Y-52679645D01*
X99675250Y-52726987D01*
X99662868Y-52768146D01*
X99652115Y-52804359D01*
X99642614Y-52836864D01*
X99633987Y-52866898D01*
X99625858Y-52895700D01*
X99617848Y-52924505D01*
X99609581Y-52954552D01*
X99607657Y-52961572D01*
X99592977Y-53014586D01*
X99579562Y-53061941D01*
X99568266Y-53100708D01*
X99559943Y-53127955D01*
X99555449Y-53140753D01*
X99555347Y-53140949D01*
X99550729Y-53137327D01*
X99542744Y-53118951D01*
X99532449Y-53088660D01*
X99520901Y-53049296D01*
X99519916Y-53045699D01*
X99512651Y-53020639D01*
X99500258Y-52979825D01*
X99483213Y-52924762D01*
X99461993Y-52856953D01*
X99437073Y-52777900D01*
X99408930Y-52689107D01*
X99378038Y-52592076D01*
X99344874Y-52488312D01*
X99309914Y-52379316D01*
X99273634Y-52266593D01*
X99252791Y-52202006D01*
X99014750Y-51465119D01*
X98722197Y-51464952D01*
X98644226Y-51465160D01*
X98575840Y-51465845D01*
X98518653Y-51466963D01*
X98474282Y-51468468D01*
X98444339Y-51470316D01*
X98430442Y-51472460D01*
X98429643Y-51473150D01*
X98432706Y-51482147D01*
X98441588Y-51506921D01*
X98455833Y-51546225D01*
X98474982Y-51598815D01*
X98498577Y-51663444D01*
X98526159Y-51738867D01*
X98557272Y-51823839D01*
X98591457Y-51917114D01*
X98628256Y-52017446D01*
X98667211Y-52123590D01*
X98707864Y-52234300D01*
X98749757Y-52348331D01*
X98792432Y-52464436D01*
X98835431Y-52581371D01*
X98878296Y-52697890D01*
X98920570Y-52812747D01*
X98961793Y-52924696D01*
X99001508Y-53032493D01*
X99039258Y-53134891D01*
X99074583Y-53230645D01*
X99107027Y-53318509D01*
X99136130Y-53397238D01*
X99161436Y-53465586D01*
X99182486Y-53522307D01*
X99198821Y-53566156D01*
X99209985Y-53595888D01*
X99214586Y-53607911D01*
X99217259Y-53612037D01*
X99222884Y-53615382D01*
X99233202Y-53618028D01*
X99249957Y-53620056D01*
X99274888Y-53621547D01*
X99309740Y-53622582D01*
X99356253Y-53623242D01*
X99416169Y-53623608D01*
X99491231Y-53623762D01*
X99555695Y-53623786D01*
X99890592Y-53623786D01*
X99900121Y-53598839D01*
X99905506Y-53584204D01*
X99916375Y-53554193D01*
X99932279Y-53510056D01*
X99952773Y-53453047D01*
X99977407Y-53384418D01*
X100005734Y-53305422D01*
X100037307Y-53217309D01*
X100071679Y-53121334D01*
X100108401Y-53018747D01*
X100147027Y-52910801D01*
X100187108Y-52798749D01*
X100228197Y-52683843D01*
X100269847Y-52567334D01*
X100311611Y-52450475D01*
X100353039Y-52334519D01*
X100393686Y-52220718D01*
X100433103Y-52110323D01*
X100470844Y-52004588D01*
X100506459Y-51904764D01*
X100539503Y-51812103D01*
X100569527Y-51727859D01*
X100596083Y-51653282D01*
X100618725Y-51589627D01*
X100637005Y-51538143D01*
X100650474Y-51500085D01*
X100658687Y-51476703D01*
X100661214Y-51469232D01*
X100652497Y-51468168D01*
X100627758Y-51467204D01*
X100589122Y-51466369D01*
X100538709Y-51465696D01*
X100478643Y-51465214D01*
X100411044Y-51464955D01*
X100364125Y-51464920D01*
X100067036Y-51465055D01*
G36*
X94758811Y-51421855D02*
X94707765Y-51427796D01*
X94675986Y-51432259D01*
X94651218Y-51436170D01*
X94632594Y-51441643D01*
X94619248Y-51450795D01*
X94610313Y-51465742D01*
X94604924Y-51488600D01*
X94602213Y-51521485D01*
X94601315Y-51566513D01*
X94601362Y-51625801D01*
X94601500Y-51687355D01*
X94601742Y-51763424D01*
X94602511Y-51822688D01*
X94603865Y-51866481D01*
X94605868Y-51896135D01*
X94608579Y-51912983D01*
X94612060Y-51918357D01*
X94612092Y-51918357D01*
X94624846Y-51917123D01*
X94651550Y-51913770D01*
X94688206Y-51908821D01*
X94727752Y-51903239D01*
X94779829Y-51896440D01*
X94820225Y-51893179D01*
X94855020Y-51893286D01*
X94890293Y-51896591D01*
X94902946Y-51898336D01*
X94985730Y-51918342D01*
X95057971Y-51952857D01*
X95119997Y-52002152D01*
X95172135Y-52066501D01*
X95214712Y-52146177D01*
X95222605Y-52165226D01*
X95232541Y-52190338D01*
X95241163Y-52212950D01*
X95248575Y-52234503D01*
X95254882Y-52256435D01*
X95260186Y-52280185D01*
X95264592Y-52307193D01*
X95268202Y-52338898D01*
X95271121Y-52376740D01*
X95273453Y-52422157D01*
X95275301Y-52476588D01*
X95276768Y-52541474D01*
X95277959Y-52618252D01*
X95278977Y-52708363D01*
X95279925Y-52813245D01*
X95280908Y-52934338D01*
X95281270Y-52979714D01*
X95286393Y-53619250D01*
X95565574Y-53621649D01*
X95647723Y-53622201D01*
X95713318Y-53622257D01*
X95763940Y-53621769D01*
X95801172Y-53620684D01*
X95826596Y-53618952D01*
X95841795Y-53616524D01*
X95848352Y-53613347D01*
X95848779Y-53612578D01*
X95849319Y-53602193D01*
X95849881Y-53574800D01*
X95850457Y-53531535D01*
X95851040Y-53473533D01*
X95851623Y-53401930D01*
X95852200Y-53317860D01*
X95852764Y-53222459D01*
X95853307Y-53116862D01*
X95853824Y-53002205D01*
X95854306Y-52879622D01*
X95854747Y-52750250D01*
X95855141Y-52615223D01*
X95855348Y-52532945D01*
X95857893Y-51464782D01*
X95593206Y-51464784D01*
X95328520Y-51464786D01*
X95323146Y-51512411D01*
X95321350Y-51533097D01*
X95318858Y-51568336D01*
X95315878Y-51614556D01*
X95312619Y-51668191D01*
X95309288Y-51725671D01*
X95306094Y-51783427D01*
X95303244Y-51837891D01*
X95300947Y-51885493D01*
X95299740Y-51913822D01*
X95296465Y-51909675D01*
X95287824Y-51891611D01*
X95275154Y-51862575D01*
X95260655Y-51827643D01*
X95217423Y-51728944D01*
X95174193Y-51646899D01*
X95129523Y-51580076D01*
X95081969Y-51527045D01*
X95030090Y-51486373D01*
X94972442Y-51456629D01*
X94907583Y-51436383D01*
X94856909Y-51427064D01*
X94804923Y-51421601D01*
X94758811Y-51421855D01*
X94758811Y-51421855D01*
G37*
X94758811Y-51421855D02*
X94707765Y-51427796D01*
X94675986Y-51432259D01*
X94651218Y-51436170D01*
X94632594Y-51441643D01*
X94619248Y-51450795D01*
X94610313Y-51465742D01*
X94604924Y-51488600D01*
X94602213Y-51521485D01*
X94601315Y-51566513D01*
X94601362Y-51625801D01*
X94601500Y-51687355D01*
X94601742Y-51763424D01*
X94602511Y-51822688D01*
X94603865Y-51866481D01*
X94605868Y-51896135D01*
X94608579Y-51912983D01*
X94612060Y-51918357D01*
X94612092Y-51918357D01*
X94624846Y-51917123D01*
X94651550Y-51913770D01*
X94688206Y-51908821D01*
X94727752Y-51903239D01*
X94779829Y-51896440D01*
X94820225Y-51893179D01*
X94855020Y-51893286D01*
X94890293Y-51896591D01*
X94902946Y-51898336D01*
X94985730Y-51918342D01*
X95057971Y-51952857D01*
X95119997Y-52002152D01*
X95172135Y-52066501D01*
X95214712Y-52146177D01*
X95222605Y-52165226D01*
X95232541Y-52190338D01*
X95241163Y-52212950D01*
X95248575Y-52234503D01*
X95254882Y-52256435D01*
X95260186Y-52280185D01*
X95264592Y-52307193D01*
X95268202Y-52338898D01*
X95271121Y-52376740D01*
X95273453Y-52422157D01*
X95275301Y-52476588D01*
X95276768Y-52541474D01*
X95277959Y-52618252D01*
X95278977Y-52708363D01*
X95279925Y-52813245D01*
X95280908Y-52934338D01*
X95281270Y-52979714D01*
X95286393Y-53619250D01*
X95565574Y-53621649D01*
X95647723Y-53622201D01*
X95713318Y-53622257D01*
X95763940Y-53621769D01*
X95801172Y-53620684D01*
X95826596Y-53618952D01*
X95841795Y-53616524D01*
X95848352Y-53613347D01*
X95848779Y-53612578D01*
X95849319Y-53602193D01*
X95849881Y-53574800D01*
X95850457Y-53531535D01*
X95851040Y-53473533D01*
X95851623Y-53401930D01*
X95852200Y-53317860D01*
X95852764Y-53222459D01*
X95853307Y-53116862D01*
X95853824Y-53002205D01*
X95854306Y-52879622D01*
X95854747Y-52750250D01*
X95855141Y-52615223D01*
X95855348Y-52532945D01*
X95857893Y-51464782D01*
X95593206Y-51464784D01*
X95328520Y-51464786D01*
X95323146Y-51512411D01*
X95321350Y-51533097D01*
X95318858Y-51568336D01*
X95315878Y-51614556D01*
X95312619Y-51668191D01*
X95309288Y-51725671D01*
X95306094Y-51783427D01*
X95303244Y-51837891D01*
X95300947Y-51885493D01*
X95299740Y-51913822D01*
X95296465Y-51909675D01*
X95287824Y-51891611D01*
X95275154Y-51862575D01*
X95260655Y-51827643D01*
X95217423Y-51728944D01*
X95174193Y-51646899D01*
X95129523Y-51580076D01*
X95081969Y-51527045D01*
X95030090Y-51486373D01*
X94972442Y-51456629D01*
X94907583Y-51436383D01*
X94856909Y-51427064D01*
X94804923Y-51421601D01*
X94758811Y-51421855D01*
G36*
X107537357Y-51074714D02*
X108108857Y-51074714D01*
X108108857Y-50666500D01*
X107537357Y-50666500D01*
X107537357Y-51074714D01*
X107537357Y-51074714D01*
G37*
X107537357Y-51074714D02*
X108108857Y-51074714D01*
X108108857Y-50666500D01*
X107537357Y-50666500D01*
X107537357Y-51074714D01*
D13*
X170800000Y-76275000D02*
X170300000Y-76275000D01*
X170300000Y-75325000D02*
X170800000Y-75325000D01*
X126800000Y-76275000D02*
X126300000Y-76275000D01*
X126300000Y-75325000D02*
X126800000Y-75325000D01*
X148800000Y-75975000D02*
X148300000Y-75975000D01*
X148300000Y-75025000D02*
X148800000Y-75025000D01*
X104800000Y-76175000D02*
X104300000Y-76175000D01*
X104300000Y-75225000D02*
X104800000Y-75225000D01*
X108075000Y-95900000D02*
X108075000Y-96400000D01*
X107125000Y-96400000D02*
X107125000Y-95900000D01*
X130075000Y-96100000D02*
X130075000Y-96600000D01*
X129125000Y-96600000D02*
X129125000Y-96100000D01*
X152075000Y-95800000D02*
X152075000Y-96300000D01*
X151125000Y-96300000D02*
X151125000Y-95800000D01*
X173875000Y-95800000D02*
X173875000Y-96300000D01*
X172925000Y-96300000D02*
X172925000Y-95800000D01*
X107200000Y-91800000D02*
X106500000Y-91800000D01*
X106500000Y-93000000D02*
X107200000Y-93000000D01*
X129200000Y-91800000D02*
X128500000Y-91800000D01*
X128500000Y-93000000D02*
X129200000Y-93000000D01*
X151200000Y-91800000D02*
X150500000Y-91800000D01*
X150500000Y-93000000D02*
X151200000Y-93000000D01*
X173000000Y-91800000D02*
X172300000Y-91800000D01*
X172300000Y-93000000D02*
X173000000Y-93000000D01*
X106500000Y-94600000D02*
X107200000Y-94600000D01*
X107200000Y-93400000D02*
X106500000Y-93400000D01*
X128500000Y-94600000D02*
X129200000Y-94600000D01*
X129200000Y-93400000D02*
X128500000Y-93400000D01*
X150500000Y-94600000D02*
X151200000Y-94600000D01*
X151200000Y-93400000D02*
X150500000Y-93400000D01*
X172300000Y-94600000D02*
X173000000Y-94600000D01*
X173000000Y-93400000D02*
X172300000Y-93400000D01*
X106000000Y-87000000D02*
X106700000Y-87000000D01*
X106700000Y-85800000D02*
X106000000Y-85800000D01*
X128000000Y-87000000D02*
X128700000Y-87000000D01*
X128700000Y-85800000D02*
X128000000Y-85800000D01*
X150000000Y-87000000D02*
X150700000Y-87000000D01*
X150700000Y-85800000D02*
X150000000Y-85800000D01*
X172000000Y-87000000D02*
X172700000Y-87000000D01*
X172700000Y-85800000D02*
X172000000Y-85800000D01*
X173416666Y-76107143D02*
X173464285Y-76154762D01*
X173607142Y-76202381D01*
X173702380Y-76202381D01*
X173845238Y-76154762D01*
X173940476Y-76059524D01*
X173988095Y-75964286D01*
X174035714Y-75773810D01*
X174035714Y-75630952D01*
X173988095Y-75440476D01*
X173940476Y-75345238D01*
X173845238Y-75250000D01*
X173702380Y-75202381D01*
X173607142Y-75202381D01*
X173464285Y-75250000D01*
X173416666Y-75297619D01*
X172464285Y-76202381D02*
X173035714Y-76202381D01*
X172750000Y-76202381D02*
X172750000Y-75202381D01*
X172845238Y-75345238D01*
X172940476Y-75440476D01*
X173035714Y-75488095D01*
X129416666Y-76107143D02*
X129464285Y-76154762D01*
X129607142Y-76202381D01*
X129702380Y-76202381D01*
X129845238Y-76154762D01*
X129940476Y-76059524D01*
X129988095Y-75964286D01*
X130035714Y-75773810D01*
X130035714Y-75630952D01*
X129988095Y-75440476D01*
X129940476Y-75345238D01*
X129845238Y-75250000D01*
X129702380Y-75202381D01*
X129607142Y-75202381D01*
X129464285Y-75250000D01*
X129416666Y-75297619D01*
X129035714Y-75297619D02*
X128988095Y-75250000D01*
X128892857Y-75202381D01*
X128654761Y-75202381D01*
X128559523Y-75250000D01*
X128511904Y-75297619D01*
X128464285Y-75392857D01*
X128464285Y-75488095D01*
X128511904Y-75630952D01*
X129083333Y-76202381D01*
X128464285Y-76202381D01*
X151166666Y-75857143D02*
X151214285Y-75904762D01*
X151357142Y-75952381D01*
X151452380Y-75952381D01*
X151595238Y-75904762D01*
X151690476Y-75809524D01*
X151738095Y-75714286D01*
X151785714Y-75523810D01*
X151785714Y-75380952D01*
X151738095Y-75190476D01*
X151690476Y-75095238D01*
X151595238Y-75000000D01*
X151452380Y-74952381D01*
X151357142Y-74952381D01*
X151214285Y-75000000D01*
X151166666Y-75047619D01*
X150833333Y-74952381D02*
X150214285Y-74952381D01*
X150547619Y-75333333D01*
X150404761Y-75333333D01*
X150309523Y-75380952D01*
X150261904Y-75428571D01*
X150214285Y-75523810D01*
X150214285Y-75761905D01*
X150261904Y-75857143D01*
X150309523Y-75904762D01*
X150404761Y-75952381D01*
X150690476Y-75952381D01*
X150785714Y-75904762D01*
X150833333Y-75857143D01*
X107666666Y-76107143D02*
X107714285Y-76154762D01*
X107857142Y-76202381D01*
X107952380Y-76202381D01*
X108095238Y-76154762D01*
X108190476Y-76059524D01*
X108238095Y-75964286D01*
X108285714Y-75773810D01*
X108285714Y-75630952D01*
X108238095Y-75440476D01*
X108190476Y-75345238D01*
X108095238Y-75250000D01*
X107952380Y-75202381D01*
X107857142Y-75202381D01*
X107714285Y-75250000D01*
X107666666Y-75297619D01*
X106809523Y-75535714D02*
X106809523Y-76202381D01*
X107047619Y-75154762D02*
X107285714Y-75869048D01*
X106666666Y-75869048D01*
X108107143Y-98833334D02*
X108154762Y-98785715D01*
X108202381Y-98642858D01*
X108202381Y-98547620D01*
X108154762Y-98404762D01*
X108059524Y-98309524D01*
X107964286Y-98261905D01*
X107773810Y-98214286D01*
X107630952Y-98214286D01*
X107440476Y-98261905D01*
X107345238Y-98309524D01*
X107250000Y-98404762D01*
X107202381Y-98547620D01*
X107202381Y-98642858D01*
X107250000Y-98785715D01*
X107297619Y-98833334D01*
X107202381Y-99738096D02*
X107202381Y-99261905D01*
X107678571Y-99214286D01*
X107630952Y-99261905D01*
X107583333Y-99357143D01*
X107583333Y-99595239D01*
X107630952Y-99690477D01*
X107678571Y-99738096D01*
X107773810Y-99785715D01*
X108011905Y-99785715D01*
X108107143Y-99738096D01*
X108154762Y-99690477D01*
X108202381Y-99595239D01*
X108202381Y-99357143D01*
X108154762Y-99261905D01*
X108107143Y-99214286D01*
X129857143Y-99083334D02*
X129904762Y-99035715D01*
X129952381Y-98892858D01*
X129952381Y-98797620D01*
X129904762Y-98654762D01*
X129809524Y-98559524D01*
X129714286Y-98511905D01*
X129523810Y-98464286D01*
X129380952Y-98464286D01*
X129190476Y-98511905D01*
X129095238Y-98559524D01*
X129000000Y-98654762D01*
X128952381Y-98797620D01*
X128952381Y-98892858D01*
X129000000Y-99035715D01*
X129047619Y-99083334D01*
X128952381Y-99940477D02*
X128952381Y-99750000D01*
X129000000Y-99654762D01*
X129047619Y-99607143D01*
X129190476Y-99511905D01*
X129380952Y-99464286D01*
X129761905Y-99464286D01*
X129857143Y-99511905D01*
X129904762Y-99559524D01*
X129952381Y-99654762D01*
X129952381Y-99845239D01*
X129904762Y-99940477D01*
X129857143Y-99988096D01*
X129761905Y-100035715D01*
X129523810Y-100035715D01*
X129428571Y-99988096D01*
X129380952Y-99940477D01*
X129333333Y-99845239D01*
X129333333Y-99654762D01*
X129380952Y-99559524D01*
X129428571Y-99511905D01*
X129523810Y-99464286D01*
X152107143Y-98833334D02*
X152154762Y-98785715D01*
X152202381Y-98642858D01*
X152202381Y-98547620D01*
X152154762Y-98404762D01*
X152059524Y-98309524D01*
X151964286Y-98261905D01*
X151773810Y-98214286D01*
X151630952Y-98214286D01*
X151440476Y-98261905D01*
X151345238Y-98309524D01*
X151250000Y-98404762D01*
X151202381Y-98547620D01*
X151202381Y-98642858D01*
X151250000Y-98785715D01*
X151297619Y-98833334D01*
X151202381Y-99166667D02*
X151202381Y-99833334D01*
X152202381Y-99404762D01*
X173857143Y-98333334D02*
X173904762Y-98285715D01*
X173952381Y-98142858D01*
X173952381Y-98047620D01*
X173904762Y-97904762D01*
X173809524Y-97809524D01*
X173714286Y-97761905D01*
X173523810Y-97714286D01*
X173380952Y-97714286D01*
X173190476Y-97761905D01*
X173095238Y-97809524D01*
X173000000Y-97904762D01*
X172952381Y-98047620D01*
X172952381Y-98142858D01*
X173000000Y-98285715D01*
X173047619Y-98333334D01*
X173380952Y-98904762D02*
X173333333Y-98809524D01*
X173285714Y-98761905D01*
X173190476Y-98714286D01*
X173142857Y-98714286D01*
X173047619Y-98761905D01*
X173000000Y-98809524D01*
X172952381Y-98904762D01*
X172952381Y-99095239D01*
X173000000Y-99190477D01*
X173047619Y-99238096D01*
X173142857Y-99285715D01*
X173190476Y-99285715D01*
X173285714Y-99238096D01*
X173333333Y-99190477D01*
X173380952Y-99095239D01*
X173380952Y-98904762D01*
X173428571Y-98809524D01*
X173476190Y-98761905D01*
X173571429Y-98714286D01*
X173761905Y-98714286D01*
X173857143Y-98761905D01*
X173904762Y-98809524D01*
X173952381Y-98904762D01*
X173952381Y-99095239D01*
X173904762Y-99190477D01*
X173857143Y-99238096D01*
X173761905Y-99285715D01*
X173571429Y-99285715D01*
X173476190Y-99238096D01*
X173428571Y-99190477D01*
X173380952Y-99095239D01*
X103916666Y-92702381D02*
X104250000Y-92226190D01*
X104488095Y-92702381D02*
X104488095Y-91702381D01*
X104107142Y-91702381D01*
X104011904Y-91750000D01*
X103964285Y-91797619D01*
X103916666Y-91892857D01*
X103916666Y-92035714D01*
X103964285Y-92130952D01*
X104011904Y-92178571D01*
X104107142Y-92226190D01*
X104488095Y-92226190D01*
X102964285Y-92702381D02*
X103535714Y-92702381D01*
X103250000Y-92702381D02*
X103250000Y-91702381D01*
X103345238Y-91845238D01*
X103440476Y-91940476D01*
X103535714Y-91988095D01*
X125666666Y-92952381D02*
X126000000Y-92476190D01*
X126238095Y-92952381D02*
X126238095Y-91952381D01*
X125857142Y-91952381D01*
X125761904Y-92000000D01*
X125714285Y-92047619D01*
X125666666Y-92142857D01*
X125666666Y-92285714D01*
X125714285Y-92380952D01*
X125761904Y-92428571D01*
X125857142Y-92476190D01*
X126238095Y-92476190D01*
X125285714Y-92047619D02*
X125238095Y-92000000D01*
X125142857Y-91952381D01*
X124904761Y-91952381D01*
X124809523Y-92000000D01*
X124761904Y-92047619D01*
X124714285Y-92142857D01*
X124714285Y-92238095D01*
X124761904Y-92380952D01*
X125333333Y-92952381D01*
X124714285Y-92952381D01*
X148166666Y-92702381D02*
X148500000Y-92226190D01*
X148738095Y-92702381D02*
X148738095Y-91702381D01*
X148357142Y-91702381D01*
X148261904Y-91750000D01*
X148214285Y-91797619D01*
X148166666Y-91892857D01*
X148166666Y-92035714D01*
X148214285Y-92130952D01*
X148261904Y-92178571D01*
X148357142Y-92226190D01*
X148738095Y-92226190D01*
X147833333Y-91702381D02*
X147214285Y-91702381D01*
X147547619Y-92083333D01*
X147404761Y-92083333D01*
X147309523Y-92130952D01*
X147261904Y-92178571D01*
X147214285Y-92273810D01*
X147214285Y-92511905D01*
X147261904Y-92607143D01*
X147309523Y-92654762D01*
X147404761Y-92702381D01*
X147690476Y-92702381D01*
X147785714Y-92654762D01*
X147833333Y-92607143D01*
X169666666Y-92702381D02*
X170000000Y-92226190D01*
X170238095Y-92702381D02*
X170238095Y-91702381D01*
X169857142Y-91702381D01*
X169761904Y-91750000D01*
X169714285Y-91797619D01*
X169666666Y-91892857D01*
X169666666Y-92035714D01*
X169714285Y-92130952D01*
X169761904Y-92178571D01*
X169857142Y-92226190D01*
X170238095Y-92226190D01*
X168809523Y-92035714D02*
X168809523Y-92702381D01*
X169047619Y-91654762D02*
X169285714Y-92369048D01*
X168666666Y-92369048D01*
X103916666Y-94452381D02*
X104250000Y-93976190D01*
X104488095Y-94452381D02*
X104488095Y-93452381D01*
X104107142Y-93452381D01*
X104011904Y-93500000D01*
X103964285Y-93547619D01*
X103916666Y-93642857D01*
X103916666Y-93785714D01*
X103964285Y-93880952D01*
X104011904Y-93928571D01*
X104107142Y-93976190D01*
X104488095Y-93976190D01*
X103011904Y-93452381D02*
X103488095Y-93452381D01*
X103535714Y-93928571D01*
X103488095Y-93880952D01*
X103392857Y-93833333D01*
X103154761Y-93833333D01*
X103059523Y-93880952D01*
X103011904Y-93928571D01*
X102964285Y-94023810D01*
X102964285Y-94261905D01*
X103011904Y-94357143D01*
X103059523Y-94404762D01*
X103154761Y-94452381D01*
X103392857Y-94452381D01*
X103488095Y-94404762D01*
X103535714Y-94357143D01*
X125666666Y-94702381D02*
X126000000Y-94226190D01*
X126238095Y-94702381D02*
X126238095Y-93702381D01*
X125857142Y-93702381D01*
X125761904Y-93750000D01*
X125714285Y-93797619D01*
X125666666Y-93892857D01*
X125666666Y-94035714D01*
X125714285Y-94130952D01*
X125761904Y-94178571D01*
X125857142Y-94226190D01*
X126238095Y-94226190D01*
X124809523Y-93702381D02*
X125000000Y-93702381D01*
X125095238Y-93750000D01*
X125142857Y-93797619D01*
X125238095Y-93940476D01*
X125285714Y-94130952D01*
X125285714Y-94511905D01*
X125238095Y-94607143D01*
X125190476Y-94654762D01*
X125095238Y-94702381D01*
X124904761Y-94702381D01*
X124809523Y-94654762D01*
X124761904Y-94607143D01*
X124714285Y-94511905D01*
X124714285Y-94273810D01*
X124761904Y-94178571D01*
X124809523Y-94130952D01*
X124904761Y-94083333D01*
X125095238Y-94083333D01*
X125190476Y-94130952D01*
X125238095Y-94178571D01*
X125285714Y-94273810D01*
X148166666Y-94452381D02*
X148500000Y-93976190D01*
X148738095Y-94452381D02*
X148738095Y-93452381D01*
X148357142Y-93452381D01*
X148261904Y-93500000D01*
X148214285Y-93547619D01*
X148166666Y-93642857D01*
X148166666Y-93785714D01*
X148214285Y-93880952D01*
X148261904Y-93928571D01*
X148357142Y-93976190D01*
X148738095Y-93976190D01*
X147833333Y-93452381D02*
X147166666Y-93452381D01*
X147595238Y-94452381D01*
X169916666Y-94452381D02*
X170250000Y-93976190D01*
X170488095Y-94452381D02*
X170488095Y-93452381D01*
X170107142Y-93452381D01*
X170011904Y-93500000D01*
X169964285Y-93547619D01*
X169916666Y-93642857D01*
X169916666Y-93785714D01*
X169964285Y-93880952D01*
X170011904Y-93928571D01*
X170107142Y-93976190D01*
X170488095Y-93976190D01*
X169345238Y-93880952D02*
X169440476Y-93833333D01*
X169488095Y-93785714D01*
X169535714Y-93690476D01*
X169535714Y-93642857D01*
X169488095Y-93547619D01*
X169440476Y-93500000D01*
X169345238Y-93452381D01*
X169154761Y-93452381D01*
X169059523Y-93500000D01*
X169011904Y-93547619D01*
X168964285Y-93642857D01*
X168964285Y-93690476D01*
X169011904Y-93785714D01*
X169059523Y-93833333D01*
X169154761Y-93880952D01*
X169345238Y-93880952D01*
X169440476Y-93928571D01*
X169488095Y-93976190D01*
X169535714Y-94071429D01*
X169535714Y-94261905D01*
X169488095Y-94357143D01*
X169440476Y-94404762D01*
X169345238Y-94452381D01*
X169154761Y-94452381D01*
X169059523Y-94404762D01*
X169011904Y-94357143D01*
X168964285Y-94261905D01*
X168964285Y-94071429D01*
X169011904Y-93976190D01*
X169059523Y-93928571D01*
X169154761Y-93880952D01*
X106516666Y-88752381D02*
X106850000Y-88276190D01*
X107088095Y-88752381D02*
X107088095Y-87752381D01*
X106707142Y-87752381D01*
X106611904Y-87800000D01*
X106564285Y-87847619D01*
X106516666Y-87942857D01*
X106516666Y-88085714D01*
X106564285Y-88180952D01*
X106611904Y-88228571D01*
X106707142Y-88276190D01*
X107088095Y-88276190D01*
X106040476Y-88752381D02*
X105850000Y-88752381D01*
X105754761Y-88704762D01*
X105707142Y-88657143D01*
X105611904Y-88514286D01*
X105564285Y-88323810D01*
X105564285Y-87942857D01*
X105611904Y-87847619D01*
X105659523Y-87800000D01*
X105754761Y-87752381D01*
X105945238Y-87752381D01*
X106040476Y-87800000D01*
X106088095Y-87847619D01*
X106135714Y-87942857D01*
X106135714Y-88180952D01*
X106088095Y-88276190D01*
X106040476Y-88323810D01*
X105945238Y-88371429D01*
X105754761Y-88371429D01*
X105659523Y-88323810D01*
X105611904Y-88276190D01*
X105564285Y-88180952D01*
X128992857Y-88752381D02*
X129326191Y-88276190D01*
X129564286Y-88752381D02*
X129564286Y-87752381D01*
X129183333Y-87752381D01*
X129088095Y-87800000D01*
X129040476Y-87847619D01*
X128992857Y-87942857D01*
X128992857Y-88085714D01*
X129040476Y-88180952D01*
X129088095Y-88228571D01*
X129183333Y-88276190D01*
X129564286Y-88276190D01*
X128040476Y-88752381D02*
X128611905Y-88752381D01*
X128326191Y-88752381D02*
X128326191Y-87752381D01*
X128421429Y-87895238D01*
X128516667Y-87990476D01*
X128611905Y-88038095D01*
X127421429Y-87752381D02*
X127326190Y-87752381D01*
X127230952Y-87800000D01*
X127183333Y-87847619D01*
X127135714Y-87942857D01*
X127088095Y-88133333D01*
X127088095Y-88371429D01*
X127135714Y-88561905D01*
X127183333Y-88657143D01*
X127230952Y-88704762D01*
X127326190Y-88752381D01*
X127421429Y-88752381D01*
X127516667Y-88704762D01*
X127564286Y-88657143D01*
X127611905Y-88561905D01*
X127659524Y-88371429D01*
X127659524Y-88133333D01*
X127611905Y-87942857D01*
X127564286Y-87847619D01*
X127516667Y-87800000D01*
X127421429Y-87752381D01*
X150992857Y-88752381D02*
X151326191Y-88276190D01*
X151564286Y-88752381D02*
X151564286Y-87752381D01*
X151183333Y-87752381D01*
X151088095Y-87800000D01*
X151040476Y-87847619D01*
X150992857Y-87942857D01*
X150992857Y-88085714D01*
X151040476Y-88180952D01*
X151088095Y-88228571D01*
X151183333Y-88276190D01*
X151564286Y-88276190D01*
X150040476Y-88752381D02*
X150611905Y-88752381D01*
X150326191Y-88752381D02*
X150326191Y-87752381D01*
X150421429Y-87895238D01*
X150516667Y-87990476D01*
X150611905Y-88038095D01*
X149088095Y-88752381D02*
X149659524Y-88752381D01*
X149373810Y-88752381D02*
X149373810Y-87752381D01*
X149469048Y-87895238D01*
X149564286Y-87990476D01*
X149659524Y-88038095D01*
X172992857Y-88752381D02*
X173326191Y-88276190D01*
X173564286Y-88752381D02*
X173564286Y-87752381D01*
X173183333Y-87752381D01*
X173088095Y-87800000D01*
X173040476Y-87847619D01*
X172992857Y-87942857D01*
X172992857Y-88085714D01*
X173040476Y-88180952D01*
X173088095Y-88228571D01*
X173183333Y-88276190D01*
X173564286Y-88276190D01*
X172040476Y-88752381D02*
X172611905Y-88752381D01*
X172326191Y-88752381D02*
X172326191Y-87752381D01*
X172421429Y-87895238D01*
X172516667Y-87990476D01*
X172611905Y-88038095D01*
X171659524Y-87847619D02*
X171611905Y-87800000D01*
X171516667Y-87752381D01*
X171278571Y-87752381D01*
X171183333Y-87800000D01*
X171135714Y-87847619D01*
X171088095Y-87942857D01*
X171088095Y-88038095D01*
X171135714Y-88180952D01*
X171707143Y-88752381D01*
X171088095Y-88752381D01*
%LPC*%
D14*
X170000000Y-75800000D03*
X171100000Y-75800000D03*
X126000000Y-75800000D03*
X127100000Y-75800000D03*
X148000000Y-75500000D03*
X149100000Y-75500000D03*
X104000000Y-75700000D03*
X105100000Y-75700000D03*
D15*
X107600000Y-96700000D03*
X107600000Y-95600000D03*
X129600000Y-96900000D03*
X129600000Y-95800000D03*
X151600000Y-96600000D03*
X151600000Y-95500000D03*
X173400000Y-96600000D03*
X173400000Y-95500000D03*
D16*
X103000000Y-84000000D03*
D17*
X105540000Y-84000000D03*
D16*
X125000000Y-84000000D03*
D17*
X127540000Y-84000000D03*
D16*
X147000000Y-84000000D03*
D17*
X149540000Y-84000000D03*
D16*
X169000000Y-84000000D03*
D17*
X171540000Y-84000000D03*
D18*
X183000000Y-53000000D03*
X183000000Y-100000000D03*
D19*
X169220000Y-50270000D03*
D20*
X171760000Y-50270000D03*
X174300000Y-50270000D03*
D18*
X91000000Y-53000000D03*
X91000000Y-100000000D03*
D21*
X107600000Y-92400000D03*
X106100000Y-92400000D03*
X129600000Y-92400000D03*
X128100000Y-92400000D03*
X151600000Y-92400000D03*
X150100000Y-92400000D03*
X173400000Y-92400000D03*
X171900000Y-92400000D03*
X106100000Y-94000000D03*
X107600000Y-94000000D03*
X128100000Y-94000000D03*
X129600000Y-94000000D03*
X150100000Y-94000000D03*
X151600000Y-94000000D03*
X171900000Y-94000000D03*
X173400000Y-94000000D03*
X105600000Y-86400000D03*
X107100000Y-86400000D03*
X127600000Y-86400000D03*
X129100000Y-86400000D03*
X149600000Y-86400000D03*
X151100000Y-86400000D03*
X171600000Y-86400000D03*
X173100000Y-86400000D03*
D22*
X176350000Y-92460000D03*
X176350000Y-97540000D03*
X163650000Y-92460000D03*
X163650000Y-97540000D03*
X154350000Y-92460000D03*
X154350000Y-97540000D03*
X141650000Y-92460000D03*
X141650000Y-97540000D03*
X132350000Y-92460000D03*
X132350000Y-97540000D03*
X119650000Y-92460000D03*
X119650000Y-97540000D03*
X110350000Y-92460000D03*
X110350000Y-97540000D03*
X97650000Y-92460000D03*
X97650000Y-97540000D03*
D23*
X165000000Y-77500000D03*
X170000000Y-77500000D03*
X175000000Y-77500000D03*
X143000000Y-77500000D03*
X148000000Y-77500000D03*
X153000000Y-77500000D03*
X121000000Y-77500000D03*
X126000000Y-77500000D03*
X131000000Y-77500000D03*
X99000000Y-77500000D03*
X104000000Y-77500000D03*
X109000000Y-77500000D03*
D19*
X181920000Y-62970000D03*
D20*
X184460000Y-62970000D03*
X181920000Y-65510000D03*
X184460000Y-65510000D03*
X181920000Y-68050000D03*
X184460000Y-68050000D03*
X181920000Y-70590000D03*
X184460000Y-70590000D03*
X181920000Y-73130000D03*
X184460000Y-73130000D03*
X181920000Y-75670000D03*
X184460000Y-75670000D03*
X181920000Y-78210000D03*
X184460000Y-78210000D03*
X181920000Y-80750000D03*
X184460000Y-80750000D03*
X181920000Y-83290000D03*
X184460000Y-83290000D03*
X181920000Y-85830000D03*
X184460000Y-85830000D03*
X181920000Y-88370000D03*
X184460000Y-88370000D03*
X181920000Y-90910000D03*
X184460000Y-90910000D03*
X181920000Y-93450000D03*
X184460000Y-93450000D03*
X181920000Y-95990000D03*
X184460000Y-95990000D03*
D19*
X89540000Y-62970000D03*
D20*
X92080000Y-62970000D03*
X89540000Y-65510000D03*
X92080000Y-65510000D03*
X89540000Y-68050000D03*
X92080000Y-68050000D03*
X89540000Y-70590000D03*
X92080000Y-70590000D03*
X89540000Y-73130000D03*
X92080000Y-73130000D03*
X89540000Y-75670000D03*
X92080000Y-75670000D03*
X89540000Y-78210000D03*
X92080000Y-78210000D03*
X89540000Y-80750000D03*
X92080000Y-80750000D03*
X89540000Y-83290000D03*
X92080000Y-83290000D03*
X89540000Y-85830000D03*
X92080000Y-85830000D03*
X89540000Y-88370000D03*
X92080000Y-88370000D03*
X89540000Y-90910000D03*
X92080000Y-90910000D03*
X89540000Y-93450000D03*
X92080000Y-93450000D03*
X89540000Y-95990000D03*
X92080000Y-95990000D03*
M02*
