%FSLAX45Y45*%
G04 Gerber Fmt 4.5, Leading zero omitted, Abs format (unit mm)*
G04 Created by KiCad (PCBNEW 4.0.2-stable) date 2017/01/23 23:07:54*
%MOMM*%
G01*
G04 APERTURE LIST*
%ADD10C,0.127000*%
%ADD11C,0.100000*%
%ADD12C,0.200000*%
%ADD13C,0.300000*%
G04 APERTURE END LIST*
D10*
D11*
X17850000Y-6400000D02*
G75*
G03X17850000Y-6400000I-850000J0D01*
G01*
X15650000Y-6400000D02*
G75*
G03X15650000Y-6400000I-850000J0D01*
G01*
X13450000Y-6400000D02*
G75*
G03X13450000Y-6400000I-850000J0D01*
G01*
X11250000Y-6400000D02*
G75*
G03X11250000Y-6400000I-850000J0D01*
G01*
X8700000Y-10200000D02*
G75*
G03X8900000Y-10400000I200000J0D01*
G01*
X18500000Y-10400000D02*
X8900000Y-10400000D01*
X18500000Y-10400000D02*
G75*
G03X18700000Y-10200000I0J200000D01*
G01*
X18700000Y-5100000D02*
G75*
G03X18500000Y-4900000I-200000J0D01*
G01*
X8900000Y-4900000D02*
G75*
G03X8700000Y-5100000I0J-200000D01*
G01*
X18700000Y-5100000D02*
X18700000Y-10200000D01*
X8700000Y-5100000D02*
X8700000Y-10200000D01*
X8900000Y-4900000D02*
X18500000Y-4900000D01*
D12*
X8780000Y-5680000D02*
X8820000Y-5720000D01*
X8820000Y-5680000D02*
X8780000Y-5720000D01*
X8780000Y-6180000D02*
X8820000Y-6220000D01*
X8820000Y-6180000D02*
X8780000Y-6220000D01*
X8780000Y-6680000D02*
X8820000Y-6720000D01*
X8820000Y-6680000D02*
X8780000Y-6720000D01*
X8780000Y-7180000D02*
X8820000Y-7220000D01*
X8820000Y-7180000D02*
X8780000Y-7220000D01*
X8780000Y-7680000D02*
X8820000Y-7720000D01*
X8820000Y-7680000D02*
X8780000Y-7720000D01*
X8780000Y-8180000D02*
X8820000Y-8220000D01*
X8820000Y-8180000D02*
X8780000Y-8220000D01*
X8780000Y-8680000D02*
X8820000Y-8720000D01*
X8820000Y-8680000D02*
X8780000Y-8720000D01*
X8780000Y-9180000D02*
X8820000Y-9220000D01*
X8820000Y-9180000D02*
X8780000Y-9220000D01*
X8780000Y-9680000D02*
X8820000Y-9720000D01*
X8820000Y-9680000D02*
X8780000Y-9720000D01*
X9060000Y-5790000D02*
X9100000Y-5830000D01*
X9100000Y-5790000D02*
X9060000Y-5830000D01*
X9370000Y-5660000D02*
X9410000Y-5700000D01*
X9410000Y-5660000D02*
X9370000Y-5700000D01*
X9380000Y-4980000D02*
X9420000Y-5020000D01*
X9420000Y-4980000D02*
X9380000Y-5020000D01*
X9480000Y-10280000D02*
X9520000Y-10320000D01*
X9520000Y-10280000D02*
X9480000Y-10320000D01*
X9880000Y-4980000D02*
X9920000Y-5020000D01*
X9920000Y-4980000D02*
X9880000Y-5020000D01*
X9980000Y-10280000D02*
X10020000Y-10320000D01*
X10020000Y-10280000D02*
X9980000Y-10320000D01*
X10380000Y-4980000D02*
X10420000Y-5020000D01*
X10420000Y-4980000D02*
X10380000Y-5020000D01*
X10480000Y-10280000D02*
X10520000Y-10320000D01*
X10520000Y-10280000D02*
X10480000Y-10320000D01*
X10590000Y-9090000D02*
X10630000Y-9130000D01*
X10630000Y-9090000D02*
X10590000Y-9130000D01*
X10880000Y-4980000D02*
X10920000Y-5020000D01*
X10920000Y-4980000D02*
X10880000Y-5020000D01*
X10980000Y-10280000D02*
X11020000Y-10320000D01*
X11020000Y-10280000D02*
X10980000Y-10320000D01*
X11380000Y-4980000D02*
X11420000Y-5020000D01*
X11420000Y-4980000D02*
X11380000Y-5020000D01*
X11480000Y-10280000D02*
X11520000Y-10320000D01*
X11520000Y-10280000D02*
X11480000Y-10320000D01*
X11980000Y-4980000D02*
X12020000Y-5020000D01*
X12020000Y-4980000D02*
X11980000Y-5020000D01*
X11980000Y-10280000D02*
X12020000Y-10320000D01*
X12020000Y-10280000D02*
X11980000Y-10320000D01*
X12480000Y-4980000D02*
X12520000Y-5020000D01*
X12520000Y-4980000D02*
X12480000Y-5020000D01*
X12480000Y-10280000D02*
X12520000Y-10320000D01*
X12520000Y-10280000D02*
X12480000Y-10320000D01*
X12790000Y-9050000D02*
X12830000Y-9090000D01*
X12830000Y-9050000D02*
X12790000Y-9090000D01*
X12980000Y-4980000D02*
X13020000Y-5020000D01*
X13020000Y-4980000D02*
X12980000Y-5020000D01*
X12980000Y-10280000D02*
X13020000Y-10320000D01*
X13020000Y-10280000D02*
X12980000Y-10320000D01*
X13480000Y-4980000D02*
X13520000Y-5020000D01*
X13520000Y-4980000D02*
X13480000Y-5020000D01*
X13480000Y-10280000D02*
X13520000Y-10320000D01*
X13520000Y-10280000D02*
X13480000Y-10320000D01*
X13660000Y-5670000D02*
X13700000Y-5710000D01*
X13700000Y-5670000D02*
X13660000Y-5710000D01*
X13670000Y-7220000D02*
X13710000Y-7260000D01*
X13710000Y-7220000D02*
X13670000Y-7260000D01*
X13980000Y-4980000D02*
X14020000Y-5020000D01*
X14020000Y-4980000D02*
X13980000Y-5020000D01*
X13980000Y-10280000D02*
X14020000Y-10320000D01*
X14020000Y-10280000D02*
X13980000Y-10320000D01*
X14480000Y-4980000D02*
X14520000Y-5020000D01*
X14520000Y-4980000D02*
X14480000Y-5020000D01*
X14480000Y-10280000D02*
X14520000Y-10320000D01*
X14520000Y-10280000D02*
X14480000Y-10320000D01*
X14980000Y-4980000D02*
X15020000Y-5020000D01*
X15020000Y-4980000D02*
X14980000Y-5020000D01*
X14980000Y-10280000D02*
X15020000Y-10320000D01*
X15020000Y-10280000D02*
X14980000Y-10320000D01*
X14990000Y-9080000D02*
X15030000Y-9120000D01*
X15030000Y-9080000D02*
X14990000Y-9120000D01*
X15480000Y-4980000D02*
X15520000Y-5020000D01*
X15520000Y-4980000D02*
X15480000Y-5020000D01*
X15480000Y-10280000D02*
X15520000Y-10320000D01*
X15520000Y-10280000D02*
X15480000Y-10320000D01*
X15810000Y-5700000D02*
X15850000Y-5740000D01*
X15850000Y-5700000D02*
X15810000Y-5740000D01*
X15810000Y-7220000D02*
X15850000Y-7260000D01*
X15850000Y-7220000D02*
X15810000Y-7260000D01*
X15980000Y-4980000D02*
X16020000Y-5020000D01*
X16020000Y-4980000D02*
X15980000Y-5020000D01*
X15980000Y-10280000D02*
X16020000Y-10320000D01*
X16020000Y-10280000D02*
X15980000Y-10320000D01*
X16280000Y-5080000D02*
X16320000Y-5120000D01*
X16320000Y-5080000D02*
X16280000Y-5120000D01*
X16480000Y-4980000D02*
X16520000Y-5020000D01*
X16520000Y-4980000D02*
X16480000Y-5020000D01*
X16480000Y-10280000D02*
X16520000Y-10320000D01*
X16520000Y-10280000D02*
X16480000Y-10320000D01*
X16980000Y-10280000D02*
X17020000Y-10320000D01*
X17020000Y-10280000D02*
X16980000Y-10320000D01*
X17170000Y-9060000D02*
X17210000Y-9100000D01*
X17210000Y-9060000D02*
X17170000Y-9100000D01*
X17480000Y-10280000D02*
X17520000Y-10320000D01*
X17520000Y-10280000D02*
X17480000Y-10320000D01*
X17980000Y-4980000D02*
X18020000Y-5020000D01*
X18020000Y-4980000D02*
X17980000Y-5020000D01*
X17980000Y-10280000D02*
X18020000Y-10320000D01*
X18020000Y-10280000D02*
X17980000Y-10320000D01*
X18580000Y-5580000D02*
X18620000Y-5620000D01*
X18620000Y-5580000D02*
X18580000Y-5620000D01*
X18580000Y-6080000D02*
X18620000Y-6120000D01*
X18620000Y-6080000D02*
X18580000Y-6120000D01*
X18580000Y-6580000D02*
X18620000Y-6620000D01*
X18620000Y-6580000D02*
X18580000Y-6620000D01*
X18580000Y-7080000D02*
X18620000Y-7120000D01*
X18620000Y-7080000D02*
X18580000Y-7120000D01*
X18580000Y-7580000D02*
X18620000Y-7620000D01*
X18620000Y-7580000D02*
X18580000Y-7620000D01*
X18580000Y-8080000D02*
X18620000Y-8120000D01*
X18620000Y-8080000D02*
X18580000Y-8120000D01*
X18580000Y-8580000D02*
X18620000Y-8620000D01*
X18620000Y-8580000D02*
X18580000Y-8620000D01*
X18580000Y-9080000D02*
X18620000Y-9120000D01*
X18620000Y-9080000D02*
X18580000Y-9120000D01*
X18580000Y-9580000D02*
X18620000Y-9620000D01*
X18620000Y-9580000D02*
X18580000Y-9620000D01*
X9805640Y-9246000D02*
G75*
G03X9805640Y-9246000I-40640J0D01*
G01*
X9805640Y-9754000D02*
G75*
G03X9805640Y-9754000I-40640J0D01*
G01*
X11075640Y-9246000D02*
G75*
G03X11075640Y-9246000I-40640J0D01*
G01*
X11075640Y-9754000D02*
G75*
G03X11075640Y-9754000I-40640J0D01*
G01*
X12005640Y-9246000D02*
G75*
G03X12005640Y-9246000I-40640J0D01*
G01*
X12005640Y-9754000D02*
G75*
G03X12005640Y-9754000I-40640J0D01*
G01*
X13275640Y-9246000D02*
G75*
G03X13275640Y-9246000I-40640J0D01*
G01*
X13275640Y-9754000D02*
G75*
G03X13275640Y-9754000I-40640J0D01*
G01*
X14205640Y-9246000D02*
G75*
G03X14205640Y-9246000I-40640J0D01*
G01*
X14205640Y-9754000D02*
G75*
G03X14205640Y-9754000I-40640J0D01*
G01*
X15475640Y-9246000D02*
G75*
G03X15475640Y-9246000I-40640J0D01*
G01*
X15475640Y-9754000D02*
G75*
G03X15475640Y-9754000I-40640J0D01*
G01*
X16405640Y-9246000D02*
G75*
G03X16405640Y-9246000I-40640J0D01*
G01*
X16405640Y-9754000D02*
G75*
G03X16405640Y-9754000I-40640J0D01*
G01*
X17675640Y-9246000D02*
G75*
G03X17675640Y-9246000I-40640J0D01*
G01*
X17675640Y-9754000D02*
G75*
G03X17675640Y-9754000I-40640J0D01*
G01*
X10300000Y-8355000D02*
X10300000Y-8445000D01*
X10255000Y-8400000D02*
X10345000Y-8400000D01*
X10554000Y-8355000D02*
X10554000Y-8445000D01*
X10509000Y-8400000D02*
X10599000Y-8400000D01*
X12500000Y-8355000D02*
X12500000Y-8445000D01*
X12455000Y-8400000D02*
X12545000Y-8400000D01*
X12754000Y-8355000D02*
X12754000Y-8445000D01*
X12709000Y-8400000D02*
X12799000Y-8400000D01*
X14700000Y-8355000D02*
X14700000Y-8445000D01*
X14655000Y-8400000D02*
X14745000Y-8400000D01*
X14954000Y-8355000D02*
X14954000Y-8445000D01*
X14909000Y-8400000D02*
X14999000Y-8400000D01*
X16900000Y-8355000D02*
X16900000Y-8445000D01*
X16855000Y-8400000D02*
X16945000Y-8400000D01*
X17154000Y-8355000D02*
X17154000Y-8445000D01*
X17109000Y-8400000D02*
X17199000Y-8400000D01*
X8989356Y-6332356D02*
X8989356Y-6261644D01*
X8918644Y-6261644D01*
X8918644Y-6332356D01*
X8989356Y-6332356D01*
X8989356Y-6586356D02*
X8989356Y-6515644D01*
X8918644Y-6515644D01*
X8918644Y-6586356D01*
X8989356Y-6586356D01*
X8989356Y-6840356D02*
X8989356Y-6769644D01*
X8918644Y-6769644D01*
X8918644Y-6840356D01*
X8989356Y-6840356D01*
X8989356Y-7094356D02*
X8989356Y-7023644D01*
X8918644Y-7023644D01*
X8918644Y-7094356D01*
X8989356Y-7094356D01*
X8989356Y-7348356D02*
X8989356Y-7277644D01*
X8918644Y-7277644D01*
X8918644Y-7348356D01*
X8989356Y-7348356D01*
X8989356Y-7602356D02*
X8989356Y-7531644D01*
X8918644Y-7531644D01*
X8918644Y-7602356D01*
X8989356Y-7602356D01*
X8989356Y-7856356D02*
X8989356Y-7785644D01*
X8918644Y-7785644D01*
X8918644Y-7856356D01*
X8989356Y-7856356D01*
X8989356Y-8110356D02*
X8989356Y-8039644D01*
X8918644Y-8039644D01*
X8918644Y-8110356D01*
X8989356Y-8110356D01*
X8989356Y-8364356D02*
X8989356Y-8293644D01*
X8918644Y-8293644D01*
X8918644Y-8364356D01*
X8989356Y-8364356D01*
X8989356Y-8618356D02*
X8989356Y-8547644D01*
X8918644Y-8547644D01*
X8918644Y-8618356D01*
X8989356Y-8618356D01*
X8989356Y-8872356D02*
X8989356Y-8801644D01*
X8918644Y-8801644D01*
X8918644Y-8872356D01*
X8989356Y-8872356D01*
X8989356Y-9126356D02*
X8989356Y-9055644D01*
X8918644Y-9055644D01*
X8918644Y-9126356D01*
X8989356Y-9126356D01*
X8989356Y-9380356D02*
X8989356Y-9309644D01*
X8918644Y-9309644D01*
X8918644Y-9380356D01*
X8989356Y-9380356D01*
X8989356Y-9634356D02*
X8989356Y-9563644D01*
X8918644Y-9563644D01*
X8918644Y-9634356D01*
X8989356Y-9634356D01*
X9243356Y-6332356D02*
X9243356Y-6261644D01*
X9172644Y-6261644D01*
X9172644Y-6332356D01*
X9243356Y-6332356D01*
X9243356Y-6586356D02*
X9243356Y-6515644D01*
X9172644Y-6515644D01*
X9172644Y-6586356D01*
X9243356Y-6586356D01*
X9243356Y-6840356D02*
X9243356Y-6769644D01*
X9172644Y-6769644D01*
X9172644Y-6840356D01*
X9243356Y-6840356D01*
X9243356Y-7094356D02*
X9243356Y-7023644D01*
X9172644Y-7023644D01*
X9172644Y-7094356D01*
X9243356Y-7094356D01*
X9243356Y-7348356D02*
X9243356Y-7277644D01*
X9172644Y-7277644D01*
X9172644Y-7348356D01*
X9243356Y-7348356D01*
X9243356Y-7602356D02*
X9243356Y-7531644D01*
X9172644Y-7531644D01*
X9172644Y-7602356D01*
X9243356Y-7602356D01*
X9243356Y-7856356D02*
X9243356Y-7785644D01*
X9172644Y-7785644D01*
X9172644Y-7856356D01*
X9243356Y-7856356D01*
X9243356Y-8110356D02*
X9243356Y-8039644D01*
X9172644Y-8039644D01*
X9172644Y-8110356D01*
X9243356Y-8110356D01*
X9243356Y-8364356D02*
X9243356Y-8293644D01*
X9172644Y-8293644D01*
X9172644Y-8364356D01*
X9243356Y-8364356D01*
X9243356Y-8618356D02*
X9243356Y-8547644D01*
X9172644Y-8547644D01*
X9172644Y-8618356D01*
X9243356Y-8618356D01*
X9243356Y-8872356D02*
X9243356Y-8801644D01*
X9172644Y-8801644D01*
X9172644Y-8872356D01*
X9243356Y-8872356D01*
X9243356Y-9126356D02*
X9243356Y-9055644D01*
X9172644Y-9055644D01*
X9172644Y-9126356D01*
X9243356Y-9126356D01*
X9243356Y-9380356D02*
X9243356Y-9309644D01*
X9172644Y-9309644D01*
X9172644Y-9380356D01*
X9243356Y-9380356D01*
X9243356Y-9634356D02*
X9243356Y-9563644D01*
X9172644Y-9563644D01*
X9172644Y-9634356D01*
X9243356Y-9634356D01*
X9935356Y-7785356D02*
X9935356Y-7714644D01*
X9864644Y-7714644D01*
X9864644Y-7785356D01*
X9935356Y-7785356D01*
X9790000Y-7790000D02*
X10010000Y-7790000D01*
X9790000Y-7710000D02*
X10010000Y-7710000D01*
X10010000Y-7790000D02*
G75*
G03X10010000Y-7710000I0J40000D01*
G01*
X9790000Y-7710000D02*
G75*
G03X9790000Y-7790000I0J-40000D01*
G01*
X10435356Y-7785356D02*
X10435356Y-7714644D01*
X10364644Y-7714644D01*
X10364644Y-7785356D01*
X10435356Y-7785356D01*
X10290000Y-7790000D02*
X10510000Y-7790000D01*
X10290000Y-7710000D02*
X10510000Y-7710000D01*
X10510000Y-7790000D02*
G75*
G03X10510000Y-7710000I0J40000D01*
G01*
X10290000Y-7710000D02*
G75*
G03X10290000Y-7790000I0J-40000D01*
G01*
X10935356Y-7785356D02*
X10935356Y-7714644D01*
X10864644Y-7714644D01*
X10864644Y-7785356D01*
X10935356Y-7785356D01*
X10790000Y-7790000D02*
X11010000Y-7790000D01*
X10790000Y-7710000D02*
X11010000Y-7710000D01*
X11010000Y-7790000D02*
G75*
G03X11010000Y-7710000I0J40000D01*
G01*
X10790000Y-7710000D02*
G75*
G03X10790000Y-7790000I0J-40000D01*
G01*
X12135356Y-7785356D02*
X12135356Y-7714644D01*
X12064644Y-7714644D01*
X12064644Y-7785356D01*
X12135356Y-7785356D01*
X11990000Y-7790000D02*
X12210000Y-7790000D01*
X11990000Y-7710000D02*
X12210000Y-7710000D01*
X12210000Y-7790000D02*
G75*
G03X12210000Y-7710000I0J40000D01*
G01*
X11990000Y-7710000D02*
G75*
G03X11990000Y-7790000I0J-40000D01*
G01*
X12635356Y-7785356D02*
X12635356Y-7714644D01*
X12564644Y-7714644D01*
X12564644Y-7785356D01*
X12635356Y-7785356D01*
X12490000Y-7790000D02*
X12710000Y-7790000D01*
X12490000Y-7710000D02*
X12710000Y-7710000D01*
X12710000Y-7790000D02*
G75*
G03X12710000Y-7710000I0J40000D01*
G01*
X12490000Y-7710000D02*
G75*
G03X12490000Y-7790000I0J-40000D01*
G01*
X13135356Y-7785356D02*
X13135356Y-7714644D01*
X13064644Y-7714644D01*
X13064644Y-7785356D01*
X13135356Y-7785356D01*
X12990000Y-7790000D02*
X13210000Y-7790000D01*
X12990000Y-7710000D02*
X13210000Y-7710000D01*
X13210000Y-7790000D02*
G75*
G03X13210000Y-7710000I0J40000D01*
G01*
X12990000Y-7710000D02*
G75*
G03X12990000Y-7790000I0J-40000D01*
G01*
X14335356Y-7785356D02*
X14335356Y-7714644D01*
X14264644Y-7714644D01*
X14264644Y-7785356D01*
X14335356Y-7785356D01*
X14190000Y-7790000D02*
X14410000Y-7790000D01*
X14190000Y-7710000D02*
X14410000Y-7710000D01*
X14410000Y-7790000D02*
G75*
G03X14410000Y-7710000I0J40000D01*
G01*
X14190000Y-7710000D02*
G75*
G03X14190000Y-7790000I0J-40000D01*
G01*
X14835356Y-7785356D02*
X14835356Y-7714644D01*
X14764644Y-7714644D01*
X14764644Y-7785356D01*
X14835356Y-7785356D01*
X14690000Y-7790000D02*
X14910000Y-7790000D01*
X14690000Y-7710000D02*
X14910000Y-7710000D01*
X14910000Y-7790000D02*
G75*
G03X14910000Y-7710000I0J40000D01*
G01*
X14690000Y-7710000D02*
G75*
G03X14690000Y-7790000I0J-40000D01*
G01*
X15335356Y-7785356D02*
X15335356Y-7714644D01*
X15264644Y-7714644D01*
X15264644Y-7785356D01*
X15335356Y-7785356D01*
X15190000Y-7790000D02*
X15410000Y-7790000D01*
X15190000Y-7710000D02*
X15410000Y-7710000D01*
X15410000Y-7790000D02*
G75*
G03X15410000Y-7710000I0J40000D01*
G01*
X15190000Y-7710000D02*
G75*
G03X15190000Y-7790000I0J-40000D01*
G01*
X16535356Y-7785356D02*
X16535356Y-7714644D01*
X16464644Y-7714644D01*
X16464644Y-7785356D01*
X16535356Y-7785356D01*
X16390000Y-7790000D02*
X16610000Y-7790000D01*
X16390000Y-7710000D02*
X16610000Y-7710000D01*
X16610000Y-7790000D02*
G75*
G03X16610000Y-7710000I0J40000D01*
G01*
X16390000Y-7710000D02*
G75*
G03X16390000Y-7790000I0J-40000D01*
G01*
X16957356Y-5062356D02*
X16957356Y-4991644D01*
X16886644Y-4991644D01*
X16886644Y-5062356D01*
X16957356Y-5062356D01*
X17035356Y-7785356D02*
X17035356Y-7714644D01*
X16964644Y-7714644D01*
X16964644Y-7785356D01*
X17035356Y-7785356D01*
X16890000Y-7790000D02*
X17110000Y-7790000D01*
X16890000Y-7710000D02*
X17110000Y-7710000D01*
X17110000Y-7790000D02*
G75*
G03X17110000Y-7710000I0J40000D01*
G01*
X16890000Y-7710000D02*
G75*
G03X16890000Y-7790000I0J-40000D01*
G01*
X17211356Y-5062356D02*
X17211356Y-4991644D01*
X17140644Y-4991644D01*
X17140644Y-5062356D01*
X17211356Y-5062356D01*
X17465356Y-5062356D02*
X17465356Y-4991644D01*
X17394644Y-4991644D01*
X17394644Y-5062356D01*
X17465356Y-5062356D01*
X17535356Y-7785356D02*
X17535356Y-7714644D01*
X17464644Y-7714644D01*
X17464644Y-7785356D01*
X17535356Y-7785356D01*
X17390000Y-7790000D02*
X17610000Y-7790000D01*
X17390000Y-7710000D02*
X17610000Y-7710000D01*
X17610000Y-7790000D02*
G75*
G03X17610000Y-7710000I0J40000D01*
G01*
X17390000Y-7710000D02*
G75*
G03X17390000Y-7790000I0J-40000D01*
G01*
X18227356Y-6332356D02*
X18227356Y-6261644D01*
X18156644Y-6261644D01*
X18156644Y-6332356D01*
X18227356Y-6332356D01*
X18227356Y-6586356D02*
X18227356Y-6515644D01*
X18156644Y-6515644D01*
X18156644Y-6586356D01*
X18227356Y-6586356D01*
X18227356Y-6840356D02*
X18227356Y-6769644D01*
X18156644Y-6769644D01*
X18156644Y-6840356D01*
X18227356Y-6840356D01*
X18227356Y-7094356D02*
X18227356Y-7023644D01*
X18156644Y-7023644D01*
X18156644Y-7094356D01*
X18227356Y-7094356D01*
X18227356Y-7348356D02*
X18227356Y-7277644D01*
X18156644Y-7277644D01*
X18156644Y-7348356D01*
X18227356Y-7348356D01*
X18227356Y-7602356D02*
X18227356Y-7531644D01*
X18156644Y-7531644D01*
X18156644Y-7602356D01*
X18227356Y-7602356D01*
X18227356Y-7856356D02*
X18227356Y-7785644D01*
X18156644Y-7785644D01*
X18156644Y-7856356D01*
X18227356Y-7856356D01*
X18227356Y-8110356D02*
X18227356Y-8039644D01*
X18156644Y-8039644D01*
X18156644Y-8110356D01*
X18227356Y-8110356D01*
X18227356Y-8364356D02*
X18227356Y-8293644D01*
X18156644Y-8293644D01*
X18156644Y-8364356D01*
X18227356Y-8364356D01*
X18227356Y-8618356D02*
X18227356Y-8547644D01*
X18156644Y-8547644D01*
X18156644Y-8618356D01*
X18227356Y-8618356D01*
X18227356Y-8872356D02*
X18227356Y-8801644D01*
X18156644Y-8801644D01*
X18156644Y-8872356D01*
X18227356Y-8872356D01*
X18227356Y-9126356D02*
X18227356Y-9055644D01*
X18156644Y-9055644D01*
X18156644Y-9126356D01*
X18227356Y-9126356D01*
X18227356Y-9380356D02*
X18227356Y-9309644D01*
X18156644Y-9309644D01*
X18156644Y-9380356D01*
X18227356Y-9380356D01*
X18227356Y-9634356D02*
X18227356Y-9563644D01*
X18156644Y-9563644D01*
X18156644Y-9634356D01*
X18227356Y-9634356D01*
X18481356Y-6332356D02*
X18481356Y-6261644D01*
X18410644Y-6261644D01*
X18410644Y-6332356D01*
X18481356Y-6332356D01*
X18481356Y-6586356D02*
X18481356Y-6515644D01*
X18410644Y-6515644D01*
X18410644Y-6586356D01*
X18481356Y-6586356D01*
X18481356Y-6840356D02*
X18481356Y-6769644D01*
X18410644Y-6769644D01*
X18410644Y-6840356D01*
X18481356Y-6840356D01*
X18481356Y-7094356D02*
X18481356Y-7023644D01*
X18410644Y-7023644D01*
X18410644Y-7094356D01*
X18481356Y-7094356D01*
X18481356Y-7348356D02*
X18481356Y-7277644D01*
X18410644Y-7277644D01*
X18410644Y-7348356D01*
X18481356Y-7348356D01*
X18481356Y-7602356D02*
X18481356Y-7531644D01*
X18410644Y-7531644D01*
X18410644Y-7602356D01*
X18481356Y-7602356D01*
X18481356Y-7856356D02*
X18481356Y-7785644D01*
X18410644Y-7785644D01*
X18410644Y-7856356D01*
X18481356Y-7856356D01*
X18481356Y-8110356D02*
X18481356Y-8039644D01*
X18410644Y-8039644D01*
X18410644Y-8110356D01*
X18481356Y-8110356D01*
X18481356Y-8364356D02*
X18481356Y-8293644D01*
X18410644Y-8293644D01*
X18410644Y-8364356D01*
X18481356Y-8364356D01*
X18481356Y-8618356D02*
X18481356Y-8547644D01*
X18410644Y-8547644D01*
X18410644Y-8618356D01*
X18481356Y-8618356D01*
X18481356Y-8872356D02*
X18481356Y-8801644D01*
X18410644Y-8801644D01*
X18410644Y-8872356D01*
X18481356Y-8872356D01*
X18481356Y-9126356D02*
X18481356Y-9055644D01*
X18410644Y-9055644D01*
X18410644Y-9126356D01*
X18481356Y-9126356D01*
X18481356Y-9380356D02*
X18481356Y-9309644D01*
X18410644Y-9309644D01*
X18410644Y-9380356D01*
X18481356Y-9380356D01*
X18481356Y-9634356D02*
X18481356Y-9563644D01*
X18410644Y-9563644D01*
X18410644Y-9634356D01*
X18481356Y-9634356D01*
X9100000Y-5460000D02*
X9260000Y-5300000D01*
X9100000Y-5140000D01*
X8940000Y-5300000D01*
X9100000Y-5460000D01*
X9100000Y-10160000D02*
X9260000Y-10000000D01*
X9100000Y-9840000D01*
X8940000Y-10000000D01*
X9100000Y-10160000D01*
X18300000Y-5460000D02*
X18460000Y-5300000D01*
X18300000Y-5140000D01*
X18140000Y-5300000D01*
X18300000Y-5460000D01*
X18300000Y-10160000D02*
X18460000Y-10000000D01*
X18300000Y-9840000D01*
X18140000Y-10000000D01*
X18300000Y-10160000D01*
D13*
X8966429Y-10870714D02*
X8966429Y-10570714D01*
X9037857Y-10570714D01*
X9080714Y-10585000D01*
X9109286Y-10613572D01*
X9123571Y-10642143D01*
X9137857Y-10699286D01*
X9137857Y-10742143D01*
X9123571Y-10799286D01*
X9109286Y-10827857D01*
X9080714Y-10856429D01*
X9037857Y-10870714D01*
X8966429Y-10870714D01*
X9266429Y-10870714D02*
X9266429Y-10670714D01*
X9266429Y-10727857D02*
X9280714Y-10699286D01*
X9295000Y-10685000D01*
X9323571Y-10670714D01*
X9352143Y-10670714D01*
X9452143Y-10870714D02*
X9452143Y-10670714D01*
X9452143Y-10570714D02*
X9437857Y-10585000D01*
X9452143Y-10599286D01*
X9466429Y-10585000D01*
X9452143Y-10570714D01*
X9452143Y-10599286D01*
X9637857Y-10870714D02*
X9609286Y-10856429D01*
X9595000Y-10827857D01*
X9595000Y-10570714D01*
X9795000Y-10870714D02*
X9766429Y-10856429D01*
X9752143Y-10827857D01*
X9752143Y-10570714D01*
X10137857Y-10870714D02*
X10137857Y-10570714D01*
X10237857Y-10785000D01*
X10337857Y-10570714D01*
X10337857Y-10870714D01*
X10609286Y-10870714D02*
X10609286Y-10713572D01*
X10595000Y-10685000D01*
X10566429Y-10670714D01*
X10509286Y-10670714D01*
X10480714Y-10685000D01*
X10609286Y-10856429D02*
X10580714Y-10870714D01*
X10509286Y-10870714D01*
X10480714Y-10856429D01*
X10466429Y-10827857D01*
X10466429Y-10799286D01*
X10480714Y-10770714D01*
X10509286Y-10756429D01*
X10580714Y-10756429D01*
X10609286Y-10742143D01*
X10752143Y-10670714D02*
X10752143Y-10970714D01*
X10752143Y-10685000D02*
X10780714Y-10670714D01*
X10837857Y-10670714D01*
X10866429Y-10685000D01*
X10880714Y-10699286D01*
X10895000Y-10727857D01*
X10895000Y-10813572D01*
X10880714Y-10842143D01*
X10866429Y-10856429D01*
X10837857Y-10870714D01*
X10780714Y-10870714D01*
X10752143Y-10856429D01*
X11023571Y-10842143D02*
X11037857Y-10856429D01*
X11023571Y-10870714D01*
X11009286Y-10856429D01*
X11023571Y-10842143D01*
X11023571Y-10870714D01*
X11023571Y-10685000D02*
X11037857Y-10699286D01*
X11023571Y-10713572D01*
X11009286Y-10699286D01*
X11023571Y-10685000D01*
X11023571Y-10713572D01*
X8655000Y-11345000D02*
X8695000Y-11385000D01*
X8695000Y-11345000D02*
X8655000Y-11385000D01*
X9023571Y-11200714D02*
X9052143Y-11200714D01*
X9080714Y-11215000D01*
X9095000Y-11229286D01*
X9109286Y-11257857D01*
X9123571Y-11315000D01*
X9123571Y-11386429D01*
X9109286Y-11443571D01*
X9095000Y-11472143D01*
X9080714Y-11486429D01*
X9052143Y-11500714D01*
X9023571Y-11500714D01*
X8995000Y-11486429D01*
X8980714Y-11472143D01*
X8966429Y-11443571D01*
X8952143Y-11386429D01*
X8952143Y-11315000D01*
X8966429Y-11257857D01*
X8980714Y-11229286D01*
X8995000Y-11215000D01*
X9023571Y-11200714D01*
X9252143Y-11472143D02*
X9266429Y-11486429D01*
X9252143Y-11500714D01*
X9237857Y-11486429D01*
X9252143Y-11472143D01*
X9252143Y-11500714D01*
X9523571Y-11300714D02*
X9523571Y-11500714D01*
X9452143Y-11186429D02*
X9380714Y-11400714D01*
X9566428Y-11400714D01*
X9737857Y-11200714D02*
X9766429Y-11200714D01*
X9795000Y-11215000D01*
X9809286Y-11229286D01*
X9823571Y-11257857D01*
X9837857Y-11315000D01*
X9837857Y-11386429D01*
X9823571Y-11443571D01*
X9809286Y-11472143D01*
X9795000Y-11486429D01*
X9766429Y-11500714D01*
X9737857Y-11500714D01*
X9709286Y-11486429D01*
X9695000Y-11472143D01*
X9680714Y-11443571D01*
X9666429Y-11386429D01*
X9666429Y-11315000D01*
X9680714Y-11257857D01*
X9695000Y-11229286D01*
X9709286Y-11215000D01*
X9737857Y-11200714D01*
X9966429Y-11500714D02*
X9966429Y-11300714D01*
X9966429Y-11329286D02*
X9980714Y-11315000D01*
X10009286Y-11300714D01*
X10052143Y-11300714D01*
X10080714Y-11315000D01*
X10095000Y-11343571D01*
X10095000Y-11500714D01*
X10095000Y-11343571D02*
X10109286Y-11315000D01*
X10137857Y-11300714D01*
X10180714Y-11300714D01*
X10209286Y-11315000D01*
X10223571Y-11343571D01*
X10223571Y-11500714D01*
X10366429Y-11500714D02*
X10366429Y-11300714D01*
X10366429Y-11329286D02*
X10380714Y-11315000D01*
X10409286Y-11300714D01*
X10452143Y-11300714D01*
X10480714Y-11315000D01*
X10495000Y-11343571D01*
X10495000Y-11500714D01*
X10495000Y-11343571D02*
X10509286Y-11315000D01*
X10537857Y-11300714D01*
X10580714Y-11300714D01*
X10609286Y-11315000D01*
X10623571Y-11343571D01*
X10623571Y-11500714D01*
X11209286Y-11186429D02*
X10952143Y-11572143D01*
X11595000Y-11200714D02*
X11623571Y-11200714D01*
X11652143Y-11215000D01*
X11666428Y-11229286D01*
X11680714Y-11257857D01*
X11695000Y-11315000D01*
X11695000Y-11386429D01*
X11680714Y-11443571D01*
X11666428Y-11472143D01*
X11652143Y-11486429D01*
X11623571Y-11500714D01*
X11595000Y-11500714D01*
X11566428Y-11486429D01*
X11552143Y-11472143D01*
X11537857Y-11443571D01*
X11523571Y-11386429D01*
X11523571Y-11315000D01*
X11537857Y-11257857D01*
X11552143Y-11229286D01*
X11566428Y-11215000D01*
X11595000Y-11200714D01*
X11823571Y-11472143D02*
X11837857Y-11486429D01*
X11823571Y-11500714D01*
X11809286Y-11486429D01*
X11823571Y-11472143D01*
X11823571Y-11500714D01*
X12023571Y-11200714D02*
X12052143Y-11200714D01*
X12080714Y-11215000D01*
X12095000Y-11229286D01*
X12109285Y-11257857D01*
X12123571Y-11315000D01*
X12123571Y-11386429D01*
X12109285Y-11443571D01*
X12095000Y-11472143D01*
X12080714Y-11486429D01*
X12052143Y-11500714D01*
X12023571Y-11500714D01*
X11995000Y-11486429D01*
X11980714Y-11472143D01*
X11966428Y-11443571D01*
X11952143Y-11386429D01*
X11952143Y-11315000D01*
X11966428Y-11257857D01*
X11980714Y-11229286D01*
X11995000Y-11215000D01*
X12023571Y-11200714D01*
X12409285Y-11500714D02*
X12237857Y-11500714D01*
X12323571Y-11500714D02*
X12323571Y-11200714D01*
X12295000Y-11243571D01*
X12266428Y-11272143D01*
X12237857Y-11286429D01*
X12666428Y-11200714D02*
X12609285Y-11200714D01*
X12580714Y-11215000D01*
X12566428Y-11229286D01*
X12537857Y-11272143D01*
X12523571Y-11329286D01*
X12523571Y-11443571D01*
X12537857Y-11472143D01*
X12552143Y-11486429D01*
X12580714Y-11500714D01*
X12637857Y-11500714D01*
X12666428Y-11486429D01*
X12680714Y-11472143D01*
X12695000Y-11443571D01*
X12695000Y-11372143D01*
X12680714Y-11343571D01*
X12666428Y-11329286D01*
X12637857Y-11315000D01*
X12580714Y-11315000D01*
X12552143Y-11329286D01*
X12537857Y-11343571D01*
X12523571Y-11372143D01*
X12809286Y-11200714D02*
X12809286Y-11257857D01*
X12923571Y-11200714D02*
X12923571Y-11257857D01*
X13366428Y-11615000D02*
X13352143Y-11600714D01*
X13323571Y-11557857D01*
X13309285Y-11529286D01*
X13295000Y-11486429D01*
X13280714Y-11415000D01*
X13280714Y-11357857D01*
X13295000Y-11286429D01*
X13309285Y-11243571D01*
X13323571Y-11215000D01*
X13352143Y-11172143D01*
X13366428Y-11157857D01*
X13609285Y-11200714D02*
X13552143Y-11200714D01*
X13523571Y-11215000D01*
X13509285Y-11229286D01*
X13480714Y-11272143D01*
X13466428Y-11329286D01*
X13466428Y-11443571D01*
X13480714Y-11472143D01*
X13495000Y-11486429D01*
X13523571Y-11500714D01*
X13580714Y-11500714D01*
X13609285Y-11486429D01*
X13623571Y-11472143D01*
X13637857Y-11443571D01*
X13637857Y-11372143D01*
X13623571Y-11343571D01*
X13609285Y-11329286D01*
X13580714Y-11315000D01*
X13523571Y-11315000D01*
X13495000Y-11329286D01*
X13480714Y-11343571D01*
X13466428Y-11372143D01*
X13737857Y-11200714D02*
X13923571Y-11200714D01*
X13823571Y-11315000D01*
X13866428Y-11315000D01*
X13895000Y-11329286D01*
X13909285Y-11343571D01*
X13923571Y-11372143D01*
X13923571Y-11443571D01*
X13909285Y-11472143D01*
X13895000Y-11486429D01*
X13866428Y-11500714D01*
X13780714Y-11500714D01*
X13752143Y-11486429D01*
X13737857Y-11472143D01*
X14280714Y-11500714D02*
X14280714Y-11200714D01*
X14409285Y-11500714D02*
X14409285Y-11343571D01*
X14395000Y-11315000D01*
X14366428Y-11300714D01*
X14323571Y-11300714D01*
X14295000Y-11315000D01*
X14280714Y-11329286D01*
X14595000Y-11500714D02*
X14566428Y-11486429D01*
X14552143Y-11472143D01*
X14537857Y-11443571D01*
X14537857Y-11357857D01*
X14552143Y-11329286D01*
X14566428Y-11315000D01*
X14595000Y-11300714D01*
X14637857Y-11300714D01*
X14666428Y-11315000D01*
X14680714Y-11329286D01*
X14695000Y-11357857D01*
X14695000Y-11443571D01*
X14680714Y-11472143D01*
X14666428Y-11486429D01*
X14637857Y-11500714D01*
X14595000Y-11500714D01*
X14866428Y-11500714D02*
X14837857Y-11486429D01*
X14823571Y-11457857D01*
X14823571Y-11200714D01*
X15095000Y-11486429D02*
X15066428Y-11500714D01*
X15009286Y-11500714D01*
X14980714Y-11486429D01*
X14966428Y-11457857D01*
X14966428Y-11343571D01*
X14980714Y-11315000D01*
X15009286Y-11300714D01*
X15066428Y-11300714D01*
X15095000Y-11315000D01*
X15109286Y-11343571D01*
X15109286Y-11372143D01*
X14966428Y-11400714D01*
X15223571Y-11486429D02*
X15252143Y-11500714D01*
X15309286Y-11500714D01*
X15337857Y-11486429D01*
X15352143Y-11457857D01*
X15352143Y-11443571D01*
X15337857Y-11415000D01*
X15309286Y-11400714D01*
X15266428Y-11400714D01*
X15237857Y-11386429D01*
X15223571Y-11357857D01*
X15223571Y-11343571D01*
X15237857Y-11315000D01*
X15266428Y-11300714D01*
X15309286Y-11300714D01*
X15337857Y-11315000D01*
X15452143Y-11615000D02*
X15466428Y-11600714D01*
X15495000Y-11557857D01*
X15509286Y-11529286D01*
X15523571Y-11486429D01*
X15537857Y-11415000D01*
X15537857Y-11357857D01*
X15523571Y-11286429D01*
X15509286Y-11243571D01*
X15495000Y-11215000D01*
X15466428Y-11172143D01*
X15452143Y-11157857D01*
X8695000Y-11761000D02*
G75*
G03X8695000Y-11761000I-40640J0D01*
G01*
X9023571Y-11596714D02*
X9052143Y-11596714D01*
X9080714Y-11611000D01*
X9095000Y-11625286D01*
X9109286Y-11653857D01*
X9123571Y-11711000D01*
X9123571Y-11782429D01*
X9109286Y-11839571D01*
X9095000Y-11868143D01*
X9080714Y-11882429D01*
X9052143Y-11896714D01*
X9023571Y-11896714D01*
X8995000Y-11882429D01*
X8980714Y-11868143D01*
X8966429Y-11839571D01*
X8952143Y-11782429D01*
X8952143Y-11711000D01*
X8966429Y-11653857D01*
X8980714Y-11625286D01*
X8995000Y-11611000D01*
X9023571Y-11596714D01*
X9252143Y-11868143D02*
X9266429Y-11882429D01*
X9252143Y-11896714D01*
X9237857Y-11882429D01*
X9252143Y-11868143D01*
X9252143Y-11896714D01*
X9437857Y-11725286D02*
X9409286Y-11711000D01*
X9395000Y-11696714D01*
X9380714Y-11668143D01*
X9380714Y-11653857D01*
X9395000Y-11625286D01*
X9409286Y-11611000D01*
X9437857Y-11596714D01*
X9495000Y-11596714D01*
X9523571Y-11611000D01*
X9537857Y-11625286D01*
X9552143Y-11653857D01*
X9552143Y-11668143D01*
X9537857Y-11696714D01*
X9523571Y-11711000D01*
X9495000Y-11725286D01*
X9437857Y-11725286D01*
X9409286Y-11739571D01*
X9395000Y-11753857D01*
X9380714Y-11782429D01*
X9380714Y-11839571D01*
X9395000Y-11868143D01*
X9409286Y-11882429D01*
X9437857Y-11896714D01*
X9495000Y-11896714D01*
X9523571Y-11882429D01*
X9537857Y-11868143D01*
X9552143Y-11839571D01*
X9552143Y-11782429D01*
X9537857Y-11753857D01*
X9523571Y-11739571D01*
X9495000Y-11725286D01*
X9837857Y-11896714D02*
X9666429Y-11896714D01*
X9752143Y-11896714D02*
X9752143Y-11596714D01*
X9723571Y-11639571D01*
X9695000Y-11668143D01*
X9666429Y-11682429D01*
X9966429Y-11896714D02*
X9966429Y-11696714D01*
X9966429Y-11725286D02*
X9980714Y-11711000D01*
X10009286Y-11696714D01*
X10052143Y-11696714D01*
X10080714Y-11711000D01*
X10095000Y-11739571D01*
X10095000Y-11896714D01*
X10095000Y-11739571D02*
X10109286Y-11711000D01*
X10137857Y-11696714D01*
X10180714Y-11696714D01*
X10209286Y-11711000D01*
X10223571Y-11739571D01*
X10223571Y-11896714D01*
X10366429Y-11896714D02*
X10366429Y-11696714D01*
X10366429Y-11725286D02*
X10380714Y-11711000D01*
X10409286Y-11696714D01*
X10452143Y-11696714D01*
X10480714Y-11711000D01*
X10495000Y-11739571D01*
X10495000Y-11896714D01*
X10495000Y-11739571D02*
X10509286Y-11711000D01*
X10537857Y-11696714D01*
X10580714Y-11696714D01*
X10609286Y-11711000D01*
X10623571Y-11739571D01*
X10623571Y-11896714D01*
X11209286Y-11582429D02*
X10952143Y-11968143D01*
X11595000Y-11596714D02*
X11623571Y-11596714D01*
X11652143Y-11611000D01*
X11666428Y-11625286D01*
X11680714Y-11653857D01*
X11695000Y-11711000D01*
X11695000Y-11782429D01*
X11680714Y-11839571D01*
X11666428Y-11868143D01*
X11652143Y-11882429D01*
X11623571Y-11896714D01*
X11595000Y-11896714D01*
X11566428Y-11882429D01*
X11552143Y-11868143D01*
X11537857Y-11839571D01*
X11523571Y-11782429D01*
X11523571Y-11711000D01*
X11537857Y-11653857D01*
X11552143Y-11625286D01*
X11566428Y-11611000D01*
X11595000Y-11596714D01*
X11823571Y-11868143D02*
X11837857Y-11882429D01*
X11823571Y-11896714D01*
X11809286Y-11882429D01*
X11823571Y-11868143D01*
X11823571Y-11896714D01*
X12023571Y-11596714D02*
X12052143Y-11596714D01*
X12080714Y-11611000D01*
X12095000Y-11625286D01*
X12109285Y-11653857D01*
X12123571Y-11711000D01*
X12123571Y-11782429D01*
X12109285Y-11839571D01*
X12095000Y-11868143D01*
X12080714Y-11882429D01*
X12052143Y-11896714D01*
X12023571Y-11896714D01*
X11995000Y-11882429D01*
X11980714Y-11868143D01*
X11966428Y-11839571D01*
X11952143Y-11782429D01*
X11952143Y-11711000D01*
X11966428Y-11653857D01*
X11980714Y-11625286D01*
X11995000Y-11611000D01*
X12023571Y-11596714D01*
X12223571Y-11596714D02*
X12409285Y-11596714D01*
X12309285Y-11711000D01*
X12352143Y-11711000D01*
X12380714Y-11725286D01*
X12395000Y-11739571D01*
X12409285Y-11768143D01*
X12409285Y-11839571D01*
X12395000Y-11868143D01*
X12380714Y-11882429D01*
X12352143Y-11896714D01*
X12266428Y-11896714D01*
X12237857Y-11882429D01*
X12223571Y-11868143D01*
X12523571Y-11625286D02*
X12537857Y-11611000D01*
X12566428Y-11596714D01*
X12637857Y-11596714D01*
X12666428Y-11611000D01*
X12680714Y-11625286D01*
X12695000Y-11653857D01*
X12695000Y-11682429D01*
X12680714Y-11725286D01*
X12509285Y-11896714D01*
X12695000Y-11896714D01*
X12809286Y-11596714D02*
X12809286Y-11653857D01*
X12923571Y-11596714D02*
X12923571Y-11653857D01*
X13366428Y-12011000D02*
X13352143Y-11996714D01*
X13323571Y-11953857D01*
X13309285Y-11925286D01*
X13295000Y-11882429D01*
X13280714Y-11811000D01*
X13280714Y-11753857D01*
X13295000Y-11682429D01*
X13309285Y-11639571D01*
X13323571Y-11611000D01*
X13352143Y-11568143D01*
X13366428Y-11553857D01*
X13637857Y-11896714D02*
X13466428Y-11896714D01*
X13552143Y-11896714D02*
X13552143Y-11596714D01*
X13523571Y-11639571D01*
X13495000Y-11668143D01*
X13466428Y-11682429D01*
X13895000Y-11596714D02*
X13837857Y-11596714D01*
X13809285Y-11611000D01*
X13795000Y-11625286D01*
X13766428Y-11668143D01*
X13752143Y-11725286D01*
X13752143Y-11839571D01*
X13766428Y-11868143D01*
X13780714Y-11882429D01*
X13809285Y-11896714D01*
X13866428Y-11896714D01*
X13895000Y-11882429D01*
X13909285Y-11868143D01*
X13923571Y-11839571D01*
X13923571Y-11768143D01*
X13909285Y-11739571D01*
X13895000Y-11725286D01*
X13866428Y-11711000D01*
X13809285Y-11711000D01*
X13780714Y-11725286D01*
X13766428Y-11739571D01*
X13752143Y-11768143D01*
X14280714Y-11896714D02*
X14280714Y-11596714D01*
X14409285Y-11896714D02*
X14409285Y-11739571D01*
X14395000Y-11711000D01*
X14366428Y-11696714D01*
X14323571Y-11696714D01*
X14295000Y-11711000D01*
X14280714Y-11725286D01*
X14595000Y-11896714D02*
X14566428Y-11882429D01*
X14552143Y-11868143D01*
X14537857Y-11839571D01*
X14537857Y-11753857D01*
X14552143Y-11725286D01*
X14566428Y-11711000D01*
X14595000Y-11696714D01*
X14637857Y-11696714D01*
X14666428Y-11711000D01*
X14680714Y-11725286D01*
X14695000Y-11753857D01*
X14695000Y-11839571D01*
X14680714Y-11868143D01*
X14666428Y-11882429D01*
X14637857Y-11896714D01*
X14595000Y-11896714D01*
X14866428Y-11896714D02*
X14837857Y-11882429D01*
X14823571Y-11853857D01*
X14823571Y-11596714D01*
X15095000Y-11882429D02*
X15066428Y-11896714D01*
X15009286Y-11896714D01*
X14980714Y-11882429D01*
X14966428Y-11853857D01*
X14966428Y-11739571D01*
X14980714Y-11711000D01*
X15009286Y-11696714D01*
X15066428Y-11696714D01*
X15095000Y-11711000D01*
X15109286Y-11739571D01*
X15109286Y-11768143D01*
X14966428Y-11796714D01*
X15223571Y-11882429D02*
X15252143Y-11896714D01*
X15309286Y-11896714D01*
X15337857Y-11882429D01*
X15352143Y-11853857D01*
X15352143Y-11839571D01*
X15337857Y-11811000D01*
X15309286Y-11796714D01*
X15266428Y-11796714D01*
X15237857Y-11782429D01*
X15223571Y-11753857D01*
X15223571Y-11739571D01*
X15237857Y-11711000D01*
X15266428Y-11696714D01*
X15309286Y-11696714D01*
X15337857Y-11711000D01*
X15452143Y-12011000D02*
X15466428Y-11996714D01*
X15495000Y-11953857D01*
X15509286Y-11925286D01*
X15523571Y-11882429D01*
X15537857Y-11811000D01*
X15537857Y-11753857D01*
X15523571Y-11682429D01*
X15509286Y-11639571D01*
X15495000Y-11611000D01*
X15466428Y-11568143D01*
X15452143Y-11553857D01*
X8650000Y-12112000D02*
X8650000Y-12202000D01*
X8605000Y-12157000D02*
X8695000Y-12157000D01*
X9023571Y-11992714D02*
X9052143Y-11992714D01*
X9080714Y-12007000D01*
X9095000Y-12021286D01*
X9109286Y-12049857D01*
X9123571Y-12107000D01*
X9123571Y-12178429D01*
X9109286Y-12235571D01*
X9095000Y-12264143D01*
X9080714Y-12278429D01*
X9052143Y-12292714D01*
X9023571Y-12292714D01*
X8995000Y-12278429D01*
X8980714Y-12264143D01*
X8966429Y-12235571D01*
X8952143Y-12178429D01*
X8952143Y-12107000D01*
X8966429Y-12049857D01*
X8980714Y-12021286D01*
X8995000Y-12007000D01*
X9023571Y-11992714D01*
X9252143Y-12264143D02*
X9266429Y-12278429D01*
X9252143Y-12292714D01*
X9237857Y-12278429D01*
X9252143Y-12264143D01*
X9252143Y-12292714D01*
X9409286Y-12292714D02*
X9466428Y-12292714D01*
X9495000Y-12278429D01*
X9509286Y-12264143D01*
X9537857Y-12221286D01*
X9552143Y-12164143D01*
X9552143Y-12049857D01*
X9537857Y-12021286D01*
X9523571Y-12007000D01*
X9495000Y-11992714D01*
X9437857Y-11992714D01*
X9409286Y-12007000D01*
X9395000Y-12021286D01*
X9380714Y-12049857D01*
X9380714Y-12121286D01*
X9395000Y-12149857D01*
X9409286Y-12164143D01*
X9437857Y-12178429D01*
X9495000Y-12178429D01*
X9523571Y-12164143D01*
X9537857Y-12149857D01*
X9552143Y-12121286D01*
X9737857Y-11992714D02*
X9766429Y-11992714D01*
X9795000Y-12007000D01*
X9809286Y-12021286D01*
X9823571Y-12049857D01*
X9837857Y-12107000D01*
X9837857Y-12178429D01*
X9823571Y-12235571D01*
X9809286Y-12264143D01*
X9795000Y-12278429D01*
X9766429Y-12292714D01*
X9737857Y-12292714D01*
X9709286Y-12278429D01*
X9695000Y-12264143D01*
X9680714Y-12235571D01*
X9666429Y-12178429D01*
X9666429Y-12107000D01*
X9680714Y-12049857D01*
X9695000Y-12021286D01*
X9709286Y-12007000D01*
X9737857Y-11992714D01*
X9966429Y-12292714D02*
X9966429Y-12092714D01*
X9966429Y-12121286D02*
X9980714Y-12107000D01*
X10009286Y-12092714D01*
X10052143Y-12092714D01*
X10080714Y-12107000D01*
X10095000Y-12135571D01*
X10095000Y-12292714D01*
X10095000Y-12135571D02*
X10109286Y-12107000D01*
X10137857Y-12092714D01*
X10180714Y-12092714D01*
X10209286Y-12107000D01*
X10223571Y-12135571D01*
X10223571Y-12292714D01*
X10366429Y-12292714D02*
X10366429Y-12092714D01*
X10366429Y-12121286D02*
X10380714Y-12107000D01*
X10409286Y-12092714D01*
X10452143Y-12092714D01*
X10480714Y-12107000D01*
X10495000Y-12135571D01*
X10495000Y-12292714D01*
X10495000Y-12135571D02*
X10509286Y-12107000D01*
X10537857Y-12092714D01*
X10580714Y-12092714D01*
X10609286Y-12107000D01*
X10623571Y-12135571D01*
X10623571Y-12292714D01*
X11209286Y-11978429D02*
X10952143Y-12364143D01*
X11595000Y-11992714D02*
X11623571Y-11992714D01*
X11652143Y-12007000D01*
X11666428Y-12021286D01*
X11680714Y-12049857D01*
X11695000Y-12107000D01*
X11695000Y-12178429D01*
X11680714Y-12235571D01*
X11666428Y-12264143D01*
X11652143Y-12278429D01*
X11623571Y-12292714D01*
X11595000Y-12292714D01*
X11566428Y-12278429D01*
X11552143Y-12264143D01*
X11537857Y-12235571D01*
X11523571Y-12178429D01*
X11523571Y-12107000D01*
X11537857Y-12049857D01*
X11552143Y-12021286D01*
X11566428Y-12007000D01*
X11595000Y-11992714D01*
X11823571Y-12264143D02*
X11837857Y-12278429D01*
X11823571Y-12292714D01*
X11809286Y-12278429D01*
X11823571Y-12264143D01*
X11823571Y-12292714D01*
X12023571Y-11992714D02*
X12052143Y-11992714D01*
X12080714Y-12007000D01*
X12095000Y-12021286D01*
X12109285Y-12049857D01*
X12123571Y-12107000D01*
X12123571Y-12178429D01*
X12109285Y-12235571D01*
X12095000Y-12264143D01*
X12080714Y-12278429D01*
X12052143Y-12292714D01*
X12023571Y-12292714D01*
X11995000Y-12278429D01*
X11980714Y-12264143D01*
X11966428Y-12235571D01*
X11952143Y-12178429D01*
X11952143Y-12107000D01*
X11966428Y-12049857D01*
X11980714Y-12021286D01*
X11995000Y-12007000D01*
X12023571Y-11992714D01*
X12223571Y-11992714D02*
X12409285Y-11992714D01*
X12309285Y-12107000D01*
X12352143Y-12107000D01*
X12380714Y-12121286D01*
X12395000Y-12135571D01*
X12409285Y-12164143D01*
X12409285Y-12235571D01*
X12395000Y-12264143D01*
X12380714Y-12278429D01*
X12352143Y-12292714D01*
X12266428Y-12292714D01*
X12237857Y-12278429D01*
X12223571Y-12264143D01*
X12680714Y-11992714D02*
X12537857Y-11992714D01*
X12523571Y-12135571D01*
X12537857Y-12121286D01*
X12566428Y-12107000D01*
X12637857Y-12107000D01*
X12666428Y-12121286D01*
X12680714Y-12135571D01*
X12695000Y-12164143D01*
X12695000Y-12235571D01*
X12680714Y-12264143D01*
X12666428Y-12278429D01*
X12637857Y-12292714D01*
X12566428Y-12292714D01*
X12537857Y-12278429D01*
X12523571Y-12264143D01*
X12809286Y-11992714D02*
X12809286Y-12049857D01*
X12923571Y-11992714D02*
X12923571Y-12049857D01*
X13366428Y-12407000D02*
X13352143Y-12392714D01*
X13323571Y-12349857D01*
X13309285Y-12321286D01*
X13295000Y-12278429D01*
X13280714Y-12207000D01*
X13280714Y-12149857D01*
X13295000Y-12078429D01*
X13309285Y-12035571D01*
X13323571Y-12007000D01*
X13352143Y-11964143D01*
X13366428Y-11949857D01*
X13523571Y-12121286D02*
X13495000Y-12107000D01*
X13480714Y-12092714D01*
X13466428Y-12064143D01*
X13466428Y-12049857D01*
X13480714Y-12021286D01*
X13495000Y-12007000D01*
X13523571Y-11992714D01*
X13580714Y-11992714D01*
X13609285Y-12007000D01*
X13623571Y-12021286D01*
X13637857Y-12049857D01*
X13637857Y-12064143D01*
X13623571Y-12092714D01*
X13609285Y-12107000D01*
X13580714Y-12121286D01*
X13523571Y-12121286D01*
X13495000Y-12135571D01*
X13480714Y-12149857D01*
X13466428Y-12178429D01*
X13466428Y-12235571D01*
X13480714Y-12264143D01*
X13495000Y-12278429D01*
X13523571Y-12292714D01*
X13580714Y-12292714D01*
X13609285Y-12278429D01*
X13623571Y-12264143D01*
X13637857Y-12235571D01*
X13637857Y-12178429D01*
X13623571Y-12149857D01*
X13609285Y-12135571D01*
X13580714Y-12121286D01*
X13995000Y-12292714D02*
X13995000Y-11992714D01*
X14123571Y-12292714D02*
X14123571Y-12135571D01*
X14109285Y-12107000D01*
X14080714Y-12092714D01*
X14037857Y-12092714D01*
X14009285Y-12107000D01*
X13995000Y-12121286D01*
X14309285Y-12292714D02*
X14280714Y-12278429D01*
X14266428Y-12264143D01*
X14252143Y-12235571D01*
X14252143Y-12149857D01*
X14266428Y-12121286D01*
X14280714Y-12107000D01*
X14309285Y-12092714D01*
X14352143Y-12092714D01*
X14380714Y-12107000D01*
X14395000Y-12121286D01*
X14409285Y-12149857D01*
X14409285Y-12235571D01*
X14395000Y-12264143D01*
X14380714Y-12278429D01*
X14352143Y-12292714D01*
X14309285Y-12292714D01*
X14580714Y-12292714D02*
X14552143Y-12278429D01*
X14537857Y-12249857D01*
X14537857Y-11992714D01*
X14809286Y-12278429D02*
X14780714Y-12292714D01*
X14723571Y-12292714D01*
X14695000Y-12278429D01*
X14680714Y-12249857D01*
X14680714Y-12135571D01*
X14695000Y-12107000D01*
X14723571Y-12092714D01*
X14780714Y-12092714D01*
X14809286Y-12107000D01*
X14823571Y-12135571D01*
X14823571Y-12164143D01*
X14680714Y-12192714D01*
X14937857Y-12278429D02*
X14966428Y-12292714D01*
X15023571Y-12292714D01*
X15052143Y-12278429D01*
X15066428Y-12249857D01*
X15066428Y-12235571D01*
X15052143Y-12207000D01*
X15023571Y-12192714D01*
X14980714Y-12192714D01*
X14952143Y-12178429D01*
X14937857Y-12149857D01*
X14937857Y-12135571D01*
X14952143Y-12107000D01*
X14980714Y-12092714D01*
X15023571Y-12092714D01*
X15052143Y-12107000D01*
X15166428Y-12407000D02*
X15180714Y-12392714D01*
X15209286Y-12349857D01*
X15223571Y-12321286D01*
X15237857Y-12278429D01*
X15252143Y-12207000D01*
X15252143Y-12149857D01*
X15237857Y-12078429D01*
X15223571Y-12035571D01*
X15209286Y-12007000D01*
X15180714Y-11964143D01*
X15166428Y-11949857D01*
X8680356Y-12588356D02*
X8680356Y-12517644D01*
X8609644Y-12517644D01*
X8609644Y-12588356D01*
X8680356Y-12588356D01*
X9123571Y-12688714D02*
X8952143Y-12688714D01*
X9037857Y-12688714D02*
X9037857Y-12388714D01*
X9009286Y-12431571D01*
X8980714Y-12460143D01*
X8952143Y-12474429D01*
X9252143Y-12660143D02*
X9266429Y-12674429D01*
X9252143Y-12688714D01*
X9237857Y-12674429D01*
X9252143Y-12660143D01*
X9252143Y-12688714D01*
X9452143Y-12388714D02*
X9480714Y-12388714D01*
X9509286Y-12403000D01*
X9523571Y-12417286D01*
X9537857Y-12445857D01*
X9552143Y-12503000D01*
X9552143Y-12574429D01*
X9537857Y-12631571D01*
X9523571Y-12660143D01*
X9509286Y-12674429D01*
X9480714Y-12688714D01*
X9452143Y-12688714D01*
X9423571Y-12674429D01*
X9409286Y-12660143D01*
X9395000Y-12631571D01*
X9380714Y-12574429D01*
X9380714Y-12503000D01*
X9395000Y-12445857D01*
X9409286Y-12417286D01*
X9423571Y-12403000D01*
X9452143Y-12388714D01*
X9737857Y-12388714D02*
X9766429Y-12388714D01*
X9795000Y-12403000D01*
X9809286Y-12417286D01*
X9823571Y-12445857D01*
X9837857Y-12503000D01*
X9837857Y-12574429D01*
X9823571Y-12631571D01*
X9809286Y-12660143D01*
X9795000Y-12674429D01*
X9766429Y-12688714D01*
X9737857Y-12688714D01*
X9709286Y-12674429D01*
X9695000Y-12660143D01*
X9680714Y-12631571D01*
X9666429Y-12574429D01*
X9666429Y-12503000D01*
X9680714Y-12445857D01*
X9695000Y-12417286D01*
X9709286Y-12403000D01*
X9737857Y-12388714D01*
X9966429Y-12688714D02*
X9966429Y-12488714D01*
X9966429Y-12517286D02*
X9980714Y-12503000D01*
X10009286Y-12488714D01*
X10052143Y-12488714D01*
X10080714Y-12503000D01*
X10095000Y-12531571D01*
X10095000Y-12688714D01*
X10095000Y-12531571D02*
X10109286Y-12503000D01*
X10137857Y-12488714D01*
X10180714Y-12488714D01*
X10209286Y-12503000D01*
X10223571Y-12531571D01*
X10223571Y-12688714D01*
X10366429Y-12688714D02*
X10366429Y-12488714D01*
X10366429Y-12517286D02*
X10380714Y-12503000D01*
X10409286Y-12488714D01*
X10452143Y-12488714D01*
X10480714Y-12503000D01*
X10495000Y-12531571D01*
X10495000Y-12688714D01*
X10495000Y-12531571D02*
X10509286Y-12503000D01*
X10537857Y-12488714D01*
X10580714Y-12488714D01*
X10609286Y-12503000D01*
X10623571Y-12531571D01*
X10623571Y-12688714D01*
X11209286Y-12374429D02*
X10952143Y-12760143D01*
X11595000Y-12388714D02*
X11623571Y-12388714D01*
X11652143Y-12403000D01*
X11666428Y-12417286D01*
X11680714Y-12445857D01*
X11695000Y-12503000D01*
X11695000Y-12574429D01*
X11680714Y-12631571D01*
X11666428Y-12660143D01*
X11652143Y-12674429D01*
X11623571Y-12688714D01*
X11595000Y-12688714D01*
X11566428Y-12674429D01*
X11552143Y-12660143D01*
X11537857Y-12631571D01*
X11523571Y-12574429D01*
X11523571Y-12503000D01*
X11537857Y-12445857D01*
X11552143Y-12417286D01*
X11566428Y-12403000D01*
X11595000Y-12388714D01*
X11823571Y-12660143D02*
X11837857Y-12674429D01*
X11823571Y-12688714D01*
X11809286Y-12674429D01*
X11823571Y-12660143D01*
X11823571Y-12688714D01*
X12023571Y-12388714D02*
X12052143Y-12388714D01*
X12080714Y-12403000D01*
X12095000Y-12417286D01*
X12109285Y-12445857D01*
X12123571Y-12503000D01*
X12123571Y-12574429D01*
X12109285Y-12631571D01*
X12095000Y-12660143D01*
X12080714Y-12674429D01*
X12052143Y-12688714D01*
X12023571Y-12688714D01*
X11995000Y-12674429D01*
X11980714Y-12660143D01*
X11966428Y-12631571D01*
X11952143Y-12574429D01*
X11952143Y-12503000D01*
X11966428Y-12445857D01*
X11980714Y-12417286D01*
X11995000Y-12403000D01*
X12023571Y-12388714D01*
X12223571Y-12388714D02*
X12409285Y-12388714D01*
X12309285Y-12503000D01*
X12352143Y-12503000D01*
X12380714Y-12517286D01*
X12395000Y-12531571D01*
X12409285Y-12560143D01*
X12409285Y-12631571D01*
X12395000Y-12660143D01*
X12380714Y-12674429D01*
X12352143Y-12688714D01*
X12266428Y-12688714D01*
X12237857Y-12674429D01*
X12223571Y-12660143D01*
X12552143Y-12688714D02*
X12609285Y-12688714D01*
X12637857Y-12674429D01*
X12652143Y-12660143D01*
X12680714Y-12617286D01*
X12695000Y-12560143D01*
X12695000Y-12445857D01*
X12680714Y-12417286D01*
X12666428Y-12403000D01*
X12637857Y-12388714D01*
X12580714Y-12388714D01*
X12552143Y-12403000D01*
X12537857Y-12417286D01*
X12523571Y-12445857D01*
X12523571Y-12517286D01*
X12537857Y-12545857D01*
X12552143Y-12560143D01*
X12580714Y-12574429D01*
X12637857Y-12574429D01*
X12666428Y-12560143D01*
X12680714Y-12545857D01*
X12695000Y-12517286D01*
X12809286Y-12388714D02*
X12809286Y-12445857D01*
X12923571Y-12388714D02*
X12923571Y-12445857D01*
X13366428Y-12803000D02*
X13352143Y-12788714D01*
X13323571Y-12745857D01*
X13309285Y-12717286D01*
X13295000Y-12674429D01*
X13280714Y-12603000D01*
X13280714Y-12545857D01*
X13295000Y-12474429D01*
X13309285Y-12431571D01*
X13323571Y-12403000D01*
X13352143Y-12360143D01*
X13366428Y-12345857D01*
X13623571Y-12388714D02*
X13480714Y-12388714D01*
X13466428Y-12531571D01*
X13480714Y-12517286D01*
X13509285Y-12503000D01*
X13580714Y-12503000D01*
X13609285Y-12517286D01*
X13623571Y-12531571D01*
X13637857Y-12560143D01*
X13637857Y-12631571D01*
X13623571Y-12660143D01*
X13609285Y-12674429D01*
X13580714Y-12688714D01*
X13509285Y-12688714D01*
X13480714Y-12674429D01*
X13466428Y-12660143D01*
X13780714Y-12688714D02*
X13837857Y-12688714D01*
X13866428Y-12674429D01*
X13880714Y-12660143D01*
X13909285Y-12617286D01*
X13923571Y-12560143D01*
X13923571Y-12445857D01*
X13909285Y-12417286D01*
X13895000Y-12403000D01*
X13866428Y-12388714D01*
X13809285Y-12388714D01*
X13780714Y-12403000D01*
X13766428Y-12417286D01*
X13752143Y-12445857D01*
X13752143Y-12517286D01*
X13766428Y-12545857D01*
X13780714Y-12560143D01*
X13809285Y-12574429D01*
X13866428Y-12574429D01*
X13895000Y-12560143D01*
X13909285Y-12545857D01*
X13923571Y-12517286D01*
X14280714Y-12688714D02*
X14280714Y-12388714D01*
X14409285Y-12688714D02*
X14409285Y-12531571D01*
X14395000Y-12503000D01*
X14366428Y-12488714D01*
X14323571Y-12488714D01*
X14295000Y-12503000D01*
X14280714Y-12517286D01*
X14595000Y-12688714D02*
X14566428Y-12674429D01*
X14552143Y-12660143D01*
X14537857Y-12631571D01*
X14537857Y-12545857D01*
X14552143Y-12517286D01*
X14566428Y-12503000D01*
X14595000Y-12488714D01*
X14637857Y-12488714D01*
X14666428Y-12503000D01*
X14680714Y-12517286D01*
X14695000Y-12545857D01*
X14695000Y-12631571D01*
X14680714Y-12660143D01*
X14666428Y-12674429D01*
X14637857Y-12688714D01*
X14595000Y-12688714D01*
X14866428Y-12688714D02*
X14837857Y-12674429D01*
X14823571Y-12645857D01*
X14823571Y-12388714D01*
X15095000Y-12674429D02*
X15066428Y-12688714D01*
X15009286Y-12688714D01*
X14980714Y-12674429D01*
X14966428Y-12645857D01*
X14966428Y-12531571D01*
X14980714Y-12503000D01*
X15009286Y-12488714D01*
X15066428Y-12488714D01*
X15095000Y-12503000D01*
X15109286Y-12531571D01*
X15109286Y-12560143D01*
X14966428Y-12588714D01*
X15223571Y-12674429D02*
X15252143Y-12688714D01*
X15309286Y-12688714D01*
X15337857Y-12674429D01*
X15352143Y-12645857D01*
X15352143Y-12631571D01*
X15337857Y-12603000D01*
X15309286Y-12588714D01*
X15266428Y-12588714D01*
X15237857Y-12574429D01*
X15223571Y-12545857D01*
X15223571Y-12531571D01*
X15237857Y-12503000D01*
X15266428Y-12488714D01*
X15309286Y-12488714D01*
X15337857Y-12503000D01*
X15709286Y-12574429D02*
X15937857Y-12574429D01*
X15823571Y-12688714D02*
X15823571Y-12460143D01*
X16466428Y-12688714D02*
X16295000Y-12688714D01*
X16380714Y-12688714D02*
X16380714Y-12388714D01*
X16352143Y-12431571D01*
X16323571Y-12460143D01*
X16295000Y-12474429D01*
X16580714Y-12417286D02*
X16595000Y-12403000D01*
X16623571Y-12388714D01*
X16695000Y-12388714D01*
X16723571Y-12403000D01*
X16737857Y-12417286D01*
X16752143Y-12445857D01*
X16752143Y-12474429D01*
X16737857Y-12517286D01*
X16566428Y-12688714D01*
X16752143Y-12688714D01*
X17095000Y-12674429D02*
X17123571Y-12688714D01*
X17180714Y-12688714D01*
X17209286Y-12674429D01*
X17223571Y-12645857D01*
X17223571Y-12631571D01*
X17209286Y-12603000D01*
X17180714Y-12588714D01*
X17137857Y-12588714D01*
X17109286Y-12574429D01*
X17095000Y-12545857D01*
X17095000Y-12531571D01*
X17109286Y-12503000D01*
X17137857Y-12488714D01*
X17180714Y-12488714D01*
X17209286Y-12503000D01*
X17395000Y-12688714D02*
X17366428Y-12674429D01*
X17352143Y-12645857D01*
X17352143Y-12388714D01*
X17552143Y-12688714D02*
X17523571Y-12674429D01*
X17509286Y-12660143D01*
X17495000Y-12631571D01*
X17495000Y-12545857D01*
X17509286Y-12517286D01*
X17523571Y-12503000D01*
X17552143Y-12488714D01*
X17595000Y-12488714D01*
X17623571Y-12503000D01*
X17637857Y-12517286D01*
X17652143Y-12545857D01*
X17652143Y-12631571D01*
X17637857Y-12660143D01*
X17623571Y-12674429D01*
X17595000Y-12688714D01*
X17552143Y-12688714D01*
X17737857Y-12488714D02*
X17852143Y-12488714D01*
X17780714Y-12388714D02*
X17780714Y-12645857D01*
X17795000Y-12674429D01*
X17823571Y-12688714D01*
X17852143Y-12688714D01*
X17937857Y-12674429D02*
X17966429Y-12688714D01*
X18023571Y-12688714D01*
X18052143Y-12674429D01*
X18066429Y-12645857D01*
X18066429Y-12631571D01*
X18052143Y-12603000D01*
X18023571Y-12588714D01*
X17980714Y-12588714D01*
X17952143Y-12574429D01*
X17937857Y-12545857D01*
X17937857Y-12531571D01*
X17952143Y-12503000D01*
X17980714Y-12488714D01*
X18023571Y-12488714D01*
X18052143Y-12503000D01*
X18166428Y-12803000D02*
X18180714Y-12788714D01*
X18209286Y-12745857D01*
X18223571Y-12717286D01*
X18237857Y-12674429D01*
X18252143Y-12603000D01*
X18252143Y-12545857D01*
X18237857Y-12474429D01*
X18223571Y-12431571D01*
X18209286Y-12403000D01*
X18180714Y-12360143D01*
X18166428Y-12345857D01*
X8535000Y-13109000D02*
X8695000Y-12949000D01*
X8535000Y-12789000D01*
X8375000Y-12949000D01*
X8535000Y-13109000D01*
X8937857Y-12784714D02*
X9123571Y-12784714D01*
X9023571Y-12899000D01*
X9066429Y-12899000D01*
X9095000Y-12913286D01*
X9109286Y-12927571D01*
X9123571Y-12956143D01*
X9123571Y-13027571D01*
X9109286Y-13056143D01*
X9095000Y-13070429D01*
X9066429Y-13084714D01*
X8980714Y-13084714D01*
X8952143Y-13070429D01*
X8937857Y-13056143D01*
X9252143Y-13056143D02*
X9266429Y-13070429D01*
X9252143Y-13084714D01*
X9237857Y-13070429D01*
X9252143Y-13056143D01*
X9252143Y-13084714D01*
X9380714Y-12813286D02*
X9395000Y-12799000D01*
X9423571Y-12784714D01*
X9495000Y-12784714D01*
X9523571Y-12799000D01*
X9537857Y-12813286D01*
X9552143Y-12841857D01*
X9552143Y-12870429D01*
X9537857Y-12913286D01*
X9366428Y-13084714D01*
X9552143Y-13084714D01*
X9737857Y-12784714D02*
X9766429Y-12784714D01*
X9795000Y-12799000D01*
X9809286Y-12813286D01*
X9823571Y-12841857D01*
X9837857Y-12899000D01*
X9837857Y-12970429D01*
X9823571Y-13027571D01*
X9809286Y-13056143D01*
X9795000Y-13070429D01*
X9766429Y-13084714D01*
X9737857Y-13084714D01*
X9709286Y-13070429D01*
X9695000Y-13056143D01*
X9680714Y-13027571D01*
X9666429Y-12970429D01*
X9666429Y-12899000D01*
X9680714Y-12841857D01*
X9695000Y-12813286D01*
X9709286Y-12799000D01*
X9737857Y-12784714D01*
X9966429Y-13084714D02*
X9966429Y-12884714D01*
X9966429Y-12913286D02*
X9980714Y-12899000D01*
X10009286Y-12884714D01*
X10052143Y-12884714D01*
X10080714Y-12899000D01*
X10095000Y-12927571D01*
X10095000Y-13084714D01*
X10095000Y-12927571D02*
X10109286Y-12899000D01*
X10137857Y-12884714D01*
X10180714Y-12884714D01*
X10209286Y-12899000D01*
X10223571Y-12927571D01*
X10223571Y-13084714D01*
X10366429Y-13084714D02*
X10366429Y-12884714D01*
X10366429Y-12913286D02*
X10380714Y-12899000D01*
X10409286Y-12884714D01*
X10452143Y-12884714D01*
X10480714Y-12899000D01*
X10495000Y-12927571D01*
X10495000Y-13084714D01*
X10495000Y-12927571D02*
X10509286Y-12899000D01*
X10537857Y-12884714D01*
X10580714Y-12884714D01*
X10609286Y-12899000D01*
X10623571Y-12927571D01*
X10623571Y-13084714D01*
X11209286Y-12770429D02*
X10952143Y-13156143D01*
X11595000Y-12784714D02*
X11623571Y-12784714D01*
X11652143Y-12799000D01*
X11666428Y-12813286D01*
X11680714Y-12841857D01*
X11695000Y-12899000D01*
X11695000Y-12970429D01*
X11680714Y-13027571D01*
X11666428Y-13056143D01*
X11652143Y-13070429D01*
X11623571Y-13084714D01*
X11595000Y-13084714D01*
X11566428Y-13070429D01*
X11552143Y-13056143D01*
X11537857Y-13027571D01*
X11523571Y-12970429D01*
X11523571Y-12899000D01*
X11537857Y-12841857D01*
X11552143Y-12813286D01*
X11566428Y-12799000D01*
X11595000Y-12784714D01*
X11823571Y-13056143D02*
X11837857Y-13070429D01*
X11823571Y-13084714D01*
X11809286Y-13070429D01*
X11823571Y-13056143D01*
X11823571Y-13084714D01*
X12123571Y-13084714D02*
X11952143Y-13084714D01*
X12037857Y-13084714D02*
X12037857Y-12784714D01*
X12009285Y-12827571D01*
X11980714Y-12856143D01*
X11952143Y-12870429D01*
X12237857Y-12813286D02*
X12252143Y-12799000D01*
X12280714Y-12784714D01*
X12352143Y-12784714D01*
X12380714Y-12799000D01*
X12395000Y-12813286D01*
X12409285Y-12841857D01*
X12409285Y-12870429D01*
X12395000Y-12913286D01*
X12223571Y-13084714D01*
X12409285Y-13084714D01*
X12666428Y-12784714D02*
X12609285Y-12784714D01*
X12580714Y-12799000D01*
X12566428Y-12813286D01*
X12537857Y-12856143D01*
X12523571Y-12913286D01*
X12523571Y-13027571D01*
X12537857Y-13056143D01*
X12552143Y-13070429D01*
X12580714Y-13084714D01*
X12637857Y-13084714D01*
X12666428Y-13070429D01*
X12680714Y-13056143D01*
X12695000Y-13027571D01*
X12695000Y-12956143D01*
X12680714Y-12927571D01*
X12666428Y-12913286D01*
X12637857Y-12899000D01*
X12580714Y-12899000D01*
X12552143Y-12913286D01*
X12537857Y-12927571D01*
X12523571Y-12956143D01*
X12809286Y-12784714D02*
X12809286Y-12841857D01*
X12923571Y-12784714D02*
X12923571Y-12841857D01*
X13366428Y-13199000D02*
X13352143Y-13184714D01*
X13323571Y-13141857D01*
X13309285Y-13113286D01*
X13295000Y-13070429D01*
X13280714Y-12999000D01*
X13280714Y-12941857D01*
X13295000Y-12870429D01*
X13309285Y-12827571D01*
X13323571Y-12799000D01*
X13352143Y-12756143D01*
X13366428Y-12741857D01*
X13609285Y-12884714D02*
X13609285Y-13084714D01*
X13537857Y-12770429D02*
X13466428Y-12984714D01*
X13652143Y-12984714D01*
X13995000Y-13084714D02*
X13995000Y-12784714D01*
X14123571Y-13084714D02*
X14123571Y-12927571D01*
X14109285Y-12899000D01*
X14080714Y-12884714D01*
X14037857Y-12884714D01*
X14009285Y-12899000D01*
X13995000Y-12913286D01*
X14309285Y-13084714D02*
X14280714Y-13070429D01*
X14266428Y-13056143D01*
X14252143Y-13027571D01*
X14252143Y-12941857D01*
X14266428Y-12913286D01*
X14280714Y-12899000D01*
X14309285Y-12884714D01*
X14352143Y-12884714D01*
X14380714Y-12899000D01*
X14395000Y-12913286D01*
X14409285Y-12941857D01*
X14409285Y-13027571D01*
X14395000Y-13056143D01*
X14380714Y-13070429D01*
X14352143Y-13084714D01*
X14309285Y-13084714D01*
X14580714Y-13084714D02*
X14552143Y-13070429D01*
X14537857Y-13041857D01*
X14537857Y-12784714D01*
X14809286Y-13070429D02*
X14780714Y-13084714D01*
X14723571Y-13084714D01*
X14695000Y-13070429D01*
X14680714Y-13041857D01*
X14680714Y-12927571D01*
X14695000Y-12899000D01*
X14723571Y-12884714D01*
X14780714Y-12884714D01*
X14809286Y-12899000D01*
X14823571Y-12927571D01*
X14823571Y-12956143D01*
X14680714Y-12984714D01*
X14937857Y-13070429D02*
X14966428Y-13084714D01*
X15023571Y-13084714D01*
X15052143Y-13070429D01*
X15066428Y-13041857D01*
X15066428Y-13027571D01*
X15052143Y-12999000D01*
X15023571Y-12984714D01*
X14980714Y-12984714D01*
X14952143Y-12970429D01*
X14937857Y-12941857D01*
X14937857Y-12927571D01*
X14952143Y-12899000D01*
X14980714Y-12884714D01*
X15023571Y-12884714D01*
X15052143Y-12899000D01*
X15166428Y-13199000D02*
X15180714Y-13184714D01*
X15209286Y-13141857D01*
X15223571Y-13113286D01*
X15237857Y-13070429D01*
X15252143Y-12999000D01*
X15252143Y-12941857D01*
X15237857Y-12870429D01*
X15223571Y-12827571D01*
X15209286Y-12799000D01*
X15180714Y-12756143D01*
X15166428Y-12741857D01*
M02*
