G04 #@! TF.FileFunction,Soldermask,Bot*
%FSLAX46Y46*%
G04 Gerber Fmt 4.6, Leading zero omitted, Abs format (unit mm)*
G04 Created by KiCad (PCBNEW 4.0.2-stable) date 2017/01/23 23:07:35*
%MOMM*%
G01*
G04 APERTURE LIST*
%ADD10C,0.100000*%
%ADD11R,0.600000X0.500000*%
%ADD12R,0.500000X0.600000*%
%ADD13R,1.800000X1.800000*%
%ADD14C,1.800000*%
%ADD15C,4.500000*%
%ADD16R,1.700000X1.700000*%
%ADD17O,1.700000X1.700000*%
%ADD18R,0.800000X0.750000*%
%ADD19O,3.048000X1.727200*%
%ADD20O,3.600000X1.400000*%
G04 APERTURE END LIST*
D10*
D11*
X170000000Y-75800000D03*
X171100000Y-75800000D03*
X126000000Y-75800000D03*
X127100000Y-75800000D03*
X148000000Y-75500000D03*
X149100000Y-75500000D03*
X104000000Y-75700000D03*
X105100000Y-75700000D03*
D12*
X107600000Y-96700000D03*
X107600000Y-95600000D03*
X129600000Y-96900000D03*
X129600000Y-95800000D03*
X151600000Y-96600000D03*
X151600000Y-95500000D03*
X173400000Y-96600000D03*
X173400000Y-95500000D03*
D13*
X103000000Y-84000000D03*
D14*
X105540000Y-84000000D03*
D13*
X125000000Y-84000000D03*
D14*
X127540000Y-84000000D03*
D13*
X147000000Y-84000000D03*
D14*
X149540000Y-84000000D03*
D13*
X169000000Y-84000000D03*
D14*
X171540000Y-84000000D03*
D15*
X183000000Y-53000000D03*
X183000000Y-100000000D03*
D16*
X169220000Y-50270000D03*
D17*
X171760000Y-50270000D03*
X174300000Y-50270000D03*
D15*
X91000000Y-53000000D03*
X91000000Y-100000000D03*
D18*
X107600000Y-92400000D03*
X106100000Y-92400000D03*
X129600000Y-92400000D03*
X128100000Y-92400000D03*
X151600000Y-92400000D03*
X150100000Y-92400000D03*
X173400000Y-92400000D03*
X171900000Y-92400000D03*
X106100000Y-94000000D03*
X107600000Y-94000000D03*
X128100000Y-94000000D03*
X129600000Y-94000000D03*
X150100000Y-94000000D03*
X151600000Y-94000000D03*
X171900000Y-94000000D03*
X173400000Y-94000000D03*
X105600000Y-86400000D03*
X107100000Y-86400000D03*
X127600000Y-86400000D03*
X129100000Y-86400000D03*
X149600000Y-86400000D03*
X151100000Y-86400000D03*
X171600000Y-86400000D03*
X173100000Y-86400000D03*
D19*
X176350000Y-92460000D03*
X176350000Y-97540000D03*
X163650000Y-92460000D03*
X163650000Y-97540000D03*
X154350000Y-92460000D03*
X154350000Y-97540000D03*
X141650000Y-92460000D03*
X141650000Y-97540000D03*
X132350000Y-92460000D03*
X132350000Y-97540000D03*
X119650000Y-92460000D03*
X119650000Y-97540000D03*
X110350000Y-92460000D03*
X110350000Y-97540000D03*
X97650000Y-92460000D03*
X97650000Y-97540000D03*
D20*
X165000000Y-77500000D03*
X170000000Y-77500000D03*
X175000000Y-77500000D03*
X143000000Y-77500000D03*
X148000000Y-77500000D03*
X153000000Y-77500000D03*
X121000000Y-77500000D03*
X126000000Y-77500000D03*
X131000000Y-77500000D03*
X99000000Y-77500000D03*
X104000000Y-77500000D03*
X109000000Y-77500000D03*
D16*
X181920000Y-62970000D03*
D17*
X184460000Y-62970000D03*
X181920000Y-65510000D03*
X184460000Y-65510000D03*
X181920000Y-68050000D03*
X184460000Y-68050000D03*
X181920000Y-70590000D03*
X184460000Y-70590000D03*
X181920000Y-73130000D03*
X184460000Y-73130000D03*
X181920000Y-75670000D03*
X184460000Y-75670000D03*
X181920000Y-78210000D03*
X184460000Y-78210000D03*
X181920000Y-80750000D03*
X184460000Y-80750000D03*
X181920000Y-83290000D03*
X184460000Y-83290000D03*
X181920000Y-85830000D03*
X184460000Y-85830000D03*
X181920000Y-88370000D03*
X184460000Y-88370000D03*
X181920000Y-90910000D03*
X184460000Y-90910000D03*
X181920000Y-93450000D03*
X184460000Y-93450000D03*
X181920000Y-95990000D03*
X184460000Y-95990000D03*
D16*
X89540000Y-62970000D03*
D17*
X92080000Y-62970000D03*
X89540000Y-65510000D03*
X92080000Y-65510000D03*
X89540000Y-68050000D03*
X92080000Y-68050000D03*
X89540000Y-70590000D03*
X92080000Y-70590000D03*
X89540000Y-73130000D03*
X92080000Y-73130000D03*
X89540000Y-75670000D03*
X92080000Y-75670000D03*
X89540000Y-78210000D03*
X92080000Y-78210000D03*
X89540000Y-80750000D03*
X92080000Y-80750000D03*
X89540000Y-83290000D03*
X92080000Y-83290000D03*
X89540000Y-85830000D03*
X92080000Y-85830000D03*
X89540000Y-88370000D03*
X92080000Y-88370000D03*
X89540000Y-90910000D03*
X92080000Y-90910000D03*
X89540000Y-93450000D03*
X92080000Y-93450000D03*
X89540000Y-95990000D03*
X92080000Y-95990000D03*
M02*
