M48
;DRILL file {KiCad 4.0.2-stable} date 2017/01/23 23:07:54
;FORMAT={-:-/ absolute / metric / decimal}
FMAT,2
METRIC,TZ
T1C0.400
T2C0.813
T3C0.900
T4C1.000
T5C3.200
%
G90
G05
M71
T1
X88.Y-57.
X88.Y-62.
X88.Y-67.
X88.Y-72.
X88.Y-77.
X88.Y-82.
X88.Y-87.
X88.Y-92.
X88.Y-97.
X90.8Y-58.1
X93.9Y-56.8
X94.Y-50.
X95.Y-103.
X99.Y-50.
X100.Y-103.
X104.Y-50.
X105.Y-103.
X106.1Y-91.1
X109.Y-50.
X110.Y-103.
X114.Y-50.
X115.Y-103.
X120.Y-50.
X120.Y-103.
X125.Y-50.
X125.Y-103.
X128.1Y-90.7
X130.Y-50.
X130.Y-103.
X135.Y-50.
X135.Y-103.
X136.8Y-56.9
X136.9Y-72.4
X140.Y-50.
X140.Y-103.
X145.Y-50.
X145.Y-103.
X150.Y-50.
X150.Y-103.
X150.1Y-91.
X155.Y-50.
X155.Y-103.
X158.3Y-57.2
X158.3Y-72.4
X160.Y-50.
X160.Y-103.
X163.Y-51.
X165.Y-50.
X165.Y-103.
X170.Y-103.
X171.9Y-90.8
X175.Y-103.
X180.Y-50.
X180.Y-103.
X186.Y-56.
X186.Y-61.
X186.Y-66.
X186.Y-71.
X186.Y-76.
X186.Y-81.
X186.Y-86.
X186.Y-91.
X186.Y-96.
T2
X97.65Y-92.46
X97.65Y-97.54
X110.35Y-92.46
X110.35Y-97.54
X119.65Y-92.46
X119.65Y-97.54
X132.35Y-92.46
X132.35Y-97.54
X141.65Y-92.46
X141.65Y-97.54
X154.35Y-92.46
X154.35Y-97.54
X163.65Y-92.46
X163.65Y-97.54
X176.35Y-92.46
X176.35Y-97.54
T3
X103.Y-84.
X105.54Y-84.
X125.Y-84.
X127.54Y-84.
X147.Y-84.
X149.54Y-84.
X169.Y-84.
X171.54Y-84.
T4
X89.54Y-62.97
X89.54Y-65.51
X89.54Y-68.05
X89.54Y-70.59
X89.54Y-73.13
X89.54Y-75.67
X89.54Y-78.21
X89.54Y-80.75
X89.54Y-83.29
X89.54Y-85.83
X89.54Y-88.37
X89.54Y-90.91
X89.54Y-93.45
X89.54Y-95.99
X92.08Y-62.97
X92.08Y-65.51
X92.08Y-68.05
X92.08Y-70.59
X92.08Y-73.13
X92.08Y-75.67
X92.08Y-78.21
X92.08Y-80.75
X92.08Y-83.29
X92.08Y-85.83
X92.08Y-88.37
X92.08Y-90.91
X92.08Y-93.45
X92.08Y-95.99
X169.22Y-50.27
X171.76Y-50.27
X174.3Y-50.27
X181.92Y-62.97
X181.92Y-65.51
X181.92Y-68.05
X181.92Y-70.59
X181.92Y-73.13
X181.92Y-75.67
X181.92Y-78.21
X181.92Y-80.75
X181.92Y-83.29
X181.92Y-85.83
X181.92Y-88.37
X181.92Y-90.91
X181.92Y-93.45
X181.92Y-95.99
X184.46Y-62.97
X184.46Y-65.51
X184.46Y-68.05
X184.46Y-70.59
X184.46Y-73.13
X184.46Y-75.67
X184.46Y-78.21
X184.46Y-80.75
X184.46Y-83.29
X184.46Y-85.83
X184.46Y-88.37
X184.46Y-90.91
X184.46Y-93.45
X184.46Y-95.99
T5
X91.Y-53.
X91.Y-100.
X183.Y-53.
X183.Y-100.
T4
X97.9Y-77.5G85X100.1Y-77.5
G05
X102.9Y-77.5G85X105.1Y-77.5
G05
X107.9Y-77.5G85X110.1Y-77.5
G05
X119.9Y-77.5G85X122.1Y-77.5
G05
X124.9Y-77.5G85X127.1Y-77.5
G05
X129.9Y-77.5G85X132.1Y-77.5
G05
X141.9Y-77.5G85X144.1Y-77.5
G05
X146.9Y-77.5G85X149.1Y-77.5
G05
X151.9Y-77.5G85X154.1Y-77.5
G05
X163.9Y-77.5G85X166.1Y-77.5
G05
X168.9Y-77.5G85X171.1Y-77.5
G05
X173.9Y-77.5G85X176.1Y-77.5
G05
T0
M30
